<svg width="16" height="16" viewBox="0 0 16 16" fill="none" xmlns="http://www.w3.org/2000/svg">
<g clip-path="url(#clip0)">
<path d="M13.4047 13.5655C13.4048 13.7867 13.2655 14.0057 12.9947 14.21C12.7239 14.4144 12.3269 14.6001 11.8264 14.7565C11.3259 14.9129 10.7317 15.0369 10.0777 15.1216C9.4237 15.2062 8.72273 15.2498 8.01483 15.2498C7.30693 15.2498 6.60596 15.2062 5.95196 15.1216C5.29796 15.0369 4.70374 14.9129 4.20323 14.7565C3.70273 14.6001 3.30574 14.4144 3.03494 14.21C2.76415 14.0057 2.62485 13.7867 2.625 13.5655C2.62485 13.3444 2.76415 13.1254 3.03494 12.921C3.30574 12.7167 3.70273 12.531 4.20323 12.3746C4.70374 12.2182 5.29796 12.0941 5.95196 12.0095C6.60596 11.9248 7.30693 11.8812 8.01483 11.8812C8.72273 11.8812 9.4237 11.9248 10.0777 12.0095C10.7317 12.0941 11.3259 12.2182 11.8264 12.3746C12.3269 12.531 12.7239 12.7167 12.9947 12.921C13.2655 13.1254 13.4048 13.3444 13.4047 13.5655Z" fill="url(#paint0_radial)"/>
<circle cx="8" cy="8" r="7.5" fill="url(#paint1_linear)" stroke="#ABACAE"/>
<circle cx="8" cy="8" r="6.5" stroke="url(#paint2_linear)"/>
<path fill-rule="evenodd" clip-rule="evenodd" d="M8.0908 3.09129C8.89515 3.57416 9.43678 4.47626 9.43678 5.50857C9.43678 6.54088 8.89515 7.44298 8.0908 7.92585C7.28644 7.44298 6.74481 6.54088 6.74481 5.50857C6.74481 4.47626 7.28644 3.57416 8.0908 3.09129Z" fill="black" fill-opacity="0.13"/>
<path fill-rule="evenodd" clip-rule="evenodd" d="M4.4116 4.50677C5.32066 4.27752 6.33939 4.53112 7.06689 5.26107C7.79439 5.99102 8.04714 7.01318 7.81866 7.92531C6.9096 8.15455 5.89087 7.90095 5.16337 7.171C4.43587 6.44105 4.18312 5.41889 4.4116 4.50677Z" fill="black" fill-opacity="0.13"/>
<path fill-rule="evenodd" clip-rule="evenodd" d="M4.4114 11.7094C4.18292 10.7972 4.43568 9.77509 5.16318 9.04514C5.89068 8.31519 6.9094 8.06158 7.81847 8.29083C8.04694 9.20296 7.79419 10.2251 7.06669 10.9551C6.33919 11.685 5.32047 11.9386 4.4114 11.7094Z" fill="black" fill-opacity="0.15"/>
<path fill-rule="evenodd" clip-rule="evenodd" d="M4.4114 11.7094C4.18292 10.7972 4.43568 9.77509 5.16318 9.04514C5.89068 8.31519 6.9094 8.06158 7.81847 8.29083C8.04694 9.20296 7.79419 10.2251 7.06669 10.9551C6.33919 11.685 5.32047 11.9386 4.4114 11.7094Z" fill="black" fill-opacity="0.15"/>
<path d="M6.71373 10.6009C6.19402 11.1224 5.49832 11.3469 4.84112 11.2782C4.77268 10.6188 4.99642 9.92075 5.51614 9.39928C6.03585 8.87782 6.73155 8.65332 7.38874 8.722C7.45719 9.38141 7.23345 10.0795 6.71373 10.6009Z" stroke="black" stroke-opacity="0.07"/>
<path fill-rule="evenodd" clip-rule="evenodd" d="M8.00015 13.125C7.19579 12.6421 6.65416 11.74 6.65416 10.7077C6.65416 9.67541 7.19579 8.77331 8.00015 8.29044C8.80451 8.77331 9.34613 9.67541 9.34613 10.7077C9.34613 11.74 8.80451 12.6421 8.00015 13.125Z" fill="black" fill-opacity="0.13"/>
<path fill-rule="evenodd" clip-rule="evenodd" d="M11.5891 11.7095C10.6801 11.9388 9.66134 11.6852 8.93384 10.9552C8.20634 10.2253 7.95359 9.20313 8.18207 8.291C9.09113 8.06175 10.1099 8.31536 10.8374 9.04531C11.5649 9.77526 11.8176 10.7974 11.5891 11.7095Z" fill="black" fill-opacity="0.13"/>
<path fill-rule="evenodd" clip-rule="evenodd" d="M3 8.10899C3.48125 7.30192 4.38032 6.75846 5.40916 6.75846C6.438 6.75846 7.33707 7.30192 7.81831 8.10899C7.33707 8.91607 6.438 9.45952 5.40916 9.45952C4.38032 9.45952 3.48125 8.91607 3 8.10899Z" fill="black" fill-opacity="0.15"/>
<path fill-rule="evenodd" clip-rule="evenodd" d="M3 8.10899C3.48125 7.30192 4.38032 6.75846 5.40916 6.75846C6.438 6.75846 7.33707 7.30192 7.81831 8.10899C7.33707 8.91607 6.438 9.45952 5.40916 9.45952C4.38032 9.45952 3.48125 8.91607 3 8.10899Z" fill="black" fill-opacity="0.15"/>
<path d="M5.40916 8.95952C4.67456 8.95952 4.02429 8.6246 3.60794 8.10899C4.02429 7.59338 4.67456 7.25846 5.40916 7.25846C6.14375 7.25846 6.79403 7.59338 7.21037 8.10899C6.79403 8.6246 6.14375 8.95952 5.40916 8.95952Z" stroke="black" stroke-opacity="0.07"/>
<path fill-rule="evenodd" clip-rule="evenodd" d="M12.9097 8.10871C12.4285 8.91578 11.5294 9.45923 10.5006 9.45923C9.47173 9.45923 8.57266 8.91578 8.09141 8.10871C8.57266 7.30163 9.47173 6.75818 10.5006 6.75818C11.5294 6.75818 12.4285 7.30163 12.9097 8.10871Z" fill="black" fill-opacity="0.15"/>
<path d="M10.5006 7.25818C11.2352 7.25818 11.8854 7.5931 12.3018 8.10871C11.8854 8.62431 11.2352 8.95923 10.5006 8.95923C9.76598 8.95923 9.1157 8.62431 8.69936 8.10871C9.1157 7.5931 9.76598 7.25818 10.5006 7.25818Z" stroke="black" stroke-opacity="0.07"/>
<path fill-rule="evenodd" clip-rule="evenodd" d="M11.5893 4.50693C11.8178 5.41906 11.5651 6.44122 10.8376 7.17117C10.1101 7.90112 9.09133 8.15472 8.18227 7.92547C7.95379 7.01334 8.20654 5.99119 8.93404 5.26124C9.66154 4.53128 10.6803 4.27768 11.5893 4.50693Z" fill="black" fill-opacity="0.13"/>
<path fill-rule="evenodd" clip-rule="evenodd" d="M3.80214 3.58902C4.89302 3.31392 6.11549 3.61825 6.98849 4.49419C7.86149 5.37013 8.16479 6.59672 7.89062 7.69127C6.79975 7.96637 5.57727 7.66204 4.70427 6.7861C3.83127 5.91016 3.52797 4.68357 3.80214 3.58902Z" fill="black" fill-opacity="0.15"/>
<path fill-rule="evenodd" clip-rule="evenodd" d="M3.80214 3.58902C4.89302 3.31392 6.11549 3.61825 6.98849 4.49419C7.86149 5.37013 8.16479 6.59672 7.89062 7.69127C6.79975 7.96637 5.57727 7.66204 4.70427 6.7861C3.83127 5.91016 3.52797 4.68357 3.80214 3.58902Z" fill="black" fill-opacity="0.15"/>
<path d="M5.05723 6.43195C4.39096 5.76344 4.11562 4.86027 4.22796 4.01627C5.06913 3.90356 5.96926 4.17982 6.63553 4.84833C7.30181 5.51685 7.57714 6.42002 7.4648 7.26401C6.62364 7.37673 5.7235 7.10047 5.05723 6.43195Z" stroke="black" stroke-opacity="0.07"/>
<path fill-rule="evenodd" clip-rule="evenodd" d="M8.10889 2.10954C9.07413 2.68899 9.72407 3.77151 9.72407 5.01028C9.72407 6.24905 9.07413 7.33157 8.10889 7.91101C7.14366 7.33157 6.49371 6.24905 6.49371 5.01028C6.49371 3.77151 7.14366 2.68899 8.10889 2.10954Z" fill="black" fill-opacity="0.15"/>
<path fill-rule="evenodd" clip-rule="evenodd" d="M8.10889 2.10954C9.07413 2.68899 9.72407 3.77151 9.72407 5.01028C9.72407 6.24905 9.07413 7.33157 8.10889 7.91101C7.14366 7.33157 6.49371 6.24905 6.49371 5.01028C6.49371 3.77151 7.14366 2.68899 8.10889 2.10954Z" fill="black" fill-opacity="0.15"/>
<path d="M6.99371 5.01028C6.99371 4.06441 7.43547 3.23056 8.10889 2.7135C8.78232 3.23056 9.22407 4.06441 9.22407 5.01028C9.22407 5.95615 8.78232 6.78999 8.10889 7.30705C7.43547 6.78999 6.99371 5.95615 6.99371 5.01028Z" stroke="black" stroke-opacity="0.07"/>
<path d="M6.6347 4.90073C6.6347 3.80682 7.18034 2.84739 7.99989 2.29617C8.81943 2.84739 9.36507 3.80682 9.36507 4.90073C9.36507 5.99465 8.81943 6.95408 7.99989 7.5053C7.18034 6.95408 6.6347 5.99465 6.6347 4.90073Z" fill="url(#paint3_linear)" fill-opacity="0.9" stroke="#A62100" stroke-width="0.5"/>
<path d="M4.77162 6.71858C4.0009 5.94526 3.71053 4.87969 3.90187 3.90813C4.87016 3.71614 5.93216 4.00749 6.70288 4.78081C7.47361 5.55413 7.76398 6.6197 7.57264 7.59126C6.60434 7.78325 5.54235 7.4919 4.77162 6.71858Z" fill="url(#paint4_linear)" fill-opacity="0.8" stroke="#7A0000" stroke-width="0.5"/>
<path d="M4.89099 9.39017C3.8013 9.39017 2.84497 8.84273 2.29556 8.01954C2.84497 7.19635 3.8013 6.64891 4.89099 6.64891C5.98067 6.64891 6.93701 7.19635 7.48642 8.01954C6.93701 8.84273 5.98067 9.39017 4.89099 9.39017Z" fill="url(#paint5_linear)" fill-opacity="0.9" stroke="#910E38" stroke-width="0.5"/>
<path fill-rule="evenodd" clip-rule="evenodd" d="M3.69291 12.2321C3.41874 11.1376 3.72204 9.911 4.59504 9.03506C5.46804 8.15912 6.69052 7.85479 7.78139 8.12989C8.05557 9.22444 7.75226 10.451 6.87926 11.327C6.00626 12.2029 4.78379 12.5072 3.69291 12.2321Z" fill="black" fill-opacity="0.13"/>
<path d="M6.70278 11.2595C5.93206 12.0328 4.87006 12.3241 3.90177 12.1321C3.71043 11.1606 4.0008 10.095 4.77152 9.32169C5.54225 8.54837 6.60424 8.25702 7.57254 8.44901C7.76388 9.42056 7.47351 10.4861 6.70278 11.2595Z" fill="url(#paint6_linear)" fill-opacity="0.9" stroke="#452981" stroke-width="0.5"/>
<path fill-rule="evenodd" clip-rule="evenodd" d="M7.89092 14.0405C6.92569 13.461 6.27574 12.3785 6.27574 11.1397C6.27574 9.90098 6.92569 8.81846 7.89092 8.23901C8.85616 8.81846 9.5061 9.90098 9.5061 11.1397C9.5061 12.3785 8.85616 13.461 7.89092 14.0405Z" fill="black" fill-opacity="0.13"/>
<path d="M9.3653 11.1397C9.3653 12.2337 8.81966 13.1931 8.00012 13.7443C7.18057 13.1931 6.63494 12.2337 6.63494 11.1397C6.63494 10.0458 7.18057 9.0864 8.00012 8.53518C8.81966 9.0864 9.3653 10.0458 9.3653 11.1397Z" fill="url(#paint7_linear)" fill-opacity="0.9" stroke="#002E99" stroke-width="0.5"/>
<path fill-rule="evenodd" clip-rule="evenodd" d="M12.1978 12.4514C11.1069 12.7265 9.88445 12.4222 9.01144 11.5463C8.13844 10.6703 7.83514 9.44374 8.10931 8.34919C9.20019 8.07409 10.4227 8.37841 11.2957 9.25436C12.1687 10.1303 12.472 11.3569 12.1978 12.4514Z" fill="black" fill-opacity="0.13"/>
<path fill-rule="evenodd" clip-rule="evenodd" d="M12.3071 3.80831C12.5813 4.90286 12.278 6.12945 11.405 7.0054C10.532 7.88134 9.30948 8.18566 8.21861 7.91056C7.94444 6.81601 8.24774 5.58942 9.12074 4.71348C9.99374 3.83754 11.2162 3.53321 12.3071 3.80831Z" fill="black" fill-opacity="0.13"/>
<path d="M11.2284 9.32189C11.9991 10.0952 12.2895 11.1608 12.0981 12.1323C11.1298 12.3243 10.0678 12.033 9.29712 11.2597C8.52639 10.4863 8.23602 9.42076 8.42736 8.4492C9.39566 8.25722 10.4577 8.54857 11.2284 9.32189Z" fill="url(#paint8_linear)" fill-opacity="0.9" stroke="#007367" stroke-width="0.5"/>
<path fill-rule="evenodd" clip-rule="evenodd" d="M12.3071 3.80831C12.5813 4.90286 12.278 6.12945 11.405 7.0054C10.532 7.88134 9.30948 8.18566 8.21861 7.91056C7.94444 6.81601 8.24774 5.58942 9.12074 4.71348C9.99374 3.83754 11.2162 3.53321 12.3071 3.80831Z" fill="black" fill-opacity="0.13"/>
<path d="M9.4737 5.06763C10.14 4.39911 11.0401 4.12285 11.8813 4.23557C11.9936 5.07956 11.7183 5.98273 11.052 6.65125C10.3857 7.31976 9.48559 7.59603 8.64443 7.48331C8.53209 6.63931 8.80742 5.73614 9.4737 5.06763Z" stroke="black" stroke-opacity="0.07"/>
<path d="M11.109 6.6503C12.1987 6.6503 13.155 7.19774 13.7044 8.02093C13.155 8.84413 12.1987 9.39157 11.109 9.39157C10.0193 9.39157 9.06299 8.84413 8.51358 8.02093C9.06299 7.19774 10.0193 6.6503 11.109 6.6503Z" fill="url(#paint9_linear)" fill-opacity="0.9" stroke="#206B00" stroke-width="0.5"/>
<path d="M9.29728 4.781C10.068 4.00768 11.13 3.71633 12.0983 3.90832C12.2896 4.87988 11.9993 5.94545 11.2285 6.71877C10.4578 7.49209 9.39582 7.78344 8.42752 7.59145C8.23618 6.61989 8.52656 5.55432 9.29728 4.781Z" fill="url(#paint10_linear)" fill-opacity="0.9" stroke="#AD5F00" stroke-width="0.5"/>
<path opacity="0.15" fill-rule="evenodd" clip-rule="evenodd" d="M13.4648 9.39498C13.4428 9.3953 13.4249 9.40505 13.4102 9.41451L9.48047 11.9184L8.75391 12.3794L8.73438 12.3872L7.875 14.3208L10 14.3833L10.0156 14.3715L10.7461 13.9106L14.5195 11.4887L14.4961 10.6762C14.4291 10.5451 14.35 10.4029 14.2578 10.2583C13.9951 9.84598 13.7162 9.52041 13.543 9.41842C13.5141 9.40142 13.4869 9.39466 13.4648 9.39498V9.39498Z" fill="#0C0C0C"/>
<path d="M9.03119 11.781C9.17982 11.6694 9.59687 11.8786 9.98012 12.26C10.3625 12.6404 10.5639 13.0475 10.4549 13.1976C10.4545 13.1981 10.4643 13.2059 10.4639 13.2065L15.8004 7.84382C15.9359 7.70767 15.7253 7.27741 15.3299 6.88396C14.9345 6.49051 14.5032 6.28213 14.3677 6.41829L9.03119 11.781Z" fill="url(#paint11_linear)"/>
<path opacity="0.6" d="M9.03119 11.7809C9.17982 11.6694 9.59687 11.8786 9.98012 12.26C10.3625 12.6404 10.5639 13.0475 10.4549 13.1976C10.4545 13.1981 10.4643 13.2059 10.4639 13.2065L14.1389 9.51339L14.1522 9.50004C14.1526 9.49947 14.1429 9.4917 14.1433 9.49113C14.2523 9.34103 14.0508 8.93396 13.6685 8.55353C13.2852 8.17218 12.8682 7.96296 12.7196 8.0745L12.7063 8.08786L9.03119 11.7809H9.03119L9.03119 11.7809Z" fill="#F9C440"/>
<path d="M9.03119 11.781C9.17982 11.6694 9.59687 11.8786 9.98012 12.26C10.3625 12.6404 10.5639 13.0475 10.4549 13.1976C10.4545 13.1981 10.4643 13.2059 10.4639 13.2065L15.8004 7.84382C15.9359 7.70767 15.7253 7.27741 15.3299 6.88396C14.9345 6.49051 14.5032 6.28213 14.3677 6.41829L9.03119 11.781V11.781Z" stroke="#AD5F00" stroke-width="0.5" stroke-linejoin="round"/>
<path d="M14.4729 6.3769C14.4289 6.37926 14.3931 6.39263 14.3677 6.41816L12.7197 8.07441C12.8685 7.96316 13.2854 8.17222 13.6685 8.55342C14.0508 8.93385 14.2523 9.34107 14.1433 9.49116C14.1429 9.49173 14.1527 9.49939 14.1523 9.49995L15.8003 7.8437C15.9358 7.70755 15.7252 7.27743 15.3298 6.88398C15.0086 6.56431 14.6636 6.3667 14.4729 6.3769Z" fill="url(#paint12_linear)" stroke="#555761" stroke-width="0.5" stroke-linejoin="round"/>
<path opacity="0.9" d="M13.7164 7.07275C13.8651 6.96121 14.2821 7.17044 14.6654 7.55178C15.0477 7.93221 15.2492 8.33929 15.1401 8.48938C15.1398 8.48994 15.1495 8.49772 15.1491 8.49829L15.8004 7.84381L15.8137 7.83046C15.814 7.82989 15.8043 7.82212 15.8047 7.82155C15.9137 7.67146 15.7123 7.26438 15.3299 6.88395C14.9467 6.50261 14.5296 6.29338 14.381 6.40492L14.3677 6.41828L13.7164 7.07275H13.7164Z" fill="#FE9AB8" stroke="#DE3E80" stroke-width="0.5" stroke-linejoin="round"/>
<path d="M12.9865 7.80634C13.1351 7.69481 13.5521 7.90403 13.9354 8.28537C14.3177 8.6658 14.5192 9.07288 14.4102 9.22297C14.4098 9.22353 14.4195 9.23132 14.4191 9.23188L14.4856 9.1651C14.4859 9.16454 14.4762 9.15676 14.4766 9.15619C14.5856 9.0061 14.3842 8.59902 14.0018 8.21859C13.6186 7.83725 13.2015 7.62803 13.0529 7.73956L12.9865 7.80634V7.80634V7.80634Z" fill="url(#paint13_linear)"/>
<path d="M12.9255 7.86753C13.0742 7.756 13.4912 7.96522 13.8745 8.34656C14.2568 8.72699 14.4583 9.13407 14.3492 9.28416C14.3489 9.28472 14.3586 9.29251 14.3582 9.29307L14.4247 9.22629C14.425 9.22572 14.4153 9.21795 14.4157 9.21738C14.5247 9.06729 14.3233 8.66021 13.9409 8.27978C13.5577 7.89844 13.1406 7.68921 12.992 7.80075L12.9255 7.86753V7.86753H12.9255Z" fill="url(#paint14_linear)"/>
<path d="M13.1981 7.59366C13.3467 7.48212 13.7637 7.69135 14.147 8.07269C14.5293 8.45312 14.7308 8.8602 14.6218 9.01029C14.6214 9.01085 14.6311 9.01863 14.6307 9.0192L14.6972 8.95241C14.6976 8.95185 14.6878 8.94407 14.6882 8.9435C14.7972 8.79341 14.5958 8.38633 14.2135 8.0059C13.8302 7.62456 13.4132 7.41534 13.2645 7.52688L13.1981 7.59366H13.1981Z" fill="url(#paint15_linear)"/>
<path d="M13.1371 7.65486C13.2858 7.54332 13.7028 7.75254 14.0861 8.13388C14.4684 8.51431 14.6699 8.92139 14.5609 9.07148C14.5605 9.07204 14.5702 9.07983 14.5698 9.08039L14.6363 9.01361C14.6366 9.01305 14.6269 9.00527 14.6273 9.0047C14.7363 8.85461 14.5349 8.44753 14.1525 8.0671C13.7693 7.68576 13.3522 7.47654 13.2036 7.58807L13.1371 7.65486L13.1371 7.65486Z" fill="url(#paint16_linear)"/>
<path d="M13.4107 7.37995C13.5593 7.26842 13.9764 7.47764 14.3596 7.85898C14.742 8.23941 14.9434 8.64649 14.8344 8.79658C14.834 8.79714 14.8438 8.80493 14.8434 8.80549L14.9098 8.73871C14.9102 8.73814 14.9004 8.73037 14.9009 8.7298C15.0099 8.57971 14.8084 8.17263 14.4261 7.7922C14.0428 7.41086 13.6258 7.20163 13.4772 7.31317L13.4107 7.37995Z" fill="url(#paint17_linear)"/>
<path d="M13.3498 7.44117C13.4984 7.32964 13.9155 7.53886 14.2987 7.9202C14.6811 8.30063 14.8825 8.70771 14.7735 8.8578C14.7731 8.85836 14.7829 8.86614 14.7825 8.86671L14.8489 8.79993C14.8493 8.79936 14.8395 8.79159 14.84 8.79102C14.949 8.64092 14.7475 8.23385 14.3652 7.85342C13.9819 7.47207 13.5649 7.26285 13.4163 7.37439L13.3498 7.44117H13.3498Z" fill="url(#paint18_linear)"/>
<path fill-rule="evenodd" clip-rule="evenodd" d="M8.00854 14.2082L10.4364 13.2179L10.4571 13.1973C10.5661 13.0472 10.362 12.6401 9.97966 12.2596C9.59641 11.8783 9.17985 11.6702 9.03122 11.7818L8.00855 14.2082H8.00854Z" fill="url(#paint19_linear)" stroke="url(#paint20_linear)" stroke-width="0.5"/>
<path fill-rule="evenodd" clip-rule="evenodd" d="M8.28553 13.551L8.00836 14.2056L8.67055 13.9341C8.61748 13.8705 8.56848 13.8059 8.50476 13.7425C8.4314 13.6695 8.35924 13.6103 8.28553 13.551Z" fill="#333333" stroke="#1A1A1A" stroke-width="0.5"/>
</g>
<defs>
<radialGradient id="paint0_radial" cx="0" cy="0" r="1" gradientUnits="userSpaceOnUse" gradientTransform="translate(8.01483 13.5655) scale(5.38983 1.68391)">
<stop stop-color="#3D3D3D"/>
<stop offset="0.5" stop-color="#686868" stop-opacity="0.498039"/>
<stop offset="1" stop-color="#686868" stop-opacity="0"/>
</radialGradient>
<linearGradient id="paint1_linear" x1="8.06542" y1="15" x2="8.06542" y2="1" gradientUnits="userSpaceOnUse">
<stop stop-color="#E9E9E9"/>
<stop offset="1" stop-color="#FAFAFA"/>
</linearGradient>
<linearGradient id="paint2_linear" x1="8.06542" y1="15" x2="8.06542" y2="1" gradientUnits="userSpaceOnUse">
<stop stop-color="#D2D2D2"/>
<stop offset="1" stop-color="white"/>
</linearGradient>
<linearGradient id="paint3_linear" x1="8.00006" y1="2" x2="8.00006" y2="10.025" gradientUnits="userSpaceOnUse">
<stop stop-color="#FFC27D"/>
<stop offset="0.307292" stop-color="#FFA154"/>
<stop offset="0.708333" stop-color="#F37329"/>
<stop offset="1" stop-color="#F37329"/>
</linearGradient>
<linearGradient id="paint4_linear" x1="7.02494" y1="4.85" x2="3.73556" y2="8.01105" gradientUnits="userSpaceOnUse">
<stop stop-color="#FF8C82"/>
<stop offset="0.338542" stop-color="#ED5353"/>
<stop offset="0.697917" stop-color="#C6262E"/>
<stop offset="1" stop-color="#A10705"/>
</linearGradient>
<linearGradient id="paint5_linear" x1="5.9" y1="6.725" x2="4.025" y2="10.475" gradientUnits="userSpaceOnUse">
<stop stop-color="#FE9AB8"/>
<stop offset="0.328125" stop-color="#F4679D"/>
<stop offset="0.692708" stop-color="#DE3E80"/>
<stop offset="1" stop-color="#BC245D"/>
</linearGradient>
<linearGradient id="paint6_linear" x1="7.02505" y1="8.15001" x2="3.7842" y2="12.8641" gradientUnits="userSpaceOnUse">
<stop stop-color="#E4C6FA"/>
<stop offset="0.338542" stop-color="#CD9EF7"/>
<stop offset="0.723958" stop-color="#A56DE2"/>
<stop offset="1" stop-color="#7239B3"/>
</linearGradient>
<linearGradient id="paint7_linear" x1="8.0001" y1="8.33712" x2="8.0001" y2="14.0404" gradientUnits="userSpaceOnUse">
<stop stop-color="#8CD5FF"/>
<stop offset="0.328125" stop-color="#64BAFF"/>
<stop offset="0.682292" stop-color="#3689E6"/>
<stop offset="1" stop-color="#0D52BF"/>
</linearGradient>
<linearGradient id="paint8_linear" x1="8.82506" y1="8.225" x2="10.7142" y2="12.4186" gradientUnits="userSpaceOnUse">
<stop stop-color="#89FFDD"/>
<stop offset="0.348958" stop-color="#43D6B5"/>
<stop offset="0.703125" stop-color="#28BCA3"/>
<stop offset="1" stop-color="#0E9A83"/>
</linearGradient>
<linearGradient id="paint9_linear" x1="9.8" y1="6.95001" x2="11.2997" y2="9.87518" gradientUnits="userSpaceOnUse">
<stop stop-color="#D1FF82"/>
<stop offset="0.328125" stop-color="#9BDB4D"/>
<stop offset="0.708333" stop-color="#68B723"/>
<stop offset="1" stop-color="#3A9104" stop-opacity="0.9"/>
</linearGradient>
<linearGradient id="paint10_linear" x1="9.50001" y1="4.32498" x2="12.1159" y2="7.03378" gradientUnits="userSpaceOnUse">
<stop offset="0.0625" stop-color="#FFF394"/>
<stop offset="0.364583" stop-color="#FFE16B"/>
<stop offset="0.692708" stop-color="#F9C440"/>
<stop offset="1" stop-color="#D48E15"/>
</linearGradient>
<linearGradient id="paint11_linear" x1="11.7503" y1="9.05176" x2="13.1834" y2="10.478" gradientUnits="userSpaceOnUse">
<stop stop-color="#AD5F00"/>
<stop offset="0.134829" stop-color="#FFE16B"/>
<stop offset="0.202244" stop-color="#F9C440"/>
<stop offset="0.269659" stop-color="#FFF394"/>
<stop offset="0.446503" stop-color="#F9C440"/>
<stop offset="0.571141" stop-color="#F9C440"/>
<stop offset="0.720381" stop-color="#FFE16B"/>
<stop offset="1" stop-color="#AD5F00"/>
</linearGradient>
<linearGradient id="paint12_linear" x1="11.7503" y1="9.05174" x2="13.1835" y2="10.4779" gradientUnits="userSpaceOnUse">
<stop stop-color="#555761"/>
<stop offset="0.134829" stop-color="#D4D4D4"/>
<stop offset="0.202244" stop-color="#ABACAE"/>
<stop offset="0.269659" stop-color="#FAFAFA"/>
<stop offset="0.446503" stop-color="#ABACAE"/>
<stop offset="0.571141" stop-color="#ABACAE"/>
<stop offset="0.720381" stop-color="#D4D4D4"/>
<stop offset="1" stop-color="#555761"/>
</linearGradient>
<linearGradient id="paint13_linear" x1="13.1287" y1="7.63949" x2="14.5644" y2="9.0681" gradientUnits="userSpaceOnUse">
<stop stop-color="#555761"/>
<stop offset="0.5" stop-color="#ABACAE"/>
<stop offset="1" stop-color="#555761"/>
</linearGradient>
<linearGradient id="paint14_linear" x1="13.0678" y1="7.70067" x2="14.5034" y2="9.12929" gradientUnits="userSpaceOnUse">
<stop stop-color="#ABACAE"/>
<stop offset="0.5" stop-color="#FAFAFA"/>
<stop offset="1" stop-color="#ABACAE"/>
</linearGradient>
<linearGradient id="paint15_linear" x1="13.3403" y1="7.4268" x2="14.776" y2="8.85541" gradientUnits="userSpaceOnUse">
<stop stop-color="#555761"/>
<stop offset="0.5" stop-color="#ABACAE"/>
<stop offset="1" stop-color="#555761"/>
</linearGradient>
<linearGradient id="paint16_linear" x1="13.2794" y1="7.488" x2="14.7151" y2="8.91661" gradientUnits="userSpaceOnUse">
<stop stop-color="#ABACAE"/>
<stop offset="0.5" stop-color="#FAFAFA"/>
<stop offset="1" stop-color="#ABACAE"/>
</linearGradient>
<linearGradient id="paint17_linear" x1="13.553" y1="7.21309" x2="14.9886" y2="8.64171" gradientUnits="userSpaceOnUse">
<stop stop-color="#555761"/>
<stop offset="0.5" stop-color="#ABACAE"/>
<stop offset="1" stop-color="#555761"/>
</linearGradient>
<linearGradient id="paint18_linear" x1="13.4921" y1="7.27431" x2="14.9277" y2="8.70293" gradientUnits="userSpaceOnUse">
<stop stop-color="#ABACAE"/>
<stop offset="0.5" stop-color="#FAFAFA"/>
<stop offset="1" stop-color="#ABACAE"/>
</linearGradient>
<linearGradient id="paint19_linear" x1="9.73939" y1="13.3761" x2="8.87209" y2="12.513" gradientUnits="userSpaceOnUse">
<stop stop-color="#FFF394"/>
<stop offset="1" stop-color="#FAFAFA"/>
</linearGradient>
<linearGradient id="paint20_linear" x1="8.56698" y1="12.8226" x2="9.34602" y2="13.6061" gradientUnits="userSpaceOnUse">
<stop stop-color="#D48E15"/>
<stop offset="1" stop-color="#AD5F00"/>
</linearGradient>
<clipPath id="clip0">
<rect width="16" height="16" fill="white"/>
</clipPath>
</defs>
</svg>
