<svg width="16" height="16" viewBox="0 0 16 16" fill="none" xmlns="http://www.w3.org/2000/svg">
<g clip-path="url(#clip0)">
<path d="M13.4047 13.5655C13.4048 13.7867 13.2655 14.0057 12.9947 14.21C12.7239 14.4144 12.3269 14.6001 11.8264 14.7565C11.3259 14.9129 10.7317 15.0369 10.0777 15.1216C9.4237 15.2062 8.72273 15.2498 8.01483 15.2498C7.30693 15.2498 6.60596 15.2062 5.95196 15.1216C5.29796 15.0369 4.70374 14.9129 4.20323 14.7565C3.70273 14.6001 3.30574 14.4144 3.03494 14.21C2.76415 14.0057 2.62485 13.7867 2.625 13.5655C2.62485 13.3444 2.76415 13.1254 3.03494 12.921C3.30574 12.7167 3.70273 12.531 4.20323 12.3746C4.70374 12.2182 5.29796 12.0941 5.95196 12.0095C6.60596 11.9248 7.30693 11.8812 8.01483 11.8812C8.72273 11.8812 9.4237 11.9248 10.0777 12.0095C10.7317 12.0941 11.3259 12.2182 11.8264 12.3746C12.3269 12.531 12.7239 12.7167 12.9947 12.921C13.2655 13.1254 13.4048 13.3444 13.4047 13.5655Z" fill="url(#paint0_radial)"/>
<circle cx="7.9375" cy="8.0625" r="7.1875" fill="url(#paint1_linear)" stroke="#ABACAE"/>
<circle cx="7.9375" cy="8.0625" r="6.1875" stroke="url(#paint2_linear)"/>
<path fill-rule="evenodd" clip-rule="evenodd" d="M8.09086 3.09129C8.89522 3.57416 9.43684 4.47626 9.43684 5.50857C9.43684 6.54088 8.89522 7.44298 8.09086 7.92585C7.2865 7.44298 6.74487 6.54088 6.74487 5.50857C6.74487 4.47626 7.2865 3.57416 8.09086 3.09129Z" fill="black" fill-opacity="0.13"/>
<path fill-rule="evenodd" clip-rule="evenodd" d="M4.4116 4.50677C5.32066 4.27752 6.33939 4.53112 7.06689 5.26107C7.79439 5.99102 8.04714 7.01318 7.81866 7.92531C6.9096 8.15455 5.89087 7.90095 5.16337 7.171C4.43587 6.44105 4.18312 5.41889 4.4116 4.50677Z" fill="black" fill-opacity="0.13"/>
<path fill-rule="evenodd" clip-rule="evenodd" d="M4.4114 11.7094C4.18292 10.7972 4.43568 9.77509 5.16318 9.04514C5.89068 8.31519 6.9094 8.06158 7.81847 8.29083C8.04694 9.20296 7.79419 10.2251 7.06669 10.9551C6.33919 11.685 5.32047 11.9386 4.4114 11.7094Z" fill="black" fill-opacity="0.15"/>
<path fill-rule="evenodd" clip-rule="evenodd" d="M4.4114 11.7094C4.18292 10.7972 4.43568 9.77509 5.16318 9.04514C5.89068 8.31519 6.9094 8.06158 7.81847 8.29083C8.04694 9.20296 7.79419 10.2251 7.06669 10.9551C6.33919 11.685 5.32047 11.9386 4.4114 11.7094Z" fill="black" fill-opacity="0.15"/>
<path d="M6.71373 10.6009C6.19402 11.1224 5.49832 11.3469 4.84112 11.2782C4.77268 10.6188 4.99642 9.92075 5.51614 9.39928C6.03585 8.87782 6.73155 8.65332 7.38874 8.722C7.45719 9.38141 7.23345 10.0795 6.71373 10.6009Z" stroke="black" stroke-opacity="0.07"/>
<path fill-rule="evenodd" clip-rule="evenodd" d="M8.00021 13.125C7.19585 12.6421 6.65423 11.74 6.65423 10.7077C6.65423 9.67541 7.19585 8.77331 8.00021 8.29044C8.80457 8.77331 9.34619 9.67541 9.34619 10.7077C9.34619 11.74 8.80457 12.6421 8.00021 13.125Z" fill="black" fill-opacity="0.13"/>
<path fill-rule="evenodd" clip-rule="evenodd" d="M11.5891 11.7095C10.6801 11.9388 9.66134 11.6852 8.93384 10.9552C8.20634 10.2253 7.95359 9.20313 8.18207 8.291C9.09113 8.06175 10.1099 8.31536 10.8374 9.04531C11.5649 9.77526 11.8176 10.7974 11.5891 11.7095Z" fill="black" fill-opacity="0.13"/>
<path fill-rule="evenodd" clip-rule="evenodd" d="M3 8.10899C3.48125 7.30192 4.38032 6.75846 5.40916 6.75846C6.438 6.75846 7.33707 7.30192 7.81831 8.10899C7.33707 8.91607 6.438 9.45952 5.40916 9.45952C4.38032 9.45952 3.48125 8.91607 3 8.10899Z" fill="black" fill-opacity="0.15"/>
<path fill-rule="evenodd" clip-rule="evenodd" d="M3 8.10899C3.48125 7.30192 4.38032 6.75846 5.40916 6.75846C6.438 6.75846 7.33707 7.30192 7.81831 8.10899C7.33707 8.91607 6.438 9.45952 5.40916 9.45952C4.38032 9.45952 3.48125 8.91607 3 8.10899Z" fill="black" fill-opacity="0.15"/>
<path d="M5.40916 8.95952C4.67456 8.95952 4.02429 8.6246 3.60794 8.10899C4.02429 7.59338 4.67456 7.25846 5.40916 7.25846C6.14375 7.25846 6.79403 7.59338 7.21037 8.10899C6.79403 8.6246 6.14375 8.95952 5.40916 8.95952Z" stroke="black" stroke-opacity="0.07"/>
<path fill-rule="evenodd" clip-rule="evenodd" d="M12.9098 8.10871C12.4285 8.91578 11.5295 9.45923 10.5006 9.45923C9.47179 9.45923 8.57272 8.91578 8.09148 8.10871C8.57272 7.30163 9.47179 6.75818 10.5006 6.75818C11.5295 6.75818 12.4285 7.30163 12.9098 8.10871Z" fill="black" fill-opacity="0.15"/>
<path d="M10.5006 7.25818C11.2352 7.25818 11.8855 7.5931 12.3018 8.10871C11.8855 8.62431 11.2352 8.95923 10.5006 8.95923C9.76604 8.95923 9.11576 8.62431 8.69942 8.10871C9.11576 7.5931 9.76604 7.25818 10.5006 7.25818Z" stroke="black" stroke-opacity="0.07"/>
<path fill-rule="evenodd" clip-rule="evenodd" d="M11.5893 4.50693C11.8178 5.41905 11.5651 6.44121 10.8376 7.17116C10.1101 7.90111 9.09133 8.15472 8.18227 7.92547C7.95379 7.01334 8.20654 5.99118 8.93404 5.26123C9.66154 4.53128 10.6803 4.27768 11.5893 4.50693Z" fill="black" fill-opacity="0.13"/>
<path fill-rule="evenodd" clip-rule="evenodd" d="M4.50181 4.32418C5.41087 4.09494 6.4296 4.34854 7.1571 5.07849C7.8846 5.80844 8.13735 6.8306 7.90887 7.74272C6.99981 7.97197 5.98108 7.71837 5.25358 6.98842C4.52608 6.25847 4.27333 5.23631 4.50181 4.32418Z" fill="black" fill-opacity="0.15"/>
<path fill-rule="evenodd" clip-rule="evenodd" d="M4.50181 4.32418C5.41087 4.09494 6.4296 4.34854 7.1571 5.07849C7.8846 5.80844 8.13735 6.8306 7.90887 7.74272C6.99981 7.97197 5.98108 7.71837 5.25358 6.98842C4.52608 6.25847 4.27333 5.23631 4.50181 4.32418Z" fill="black" fill-opacity="0.15"/>
<path d="M5.60654 6.63427C5.08682 6.1128 4.86308 5.41476 4.93153 4.75535C5.58872 4.68668 6.28442 4.91117 6.80414 5.43264C7.32386 5.9541 7.54759 6.65215 7.47915 7.31155C6.82196 7.38023 6.12626 7.15574 5.60654 6.63427Z" stroke="black" stroke-opacity="0.07"/>
<path fill-rule="evenodd" clip-rule="evenodd" d="M8.09073 3.09129C8.89509 3.57416 9.43672 4.47626 9.43672 5.50857C9.43672 6.54088 8.89509 7.44298 8.09073 7.92585C7.28637 7.44298 6.74475 6.54088 6.74475 5.50857C6.74475 4.47626 7.28637 3.57416 8.09073 3.09129Z" fill="black" fill-opacity="0.15"/>
<path fill-rule="evenodd" clip-rule="evenodd" d="M8.09073 3.09129C8.89509 3.57416 9.43672 4.47626 9.43672 5.50857C9.43672 6.54088 8.89509 7.44298 8.09073 7.92585C7.28637 7.44298 6.74475 6.54088 6.74475 5.50857C6.74475 4.47626 7.28637 3.57416 8.09073 3.09129Z" fill="black" fill-opacity="0.15"/>
<path d="M7.24475 5.50857C7.24475 4.77071 7.57841 4.11852 8.09073 3.70085C8.60306 4.11852 8.93672 4.77071 8.93672 5.50857C8.93672 6.24643 8.60306 6.89862 8.09074 7.31629C7.57841 6.89862 7.24475 6.24643 7.24475 5.50857Z" stroke="black" stroke-opacity="0.07"/>
<path d="M6.90381 5.41728C6.90381 4.53011 7.34116 3.75132 7.99979 3.29722C8.65843 3.75132 9.09578 4.53011 9.09578 5.41728C9.09578 6.30445 8.65843 7.08323 7.99979 7.53734C7.34116 7.08323 6.90381 6.30445 6.90381 5.41728Z" fill="url(#paint3_linear)" fill-opacity="0.9" stroke="#A62100" stroke-width="0.5"/>
<path d="M5.33912 6.90263C4.71409 6.2755 4.47445 5.41448 4.62045 4.62576C5.40652 4.47928 6.26465 4.71972 6.88968 5.34685C7.5147 5.97398 7.75434 6.835 7.60835 7.62372C6.82227 7.77021 5.96415 7.52977 5.33912 6.90263Z" fill="url(#paint4_linear)" fill-opacity="0.8" stroke="#7A0000" stroke-width="0.5"/>
<path d="M5.40916 9.11681C4.52551 9.11681 3.74921 8.67801 3.29658 8.01629C3.74921 7.35456 4.52551 6.91576 5.40916 6.91576C6.29281 6.91576 7.06911 7.35456 7.52173 8.01629C7.06911 8.67801 6.29281 9.11681 5.40916 9.11681Z" fill="url(#paint5_linear)" fill-opacity="0.9" stroke="#910E38" stroke-width="0.5"/>
<path fill-rule="evenodd" clip-rule="evenodd" d="M4.41067 11.5268C4.18219 10.6147 4.43494 9.5925 5.16244 8.86255C5.88995 8.1326 6.90867 7.879 7.81774 8.10824C8.04621 9.02037 7.79346 10.0425 7.06596 10.7725C6.33846 11.5024 5.31973 11.756 4.41067 11.5268Z" fill="black" fill-opacity="0.13"/>
<path d="M6.88948 10.6867C6.26445 11.3138 5.40633 11.5543 4.62025 11.4078C4.47426 10.6191 4.7139 9.75805 5.33892 9.13092C5.96395 8.50378 6.82208 8.26334 7.60815 8.40983C7.75414 9.19855 7.51451 10.0596 6.88948 10.6867Z" fill="url(#paint6_linear)" fill-opacity="0.9" stroke="#452981" stroke-width="0.5"/>
<path fill-rule="evenodd" clip-rule="evenodd" d="M7.90914 13.0337C7.10478 12.5509 6.56316 11.6488 6.56316 10.6165C6.56316 9.58415 7.10478 8.68205 7.90914 8.19918C8.7135 8.68205 9.25513 9.58415 9.25513 10.6165C9.25513 11.6488 8.7135 12.5509 7.90914 13.0337Z" fill="black" fill-opacity="0.13"/>
<path d="M9.09619 10.6165C9.09619 11.5036 8.65884 12.2824 8.00021 12.7365C7.34157 12.2824 6.90423 11.5036 6.90423 10.6165C6.90423 9.72929 7.34157 8.9505 8.00021 8.4964C8.65884 8.9505 9.09619 9.72929 9.09619 10.6165Z" fill="url(#paint7_linear)" fill-opacity="0.9" stroke="#002E99" stroke-width="0.5"/>
<path fill-rule="evenodd" clip-rule="evenodd" d="M11.4982 11.7095C10.5891 11.9388 9.5704 11.6852 8.8429 10.9552C8.1154 10.2253 7.86265 9.20311 8.09113 8.29099C9.00019 8.06174 10.0189 8.31534 10.7464 9.04529C11.4739 9.77524 11.7267 10.7974 11.4982 11.7095Z" fill="black" fill-opacity="0.13"/>
<path fill-rule="evenodd" clip-rule="evenodd" d="M11.5893 4.50692C11.8178 5.41905 11.5651 6.44121 10.8376 7.17116C10.1101 7.90111 9.09133 8.15471 8.18227 7.92546C7.95379 7.01334 8.20654 5.99118 8.93404 5.26123C9.66154 4.53128 10.6803 4.27767 11.5893 4.50692Z" fill="black" fill-opacity="0.13"/>
<path d="M10.6609 9.13109C11.2859 9.75822 11.5255 10.6192 11.3795 11.408C10.5935 11.5544 9.73535 11.314 9.11032 10.6869C8.48529 10.0597 8.24566 9.19872 8.39165 8.41C9.17772 8.26351 10.0359 8.50395 10.6609 9.13109Z" fill="url(#paint8_linear)" fill-opacity="0.9" stroke="#007367" stroke-width="0.5"/>
<path fill-rule="evenodd" clip-rule="evenodd" d="M11.5893 4.50692C11.8178 5.41905 11.5651 6.44121 10.8376 7.17116C10.1101 7.90111 9.09133 8.15471 8.18227 7.92546C7.95379 7.01334 8.20654 5.99118 8.93404 5.26123C9.66154 4.53128 10.6803 4.27767 11.5893 4.50692Z" fill="black" fill-opacity="0.13"/>
<path d="M9.287 5.61537C9.80672 5.09391 10.5024 4.86942 11.1596 4.93809C11.2281 5.5975 11.0043 6.29554 10.4846 6.81701C9.96488 7.33848 9.26918 7.56297 8.61199 7.49429C8.54354 6.83489 8.76728 6.13684 9.287 5.61537Z" stroke="black" stroke-opacity="0.07"/>
<path d="M10.5908 6.91692C11.4745 6.91692 12.2508 7.35572 12.7034 8.01744C12.2508 8.67917 11.4745 9.11797 10.5908 9.11797C9.70719 9.11797 8.93089 8.67917 8.47827 8.01744C8.93089 7.35572 9.70719 6.91692 10.5908 6.91692Z" fill="url(#paint9_linear)" fill-opacity="0.9" stroke="#206B00" stroke-width="0.5"/>
<path d="M9.11052 5.34701C9.73555 4.71988 10.5937 4.47944 11.3797 4.62592C11.5257 5.41464 11.2861 6.27566 10.6611 6.90279C10.036 7.52993 9.17792 7.77037 8.39185 7.62388C8.24586 6.83516 8.48549 5.97414 9.11052 5.34701Z" fill="url(#paint10_linear)" fill-opacity="0.9" stroke="#AD5F00" stroke-width="0.5"/>
<path opacity="0.15" fill-rule="evenodd" clip-rule="evenodd" d="M13.4648 9.39498C13.4428 9.3953 13.4249 9.40505 13.4102 9.41451L9.48047 11.9184L8.75391 12.3794L8.73438 12.3872L7.875 14.3208L10 14.3833L10.0156 14.3715L10.7461 13.9106L14.5195 11.4887L14.4961 10.6762C14.4291 10.5451 14.35 10.4029 14.2578 10.2583C13.9951 9.84598 13.7162 9.52041 13.543 9.41842C13.5141 9.40142 13.4869 9.39466 13.4648 9.39498V9.39498Z" fill="#0C0C0C"/>
<path d="M9.03125 11.781C9.17989 11.6694 9.59693 11.8786 9.98018 12.26C10.3625 12.6404 10.564 13.0475 10.455 13.1976C10.4546 13.1982 10.4643 13.2059 10.4639 13.2065L15.8004 7.84383C15.9359 7.70767 15.7254 7.27741 15.33 6.88396C14.9346 6.49051 14.5032 6.28214 14.3678 6.41829L9.03125 11.781Z" fill="url(#paint11_linear)"/>
<path opacity="0.6" d="M9.03125 11.7809C9.17989 11.6694 9.59693 11.8786 9.98018 12.26C10.3625 12.6404 10.564 13.0475 10.455 13.1976C10.4546 13.1981 10.4643 13.2059 10.4639 13.2065L14.139 9.51339L14.1523 9.50004C14.1527 9.49947 14.1429 9.4917 14.1433 9.49113C14.2523 9.34103 14.0509 8.93396 13.6686 8.55353C13.2853 8.17218 12.8683 7.96296 12.7196 8.0745L12.7063 8.08786L9.03125 11.7809H9.03125L9.03125 11.7809Z" fill="#F9C440"/>
<path d="M9.03125 11.781C9.17989 11.6694 9.59693 11.8786 9.98018 12.26C10.3625 12.6404 10.564 13.0475 10.455 13.1976C10.4546 13.1981 10.4643 13.2059 10.4639 13.2065L15.8004 7.84383C15.9359 7.70767 15.7254 7.27741 15.33 6.88396C14.9346 6.49051 14.5032 6.28214 14.3678 6.41829L9.03125 11.781V11.781Z" stroke="#AD5F00" stroke-width="0.5" stroke-linejoin="round"/>
<path d="M14.4729 6.3769C14.4289 6.37926 14.3931 6.39263 14.3677 6.41816L12.7197 8.07441C12.8685 7.96316 13.2854 8.17222 13.6685 8.55342C14.0508 8.93385 14.2523 9.34107 14.1433 9.49116C14.1429 9.49173 14.1527 9.49939 14.1523 9.49995L15.8003 7.8437C15.9358 7.70755 15.7252 7.27743 15.3298 6.88398C15.0086 6.56431 14.6636 6.3667 14.4729 6.3769Z" fill="url(#paint12_linear)" stroke="#555761" stroke-width="0.5" stroke-linejoin="round"/>
<path opacity="0.9" d="M13.7164 7.07275C13.8651 6.96121 14.2821 7.17044 14.6654 7.55178C15.0477 7.93221 15.2492 8.33929 15.1401 8.48938C15.1398 8.48994 15.1495 8.49772 15.1491 8.49829L15.8004 7.84381L15.8137 7.83046C15.814 7.82989 15.8043 7.82212 15.8047 7.82155C15.9137 7.67146 15.7123 7.26438 15.3299 6.88395C14.9467 6.50261 14.5296 6.29338 14.381 6.40492L14.3677 6.41828L13.7164 7.07275H13.7164Z" fill="#FE9AB8" stroke="#DE3E80" stroke-width="0.5" stroke-linejoin="round"/>
<path d="M12.9865 7.80634C13.1351 7.69481 13.5521 7.90403 13.9354 8.28537C14.3177 8.6658 14.5192 9.07288 14.4102 9.22297C14.4098 9.22353 14.4195 9.23132 14.4191 9.23188L14.4856 9.1651C14.4859 9.16454 14.4762 9.15676 14.4766 9.15619C14.5856 9.0061 14.3842 8.59902 14.0018 8.21859C13.6186 7.83725 13.2015 7.62803 13.0529 7.73956L12.9865 7.80634V7.80634V7.80634Z" fill="url(#paint13_linear)"/>
<path d="M12.9255 7.86753C13.0742 7.756 13.4912 7.96522 13.8745 8.34656C14.2568 8.72699 14.4583 9.13407 14.3492 9.28416C14.3489 9.28472 14.3586 9.29251 14.3582 9.29307L14.4247 9.22629C14.425 9.22572 14.4153 9.21795 14.4157 9.21738C14.5247 9.06729 14.3233 8.66021 13.9409 8.27978C13.5577 7.89844 13.1406 7.68921 12.992 7.80075L12.9255 7.86753V7.86753H12.9255Z" fill="url(#paint14_linear)"/>
<path d="M13.1981 7.59366C13.3468 7.48213 13.7638 7.69135 14.1471 8.07269C14.5294 8.45312 14.7308 8.8602 14.6218 9.01029C14.6215 9.01085 14.6312 9.01864 14.6308 9.0192L14.6972 8.95242C14.6976 8.95186 14.6879 8.94408 14.6883 8.94351C14.7973 8.79342 14.5958 8.38634 14.2135 8.00591C13.8303 7.62457 13.4132 7.41534 13.2646 7.52688L13.1981 7.59366H13.1981Z" fill="url(#paint15_linear)"/>
<path d="M13.1372 7.65486C13.2858 7.54332 13.7029 7.75254 14.0861 8.13388C14.4685 8.51431 14.6699 8.92139 14.5609 9.07148C14.5605 9.07204 14.5703 9.07983 14.5699 9.08039L14.6363 9.01361C14.6367 9.01305 14.627 9.00527 14.6274 9.0047C14.7364 8.85461 14.5349 8.44753 14.1526 8.0671C13.7694 7.68576 13.3523 7.47654 13.2037 7.58807L13.1372 7.65486L13.1372 7.65486Z" fill="url(#paint16_linear)"/>
<path d="M13.4108 7.37995C13.5594 7.26842 13.9764 7.47764 14.3597 7.85898C14.742 8.23941 14.9435 8.64649 14.8345 8.79658C14.8341 8.79714 14.8439 8.80493 14.8434 8.80549L14.9099 8.73871C14.9103 8.73814 14.9005 8.73037 14.9009 8.7298C15.0099 8.57971 14.8085 8.17263 14.4262 7.7922C14.0429 7.41086 13.6259 7.20163 13.4772 7.31317L13.4108 7.37995Z" fill="url(#paint17_linear)"/>
<path d="M13.3499 7.44117C13.4985 7.32964 13.9155 7.53886 14.2988 7.9202C14.6811 8.30063 14.8826 8.70771 14.7736 8.8578C14.7732 8.85836 14.7829 8.86614 14.7825 8.86671L14.849 8.79993C14.8493 8.79936 14.8396 8.79159 14.84 8.79102C14.949 8.64092 14.7476 8.23385 14.3652 7.85342C13.982 7.47207 13.5649 7.26285 13.4163 7.37439L13.3499 7.44117H13.3499Z" fill="url(#paint18_linear)"/>
<path fill-rule="evenodd" clip-rule="evenodd" d="M8.00854 14.2082L10.4364 13.2179L10.4571 13.1973C10.5661 13.0472 10.362 12.6401 9.97966 12.2596C9.59641 11.8783 9.17985 11.6702 9.03122 11.7818L8.00855 14.2082H8.00854Z" fill="url(#paint19_linear)" stroke="url(#paint20_linear)" stroke-width="0.5"/>
<path fill-rule="evenodd" clip-rule="evenodd" d="M8.28559 13.551L8.00842 14.2056L8.67062 13.9341C8.61754 13.8705 8.56855 13.8059 8.50482 13.7425C8.43146 13.6695 8.3593 13.6103 8.28559 13.551Z" fill="#333333" stroke="#1A1A1A" stroke-width="0.5"/>
</g>
<defs>
<radialGradient id="paint0_radial" cx="0" cy="0" r="1" gradientUnits="userSpaceOnUse" gradientTransform="translate(8.01483 13.5655) scale(5.38983 1.68391)">
<stop stop-color="#3D3D3D"/>
<stop offset="0.5" stop-color="#686868" stop-opacity="0.498039"/>
<stop offset="1" stop-color="#686868" stop-opacity="0"/>
</radialGradient>
<linearGradient id="paint1_linear" x1="8" y1="14.75" x2="8" y2="1.375" gradientUnits="userSpaceOnUse">
<stop stop-color="#E9E9E9"/>
<stop offset="1" stop-color="#FAFAFA"/>
</linearGradient>
<linearGradient id="paint2_linear" x1="8" y1="14.75" x2="8" y2="1.375" gradientUnits="userSpaceOnUse">
<stop stop-color="#D2D2D2"/>
<stop offset="1" stop-color="white"/>
</linearGradient>
<linearGradient id="paint3_linear" x1="7.99994" y1="3" x2="7.99994" y2="9.6875" gradientUnits="userSpaceOnUse">
<stop stop-color="#FFC27D"/>
<stop offset="0.307292" stop-color="#FFA154"/>
<stop offset="0.708333" stop-color="#F37329"/>
<stop offset="1" stop-color="#F37329"/>
</linearGradient>
<linearGradient id="paint4_linear" x1="7.18747" y1="5.375" x2="4.44632" y2="8.00921" gradientUnits="userSpaceOnUse">
<stop stop-color="#FF8C82"/>
<stop offset="0.338542" stop-color="#ED5353"/>
<stop offset="0.697917" stop-color="#C6262E"/>
<stop offset="1" stop-color="#A10705"/>
</linearGradient>
<linearGradient id="paint5_linear" x1="6.25" y1="6.9375" x2="4.6875" y2="10.0625" gradientUnits="userSpaceOnUse">
<stop stop-color="#FE9AB8"/>
<stop offset="0.328125" stop-color="#F4679D"/>
<stop offset="0.692708" stop-color="#DE3E80"/>
<stop offset="1" stop-color="#BC245D"/>
</linearGradient>
<linearGradient id="paint6_linear" x1="7.18745" y1="8.12501" x2="4.48674" y2="12.0534" gradientUnits="userSpaceOnUse">
<stop stop-color="#E4C6FA"/>
<stop offset="0.338542" stop-color="#CD9EF7"/>
<stop offset="0.723958" stop-color="#A56DE2"/>
<stop offset="1" stop-color="#7239B3"/>
</linearGradient>
<linearGradient id="paint7_linear" x1="8.00019" y1="8.28093" x2="8.00019" y2="13.0337" gradientUnits="userSpaceOnUse">
<stop stop-color="#8CD5FF"/>
<stop offset="0.328125" stop-color="#64BAFF"/>
<stop offset="0.682292" stop-color="#3689E6"/>
<stop offset="1" stop-color="#0D52BF"/>
</linearGradient>
<linearGradient id="paint8_linear" x1="8.68753" y1="8.1875" x2="10.2618" y2="11.6822" gradientUnits="userSpaceOnUse">
<stop stop-color="#89FFDD"/>
<stop offset="0.348958" stop-color="#43D6B5"/>
<stop offset="0.703125" stop-color="#28BCA3"/>
<stop offset="1" stop-color="#0E9A83"/>
</linearGradient>
<linearGradient id="paint9_linear" x1="9.5" y1="7.12501" x2="10.7497" y2="9.56265" gradientUnits="userSpaceOnUse">
<stop stop-color="#D1FF82"/>
<stop offset="0.328125" stop-color="#9BDB4D"/>
<stop offset="0.708333" stop-color="#68B723"/>
<stop offset="1" stop-color="#3A9104" stop-opacity="0.9"/>
</linearGradient>
<linearGradient id="paint10_linear" x1="9.25005" y1="4.93748" x2="11.43" y2="7.19481" gradientUnits="userSpaceOnUse">
<stop offset="0.0625" stop-color="#FFF394"/>
<stop offset="0.364583" stop-color="#FFE16B"/>
<stop offset="0.692708" stop-color="#F9C440"/>
<stop offset="1" stop-color="#D48E15"/>
</linearGradient>
<linearGradient id="paint11_linear" x1="11.7503" y1="9.05176" x2="13.1835" y2="10.478" gradientUnits="userSpaceOnUse">
<stop stop-color="#AD5F00"/>
<stop offset="0.134829" stop-color="#FFE16B"/>
<stop offset="0.202244" stop-color="#F9C440"/>
<stop offset="0.269659" stop-color="#FFF394"/>
<stop offset="0.446503" stop-color="#F9C440"/>
<stop offset="0.571141" stop-color="#F9C440"/>
<stop offset="0.720381" stop-color="#FFE16B"/>
<stop offset="1" stop-color="#AD5F00"/>
</linearGradient>
<linearGradient id="paint12_linear" x1="11.7503" y1="9.05174" x2="13.1835" y2="10.4779" gradientUnits="userSpaceOnUse">
<stop stop-color="#555761"/>
<stop offset="0.134829" stop-color="#D4D4D4"/>
<stop offset="0.202244" stop-color="#ABACAE"/>
<stop offset="0.269659" stop-color="#FAFAFA"/>
<stop offset="0.446503" stop-color="#ABACAE"/>
<stop offset="0.571141" stop-color="#ABACAE"/>
<stop offset="0.720381" stop-color="#D4D4D4"/>
<stop offset="1" stop-color="#555761"/>
</linearGradient>
<linearGradient id="paint13_linear" x1="13.1287" y1="7.63949" x2="14.5644" y2="9.0681" gradientUnits="userSpaceOnUse">
<stop stop-color="#555761"/>
<stop offset="0.5" stop-color="#ABACAE"/>
<stop offset="1" stop-color="#555761"/>
</linearGradient>
<linearGradient id="paint14_linear" x1="13.0678" y1="7.70067" x2="14.5034" y2="9.12929" gradientUnits="userSpaceOnUse">
<stop stop-color="#ABACAE"/>
<stop offset="0.5" stop-color="#FAFAFA"/>
<stop offset="1" stop-color="#ABACAE"/>
</linearGradient>
<linearGradient id="paint15_linear" x1="13.3404" y1="7.4268" x2="14.776" y2="8.85542" gradientUnits="userSpaceOnUse">
<stop stop-color="#555761"/>
<stop offset="0.5" stop-color="#ABACAE"/>
<stop offset="1" stop-color="#555761"/>
</linearGradient>
<linearGradient id="paint16_linear" x1="13.2795" y1="7.488" x2="14.7151" y2="8.91661" gradientUnits="userSpaceOnUse">
<stop stop-color="#ABACAE"/>
<stop offset="0.5" stop-color="#FAFAFA"/>
<stop offset="1" stop-color="#ABACAE"/>
</linearGradient>
<linearGradient id="paint17_linear" x1="13.5531" y1="7.21309" x2="14.9887" y2="8.64171" gradientUnits="userSpaceOnUse">
<stop stop-color="#555761"/>
<stop offset="0.5" stop-color="#ABACAE"/>
<stop offset="1" stop-color="#555761"/>
</linearGradient>
<linearGradient id="paint18_linear" x1="13.4921" y1="7.27431" x2="14.9278" y2="8.70293" gradientUnits="userSpaceOnUse">
<stop stop-color="#ABACAE"/>
<stop offset="0.5" stop-color="#FAFAFA"/>
<stop offset="1" stop-color="#ABACAE"/>
</linearGradient>
<linearGradient id="paint19_linear" x1="9.73939" y1="13.3761" x2="8.87209" y2="12.513" gradientUnits="userSpaceOnUse">
<stop stop-color="#FFF394"/>
<stop offset="1" stop-color="#FAFAFA"/>
</linearGradient>
<linearGradient id="paint20_linear" x1="8.56698" y1="12.8226" x2="9.34602" y2="13.6061" gradientUnits="userSpaceOnUse">
<stop stop-color="#D48E15"/>
<stop offset="1" stop-color="#AD5F00"/>
</linearGradient>
<clipPath id="clip0">
<rect width="16" height="16" fill="white"/>
</clipPath>
</defs>
</svg>
