<svg width="32" height="32" viewBox="0 0 32 32" fill="none" xmlns="http://www.w3.org/2000/svg">
<path d="M26.8093 27.131C26.8096 27.5734 26.531 28.0114 25.9894 28.4201C25.4478 28.8288 24.6539 29.2001 23.6529 29.5129C22.6518 29.8257 21.4634 30.0739 20.1554 30.2432C18.8474 30.4125 17.4455 30.4996 16.0297 30.4996C14.6139 30.4996 13.2119 30.4125 11.9039 30.2432C10.5959 30.0739 9.40748 29.8257 8.40647 29.5129C7.40545 29.2001 6.61148 28.8288 6.06989 28.4201C5.52829 28.0114 5.2497 27.5734 5.25 27.131C5.2497 26.6887 5.52829 26.2507 6.06989 25.842C6.61148 25.4333 7.40545 25.062 8.40647 24.7492C9.40748 24.4364 10.5959 24.1882 11.9039 24.0189C13.2119 23.8496 14.6139 23.7625 16.0297 23.7625C17.4455 23.7625 18.8474 23.8496 20.1554 24.0189C21.4634 24.1882 22.6518 24.4364 23.6529 24.7492C24.6539 25.062 25.4478 25.4333 25.9894 25.842C26.531 26.2507 26.8096 26.6887 26.8093 27.131Z" fill="url(#paint0_radial)"/>
<circle cx="15.875" cy="16.125" r="13.875" fill="url(#paint1_linear)" stroke="#ABACAE"/>
<circle cx="15.875" cy="16.125" r="12.875" stroke="url(#paint2_linear)"/>
<path fill-rule="evenodd" clip-rule="evenodd" d="M16.1817 6.18257C17.7904 7.14831 18.8737 8.95251 18.8737 11.0171C18.8737 13.0817 17.7904 14.8859 16.1817 15.8517C14.573 14.8859 13.4897 13.0817 13.4897 11.0171C13.4897 8.95251 14.573 7.14831 16.1817 6.18257Z" fill="black" fill-opacity="0.13"/>
<path fill-rule="evenodd" clip-rule="evenodd" d="M8.82319 9.01352C10.6413 8.55503 12.6788 9.06223 14.1338 10.5221C15.5888 11.982 16.0943 14.0264 15.6373 15.8506C13.8192 16.3091 11.7817 15.8019 10.3267 14.342C8.87174 12.8821 8.36624 10.8378 8.82319 9.01352Z" fill="black" fill-opacity="0.13"/>
<path fill-rule="evenodd" clip-rule="evenodd" d="M8.8228 23.4187C8.36585 21.5945 8.87135 19.5501 10.3264 18.0902C11.7814 16.6303 13.8188 16.1231 15.6369 16.5816C16.0939 18.4059 15.5884 20.4502 14.1334 21.9101C12.6784 23.37 10.6409 23.8772 8.8228 23.4187Z" fill="black" fill-opacity="0.15"/>
<path fill-rule="evenodd" clip-rule="evenodd" d="M8.8228 23.4187C8.36585 21.5945 8.87135 19.5501 10.3264 18.0902C11.7814 16.6303 13.8188 16.1231 15.6369 16.5816C16.0939 18.4059 15.5884 20.4502 14.1334 21.9101C12.6784 23.37 10.6409 23.8772 8.8228 23.4187Z" fill="black" fill-opacity="0.15"/>
<path d="M13.7804 21.556C12.5304 22.8102 10.8141 23.2911 9.24197 22.9981C8.94998 21.4207 9.42926 19.6987 10.6793 18.4444C11.9294 17.1901 13.6456 16.7092 15.2178 17.0022C15.5098 18.5797 15.0305 20.3017 13.7804 21.556Z" stroke="black" stroke-opacity="0.07"/>
<path fill-rule="evenodd" clip-rule="evenodd" d="M16.0003 26.25C14.3916 25.2843 13.3083 23.4801 13.3083 21.4154C13.3083 19.3508 14.3916 17.5466 16.0003 16.5809C17.609 17.5466 18.6923 19.3508 18.6923 21.4154C18.6923 23.4801 17.609 25.2843 16.0003 26.25Z" fill="black" fill-opacity="0.13"/>
<path fill-rule="evenodd" clip-rule="evenodd" d="M23.1783 23.4191C21.3601 23.8776 19.3227 23.3704 17.8677 21.9105C16.4127 20.4505 15.9072 18.4062 16.3641 16.582C18.1823 16.1235 20.2197 16.6307 21.6747 18.0906C23.1297 19.5505 23.6352 21.5948 23.1783 23.4191Z" fill="black" fill-opacity="0.13"/>
<path fill-rule="evenodd" clip-rule="evenodd" d="M6 16.218C6.96249 14.6038 8.76063 13.5169 10.8183 13.5169C12.876 13.5169 14.6741 14.6038 15.6366 16.218C14.6741 17.8321 12.876 18.919 10.8183 18.919C8.76063 18.919 6.96249 17.8321 6 16.218Z" fill="black" fill-opacity="0.15"/>
<path fill-rule="evenodd" clip-rule="evenodd" d="M6 16.218C6.96249 14.6038 8.76063 13.5169 10.8183 13.5169C12.876 13.5169 14.6741 14.6038 15.6366 16.218C14.6741 17.8321 12.876 18.919 10.8183 18.919C8.76063 18.919 6.96249 17.8321 6 16.218Z" fill="black" fill-opacity="0.15"/>
<path d="M10.8183 18.419C9.05101 18.419 7.49841 17.5414 6.59317 16.218C7.49841 14.8945 9.05101 14.0169 10.8183 14.0169C12.5856 14.0169 14.1382 14.8945 15.0435 16.218C14.1382 17.5414 12.5856 18.419 10.8183 18.419Z" stroke="black" stroke-opacity="0.07"/>
<path fill-rule="evenodd" clip-rule="evenodd" d="M25.8195 16.2174C24.857 17.8316 23.0588 18.9185 21.0011 18.9185C18.9435 18.9185 17.1453 17.8316 16.1828 16.2174C17.1453 14.6033 18.9435 13.5164 21.0011 13.5164C23.0588 13.5164 24.857 14.6033 25.8195 16.2174Z" fill="black" fill-opacity="0.15"/>
<path d="M21.0011 14.0164C22.7684 14.0164 24.321 14.894 25.2263 16.2174C24.321 17.5409 22.7684 18.4185 21.0011 18.4185C19.2338 18.4185 17.6812 17.5409 16.776 16.2174C17.6812 14.894 19.2338 14.0164 21.0011 14.0164Z" stroke="black" stroke-opacity="0.07"/>
<path fill-rule="evenodd" clip-rule="evenodd" d="M23.1785 9.01386C23.6355 10.8381 23.13 12.8824 21.675 14.3423C20.22 15.8022 18.1825 16.3094 16.3644 15.8509C15.9075 14.0267 16.413 11.9824 17.868 10.5225C19.323 9.06257 21.3604 8.55536 23.1785 9.01386Z" fill="black" fill-opacity="0.13"/>
<path fill-rule="evenodd" clip-rule="evenodd" d="M9.00374 8.64839C10.8219 8.1899 12.8593 8.6971 14.3143 10.157C15.7693 11.6169 16.2748 13.6612 15.8179 15.4855C13.9997 15.944 11.9623 15.4368 10.5073 13.9769C9.05229 12.517 8.54678 10.4726 9.00374 8.64839Z" fill="black" fill-opacity="0.15"/>
<path fill-rule="evenodd" clip-rule="evenodd" d="M9.00374 8.64839C10.8219 8.1899 12.8593 8.6971 14.3143 10.157C15.7693 11.6169 16.2748 13.6612 15.8179 15.4855C13.9997 15.944 11.9623 15.4368 10.5073 13.9769C9.05229 12.517 8.54678 10.4726 9.00374 8.64839Z" fill="black" fill-opacity="0.15"/>
<path d="M10.8602 13.6227C9.61019 12.3685 9.13092 10.6464 9.42291 9.06898C10.995 8.776 12.7113 9.25689 13.9614 10.5112C15.2114 11.7654 15.6907 13.4875 15.3987 15.0649C13.8266 15.3579 12.1103 14.877 10.8602 13.6227Z" stroke="black" stroke-opacity="0.07"/>
<path fill-rule="evenodd" clip-rule="evenodd" d="M16.1817 6.18257C17.7904 7.14831 18.8737 8.95251 18.8737 11.0171C18.8737 13.0817 17.7904 14.8859 16.1817 15.8517C14.573 14.8859 13.4897 13.0817 13.4897 11.0171C13.4897 8.95251 14.573 7.14831 16.1817 6.18257Z" fill="black" fill-opacity="0.15"/>
<path fill-rule="evenodd" clip-rule="evenodd" d="M16.1817 6.18257C17.7904 7.14831 18.8737 8.95251 18.8737 11.0171C18.8737 13.0817 17.7904 14.8859 16.1817 15.8517C14.573 14.8859 13.4897 13.0817 13.4897 11.0171C13.4897 8.95251 14.573 7.14831 16.1817 6.18257Z" fill="black" fill-opacity="0.15"/>
<path d="M13.9897 11.0171C13.9897 9.24279 14.8644 7.68521 16.1817 6.777C17.499 7.68521 18.3737 9.24279 18.3737 11.0171C18.3737 12.7915 17.499 14.349 16.1817 15.2572C14.8644 14.349 13.9897 12.7915 13.9897 11.0171Z" stroke="black" stroke-opacity="0.07"/>
<path d="M13.5577 10.8346C13.5577 8.91426 14.5366 7.23274 15.9997 6.29421C17.4628 7.23274 18.4417 8.91426 18.4417 10.8346C18.4417 12.7549 17.4628 14.4364 15.9997 15.3749C14.5366 14.4364 13.5577 12.7549 13.5577 10.8346Z" fill="url(#paint3_linear)" fill-opacity="0.9" stroke="#A62100" stroke-width="0.5"/>
<path d="M10.5018 13.9823C9.14867 12.6247 8.65575 10.7412 9.02922 9.03913C10.7255 8.6644 12.6027 9.15898 13.9558 10.5166C15.3089 11.8743 15.8018 13.7578 15.4284 15.4598C13.7321 15.8346 11.8548 15.34 10.5018 13.9823Z" fill="url(#paint4_linear)" fill-opacity="0.8" stroke="#7A0000" stroke-width="0.5"/>
<path d="M10.8183 18.4836C8.90506 18.4836 7.22907 17.5015 6.29364 16.0326C7.22907 14.5636 8.90506 13.5815 10.8183 13.5815C12.7316 13.5815 14.4076 14.5636 15.343 16.0326C14.4076 17.5015 12.7316 18.4836 10.8183 18.4836Z" fill="url(#paint5_linear)" fill-opacity="0.9" stroke="#910E38" stroke-width="0.5"/>
<path fill-rule="evenodd" clip-rule="evenodd" d="M8.82146 23.0536C8.36451 21.2293 8.87001 19.185 10.325 17.7251C11.78 16.2652 13.8175 15.758 15.6356 16.2165C16.0925 18.0408 15.587 20.0851 14.132 21.545C12.677 23.0049 10.6396 23.5121 8.82146 23.0536Z" fill="black" fill-opacity="0.13"/>
<path d="M13.9556 21.5505C12.6025 22.9081 10.7253 23.4027 9.02895 23.028C8.65548 21.3259 9.1484 19.4424 10.5015 18.0847C11.8546 16.7271 13.7318 16.2325 15.4281 16.6073C15.8016 18.3093 15.3086 20.1928 13.9556 21.5505Z" fill="url(#paint6_linear)" fill-opacity="0.9" stroke="#452981" stroke-width="0.5"/>
<path fill-rule="evenodd" clip-rule="evenodd" d="M15.8183 26.0675C14.2096 25.1017 13.1263 23.2975 13.1263 21.2329C13.1263 19.1683 14.2096 17.3641 15.8183 16.3984C17.427 17.3641 18.5103 19.1683 18.5103 21.2329C18.5103 23.2975 17.427 25.1017 15.8183 26.0675Z" fill="black" fill-opacity="0.13"/>
<path d="M18.4423 21.2329C18.4423 23.1532 17.4634 24.8347 16.0003 25.7733C14.5372 24.8347 13.5583 23.1532 13.5583 21.2329C13.5583 19.3126 14.5372 17.6311 16.0003 16.6926C17.4634 17.6311 18.4423 19.3126 18.4423 21.2329Z" fill="url(#paint7_linear)" fill-opacity="0.9" stroke="#002E99" stroke-width="0.5"/>
<path fill-rule="evenodd" clip-rule="evenodd" d="M22.9963 23.4191C21.1781 23.8776 19.1407 23.3703 17.6857 21.9104C16.2307 20.4505 15.7252 18.4062 16.1821 16.582C18.0003 16.1235 20.0377 16.6307 21.4927 18.0906C22.9477 19.5505 23.4532 21.5948 22.9963 23.4191Z" fill="black" fill-opacity="0.13"/>
<path fill-rule="evenodd" clip-rule="evenodd" d="M23.1785 9.01384C23.6355 10.8381 23.13 12.8824 21.675 14.3423C20.22 15.8022 18.1825 16.3094 16.3644 15.8509C15.9075 14.0267 16.413 11.9824 17.868 10.5225C19.323 9.06255 21.3604 8.55534 23.1785 9.01384Z" fill="black" fill-opacity="0.13"/>
<path d="M21.4982 18.0851C22.8513 19.4427 23.3442 21.3263 22.9708 23.0283C21.2745 23.403 19.3973 22.9085 18.0442 21.5508C16.6911 20.1932 16.1982 18.3096 16.5716 16.6076C18.2679 16.2329 20.1452 16.7275 21.4982 18.0851Z" fill="url(#paint8_linear)" fill-opacity="0.9" stroke="#007367" stroke-width="0.5"/>
<path fill-rule="evenodd" clip-rule="evenodd" d="M23.1785 9.01384C23.6355 10.8381 23.13 12.8824 21.675 14.3423C20.22 15.8022 18.1825 16.3094 16.3644 15.8509C15.9075 14.0267 16.413 11.9824 17.868 10.5225C19.323 9.06255 21.3604 8.55534 23.1785 9.01384Z" fill="black" fill-opacity="0.13"/>
<path d="M18.2209 10.8766C19.471 9.62233 21.1872 9.14145 22.7594 9.43442C23.0514 11.0119 22.5721 12.7339 21.322 13.9882C20.072 15.2424 18.3557 15.7233 16.7836 15.4303C16.4916 13.8529 16.9709 12.1309 18.2209 10.8766Z" stroke="black" stroke-opacity="0.07"/>
<path d="M21.1817 13.5838C23.0949 13.5838 24.7709 14.5659 25.7064 16.0349C24.7709 17.5038 23.0949 18.4859 21.1817 18.4859C19.2684 18.4859 17.5924 17.5038 16.657 16.0349C17.5924 14.5659 19.2684 13.5838 21.1817 13.5838Z" fill="url(#paint9_linear)" fill-opacity="0.9" stroke="#206B00" stroke-width="0.5"/>
<path d="M18.0444 10.517C19.3975 9.15933 21.2747 8.66475 22.9711 9.03948C23.3445 10.7415 22.8516 12.625 21.4985 13.9827C20.1454 15.3403 18.2682 15.8349 16.5719 15.4602C16.1984 13.7581 16.6914 11.8746 18.0444 10.517Z" fill="url(#paint10_linear)" fill-opacity="0.9" stroke="#AD5F00" stroke-width="0.5"/>
<path opacity="0.15" fill-rule="evenodd" clip-rule="evenodd" d="M26.9297 18.7899C26.8855 18.7906 26.8498 18.8101 26.8203 18.829L18.9609 23.8368L17.5078 24.7587L17.4688 24.7743L15.75 28.6415L20 28.7665L20.0312 28.7431L21.4922 27.8212L29.0391 22.9775L28.9922 21.3525C28.8583 21.0903 28.7 20.8059 28.5156 20.5165C27.9902 19.692 27.4324 19.0408 27.0859 18.8368C27.0282 18.8028 26.9738 18.7893 26.9297 18.79V18.7899Z" fill="#0C0C0C"/>
<path d="M18.0624 23.5619C18.3596 23.3388 19.1937 23.7573 19.9602 24.5199C20.7249 25.2808 21.1278 26.095 20.9098 26.3951C20.909 26.3963 20.9286 26.4118 20.9277 26.413L31.6007 15.6876C31.8717 15.4153 31.4507 14.5548 30.6598 13.7679C29.869 12.981 29.0064 12.5642 28.7354 12.8366L18.0624 23.5619Z" fill="url(#paint11_linear)"/>
<path opacity="0.6" d="M18.0624 23.5619C18.3596 23.3388 19.1937 23.7573 19.9602 24.5199C20.7249 25.2808 21.1278 26.095 20.9098 26.3951C20.909 26.3963 20.9286 26.4118 20.9277 26.413L28.2779 19.0268L28.3045 19C28.3052 18.9989 28.2857 18.9834 28.2866 18.9822C28.5046 18.682 28.1017 17.8679 27.337 17.107C26.5705 16.3443 25.7364 15.9259 25.4391 16.149L25.4125 16.1757L18.0624 23.5619H18.0624L18.0624 23.5619Z" fill="#F9C440"/>
<path d="M18.0624 23.5619C18.3596 23.3388 19.1937 23.7573 19.9602 24.5199C20.7249 25.2808 21.1278 26.095 20.9098 26.3951C20.909 26.3963 20.9286 26.4118 20.9277 26.413L31.6007 15.6876C31.8717 15.4153 31.4507 14.5548 30.6598 13.7679C29.869 12.981 29.0064 12.5642 28.7354 12.8366L18.0624 23.5619V23.5619Z" stroke="#AD5F00" stroke-width="0.5" stroke-linejoin="round"/>
<path d="M28.9458 12.7538C28.8578 12.7585 28.7862 12.7853 28.7354 12.8363L25.4395 16.1488C25.737 15.9263 26.5707 16.3444 27.3369 17.1068C28.1016 17.8677 28.5046 18.6821 28.2866 18.9823C28.2858 18.9835 28.3054 18.9988 28.3047 18.9999L31.6006 15.6874C31.8716 15.4151 31.4505 14.5549 30.6597 13.768C30.0171 13.1286 29.3273 12.7334 28.9458 12.7538Z" fill="url(#paint12_linear)" stroke="#555761" stroke-width="0.5" stroke-linejoin="round"/>
<path opacity="0.9" d="M27.4329 14.1455C27.7301 13.9224 28.5642 14.3409 29.3307 15.1036C30.0954 15.8644 30.4983 16.6786 30.2803 16.9788C30.2795 16.9799 30.299 16.9954 30.2982 16.9966L31.6007 15.6876L31.6273 15.6609C31.6281 15.6598 31.6086 15.6442 31.6094 15.6431C31.8274 15.3429 31.4245 14.5288 30.6599 13.7679C29.8934 13.0052 29.0593 12.5868 28.762 12.8098L28.7354 12.8366L27.4329 14.1455H27.4329Z" fill="#FE9AB8" stroke="#DE3E80" stroke-width="0.5" stroke-linejoin="round"/>
<path d="M25.9729 15.6127C26.2702 15.3896 27.1043 15.808 27.8708 16.5707C28.6354 17.3316 29.0383 18.1458 28.8203 18.4459C28.8196 18.4471 28.8391 18.4626 28.8382 18.4638L28.9711 18.3302C28.9719 18.3291 28.9524 18.3135 28.9532 18.3124C29.1713 18.0122 28.7683 17.198 28.0037 16.4372C27.2372 15.6745 26.4031 15.256 26.1058 15.4791L25.9729 15.6127V15.6127V15.6127Z" fill="url(#paint13_linear)"/>
<path d="M25.8511 15.7351C26.1483 15.512 26.9824 15.9304 27.7489 16.6931C28.5136 17.454 28.9165 18.2681 28.6985 18.5683C28.6977 18.5694 28.7172 18.585 28.7164 18.5861L28.8493 18.4526C28.8501 18.4514 28.8306 18.4359 28.8314 18.4347C29.0494 18.1346 28.6465 17.3204 27.8819 16.5596C27.1154 15.7969 26.2813 15.3784 25.984 15.6015L25.8511 15.7351V15.7351H25.8511Z" fill="url(#paint14_linear)"/>
<path d="M26.3961 15.1873C26.6934 14.9643 27.5275 15.3827 28.294 16.1454C29.0586 16.9062 29.4616 17.7204 29.2435 18.0206C29.2428 18.0217 29.2623 18.0373 29.2614 18.0384L29.3944 17.9048C29.3951 17.9037 29.3756 17.8882 29.3765 17.887C29.5945 17.5868 29.1916 16.7727 28.4269 16.0118C27.6604 15.2491 26.8263 14.8307 26.529 15.0538L26.3961 15.1873H26.3961Z" fill="url(#paint15_linear)"/>
<path d="M26.2743 15.3097C26.5716 15.0866 27.4057 15.5051 28.1722 16.2678C28.9368 17.0286 29.3397 17.8428 29.1217 18.143C29.121 18.1441 29.1405 18.1597 29.1396 18.1608L29.2725 18.0272C29.2733 18.0261 29.2538 18.0105 29.2546 18.0094C29.4726 17.7092 29.0697 16.8951 28.3051 16.1342C27.5386 15.3715 26.7045 14.9531 26.4072 15.1761L26.2743 15.3097L26.2743 15.3097Z" fill="url(#paint16_linear)"/>
<path d="M26.8214 14.7599C27.1187 14.5368 27.9528 14.9553 28.7193 15.718C29.4839 16.4788 29.8868 17.293 29.6688 17.5932C29.6681 17.5943 29.6876 17.6099 29.6867 17.611L29.8196 17.4774C29.8204 17.4763 29.8009 17.4607 29.8017 17.4596C30.0198 17.1594 29.6169 16.3453 28.8522 15.5844C28.0857 14.8217 27.2516 14.4033 26.9543 14.6263L26.8214 14.7599Z" fill="url(#paint17_linear)"/>
<path d="M26.6997 14.8823C26.997 14.6593 27.8311 15.0777 28.5976 15.8404C29.3622 16.6012 29.7651 17.4154 29.5471 17.7156C29.5464 17.7167 29.5659 17.7323 29.565 17.7334L29.6979 17.5998C29.6987 17.5987 29.6792 17.5832 29.68 17.582C29.8981 17.2818 29.4952 16.4677 28.7305 15.7068C27.964 14.9441 27.1299 14.5257 26.8326 14.7488L26.6997 14.8823H26.6997Z" fill="url(#paint18_linear)"/>
<path fill-rule="evenodd" clip-rule="evenodd" d="M16.0171 28.4164L20.8728 26.4359L20.9141 26.3945C21.1321 26.0943 20.724 25.2801 19.9593 24.5192C19.1928 23.7566 18.3597 23.3404 18.0624 23.5635L16.0171 28.4164H16.0171Z" fill="url(#paint19_linear)" stroke="url(#paint20_linear)" stroke-width="0.5"/>
<path fill-rule="evenodd" clip-rule="evenodd" d="M16.5711 27.102L16.0167 28.4111L17.3411 27.8682C17.235 27.7411 17.137 27.6119 17.0095 27.4851C16.8628 27.3391 16.7185 27.2206 16.5711 27.102Z" fill="#333333" stroke="#1A1A1A" stroke-width="0.5"/>
<defs>
<radialGradient id="paint0_radial" cx="0" cy="0" r="1" gradientUnits="userSpaceOnUse" gradientTransform="translate(16.0297 27.131) scale(10.7797 3.36783)">
<stop stop-color="#3D3D3D"/>
<stop offset="0.5" stop-color="#686868" stop-opacity="0.498039"/>
<stop offset="1" stop-color="#686868" stop-opacity="0"/>
</radialGradient>
<linearGradient id="paint1_linear" x1="16" y1="29.5" x2="16" y2="2.75" gradientUnits="userSpaceOnUse">
<stop stop-color="#E9E9E9"/>
<stop offset="1" stop-color="#FAFAFA"/>
</linearGradient>
<linearGradient id="paint2_linear" x1="16" y1="29.5" x2="16" y2="2.75" gradientUnits="userSpaceOnUse">
<stop stop-color="#D2D2D2"/>
<stop offset="1" stop-color="white"/>
</linearGradient>
<linearGradient id="paint3_linear" x1="16" y1="6" x2="16" y2="19.375" gradientUnits="userSpaceOnUse">
<stop stop-color="#FFC27D"/>
<stop offset="0.307292" stop-color="#FFA154"/>
<stop offset="0.708333" stop-color="#F37329"/>
<stop offset="1" stop-color="#F37329"/>
</linearGradient>
<linearGradient id="paint4_linear" x1="14.3749" y1="10.75" x2="8.89264" y2="16.0184" gradientUnits="userSpaceOnUse">
<stop stop-color="#FF8C82"/>
<stop offset="0.338542" stop-color="#ED5353"/>
<stop offset="0.697917" stop-color="#C6262E"/>
<stop offset="1" stop-color="#A10705"/>
</linearGradient>
<linearGradient id="paint5_linear" x1="12.5" y1="13.875" x2="9.375" y2="20.125" gradientUnits="userSpaceOnUse">
<stop stop-color="#FE9AB8"/>
<stop offset="0.328125" stop-color="#F4679D"/>
<stop offset="0.692708" stop-color="#DE3E80"/>
<stop offset="1" stop-color="#BC245D"/>
</linearGradient>
<linearGradient id="paint6_linear" x1="14.375" y1="16.25" x2="8.97361" y2="24.1068" gradientUnits="userSpaceOnUse">
<stop stop-color="#E4C6FA"/>
<stop offset="0.338542" stop-color="#CD9EF7"/>
<stop offset="0.723958" stop-color="#A56DE2"/>
<stop offset="1" stop-color="#7239B3"/>
</linearGradient>
<linearGradient id="paint7_linear" x1="16.0003" y1="16.5619" x2="16.0003" y2="26.0674" gradientUnits="userSpaceOnUse">
<stop stop-color="#8CD5FF"/>
<stop offset="0.328125" stop-color="#64BAFF"/>
<stop offset="0.682292" stop-color="#3689E6"/>
<stop offset="1" stop-color="#0D52BF"/>
</linearGradient>
<linearGradient id="paint8_linear" x1="17.3751" y1="16.375" x2="20.5236" y2="23.3644" gradientUnits="userSpaceOnUse">
<stop stop-color="#89FFDD"/>
<stop offset="0.348958" stop-color="#43D6B5"/>
<stop offset="0.703125" stop-color="#28BCA3"/>
<stop offset="1" stop-color="#0E9A83"/>
</linearGradient>
<linearGradient id="paint9_linear" x1="19" y1="14.25" x2="21.4994" y2="19.1253" gradientUnits="userSpaceOnUse">
<stop stop-color="#D1FF82"/>
<stop offset="0.328125" stop-color="#9BDB4D"/>
<stop offset="0.708333" stop-color="#68B723"/>
<stop offset="1" stop-color="#3A9104" stop-opacity="0.9"/>
</linearGradient>
<linearGradient id="paint10_linear" x1="18.5" y1="9.87499" x2="22.8598" y2="14.3897" gradientUnits="userSpaceOnUse">
<stop offset="0.0625" stop-color="#FFF394"/>
<stop offset="0.364583" stop-color="#FFE16B"/>
<stop offset="0.692708" stop-color="#F9C440"/>
<stop offset="1" stop-color="#D48E15"/>
</linearGradient>
<linearGradient id="paint11_linear" x1="23.5005" y1="18.1035" x2="26.3669" y2="20.9559" gradientUnits="userSpaceOnUse">
<stop stop-color="#AD5F00"/>
<stop offset="0.134829" stop-color="#FFE16B"/>
<stop offset="0.202244" stop-color="#F9C440"/>
<stop offset="0.269659" stop-color="#FFF394"/>
<stop offset="0.446503" stop-color="#F9C440"/>
<stop offset="0.571141" stop-color="#F9C440"/>
<stop offset="0.720381" stop-color="#FFE16B"/>
<stop offset="1" stop-color="#AD5F00"/>
</linearGradient>
<linearGradient id="paint12_linear" x1="23.5005" y1="18.1035" x2="26.3669" y2="20.9559" gradientUnits="userSpaceOnUse">
<stop stop-color="#555761"/>
<stop offset="0.134829" stop-color="#D4D4D4"/>
<stop offset="0.202244" stop-color="#ABACAE"/>
<stop offset="0.269659" stop-color="#FAFAFA"/>
<stop offset="0.446503" stop-color="#ABACAE"/>
<stop offset="0.571141" stop-color="#ABACAE"/>
<stop offset="0.720381" stop-color="#D4D4D4"/>
<stop offset="1" stop-color="#555761"/>
</linearGradient>
<linearGradient id="paint13_linear" x1="26.2575" y1="15.279" x2="29.1287" y2="18.1362" gradientUnits="userSpaceOnUse">
<stop stop-color="#555761"/>
<stop offset="0.5" stop-color="#ABACAE"/>
<stop offset="1" stop-color="#555761"/>
</linearGradient>
<linearGradient id="paint14_linear" x1="26.1357" y1="15.4013" x2="29.0069" y2="18.2586" gradientUnits="userSpaceOnUse">
<stop stop-color="#ABACAE"/>
<stop offset="0.5" stop-color="#FAFAFA"/>
<stop offset="1" stop-color="#ABACAE"/>
</linearGradient>
<linearGradient id="paint15_linear" x1="26.6807" y1="14.8536" x2="29.5519" y2="17.7108" gradientUnits="userSpaceOnUse">
<stop stop-color="#555761"/>
<stop offset="0.5" stop-color="#ABACAE"/>
<stop offset="1" stop-color="#555761"/>
</linearGradient>
<linearGradient id="paint16_linear" x1="26.5589" y1="14.976" x2="29.4301" y2="17.8332" gradientUnits="userSpaceOnUse">
<stop stop-color="#ABACAE"/>
<stop offset="0.5" stop-color="#FAFAFA"/>
<stop offset="1" stop-color="#ABACAE"/>
</linearGradient>
<linearGradient id="paint17_linear" x1="27.106" y1="14.4262" x2="29.9772" y2="17.2834" gradientUnits="userSpaceOnUse">
<stop stop-color="#555761"/>
<stop offset="0.5" stop-color="#ABACAE"/>
<stop offset="1" stop-color="#555761"/>
</linearGradient>
<linearGradient id="paint18_linear" x1="26.9843" y1="14.5486" x2="29.8555" y2="17.4058" gradientUnits="userSpaceOnUse">
<stop stop-color="#ABACAE"/>
<stop offset="0.5" stop-color="#FAFAFA"/>
<stop offset="1" stop-color="#ABACAE"/>
</linearGradient>
<linearGradient id="paint19_linear" x1="19.4788" y1="26.7522" x2="17.7442" y2="25.0261" gradientUnits="userSpaceOnUse">
<stop stop-color="#FFF394"/>
<stop offset="1" stop-color="#FAFAFA"/>
</linearGradient>
<linearGradient id="paint20_linear" x1="17.134" y1="25.6453" x2="18.692" y2="27.2121" gradientUnits="userSpaceOnUse">
<stop stop-color="#D48E15"/>
<stop offset="1" stop-color="#AD5F00"/>
</linearGradient>
</defs>
</svg>
