<svg width="48" height="48" viewBox="0 0 48 48" fill="none" xmlns="http://www.w3.org/2000/svg">
<path d="M40.214 40.6966C40.2144 41.3601 39.7965 42.0171 38.9841 42.6301C38.1718 43.2432 36.9808 43.8002 35.4793 44.2694C33.9778 44.7386 32.1951 45.1108 30.2331 45.3648C28.2711 45.6187 26.1682 45.7494 24.0445 45.7494C21.9208 45.7494 19.8179 45.6187 17.8559 45.3648C15.8939 45.1108 14.1112 44.7386 12.6097 44.2694C11.1082 43.8002 9.91722 43.2432 9.10483 42.6301C8.29244 42.0171 7.87454 41.3601 7.875 40.6966C7.87454 40.0331 8.29244 39.376 9.10483 38.763C9.91722 38.15 11.1082 37.593 12.6097 37.1237C14.1112 36.6545 15.8939 36.2823 17.8559 36.0284C19.8179 35.7744 21.9208 35.6437 24.0445 35.6437C26.1682 35.6437 28.2711 35.7744 30.2331 36.0284C32.1951 36.2823 33.9778 36.6545 35.4793 37.1237C36.9808 37.593 38.1718 38.15 38.9841 38.763C39.7965 39.376 40.2144 40.0331 40.214 40.6966Z" fill="url(#paint0_radial)"/>
<circle cx="24" cy="24" r="20.5" fill="url(#paint1_linear)" stroke="#ABACAE"/>
<circle cx="24" cy="24" r="19.5" stroke="url(#paint2_linear)"/>
<path fill-rule="evenodd" clip-rule="evenodd" d="M24.2725 9.27383C26.6856 10.7224 28.3105 13.4287 28.3105 16.5257C28.3105 19.6226 26.6856 22.3289 24.2725 23.7775C21.8594 22.3289 20.2346 19.6226 20.2346 16.5257C20.2346 13.4287 21.8594 10.7224 24.2725 9.27383Z" fill="black" fill-opacity="0.13"/>
<path fill-rule="evenodd" clip-rule="evenodd" d="M13.2349 13.5203C15.962 12.8325 19.0182 13.5933 21.2007 15.7832C23.3832 17.973 24.1415 21.0395 23.4561 23.7759C20.7289 24.4636 17.6727 23.7028 15.4902 21.513C13.3077 19.3231 12.5494 16.2566 13.2349 13.5203Z" fill="black" fill-opacity="0.13"/>
<path fill-rule="evenodd" clip-rule="evenodd" d="M13.2343 35.1281C12.5488 32.3917 13.3071 29.3252 15.4896 27.1353C17.6721 24.9455 20.7283 24.1847 23.4555 24.8724C24.1409 27.6088 23.3826 30.6753 21.2001 32.8651C19.0176 35.055 15.9615 35.8158 13.2343 35.1281Z" fill="black" fill-opacity="0.15"/>
<path fill-rule="evenodd" clip-rule="evenodd" d="M13.2343 35.1281C12.5488 32.3917 13.3071 29.3252 15.4896 27.1353C17.6721 24.9455 20.7283 24.1847 23.4555 24.8724C24.1409 27.6088 23.3826 30.6753 21.2001 32.8651C19.0176 35.055 15.9615 35.8158 13.2343 35.1281Z" fill="black" fill-opacity="0.15"/>
<path d="M20.8472 32.511C18.8689 34.496 16.1334 35.2312 13.6506 34.7103C13.1315 32.2192 13.8642 29.4745 15.8426 27.4895C17.8209 25.5045 20.5563 24.7693 23.0392 25.2901C23.5582 27.7813 22.8255 30.526 20.8472 32.511Z" stroke="black" stroke-opacity="0.07"/>
<path fill-rule="evenodd" clip-rule="evenodd" d="M24.0005 39.375C21.5874 37.9264 19.9626 35.2201 19.9626 32.1232C19.9626 29.0262 21.5874 26.3199 24.0005 24.8713C26.4136 26.3199 28.0385 29.0262 28.0385 32.1232C28.0385 35.2201 26.4136 37.9264 24.0005 39.375Z" fill="black" fill-opacity="0.13"/>
<path fill-rule="evenodd" clip-rule="evenodd" d="M34.7673 35.1286C32.0402 35.8163 28.984 35.0555 26.8015 32.8657C24.619 30.6758 23.8607 27.6093 24.5461 24.873C27.2733 24.1852 30.3295 24.946 32.512 27.1359C34.6945 29.3257 35.4528 32.3922 34.7673 35.1286Z" fill="black" fill-opacity="0.13"/>
<path fill-rule="evenodd" clip-rule="evenodd" d="M9 24.327C10.4437 21.9057 13.141 20.2754 16.2275 20.2754C19.314 20.2754 22.0112 21.9057 23.4549 24.327C22.0112 26.7482 19.314 28.3786 16.2275 28.3786C13.141 28.3786 10.4437 26.7482 9 24.327Z" fill="black" fill-opacity="0.15"/>
<path fill-rule="evenodd" clip-rule="evenodd" d="M9 24.327C10.4437 21.9057 13.141 20.2754 16.2275 20.2754C19.314 20.2754 22.0112 21.9057 23.4549 24.327C22.0112 26.7482 19.314 28.3786 16.2275 28.3786C13.141 28.3786 10.4437 26.7482 9 24.327Z" fill="black" fill-opacity="0.15"/>
<path d="M16.2275 27.8786C13.4303 27.8786 10.9778 26.4577 9.58916 24.327C10.9778 22.1962 13.4303 20.7754 16.2275 20.7754C19.0247 20.7754 21.4772 22.1962 22.8658 24.327C21.4772 26.4577 19.0247 27.8786 16.2275 27.8786Z" stroke="black" stroke-opacity="0.07"/>
<path fill-rule="evenodd" clip-rule="evenodd" d="M38.7292 24.3261C37.2855 26.7473 34.5883 28.3777 31.5018 28.3777C28.4153 28.3777 25.718 26.7473 24.2743 24.3261C25.718 21.9049 28.4153 20.2745 31.5018 20.2745C34.5883 20.2745 37.2855 21.9049 38.7292 24.3261Z" fill="black" fill-opacity="0.15"/>
<path d="M31.5018 20.7745C34.299 20.7745 36.7515 22.1954 38.1401 24.3261C36.7515 26.4569 34.299 27.8777 31.5018 27.8777C28.7046 27.8777 26.2521 26.4569 24.8635 24.3261C26.2521 22.1954 28.7046 20.7745 31.5018 20.7745Z" stroke="black" stroke-opacity="0.07"/>
<path fill-rule="evenodd" clip-rule="evenodd" d="M34.7679 13.5208C35.4533 16.2571 34.695 19.3236 32.5125 21.5135C30.33 23.7033 27.2739 24.4641 24.5467 23.7764C23.8612 21.04 24.6195 17.9735 26.802 15.7837C28.9845 13.5938 32.0407 12.833 34.7679 13.5208Z" fill="black" fill-opacity="0.13"/>
<path fill-rule="evenodd" clip-rule="evenodd" d="M13.5056 12.9726C16.2328 12.2848 19.289 13.0456 21.4715 15.2355C23.654 17.4254 24.4122 20.4918 23.7268 23.2282C20.9996 23.9159 17.9434 23.1551 15.7609 20.9653C13.5784 18.7754 12.8202 15.709 13.5056 12.9726Z" fill="black" fill-opacity="0.15"/>
<path fill-rule="evenodd" clip-rule="evenodd" d="M13.5056 12.9726C16.2328 12.2848 19.289 13.0456 21.4715 15.2355C23.654 17.4254 24.4122 20.4918 23.7268 23.2282C20.9996 23.9159 17.9434 23.1551 15.7609 20.9653C13.5784 18.7754 12.8202 15.709 13.5056 12.9726Z" fill="black" fill-opacity="0.15"/>
<path d="M16.1139 20.6111C14.1356 18.6262 13.4028 15.8815 13.9219 13.3903C16.4047 12.8694 19.1402 13.6047 21.1185 15.5896C23.0968 17.5746 23.8296 20.3193 23.3105 22.8105C20.8277 23.3313 18.0922 22.5961 16.1139 20.6111Z" stroke="black" stroke-opacity="0.07"/>
<path fill-rule="evenodd" clip-rule="evenodd" d="M24.2724 9.27383C26.6855 10.7224 28.3104 13.4287 28.3104 16.5257C28.3104 19.6226 26.6855 22.3289 24.2724 23.7775C21.8594 22.3289 20.2345 19.6226 20.2345 16.5257C20.2345 13.4287 21.8594 10.7224 24.2724 9.27383Z" fill="black" fill-opacity="0.15"/>
<path fill-rule="evenodd" clip-rule="evenodd" d="M24.2724 9.27383C26.6855 10.7224 28.3104 13.4287 28.3104 16.5257C28.3104 19.6226 26.6855 22.3289 24.2724 23.7775C21.8594 22.3289 20.2345 19.6226 20.2345 16.5257C20.2345 13.4287 21.8594 10.7224 24.2724 9.27383Z" fill="black" fill-opacity="0.15"/>
<path d="M20.7345 16.5257C20.7345 13.7179 22.1507 11.2574 24.2724 9.86417C26.3942 11.2574 27.8104 13.7179 27.8104 16.5257C27.8104 19.3334 26.3942 21.794 24.2725 23.1872C22.1507 21.794 20.7345 19.3334 20.7345 16.5257Z" stroke="black" stroke-opacity="0.07"/>
<path d="M20.2115 16.2518C20.2115 13.299 21.732 10.7152 23.9995 9.2933C26.267 10.7152 27.7874 13.299 27.7874 16.2518C27.7874 19.2047 26.267 21.7885 23.9995 23.2104C21.732 21.7885 20.2115 19.2047 20.2115 16.2518Z" fill="url(#paint3_linear)" fill-opacity="0.9" stroke="#A62100" stroke-width="0.5"/>
<path d="M15.6645 21.0621C13.5837 18.9743 12.8379 16.0685 13.4395 13.454C16.0453 12.8503 18.9413 13.5986 21.0221 15.6864C23.1028 17.7742 23.8486 20.68 23.247 23.2945C20.6413 23.8982 17.7452 23.1498 15.6645 21.0621Z" fill="url(#paint4_linear)" fill-opacity="0.8" stroke="#7A0000" stroke-width="0.5"/>
<path d="M16.2275 27.8505C13.2851 27.8505 10.7099 26.3249 9.29275 24.0489C10.7099 21.7728 13.2851 20.2473 16.2275 20.2473C19.1698 20.2473 21.745 21.7728 23.1622 24.0489C21.745 26.3249 19.1698 27.8505 16.2275 27.8505Z" fill="url(#paint5_linear)" fill-opacity="0.9" stroke="#910E38" stroke-width="0.5"/>
<path fill-rule="evenodd" clip-rule="evenodd" d="M13.2321 34.5804C12.5467 31.844 13.305 28.7775 15.4875 26.5877C17.67 24.3978 20.7261 23.637 23.4533 24.3248C24.1388 27.0611 23.3805 30.1276 21.198 32.3175C19.0155 34.5073 15.9593 35.2681 13.2321 34.5804Z" fill="black" fill-opacity="0.13"/>
<path d="M21.0215 32.4142C18.9408 34.502 16.0447 35.2503 13.439 34.6467C12.8373 32.0321 13.5832 29.1264 15.6639 27.0386C17.7447 24.9508 20.6407 24.2025 23.2465 24.8061C23.8481 27.4207 23.1023 30.3265 21.0215 32.4142Z" fill="url(#paint6_linear)" fill-opacity="0.9" stroke="#452981" stroke-width="0.5"/>
<path fill-rule="evenodd" clip-rule="evenodd" d="M23.7275 39.1012C21.3144 37.6526 19.6895 34.9463 19.6895 31.8494C19.6895 28.7524 21.3144 26.0461 23.7275 24.5975C26.1406 26.0461 27.7654 28.7524 27.7654 31.8494C27.7654 34.9463 26.1406 37.6526 23.7275 39.1012Z" fill="black" fill-opacity="0.13"/>
<path d="M27.7885 31.8494C27.7885 34.8022 26.268 37.386 24.0005 38.8079C21.733 37.386 20.2126 34.8022 20.2126 31.8494C20.2126 28.8965 21.733 26.3127 24.0005 24.8908C26.268 26.3127 27.7885 28.8965 27.7885 31.8494Z" fill="url(#paint7_linear)" fill-opacity="0.9" stroke="#002E99" stroke-width="0.5"/>
<path fill-rule="evenodd" clip-rule="evenodd" d="M34.4944 35.1286C31.7672 35.8163 28.711 35.0555 26.5285 32.8657C24.346 30.6758 23.5878 27.6093 24.2732 24.873C27.0004 24.1852 30.0566 24.946 32.2391 27.1359C34.4216 29.3257 35.1798 32.3922 34.4944 35.1286Z" fill="black" fill-opacity="0.13"/>
<path fill-rule="evenodd" clip-rule="evenodd" d="M34.7679 13.5208C35.4533 16.2571 34.695 19.3236 32.5125 21.5135C30.33 23.7033 27.2739 24.4641 24.5467 23.7764C23.8612 21.04 24.6195 17.9735 26.802 15.7837C28.9845 13.5938 32.0407 12.833 34.7679 13.5208Z" fill="black" fill-opacity="0.13"/>
<path d="M32.3355 27.0391C34.4163 29.1269 35.1621 32.0327 34.5605 34.6472C31.9547 35.2509 29.0587 34.5025 26.9779 32.4148C24.8972 30.327 24.1514 27.4212 24.753 24.8067C27.3587 24.203 30.2548 24.9514 32.3355 27.0391Z" fill="url(#paint8_linear)" fill-opacity="0.9" stroke="#007367" stroke-width="0.5"/>
<path fill-rule="evenodd" clip-rule="evenodd" d="M34.7679 13.5208C35.4533 16.2571 34.695 19.3236 32.5125 21.5135C30.33 23.7033 27.2739 24.4641 24.5467 23.7764C23.8612 21.04 24.6195 17.9735 26.802 15.7837C28.9845 13.5938 32.0407 12.833 34.7679 13.5208Z" fill="black" fill-opacity="0.13"/>
<path d="M27.155 16.1378C29.1333 14.1528 31.8687 13.4176 34.3516 13.9385C34.8707 16.4297 34.1379 19.1743 32.1596 21.1593C30.1813 23.1443 27.4458 23.8795 24.963 23.3587C24.4439 20.8675 25.1766 18.1228 27.155 16.1378Z" stroke="black" stroke-opacity="0.07"/>
<path d="M31.7725 20.2507C34.7148 20.2507 37.2901 21.7762 38.7073 24.0523C37.2901 26.3284 34.7148 27.8539 31.7725 27.8539C28.8302 27.8539 26.255 26.3284 24.8378 24.0523C26.255 21.7762 28.8302 20.2507 31.7725 20.2507Z" fill="url(#paint9_linear)" fill-opacity="0.9" stroke="#206B00" stroke-width="0.5"/>
<path d="M26.9785 15.6869C29.0592 13.5992 31.9553 12.8508 34.561 13.4545C35.1627 16.069 34.4168 18.9748 32.3361 21.0626C30.2553 23.1503 27.3593 23.8987 24.7535 23.295C24.1519 20.6805 24.8977 17.7747 26.9785 15.6869Z" fill="url(#paint10_linear)" fill-opacity="0.9" stroke="#AD5F00" stroke-width="0.5"/>
<path opacity="0.15" fill-rule="evenodd" clip-rule="evenodd" d="M40.3945 28.1849C40.3283 28.1859 40.2747 28.2152 40.2305 28.2435L28.4414 35.7552L26.2617 37.1381L26.2031 37.1615L23.625 42.9623L30 43.1498L30.0469 43.1146L32.2383 41.7318L43.5586 34.4662L43.4883 32.0287C43.2874 31.6354 43.05 31.2088 42.7734 30.7748C41.9853 29.5379 41.1487 28.5612 40.6289 28.2553C40.5423 28.2043 40.4608 28.184 40.3945 28.185V28.1849Z" fill="#0C0C0C"/>
<path d="M27.0936 35.3428C27.5395 35.0082 28.7907 35.6359 29.9404 36.7799C31.0874 37.9212 31.6918 39.1425 31.3648 39.5927C31.3636 39.5944 31.3929 39.6178 31.3916 39.6195L47.4011 23.5314C47.8076 23.123 47.1761 21.8322 45.9898 20.6519C44.8036 19.4715 43.5096 18.8464 43.1031 19.2548L27.0936 35.3428Z" fill="url(#paint11_linear)"/>
<path opacity="0.6" d="M27.0936 35.3428C27.5395 35.0082 28.7907 35.6359 29.9404 36.7799C31.0874 37.9212 31.6918 39.1424 31.3648 39.5927C31.3636 39.5944 31.3929 39.6177 31.3916 39.6194L42.4169 28.5402L42.4567 28.5001C42.4579 28.4984 42.4286 28.4751 42.4299 28.4734C42.7569 28.0231 42.1525 26.8018 41.0055 25.6606C39.8558 24.5165 38.6047 23.8889 38.1587 24.2235L38.1189 24.2635L27.0936 35.3428H27.0936L27.0936 35.3428Z" fill="#F9C440"/>
<path d="M27.0936 35.3428C27.5395 35.0082 28.7907 35.6359 29.9404 36.7799C31.0874 37.9212 31.6918 39.1425 31.3648 39.5927C31.3636 39.5944 31.3929 39.6178 31.3916 39.6195L47.4011 23.5314C47.8076 23.123 47.1761 21.8322 45.9898 20.6519C44.8036 19.4715 43.5096 18.8464 43.1031 19.2548L27.0936 35.3428V35.3428Z" stroke="#AD5F00" stroke-width="0.5" stroke-linejoin="round"/>
<path d="M43.4187 19.1307C43.2866 19.1378 43.1792 19.1779 43.103 19.2545L38.1592 24.2233C38.6055 23.8895 39.8561 24.5167 41.0054 25.6603C42.1524 26.8016 42.7569 28.0232 42.4299 28.4735C42.4287 28.4752 42.4582 28.4982 42.457 28.4999L47.4009 23.5311C47.8073 23.1227 47.1757 21.8323 45.9895 20.652C45.0257 19.693 43.9909 19.1001 43.4187 19.1307Z" fill="url(#paint12_linear)" stroke="#555761" stroke-width="0.5" stroke-linejoin="round"/>
<path opacity="0.9" d="M41.1493 21.2182C41.5952 20.8836 42.8463 21.5113 43.9961 22.6553C45.1431 23.7966 45.7475 25.0179 45.4204 25.4681C45.4193 25.4698 45.4486 25.4932 45.4473 25.4949L47.4011 23.5314L47.441 23.4914C47.4421 23.4897 47.4129 23.4664 47.4141 23.4646C47.7412 23.0144 47.1368 21.7931 45.9898 20.6518C44.8401 19.5078 43.5889 18.8802 43.143 19.2148L43.1031 19.2548L41.1493 21.2182H41.1493Z" fill="#FE9AB8" stroke="#DE3E80" stroke-width="0.5" stroke-linejoin="round"/>
<path d="M38.9593 23.419C39.4052 23.0844 40.6563 23.7121 41.8061 24.8561C42.9531 25.9974 43.5575 27.2186 43.2304 27.6689C43.2293 27.6706 43.2585 27.6939 43.2573 27.6956L43.4566 27.4953C43.4578 27.4936 43.4285 27.4703 43.4298 27.4685C43.7568 27.0183 43.1525 25.797 42.0055 24.6558C40.8557 23.5117 39.6046 22.8841 39.1587 23.2187L38.9593 23.419V23.419V23.419Z" fill="url(#paint13_linear)"/>
<path d="M38.7766 23.6026C39.2225 23.268 40.4736 23.8957 41.6234 25.0397C42.7703 26.181 43.3747 27.4022 43.0477 27.8525C43.0466 27.8542 43.0758 27.8775 43.0745 27.8792L43.2739 27.6789C43.275 27.6772 43.2458 27.6538 43.2471 27.6521C43.5741 27.2019 42.9697 25.9806 41.8227 24.8393C40.673 23.6953 39.4218 23.0676 38.9759 23.4022L38.7766 23.6026V23.6026H38.7766Z" fill="url(#paint14_linear)"/>
<path d="M39.5942 22.781C40.0401 22.4464 41.2913 23.074 42.441 24.2181C43.588 25.3594 44.1924 26.5806 43.8654 27.0309C43.8642 27.0326 43.8935 27.0559 43.8922 27.0576L44.0916 26.8572C44.0927 26.8556 44.0635 26.8322 44.0647 26.8305C44.3918 26.3802 43.7874 25.159 42.6404 24.0177C41.4907 22.8737 40.2395 22.246 39.7936 22.5806L39.5942 22.781H39.5942Z" fill="url(#paint15_linear)"/>
<path d="M39.4115 22.9646C39.8574 22.63 41.1086 23.2576 42.2583 24.4016C43.4053 25.5429 44.0097 26.7642 43.6826 27.2144C43.6815 27.2161 43.7108 27.2395 43.7095 27.2412L43.9089 27.0408C43.91 27.0391 43.8807 27.0158 43.882 27.0141C44.209 26.5638 43.6047 25.3426 42.4577 24.2013C41.3079 23.0573 40.0568 22.4296 39.6109 22.7642L39.4115 22.9646L39.4115 22.9646Z" fill="url(#paint16_linear)"/>
<path d="M40.2322 22.1399C40.6781 21.8053 41.9292 22.4329 43.079 23.5769C44.226 24.7182 44.8303 25.9395 44.5033 26.3897C44.5022 26.3914 44.5314 26.4148 44.5302 26.4165L44.7295 26.2161C44.7307 26.2144 44.7014 26.1911 44.7027 26.1894C45.0297 25.7391 44.4253 24.5179 43.2783 23.3766C42.1286 22.2326 40.8775 21.6049 40.4315 21.9395L40.2322 22.1399Z" fill="url(#paint17_linear)"/>
<path d="M40.0494 22.3235C40.4953 21.9889 41.7465 22.6165 42.8962 23.7606C44.0432 24.9018 44.6476 26.1231 44.3206 26.5733C44.3194 26.575 44.3487 26.5984 44.3474 26.6001L44.5468 26.3997C44.5479 26.398 44.5187 26.3747 44.5199 26.373C44.847 25.9227 44.2426 24.7015 43.0956 23.5602C41.9459 22.4162 40.6947 21.7885 40.2488 22.1231L40.0494 22.3235H40.0494Z" fill="url(#paint18_linear)"/>
<path fill-rule="evenodd" clip-rule="evenodd" d="M24.0256 42.6245L31.3091 39.6538L31.3711 39.5917C31.6982 39.1415 31.0859 37.9201 29.9389 36.7788C28.7892 35.6348 27.5395 35.0106 27.0936 35.3452L24.0256 42.6245H24.0256Z" fill="url(#paint19_linear)" stroke="url(#paint20_linear)" stroke-width="0.5"/>
<path fill-rule="evenodd" clip-rule="evenodd" d="M24.8566 40.653L24.0251 42.6167L26.0117 41.8023C25.8525 41.6116 25.7055 41.4179 25.5143 41.2276C25.2943 41.0087 25.0778 40.831 24.8566 40.653Z" fill="#333333" stroke="#1A1A1A" stroke-width="0.5"/>
<defs>
<radialGradient id="paint0_radial" cx="0" cy="0" r="1" gradientUnits="userSpaceOnUse" gradientTransform="translate(24.0445 40.6966) scale(16.1695 5.05174)">
<stop stop-color="#3D3D3D"/>
<stop offset="0.5" stop-color="#686868" stop-opacity="0.498039"/>
<stop offset="1" stop-color="#686868" stop-opacity="0"/>
</radialGradient>
<linearGradient id="paint1_linear" x1="24.1869" y1="44" x2="24.1869" y2="4" gradientUnits="userSpaceOnUse">
<stop stop-color="#E9E9E9"/>
<stop offset="1" stop-color="#FAFAFA"/>
</linearGradient>
<linearGradient id="paint2_linear" x1="24.1869" y1="44" x2="24.1869" y2="4" gradientUnits="userSpaceOnUse">
<stop stop-color="#D2D2D2"/>
<stop offset="1" stop-color="white"/>
</linearGradient>
<linearGradient id="paint3_linear" x1="23.9999" y1="9" x2="23.9999" y2="29.0625" gradientUnits="userSpaceOnUse">
<stop stop-color="#FFC27D"/>
<stop offset="0.307292" stop-color="#FFA154"/>
<stop offset="0.708333" stop-color="#F37329"/>
<stop offset="1" stop-color="#F37329"/>
</linearGradient>
<linearGradient id="paint4_linear" x1="21.5625" y1="16.125" x2="13.339" y2="24.0276" gradientUnits="userSpaceOnUse">
<stop stop-color="#FF8C82"/>
<stop offset="0.338542" stop-color="#ED5353"/>
<stop offset="0.697917" stop-color="#C6262E"/>
<stop offset="1" stop-color="#A10705"/>
</linearGradient>
<linearGradient id="paint5_linear" x1="18.75" y1="20.8125" x2="14.0625" y2="30.1875" gradientUnits="userSpaceOnUse">
<stop stop-color="#FE9AB8"/>
<stop offset="0.328125" stop-color="#F4679D"/>
<stop offset="0.692708" stop-color="#DE3E80"/>
<stop offset="1" stop-color="#BC245D"/>
</linearGradient>
<linearGradient id="paint6_linear" x1="21.5625" y1="24.375" x2="13.4603" y2="36.1603" gradientUnits="userSpaceOnUse">
<stop stop-color="#E4C6FA"/>
<stop offset="0.338542" stop-color="#CD9EF7"/>
<stop offset="0.723958" stop-color="#A56DE2"/>
<stop offset="1" stop-color="#7239B3"/>
</linearGradient>
<linearGradient id="paint7_linear" x1="24.0005" y1="24.8428" x2="24.0005" y2="39.101" gradientUnits="userSpaceOnUse">
<stop stop-color="#8CD5FF"/>
<stop offset="0.328125" stop-color="#64BAFF"/>
<stop offset="0.682292" stop-color="#3689E6"/>
<stop offset="1" stop-color="#0D52BF"/>
</linearGradient>
<linearGradient id="paint8_linear" x1="26.0625" y1="24.5625" x2="30.7853" y2="35.0466" gradientUnits="userSpaceOnUse">
<stop stop-color="#89FFDD"/>
<stop offset="0.348958" stop-color="#43D6B5"/>
<stop offset="0.703125" stop-color="#28BCA3"/>
<stop offset="1" stop-color="#0E9A83"/>
</linearGradient>
<linearGradient id="paint9_linear" x1="28.5" y1="21.375" x2="32.2492" y2="28.6879" gradientUnits="userSpaceOnUse">
<stop stop-color="#D1FF82"/>
<stop offset="0.328125" stop-color="#9BDB4D"/>
<stop offset="0.708333" stop-color="#68B723"/>
<stop offset="1" stop-color="#3A9104" stop-opacity="0.9"/>
</linearGradient>
<linearGradient id="paint10_linear" x1="27.75" y1="14.8125" x2="34.2897" y2="21.5845" gradientUnits="userSpaceOnUse">
<stop offset="0.0625" stop-color="#FFF394"/>
<stop offset="0.364583" stop-color="#FFE16B"/>
<stop offset="0.692708" stop-color="#F9C440"/>
<stop offset="1" stop-color="#D48E15"/>
</linearGradient>
<linearGradient id="paint11_linear" x1="35.2508" y1="27.1553" x2="39.5504" y2="31.4339" gradientUnits="userSpaceOnUse">
<stop stop-color="#AD5F00"/>
<stop offset="0.134829" stop-color="#FFE16B"/>
<stop offset="0.202244" stop-color="#F9C440"/>
<stop offset="0.269659" stop-color="#FFF394"/>
<stop offset="0.446503" stop-color="#F9C440"/>
<stop offset="0.571141" stop-color="#F9C440"/>
<stop offset="0.720381" stop-color="#FFE16B"/>
<stop offset="1" stop-color="#AD5F00"/>
</linearGradient>
<linearGradient id="paint12_linear" x1="35.2508" y1="27.1553" x2="39.5504" y2="31.4339" gradientUnits="userSpaceOnUse">
<stop stop-color="#555761"/>
<stop offset="0.134829" stop-color="#D4D4D4"/>
<stop offset="0.202244" stop-color="#ABACAE"/>
<stop offset="0.269659" stop-color="#FAFAFA"/>
<stop offset="0.446503" stop-color="#ABACAE"/>
<stop offset="0.571141" stop-color="#ABACAE"/>
<stop offset="0.720381" stop-color="#D4D4D4"/>
<stop offset="1" stop-color="#555761"/>
</linearGradient>
<linearGradient id="paint13_linear" x1="39.3862" y1="22.9184" x2="43.693" y2="27.2043" gradientUnits="userSpaceOnUse">
<stop stop-color="#555761"/>
<stop offset="0.5" stop-color="#ABACAE"/>
<stop offset="1" stop-color="#555761"/>
</linearGradient>
<linearGradient id="paint14_linear" x1="39.2034" y1="23.102" x2="43.5103" y2="27.3879" gradientUnits="userSpaceOnUse">
<stop stop-color="#ABACAE"/>
<stop offset="0.5" stop-color="#FAFAFA"/>
<stop offset="1" stop-color="#ABACAE"/>
</linearGradient>
<linearGradient id="paint15_linear" x1="40.0211" y1="22.2804" x2="44.328" y2="26.5662" gradientUnits="userSpaceOnUse">
<stop stop-color="#555761"/>
<stop offset="0.5" stop-color="#ABACAE"/>
<stop offset="1" stop-color="#555761"/>
</linearGradient>
<linearGradient id="paint16_linear" x1="39.8384" y1="22.464" x2="44.1452" y2="26.7498" gradientUnits="userSpaceOnUse">
<stop stop-color="#ABACAE"/>
<stop offset="0.5" stop-color="#FAFAFA"/>
<stop offset="1" stop-color="#ABACAE"/>
</linearGradient>
<linearGradient id="paint17_linear" x1="40.659" y1="21.6393" x2="44.9659" y2="25.9251" gradientUnits="userSpaceOnUse">
<stop stop-color="#555761"/>
<stop offset="0.5" stop-color="#ABACAE"/>
<stop offset="1" stop-color="#555761"/>
</linearGradient>
<linearGradient id="paint18_linear" x1="40.4763" y1="21.8229" x2="44.7832" y2="26.1087" gradientUnits="userSpaceOnUse">
<stop stop-color="#ABACAE"/>
<stop offset="0.5" stop-color="#FAFAFA"/>
<stop offset="1" stop-color="#ABACAE"/>
</linearGradient>
<linearGradient id="paint19_linear" x1="29.2181" y1="40.1283" x2="26.6162" y2="37.5391" gradientUnits="userSpaceOnUse">
<stop stop-color="#FFF394"/>
<stop offset="1" stop-color="#FAFAFA"/>
</linearGradient>
<linearGradient id="paint20_linear" x1="25.7009" y1="38.4679" x2="28.038" y2="40.8182" gradientUnits="userSpaceOnUse">
<stop stop-color="#D48E15"/>
<stop offset="1" stop-color="#AD5F00"/>
</linearGradient>
</defs>
</svg>
