<svg width="128" height="128" viewBox="0 0 128 128" fill="none" xmlns="http://www.w3.org/2000/svg">
<rect x="13" y="35" width="102" height="58" fill="white"/>
<path d="M17.4731 40.9375C17.6617 40.9375 17.8136 41.0421 17.8136 41.172V43.828C17.8136 43.9579 17.6617 44.0625 17.4731 44.0625C17.3714 44.0625 17.2806 44.0321 17.2183 43.9837L15.2798 42.6638C15.2222 42.6218 15.1866 42.5654 15.1866 42.5031C15.1866 42.4407 15.2222 42.3843 15.2798 42.3423L17.2183 41.0163C17.2806 40.9679 17.3714 40.9375 17.4731 40.9375Z" fill="#555761"/>
<line x1="16" y1="42.5" x2="113" y2="42.5" stroke="#555761"/>
<path d="M22.0625 38.4731C22.0625 38.6617 21.9579 38.8136 21.828 38.8136H19.172C19.0421 38.8136 18.9375 38.6617 18.9375 38.4731C18.9375 38.3714 18.9679 38.2806 19.0163 38.2183L20.3362 36.2798C20.3782 36.2222 20.4346 36.1866 20.4969 36.1866C20.5593 36.1866 20.6157 36.2222 20.6577 36.2798L21.9837 38.2183C22.0321 38.2806 22.0625 38.3714 22.0625 38.4731Z" fill="#555761"/>
<line x1="20.5" y1="38" x2="20.5" y2="90" stroke="#555761"/>
<path d="M59.6548 36.3636H59.2145L58.3054 36.9673V37.4148L59.1932 36.8253H59.2145V40H59.6548V36.3636ZM61.8583 36.3139C61.1197 36.305 60.6438 36.8608 60.6438 37.5284C60.6438 38.2315 61.1623 38.7358 61.7873 38.7358C62.1637 38.7358 62.4833 38.5511 62.6822 38.2528H62.7106C62.7106 39.1477 62.3626 39.6591 61.8015 39.6591C61.418 39.6591 61.1836 39.4176 61.1055 39.0838H60.6722C60.7575 39.6591 61.1907 40.0497 61.8015 40.0497C62.6183 40.0497 63.1225 39.3253 63.1225 38.0327C63.1225 36.6974 62.4549 36.321 61.8583 36.3139ZM61.8583 36.7045C62.3129 36.7045 62.6467 37.0952 62.6467 37.5213C62.6467 37.9545 62.2915 38.3452 61.8441 38.3452C61.3967 38.3452 61.07 37.983 61.07 37.5284C61.07 37.0739 61.4109 36.7045 61.8583 36.7045ZM63.8208 40H66.1148V39.6094H64.4244V39.581L65.2412 38.7074C65.8662 38.038 66.0509 37.7255 66.0509 37.3224C66.0509 36.7614 65.5963 36.3139 64.9571 36.3139C64.3197 36.3139 63.835 36.7472 63.835 37.3864H64.254C64.254 36.9727 64.5221 36.6974 64.9429 36.6974C65.3371 36.6974 65.6389 36.9389 65.6389 37.3224C65.6389 37.658 65.4419 37.9066 65.021 38.3665L63.8208 39.6804V40ZM68.0342 40.0497C68.8367 40.0497 69.2984 39.3697 69.2984 38.1818C69.2984 37.0028 68.8296 36.3139 68.0342 36.3139C67.2387 36.3139 66.77 37.0028 66.77 38.1818C66.77 39.3697 67.2316 40.0497 68.0342 40.0497ZM68.0342 39.6591C67.5051 39.6591 67.1961 39.1282 67.1961 38.1818C67.1961 37.2372 67.5086 36.6974 68.0342 36.6974C68.5597 36.6974 68.8722 37.2372 68.8722 38.1818C68.8722 39.1282 68.5633 39.6591 68.0342 39.6591ZM71.3865 41.0227H71.8055V39.581H71.841C71.9333 39.7301 72.1109 40.0568 72.6365 40.0568C73.3183 40.0568 73.7941 39.5099 73.7941 38.6435C73.7941 37.7841 73.3183 37.2372 72.6294 37.2372C72.0967 37.2372 71.9333 37.5639 71.841 37.706H71.7913V37.2727H71.3865V41.0227ZM71.7984 38.6364C71.7984 38.0256 72.0683 37.6136 72.5796 37.6136C73.1123 37.6136 73.3751 38.0611 73.3751 38.6364C73.3751 39.2188 73.1052 39.6804 72.5796 39.6804C72.0754 39.6804 71.7984 39.2543 71.7984 38.6364ZM74.6335 37.2727H74.1506L75.017 38.6364L74.1506 40H74.6335L75.2869 38.9418L75.9403 40H76.4233L75.5426 38.6364L76.4233 37.2727H75.9403L75.2869 38.3878L74.6335 37.2727Z" fill="black"/>
<path d="M14.3636 71.3452V71.7855L14.9673 72.6946H15.4148L14.8253 71.8068V71.7855H18V71.3452H14.3636ZM18.0497 69.1133C18.0497 68.3107 17.3697 67.8491 16.1818 67.8491C15.0028 67.8491 14.3139 68.3178 14.3139 69.1133C14.3139 69.9087 15.0028 70.3775 16.1818 70.3775C17.3697 70.3775 18.0497 69.9158 18.0497 69.1133ZM17.6591 69.1133C17.6591 69.6424 17.1282 69.9513 16.1818 69.9513C15.2372 69.9513 14.6974 69.6388 14.6974 69.1133C14.6974 68.5877 15.2372 68.2752 16.1818 68.2752C17.1282 68.2752 17.6591 68.5842 17.6591 69.1133ZM18.0497 66.0096C18.0497 65.2834 17.6254 64.7773 17.0341 64.7738C16.5742 64.7773 16.1836 65.0845 16.1108 65.4769H16.0895C16.0007 65.136 15.6669 64.9123 15.2798 64.9087C14.7259 64.9123 14.3139 65.3775 14.3139 66.0096C14.3139 66.6488 14.7259 67.114 15.2798 67.1104C15.6669 67.114 16.0007 66.8903 16.0895 66.5423H16.1108C16.1836 66.9418 16.5742 67.2489 17.0341 67.2454C17.6254 67.2489 18.0497 66.7429 18.0497 66.0096ZM17.6591 66.0096C17.6591 66.5085 17.4034 66.8157 17.0128 66.8121C16.6026 66.8157 16.3097 66.4766 16.3097 66.0096C16.3097 65.5497 16.6026 65.2106 17.0128 65.207C17.4034 65.2106 17.6591 65.5178 17.6591 66.0096ZM15.9332 66.0096C15.9332 66.4073 15.6847 66.6879 15.3082 66.6843C14.9389 66.6879 14.6974 66.418 14.6974 66.0096C14.6974 65.6083 14.9389 65.3384 15.3082 65.3349C15.6847 65.3384 15.9332 65.619 15.9332 66.0096ZM18.0497 62.9072C18.0497 62.1047 17.3697 61.643 16.1818 61.643C15.0028 61.643 14.3139 62.1118 14.3139 62.9072C14.3139 63.7027 15.0028 64.1714 16.1818 64.1714C17.3697 64.1714 18.0497 63.7098 18.0497 62.9072ZM17.6591 62.9072C17.6591 63.4363 17.1282 63.7453 16.1818 63.7453C15.2372 63.7453 14.6974 63.4328 14.6974 62.9072C14.6974 62.3817 15.2372 62.0692 16.1818 62.0692C17.1282 62.0692 17.6591 62.3781 17.6591 62.9072ZM19.0227 59.555V59.1359H17.581V59.1004C17.7301 59.0081 18.0568 58.8305 18.0568 58.305C18.0568 57.6231 17.5099 57.1473 16.6435 57.1473C15.7841 57.1473 15.2372 57.6231 15.2372 58.3121C15.2372 58.8447 15.5639 59.0081 15.706 59.1004V59.1501H15.2727V59.555H19.0227ZM16.6364 59.143C16.0256 59.143 15.6136 58.8731 15.6136 58.3618C15.6136 57.8291 16.0611 57.5663 16.6364 57.5663C17.2188 57.5663 17.6804 57.8362 17.6804 58.3618C17.6804 58.866 17.2543 59.143 16.6364 59.143ZM15.2727 56.3079V56.7908L16.6364 55.9244L18 56.7908V56.3079L16.9418 55.6545L18 55.0011V54.5181L16.6364 55.3988L15.2727 54.5181L15.2727 55.0011L16.3878 55.6545L15.2727 56.3079Z" fill="black"/>
<path d="M38.9716 59.2727H37.9148L35.733 60.7216V61.7955L37.8636 60.3807H37.9148V68H38.9716V59.2727ZM44.2599 59.1534C42.4872 59.1321 41.3452 60.4659 41.3452 62.0682C41.3452 63.7557 42.5895 64.9659 44.0895 64.9659C44.9929 64.9659 45.7599 64.5227 46.2372 63.8068H46.3054C46.3054 65.9545 45.4702 67.1818 44.1236 67.1818C43.2031 67.1818 42.6406 66.6023 42.4531 65.8011H41.4134C41.6179 67.1818 42.6577 68.1193 44.1236 68.1193C46.0838 68.1193 47.294 66.3807 47.294 63.2784C47.294 60.0739 45.6918 59.1705 44.2599 59.1534ZM44.2599 60.0909C45.3509 60.0909 46.152 61.0284 46.152 62.0511C46.152 63.0909 45.2997 64.0284 44.2259 64.0284C43.152 64.0284 42.3679 63.1591 42.3679 62.0682C42.3679 60.9773 43.1861 60.0909 44.2599 60.0909ZM48.9698 68H54.4755V67.0625H50.4187V66.9943L52.3789 64.8977C53.8789 63.2912 54.3221 62.5412 54.3221 61.5739C54.3221 60.2273 53.2312 59.1534 51.6971 59.1534C50.1673 59.1534 49.0039 60.1932 49.0039 61.7273H50.0096C50.0096 60.7344 50.6531 60.0739 51.663 60.0739C52.609 60.0739 53.3335 60.6534 53.3335 61.5739C53.3335 62.3793 52.8604 62.9759 51.8505 64.0795L48.9698 67.233V68ZM59.082 68.1193C61.0082 68.1193 62.1161 66.4872 62.1161 63.6364C62.1161 60.8068 60.9911 59.1534 59.082 59.1534C57.1729 59.1534 56.0479 60.8068 56.0479 63.6364C56.0479 66.4872 57.1559 68.1193 59.082 68.1193ZM59.082 67.1818C57.8121 67.1818 57.0707 65.9077 57.0707 63.6364C57.0707 61.3693 57.8207 60.0739 59.082 60.0739C60.3434 60.0739 61.0934 61.3693 61.0934 63.6364C61.0934 65.9077 60.3519 67.1818 59.082 67.1818ZM72.2411 66.4318L72.8888 65.7841L70.8093 63.7045L72.8888 61.625L72.2411 60.9773L70.1616 63.0568L68.082 60.9773L67.4343 61.625L69.5138 63.7045L67.4343 65.7841L68.082 66.4318L70.1616 64.3523L72.2411 66.4318ZM81.4638 59.2727H80.407L78.2251 60.7216V61.7955L80.3558 60.3807H80.407V68H81.4638V59.2727ZM86.8203 68.1193C88.7464 68.1193 89.8544 66.4872 89.8544 63.6364C89.8544 60.8068 88.7294 59.1534 86.8203 59.1534C84.9112 59.1534 83.7862 60.8068 83.7862 63.6364C83.7862 66.4872 84.8942 68.1193 86.8203 68.1193ZM86.8203 67.1818C85.5504 67.1818 84.8089 65.9077 84.8089 63.6364C84.8089 61.3693 85.5589 60.0739 86.8203 60.0739C88.0817 60.0739 88.8317 61.3693 88.8317 63.6364C88.8317 65.9077 88.0902 67.1818 86.8203 67.1818ZM94.2692 68.1193C96.0121 68.1193 97.2266 67.1009 97.2351 65.6818C97.2266 64.5781 96.4893 63.6406 95.5476 63.4659V63.4148C96.3658 63.2017 96.9027 62.4006 96.9112 61.4716C96.9027 60.142 95.7862 59.1534 94.2692 59.1534C92.7351 59.1534 91.6186 60.142 91.6271 61.4716C91.6186 62.4006 92.1555 63.2017 92.9908 63.4148V63.4659C92.032 63.6406 91.2947 64.5781 91.3033 65.6818C91.2947 67.1009 92.5092 68.1193 94.2692 68.1193ZM94.2692 67.1818C93.0717 67.1818 92.3345 66.5682 92.343 65.6307C92.3345 64.6463 93.1484 63.9432 94.2692 63.9432C95.3729 63.9432 96.1868 64.6463 96.1953 65.6307C96.1868 66.5682 95.4496 67.1818 94.2692 67.1818ZM94.2692 63.0398C93.3146 63.0398 92.6413 62.4432 92.6499 61.5398C92.6413 60.6534 93.2891 60.0739 94.2692 60.0739C95.2322 60.0739 95.88 60.6534 95.8885 61.5398C95.88 62.4432 95.2067 63.0398 94.2692 63.0398ZM101.715 68.1193C103.641 68.1193 104.749 66.4872 104.749 63.6364C104.749 60.8068 103.624 59.1534 101.715 59.1534C99.8058 59.1534 98.6808 60.8068 98.6808 63.6364C98.6808 66.4872 99.7887 68.1193 101.715 68.1193ZM101.715 67.1818C100.445 67.1818 99.7035 65.9077 99.7035 63.6364C99.7035 61.3693 100.453 60.0739 101.715 60.0739C102.976 60.0739 103.726 61.3693 103.726 63.6364C103.726 65.9077 102.985 67.1818 101.715 67.1818Z" fill="black"/>
</svg>
