<svg width="128" height="128" viewBox="0 0 128 128" fill="none" xmlns="http://www.w3.org/2000/svg">
<rect x="16" y="38" width="95" height="51" fill="white"/>
<path d="M25.0625 42.1121C25.0625 42.3277 24.9579 42.5012 24.828 42.5012H22.172C22.0421 42.5012 21.9375 42.3277 21.9375 42.1121C21.9375 41.9959 21.9679 41.8921 22.0163 41.8209L23.3362 39.6054C23.3782 39.5396 23.4346 39.499 23.4969 39.499C23.5593 39.499 23.6157 39.5396 23.6577 39.6054L24.9837 41.8209C25.0321 41.8921 25.0625 41.9959 25.0625 42.1121Z" fill="#555761"/>
<line x1="23.5" y1="41" x2="23.5" y2="86" stroke="#555761"/>
<g clip-path="url(#clip0)">
<path d="M20.112 43.9375C20.3276 43.9375 20.5012 44.0421 20.5012 44.172V46.828C20.5012 46.9579 20.3276 47.0625 20.112 47.0625C19.9958 47.0625 19.8921 47.0321 19.8209 46.9837L17.6054 45.6638C17.5396 45.6218 17.499 45.5654 17.499 45.5031C17.499 45.4407 17.5396 45.3843 17.6054 45.3423L19.8209 44.0163C19.8921 43.9679 19.9958 43.9375 20.112 43.9375Z" fill="#555761"/>
</g>
<line x1="19" y1="45.5" x2="108" y2="45.5" stroke="#555761"/>
<path d="M58.6548 39.3636H58.2145L57.3054 39.9673V40.4148L58.1932 39.8253H58.2145V43H58.6548V39.3636ZM59.7006 43H61.9947V42.6094H60.3043V42.581L61.1211 41.7074C61.7461 41.038 61.9308 40.7255 61.9308 40.3224C61.9308 39.7614 61.4762 39.3139 60.837 39.3139C60.1996 39.3139 59.7148 39.7472 59.7148 40.3864H60.1339C60.1339 39.9727 60.402 39.6974 60.8228 39.6974C61.217 39.6974 61.5188 39.9389 61.5188 40.3224C61.5188 40.658 61.3217 40.9066 60.9009 41.3665L59.7006 42.6804V43ZM63.8928 43.0497C64.619 43.0497 65.125 42.6254 65.1286 42.0341C65.125 41.5742 64.8178 41.1836 64.4254 41.1108V41.0895C64.7663 41.0007 64.9901 40.6669 64.9936 40.2798C64.9901 39.7259 64.5249 39.3139 63.8928 39.3139C63.2536 39.3139 62.7884 39.7259 62.7919 40.2798C62.7884 40.6669 63.0121 41.0007 63.3601 41.0895V41.1108C62.9606 41.1836 62.6534 41.5742 62.657 42.0341C62.6534 42.6254 63.1594 43.0497 63.8928 43.0497ZM63.8928 42.6591C63.3938 42.6591 63.0866 42.4034 63.0902 42.0128C63.0866 41.6026 63.4258 41.3097 63.8928 41.3097C64.3526 41.3097 64.6918 41.6026 64.6953 42.0128C64.6918 42.4034 64.3846 42.6591 63.8928 42.6591ZM63.8928 40.9332C63.495 40.9332 63.2145 40.6847 63.218 40.3082C63.2145 39.9389 63.4844 39.6974 63.8928 39.6974C64.294 39.6974 64.5639 39.9389 64.5675 40.3082C64.5639 40.6847 64.2834 40.9332 63.8928 40.9332ZM66.9951 43.0497C67.7977 43.0497 68.2593 42.3697 68.2593 41.1818C68.2593 40.0028 67.7906 39.3139 66.9951 39.3139C66.1997 39.3139 65.7309 40.0028 65.7309 41.1818C65.7309 42.3697 66.1926 43.0497 66.9951 43.0497ZM66.9951 42.6591C66.466 42.6591 66.157 42.1282 66.157 41.1818C66.157 40.2372 66.4695 39.6974 66.9951 39.6974C67.5207 39.6974 67.8332 40.2372 67.8332 41.1818C67.8332 42.1282 67.5242 42.6591 66.9951 42.6591ZM70.3474 44.0227H70.7664V42.581H70.8019C70.8943 42.7301 71.0718 43.0568 71.5974 43.0568C72.2792 43.0568 72.7551 42.5099 72.7551 41.6435C72.7551 40.7841 72.2792 40.2372 71.5903 40.2372C71.0576 40.2372 70.8943 40.5639 70.8019 40.706H70.7522V40.2727H70.3474V44.0227ZM70.7593 41.6364C70.7593 41.0256 71.0292 40.6136 71.5406 40.6136C72.0732 40.6136 72.336 41.0611 72.336 41.6364C72.336 42.2188 72.0661 42.6804 71.5406 42.6804C71.0363 42.6804 70.7593 42.2543 70.7593 41.6364ZM73.5945 40.2727H73.1115L73.978 41.6364L73.1115 43H73.5945L74.2479 41.9418L74.9013 43H75.3842L74.5036 41.6364L75.3842 40.2727H74.9013L74.2479 41.3878L73.5945 40.2727Z" fill="#4D4D4D"/>
<path d="M21.0497 72.4162C21.0586 71.6811 20.5046 71.2017 19.8281 71.2017C19.125 71.2017 18.6207 71.7219 18.6207 72.3452C18.6207 72.7198 18.8036 73.0412 19.1037 73.2401V73.2685C18.2177 73.2667 17.7045 72.9222 17.7045 72.3594C17.7045 71.9759 17.946 71.745 18.2727 71.6634V71.2301C17.7081 71.3189 17.3139 71.7486 17.3139 72.3594C17.3139 73.1779 18.0384 73.6804 19.3239 73.6804C20.668 73.6804 21.0426 73.0128 21.0497 72.4162ZM20.6591 72.4162C20.6591 72.8725 20.2702 73.2063 19.8352 73.2045C19.4002 73.2028 19.0114 72.853 19.0114 72.402C19.0114 71.9563 19.3771 71.6278 19.8281 71.6278C20.2898 71.6278 20.6591 71.9705 20.6591 72.4162ZM17.3139 69.3458C17.305 70.0844 17.8608 70.5603 18.5284 70.5603C19.2315 70.5603 19.7358 70.0418 19.7358 69.4168C19.7358 69.0404 19.5511 68.7208 19.2528 68.5219V68.4935C20.1477 68.4935 20.6591 68.8415 20.6591 69.4026C20.6591 69.7861 20.4176 70.0205 20.0838 70.0986V70.5319C20.6591 70.4466 21.0497 70.0134 21.0497 69.4026C21.0497 68.5858 20.3253 68.0816 19.0327 68.0816C17.6974 68.0816 17.321 68.7492 17.3139 69.3458ZM17.7045 69.3458C17.7045 68.8912 18.0952 68.5574 18.5213 68.5574C18.9545 68.5574 19.3452 68.9126 19.3452 69.36C19.3452 69.8074 18.983 70.1341 18.5284 70.1341C18.0739 70.1341 17.7045 69.7932 17.7045 69.3458ZM21 67.3833V65.0893H20.6094V66.7797H20.581L19.7074 65.9629C19.038 65.3379 18.7255 65.1532 18.3224 65.1532C17.7614 65.1532 17.3139 65.6078 17.3139 66.247C17.3139 66.8844 17.7472 67.3691 18.3864 67.3691V66.9501C17.9727 66.9501 17.6974 66.682 17.6974 66.2612C17.6974 65.867 17.9389 65.5652 18.3224 65.5652C18.658 65.5652 18.9066 65.7623 19.3665 66.1831L20.6804 67.3833H21ZM22.0227 62.9426V62.5236H20.581V62.4881C20.7301 62.3958 21.0568 62.2182 21.0568 61.6926C21.0568 61.0108 20.5099 60.535 19.6435 60.535C18.7841 60.535 18.2372 61.0108 18.2372 61.6998C18.2372 62.2324 18.5639 62.3958 18.706 62.4881V62.5378H18.2727V62.9426H22.0227ZM19.6364 62.5307C19.0256 62.5307 18.6136 62.2608 18.6136 61.7495C18.6136 61.2168 19.0611 60.954 19.6364 60.954C20.2188 60.954 20.6804 61.2239 20.6804 61.7495C20.6804 62.2537 20.2543 62.5307 19.6364 62.5307ZM18.2727 59.6956V60.1785L19.6364 59.3121L21 60.1785V59.6956L19.9418 59.0422L21 58.3888V57.9058L19.6364 58.7865L18.2727 57.9058V58.3888L19.3878 59.0422L18.2727 59.6956Z" fill="#4D4D4D"/>
<path d="M36.9716 59.2727H35.9148L33.733 60.7216V61.7955L35.8636 60.3807H35.9148V68H36.9716V59.2727ZM39.4815 68H44.9872V67.0625H40.9304V66.9943L42.8906 64.8977C44.3906 63.2912 44.8338 62.5412 44.8338 61.5739C44.8338 60.2273 43.7429 59.1534 42.2088 59.1534C40.679 59.1534 39.5156 60.1932 39.5156 61.7273H40.5213C40.5213 60.7344 41.1648 60.0739 42.1747 60.0739C43.1207 60.0739 43.8452 60.6534 43.8452 61.5739C43.8452 62.3793 43.3722 62.9759 42.3622 64.0795L39.4815 67.233V68ZM49.5426 68.1193C51.2855 68.1193 52.5 67.1009 52.5085 65.6818C52.5 64.5781 51.7628 63.6406 50.821 63.4659V63.4148C51.6392 63.2017 52.1761 62.4006 52.1847 61.4716C52.1761 60.142 51.0597 59.1534 49.5426 59.1534C48.0085 59.1534 46.892 60.142 46.9006 61.4716C46.892 62.4006 47.429 63.2017 48.2642 63.4148V63.4659C47.3054 63.6406 46.5682 64.5781 46.5767 65.6818C46.5682 67.1009 47.7827 68.1193 49.5426 68.1193ZM49.5426 67.1818C48.3452 67.1818 47.608 66.5682 47.6165 65.6307C47.608 64.6463 48.4219 63.9432 49.5426 63.9432C50.6463 63.9432 51.4602 64.6463 51.4688 65.6307C51.4602 66.5682 50.723 67.1818 49.5426 67.1818ZM49.5426 63.0398C48.5881 63.0398 47.9148 62.4432 47.9233 61.5398C47.9148 60.6534 48.5625 60.0739 49.5426 60.0739C50.5057 60.0739 51.1534 60.6534 51.1619 61.5398C51.1534 62.4432 50.4801 63.0398 49.5426 63.0398ZM56.9883 68.1193C58.9144 68.1193 60.0224 66.4872 60.0224 63.6364C60.0224 60.8068 58.8974 59.1534 56.9883 59.1534C55.0792 59.1534 53.9542 60.8068 53.9542 63.6364C53.9542 66.4872 55.0621 68.1193 56.9883 68.1193ZM56.9883 67.1818C55.7184 67.1818 54.9769 65.9077 54.9769 63.6364C54.9769 61.3693 55.7269 60.0739 56.9883 60.0739C58.2496 60.0739 58.9996 61.3693 58.9996 63.6364C58.9996 65.9077 58.2582 67.1818 56.9883 67.1818ZM70.1474 66.4318L70.7951 65.7841L68.7156 63.7045L70.7951 61.625L70.1474 60.9773L68.0678 63.0568L65.9883 60.9773L65.3406 61.625L67.4201 63.7045L65.3406 65.7841L65.9883 66.4318L68.0678 64.3523L70.1474 66.4318ZM79.1996 68.1193C80.9638 68.1406 82.1143 66.8111 82.1143 65.1875C82.1143 63.5 80.8658 62.2898 79.37 62.2898C78.4709 62.2898 77.6996 62.7287 77.2223 63.4489H77.1541C77.1584 61.3224 77.9851 60.0909 79.3359 60.0909C80.2564 60.0909 80.8104 60.6705 81.0064 61.4545H82.0462C81.8331 60.0994 80.8018 59.1534 79.3359 59.1534C77.3714 59.1534 76.1655 60.892 76.1655 63.9773C76.1655 67.2031 77.7678 68.1023 79.1996 68.1193ZM79.1996 67.1818C78.1044 67.1818 77.3033 66.2486 77.3075 65.2045C77.3118 64.1605 78.1513 63.2273 79.2337 63.2273C80.3033 63.2273 81.0916 64.1051 81.0916 65.1875C81.0916 66.2955 80.2692 67.1818 79.1996 67.1818ZM86.5685 59.1534C84.7958 59.1321 83.6538 60.4659 83.6538 62.0682C83.6538 63.7557 84.8981 64.9659 86.3981 64.9659C87.3015 64.9659 88.0685 64.5227 88.5458 63.8068H88.614C88.614 65.9545 87.7788 67.1818 86.4322 67.1818C85.5117 67.1818 84.9492 66.6023 84.7617 65.8011H83.7219C83.9265 67.1818 84.9663 68.1193 86.4322 68.1193C88.3924 68.1193 89.6026 66.3807 89.6026 63.2784C89.6026 60.0739 88.0004 59.1705 86.5685 59.1534ZM86.5685 60.0909C87.6594 60.0909 88.4606 61.0284 88.4606 62.0511C88.4606 63.0909 87.6083 64.0284 86.5344 64.0284C85.4606 64.0284 84.6765 63.1591 84.6765 62.0682C84.6765 60.9773 85.4947 60.0909 86.5685 60.0909ZM91.2784 68H96.7841V67.0625H92.7273V66.9943L94.6875 64.8977C96.1875 63.2912 96.6307 62.5412 96.6307 61.5739C96.6307 60.2273 95.5398 59.1534 94.0057 59.1534C92.4759 59.1534 91.3125 60.1932 91.3125 61.7273H92.3182C92.3182 60.7344 92.9616 60.0739 93.9716 60.0739C94.9176 60.0739 95.642 60.6534 95.642 61.5739C95.642 62.3793 95.169 62.9759 94.1591 64.0795L91.2784 67.233V68Z" fill="black"/>
<defs>
<clipPath id="clip0">
<rect width="5" height="8" fill="white" transform="translate(15 48) rotate(-90)"/>
</clipPath>
</defs>
</svg>
