<svg width="128" height="128" viewBox="0 0 128 128" fill="none" xmlns="http://www.w3.org/2000/svg">
<rect x="16" y="28" width="95" height="71" fill="white"/>
<path d="M25.0625 32.1121C25.0625 32.3277 24.9579 32.5012 24.828 32.5012H22.172C22.0421 32.5012 21.9375 32.3277 21.9375 32.1121C21.9375 31.9959 21.9679 31.8921 22.0163 31.8209L23.3362 29.6054C23.3782 29.5396 23.4346 29.499 23.4969 29.499C23.5593 29.499 23.6157 29.5396 23.6577 29.6054L24.9837 31.8209C25.0321 31.8921 25.0625 31.9959 25.0625 32.1121Z" fill="#555761"/>
<line x1="23.5" y1="31" x2="23.5" y2="96" stroke="#555761"/>
<g clip-path="url(#clip0)">
<path d="M20.112 33.9375C20.3276 33.9375 20.5012 34.0421 20.5012 34.172V36.828C20.5012 36.9579 20.3276 37.0625 20.112 37.0625C19.9958 37.0625 19.8921 37.0321 19.8209 36.9837L17.6054 35.6638C17.5396 35.6218 17.499 35.5654 17.499 35.5031C17.499 35.4407 17.5396 35.3843 17.6054 35.3423L19.8209 34.0163C19.8921 33.9679 19.9958 33.9375 20.112 33.9375Z" fill="#555761"/>
</g>
<line x1="19" y1="35.5" x2="108" y2="35.5" stroke="#555761"/>
<path d="M58.6548 29.3636H58.2145L57.3054 29.9673V30.4148L58.1932 29.8253H58.2145V33H58.6548V29.3636ZM59.6154 32.2543H61.3271V33H61.7461V32.2543H62.2433V31.8636H61.7461V29.3636H61.2134L59.6154 31.892V32.2543ZM61.3271 31.8636H60.0913V31.8352L61.2987 29.9247H61.3271V31.8636ZM62.8234 32.2543H64.5351V33H64.9541V32.2543H65.4513V31.8636H64.9541V29.3636H64.4214L62.8234 31.892V32.2543ZM64.5351 31.8636H63.2993V31.8352L64.5067 29.9247H64.5351V31.8636ZM67.3027 33.0497C68.1053 33.0497 68.5669 32.3697 68.5669 31.1818C68.5669 30.0028 68.0982 29.3139 67.3027 29.3139C66.5073 29.3139 66.0385 30.0028 66.0385 31.1818C66.0385 32.3697 66.5002 33.0497 67.3027 33.0497ZM67.3027 32.6591C66.7736 32.6591 66.4647 32.1282 66.4647 31.1818C66.4647 30.2372 66.7772 29.6974 67.3027 29.6974C67.8283 29.6974 68.1408 30.2372 68.1408 31.1818C68.1408 32.1282 67.8319 32.6591 67.3027 32.6591ZM70.655 34.0227H71.074V32.581H71.1096C71.2019 32.7301 71.3794 33.0568 71.905 33.0568C72.5868 33.0568 73.0627 32.5099 73.0627 31.6435C73.0627 30.7841 72.5868 30.2372 71.8979 30.2372C71.3652 30.2372 71.2019 30.5639 71.1096 30.706H71.0598V30.2727H70.655V34.0227ZM71.0669 31.6364C71.0669 31.0256 71.3368 30.6136 71.8482 30.6136C72.3809 30.6136 72.6436 31.0611 72.6436 31.6364C72.6436 32.2188 72.3738 32.6804 71.8482 32.6804C71.3439 32.6804 71.0669 32.2543 71.0669 31.6364ZM73.9021 30.2727H73.4191L74.2856 31.6364L73.4191 33H73.9021L74.5555 31.9418L75.2089 33H75.6919L74.8112 31.6364L75.6919 30.2727H75.2089L74.5555 31.3878L73.9021 30.2727Z" fill="#4D4D4D"/>
<path d="M17.3636 72.3452V72.7855L17.9673 73.6946H18.4148L17.8253 72.8068V72.7855H21V72.3452H17.3636ZM21.0497 70.1133C21.0497 69.3107 20.3697 68.8491 19.1818 68.8491C18.0028 68.8491 17.3139 69.3178 17.3139 70.1133C17.3139 70.9087 18.0028 71.3775 19.1818 71.3775C20.3697 71.3775 21.0497 70.9158 21.0497 70.1133ZM20.6591 70.1133C20.6591 70.6424 20.1282 70.9513 19.1818 70.9513C18.2372 70.9513 17.6974 70.6388 17.6974 70.1133C17.6974 69.5877 18.2372 69.2752 19.1818 69.2752C20.1282 69.2752 20.6591 69.5842 20.6591 70.1133ZM21.0497 67.0096C21.0497 66.2834 20.6254 65.7773 20.0341 65.7738C19.5742 65.7773 19.1836 66.0845 19.1108 66.4769H19.0895C19.0007 66.136 18.6669 65.9123 18.2798 65.9087C17.7259 65.9123 17.3139 66.3775 17.3139 67.0096C17.3139 67.6488 17.7259 68.114 18.2798 68.1104C18.6669 68.114 19.0007 67.8903 19.0895 67.5423H19.1108C19.1836 67.9418 19.5742 68.2489 20.0341 68.2454C20.6254 68.2489 21.0497 67.7429 21.0497 67.0096ZM20.6591 67.0096C20.6591 67.5085 20.4034 67.8157 20.0128 67.8121C19.6026 67.8157 19.3097 67.4766 19.3097 67.0096C19.3097 66.5497 19.6026 66.2106 20.0128 66.207C20.4034 66.2106 20.6591 66.5178 20.6591 67.0096ZM18.9332 67.0096C18.9332 67.4073 18.6847 67.6879 18.3082 67.6843C17.9389 67.6879 17.6974 67.418 17.6974 67.0096C17.6974 66.6083 17.9389 66.3384 18.3082 66.3349C18.6847 66.3384 18.9332 66.619 18.9332 67.0096ZM21.0497 63.9072C21.0497 63.1047 20.3697 62.643 19.1818 62.643C18.0028 62.643 17.3139 63.1118 17.3139 63.9072C17.3139 64.7027 18.0028 65.1714 19.1818 65.1714C20.3697 65.1714 21.0497 64.7098 21.0497 63.9072ZM20.6591 63.9072C20.6591 64.4363 20.1282 64.7453 19.1818 64.7453C18.2372 64.7453 17.6974 64.4328 17.6974 63.9072C17.6974 63.3817 18.2372 63.0692 19.1818 63.0692C20.1282 63.0692 20.6591 63.3781 20.6591 63.9072ZM22.0227 60.555V60.1359H20.581V60.1004C20.7301 60.0081 21.0568 59.8305 21.0568 59.305C21.0568 58.6231 20.5099 58.1473 19.6435 58.1473C18.7841 58.1473 18.2372 58.6231 18.2372 59.3121C18.2372 59.8447 18.5639 60.0081 18.706 60.1004V60.1501H18.2727V60.555H22.0227ZM19.6364 60.143C19.0256 60.143 18.6136 59.8731 18.6136 59.3618C18.6136 58.8291 19.0611 58.5663 19.6364 58.5663C20.2188 58.5663 20.6804 58.8362 20.6804 59.3618C20.6804 59.866 20.2543 60.143 19.6364 60.143ZM18.2727 57.3079V57.7908L19.6364 56.9244L21 57.7908V57.3079L19.9418 56.6545L21 56.0011V55.5181L19.6364 56.3988L18.2727 55.5181V56.0011L19.3878 56.6545L18.2727 57.3079Z" fill="#4D4D4D"/>
<path d="M34.9716 59.2727H33.9148L31.733 60.7216V61.7955L33.8636 60.3807H33.9148V68H34.9716V59.2727ZM37.277 66.2102H41.3849V68H42.3906V66.2102H43.5838V65.2727H42.3906V59.2727H41.1122L37.277 65.3409V66.2102ZM41.3849 65.2727H38.419V65.2045L41.3168 60.6193H41.3849V65.2727ZM44.9762 66.2102H49.0842V68H50.0898V66.2102H51.283V65.2727H50.0898V59.2727H48.8114L44.9762 65.3409V66.2102ZM49.0842 65.2727H46.1183V65.2045L49.016 60.6193H49.0842V65.2727ZM55.7266 68.1193C57.6527 68.1193 58.7607 66.4872 58.7607 63.6364C58.7607 60.8068 57.6357 59.1534 55.7266 59.1534C53.8175 59.1534 52.6925 60.8068 52.6925 63.6364C52.6925 66.4872 53.8004 68.1193 55.7266 68.1193ZM55.7266 67.1818C54.4567 67.1818 53.7152 65.9077 53.7152 63.6364C53.7152 61.3693 54.4652 60.0739 55.7266 60.0739C56.9879 60.0739 57.7379 61.3693 57.7379 63.6364C57.7379 65.9077 56.9964 67.1818 55.7266 67.1818ZM68.8857 66.4318L69.5334 65.7841L67.4538 63.7045L69.5334 61.625L68.8857 60.9773L66.8061 63.0568L64.7266 60.9773L64.0788 61.625L66.1584 63.7045L64.0788 65.7841L64.7266 66.4318L66.8061 64.3523L68.8857 66.4318ZM78.1083 59.2727H77.0515L74.8697 60.7216V61.7955L77.0004 60.3807H77.0515V68H78.1083V59.2727ZM83.4648 68.1193C85.391 68.1193 86.4989 66.4872 86.4989 63.6364C86.4989 60.8068 85.3739 59.1534 83.4648 59.1534C81.5558 59.1534 80.4308 60.8068 80.4308 63.6364C80.4308 66.4872 81.5387 68.1193 83.4648 68.1193ZM83.4648 67.1818C82.195 67.1818 81.4535 65.9077 81.4535 63.6364C81.4535 61.3693 82.2035 60.0739 83.4648 60.0739C84.7262 60.0739 85.4762 61.3693 85.4762 63.6364C85.4762 65.9077 84.7347 67.1818 83.4648 67.1818ZM90.9137 68.1193C92.6566 68.1193 93.8711 67.1009 93.8796 65.6818C93.8711 64.5781 93.1339 63.6406 92.1921 63.4659V63.4148C93.0103 63.2017 93.5472 62.4006 93.5558 61.4716C93.5472 60.142 92.4308 59.1534 90.9137 59.1534C89.3796 59.1534 88.2631 60.142 88.2717 61.4716C88.2631 62.4006 88.8001 63.2017 89.6353 63.4148V63.4659C88.6765 63.6406 87.9393 64.5781 87.9478 65.6818C87.9393 67.1009 89.1538 68.1193 90.9137 68.1193ZM90.9137 67.1818C89.7163 67.1818 88.979 66.5682 88.9876 65.6307C88.979 64.6463 89.793 63.9432 90.9137 63.9432C92.0174 63.9432 92.8313 64.6463 92.8398 65.6307C92.8313 66.5682 92.0941 67.1818 90.9137 67.1818ZM90.9137 63.0398C89.9592 63.0398 89.2859 62.4432 89.2944 61.5398C89.2859 60.6534 89.9336 60.0739 90.9137 60.0739C91.8768 60.0739 92.5245 60.6534 92.533 61.5398C92.5245 62.4432 91.8512 63.0398 90.9137 63.0398ZM98.3594 68.1193C100.286 68.1193 101.393 66.4872 101.393 63.6364C101.393 60.8068 100.268 59.1534 98.3594 59.1534C96.4503 59.1534 95.3253 60.8068 95.3253 63.6364C95.3253 66.4872 96.4332 68.1193 98.3594 68.1193ZM98.3594 67.1818C97.0895 67.1818 96.348 65.9077 96.348 63.6364C96.348 61.3693 97.098 60.0739 98.3594 60.0739C99.6207 60.0739 100.371 61.3693 100.371 63.6364C100.371 65.9077 99.6293 67.1818 98.3594 67.1818Z" fill="black"/>
<defs>
<clipPath id="clip0">
<rect width="5" height="8" fill="white" transform="translate(15 38) rotate(-90)"/>
</clipPath>
</defs>
</svg>
