<svg width="128" height="128" viewBox="0 0 128 128" fill="none" xmlns="http://www.w3.org/2000/svg">
<rect x="13" y="33" width="102" height="62" fill="white"/>
<path d="M16.4731 38.9375C16.6617 38.9375 16.8136 39.0421 16.8136 39.172V41.828C16.8136 41.9579 16.6617 42.0625 16.4731 42.0625C16.3714 42.0625 16.2806 42.0321 16.2183 41.9837L14.2798 40.6638C14.2222 40.6218 14.1866 40.5654 14.1866 40.5031C14.1866 40.4407 14.2222 40.3843 14.2798 40.3423L16.2183 39.0163C16.2806 38.9679 16.3714 38.9375 16.4731 38.9375Z" fill="#555761"/>
<line x1="15" y1="40.5" x2="112" y2="40.5" stroke="#555761"/>
<path d="M22.0625 36.4732C22.0625 36.6618 21.9579 36.8137 21.828 36.8137H19.172C19.0421 36.8137 18.9375 36.6618 18.9375 36.4732C18.9375 36.3715 18.9679 36.2807 19.0163 36.2184L20.3362 34.2799C20.3782 34.2223 20.4346 34.1868 20.4969 34.1868C20.5593 34.1868 20.6157 34.2223 20.6577 34.2799L21.9837 36.2184C22.0321 36.2807 22.0625 36.3715 22.0625 36.4732Z" fill="#555761"/>
<line x1="20.5" y1="36" x2="20.5" y2="92" stroke="#555761"/>
<path d="M59.6548 34.3636H59.2145L58.3054 34.9673V35.4148L59.1932 34.8253H59.2145V38H59.6548V34.3636ZM61.8583 34.3139C61.1197 34.305 60.6438 34.8608 60.6438 35.5284C60.6438 36.2315 61.1623 36.7358 61.7873 36.7358C62.1637 36.7358 62.4833 36.5511 62.6822 36.2528H62.7106C62.7106 37.1477 62.3626 37.6591 61.8015 37.6591C61.418 37.6591 61.1836 37.4176 61.1055 37.0838H60.6722C60.7575 37.6591 61.1907 38.0497 61.8015 38.0497C62.6183 38.0497 63.1225 37.3253 63.1225 36.0327C63.1225 34.6974 62.4549 34.321 61.8583 34.3139ZM61.8583 34.7045C62.3129 34.7045 62.6467 35.0952 62.6467 35.5213C62.6467 35.9545 62.2915 36.3452 61.8441 36.3452C61.3967 36.3452 61.07 35.983 61.07 35.5284C61.07 35.0739 61.4109 34.7045 61.8583 34.7045ZM63.8208 38H66.1148V37.6094H64.4244V37.581L65.2412 36.7074C65.8662 36.038 66.0509 35.7255 66.0509 35.3224C66.0509 34.7614 65.5963 34.3139 64.9571 34.3139C64.3197 34.3139 63.835 34.7472 63.835 35.3864H64.254C64.254 34.9727 64.5221 34.6974 64.9429 34.6974C65.3371 34.6974 65.6389 34.9389 65.6389 35.3224C65.6389 35.658 65.4419 35.9066 65.021 36.3665L63.8208 37.6804V38ZM68.0342 38.0497C68.8367 38.0497 69.2984 37.3697 69.2984 36.1818C69.2984 35.0028 68.8296 34.3139 68.0342 34.3139C67.2387 34.3139 66.77 35.0028 66.77 36.1818C66.77 37.3697 67.2316 38.0497 68.0342 38.0497ZM68.0342 37.6591C67.5051 37.6591 67.1961 37.1282 67.1961 36.1818C67.1961 35.2372 67.5086 34.6974 68.0342 34.6974C68.5597 34.6974 68.8722 35.2372 68.8722 36.1818C68.8722 37.1282 68.5633 37.6591 68.0342 37.6591ZM71.3865 39.0227H71.8055V37.581H71.841C71.9333 37.7301 72.1109 38.0568 72.6365 38.0568C73.3183 38.0568 73.7941 37.5099 73.7941 36.6435C73.7941 35.7841 73.3183 35.2372 72.6294 35.2372C72.0967 35.2372 71.9333 35.5639 71.841 35.706H71.7913V35.2727H71.3865V39.0227ZM71.7984 36.6364C71.7984 36.0256 72.0683 35.6136 72.5796 35.6136C73.1123 35.6136 73.3751 36.0611 73.3751 36.6364C73.3751 37.2188 73.1052 37.6804 72.5796 37.6804C72.0754 37.6804 71.7984 37.2543 71.7984 36.6364ZM74.6335 35.2727H74.1506L75.017 36.6364L74.1506 38H74.6335L75.2869 36.9418L75.9403 38H76.4233L75.5426 36.6364L76.4233 35.2727H75.9403L75.2869 36.3878L74.6335 35.2727Z" fill="black"/>
<path d="M14.3636 71.3452V71.7855L14.9673 72.6946H15.4148L14.8253 71.8068V71.7855H18V71.3452H14.3636ZM14.3636 69.021V69.4613L14.9673 70.3704H15.4148L14.8253 69.4826V69.4613H18V69.021H14.3636ZM18.0497 66.8388C18.0497 66.1463 17.5384 65.6385 16.8423 65.6385C16.1374 65.6385 15.6207 66.1286 15.6207 66.7962C15.6207 67.0412 15.7077 67.2791 15.8267 67.4283V67.4496L14.7543 67.3217V65.8018H14.3636V67.6911L16.1534 67.9112L16.2031 67.4993C16.0948 67.3484 16.0167 67.0909 16.0185 66.8672C16.022 66.4038 16.3736 66.0646 16.8494 66.0646C17.3164 66.0646 17.6591 66.3913 17.6591 66.8388C17.6591 67.2116 17.4194 67.5082 17.0909 67.5419V67.968C17.6449 67.9414 18.0497 67.4638 18.0497 66.8388ZM18 64.9331V62.6391H17.6094V64.3295H17.581L16.7074 63.5127C16.038 62.8877 15.7255 62.703 15.3224 62.703C14.7614 62.703 14.3139 63.1576 14.3139 63.7968C14.3139 64.4342 14.7472 64.9189 15.3864 64.9189V64.4999C14.9727 64.4999 14.6974 64.2318 14.6974 63.811C14.6974 63.4168 14.9389 63.115 15.3224 63.115C15.658 63.115 15.9066 63.3121 16.3665 63.7329L17.6804 64.9331H18ZM19.0227 60.4925V60.0734H17.581V60.0379C17.7301 59.9456 18.0568 59.768 18.0568 59.2425C18.0568 58.5606 17.5099 58.0848 16.6435 58.0848C15.7841 58.0848 15.2372 58.5606 15.2372 59.2496C15.2372 59.7822 15.5639 59.9456 15.706 60.0379V60.0876H15.2727V60.4925H19.0227ZM16.6364 60.0805C16.0256 60.0805 15.6136 59.8106 15.6136 59.2993C15.6136 58.7666 16.0611 58.5038 16.6364 58.5038C17.2188 58.5038 17.6804 58.7737 17.6804 59.2993C17.6804 59.8035 17.2543 60.0805 16.6364 60.0805ZM15.2727 57.2454V57.7283L16.6364 56.8619L18 57.7283V57.2454L16.9418 56.592L18 55.9386V55.4556L16.6364 56.3363L15.2727 55.4556V55.9386L16.3878 56.592L15.2727 57.2454Z" fill="black"/>
<path d="M35.9716 59.2727H34.9148L32.733 60.7216V61.7955L34.8636 60.3807H34.9148V68H35.9716V59.2727ZM41.2599 59.1534C39.4872 59.1321 38.3452 60.4659 38.3452 62.0682C38.3452 63.7557 39.5895 64.9659 41.0895 64.9659C41.9929 64.9659 42.7599 64.5227 43.2372 63.8068H43.3054C43.3054 65.9545 42.4702 67.1818 41.1236 67.1818C40.2031 67.1818 39.6406 66.6023 39.4531 65.8011H38.4134C38.6179 67.1818 39.6577 68.1193 41.1236 68.1193C43.0838 68.1193 44.294 66.3807 44.294 63.2784C44.294 60.0739 42.6918 59.1705 41.2599 59.1534ZM41.2599 60.0909C42.3509 60.0909 43.152 61.0284 43.152 62.0511C43.152 63.0909 42.2997 64.0284 41.2259 64.0284C40.152 64.0284 39.3679 63.1591 39.3679 62.0682C39.3679 60.9773 40.1861 60.0909 41.2599 60.0909ZM45.9698 68H51.4755V67.0625H47.4187V66.9943L49.3789 64.8977C50.8789 63.2912 51.3221 62.5412 51.3221 61.5739C51.3221 60.2273 50.2312 59.1534 48.6971 59.1534C47.1673 59.1534 46.0039 60.1932 46.0039 61.7273H47.0096C47.0096 60.7344 47.6531 60.0739 48.663 60.0739C49.609 60.0739 50.3335 60.6534 50.3335 61.5739C50.3335 62.3793 49.8604 62.9759 48.8505 64.0795L45.9698 67.233V68ZM56.082 68.1193C58.0082 68.1193 59.1161 66.4872 59.1161 63.6364C59.1161 60.8068 57.9911 59.1534 56.082 59.1534C54.1729 59.1534 53.0479 60.8068 53.0479 63.6364C53.0479 66.4872 54.1559 68.1193 56.082 68.1193ZM56.082 67.1818C54.8121 67.1818 54.0707 65.9077 54.0707 63.6364C54.0707 61.3693 54.8207 60.0739 56.082 60.0739C57.3434 60.0739 58.0934 61.3693 58.0934 63.6364C58.0934 65.9077 57.3519 67.1818 56.082 67.1818ZM69.2411 66.4318L69.8888 65.7841L67.8093 63.7045L69.8888 61.625L69.2411 60.9773L67.1616 63.0568L65.082 60.9773L64.4343 61.625L66.5138 63.7045L64.4343 65.7841L65.082 66.4318L67.1616 64.3523L69.2411 66.4318ZM78.4638 59.2727H77.407L75.2251 60.7216V61.7955L77.3558 60.3807H77.407V68H78.4638V59.2727ZM84.0419 59.2727H82.9851L80.8033 60.7216V61.7955L82.9339 60.3807H82.9851V68H84.0419V59.2727ZM89.2791 68.1193C90.9411 68.1193 92.1598 66.892 92.1598 65.2216C92.1598 63.5298 90.9837 62.2898 89.3814 62.2898C88.7933 62.2898 88.2223 62.4986 87.8643 62.7841H87.8132L88.12 60.2102H91.7678V59.2727H87.2337L86.7053 63.5682L87.6939 63.6875C88.0561 63.4276 88.674 63.2401 89.2109 63.2443C90.3232 63.2528 91.1371 64.0966 91.1371 65.2386C91.1371 66.3594 90.353 67.1818 89.2791 67.1818C88.3842 67.1818 87.6726 66.6065 87.5916 65.8182H86.5689C86.6328 67.1477 87.7791 68.1193 89.2791 68.1193ZM93.8526 68H99.3583V67.0625H95.3015V66.9943L97.2617 64.8977C98.7617 63.2912 99.2049 62.5412 99.2049 61.5739C99.2049 60.2273 98.114 59.1534 96.5799 59.1534C95.0501 59.1534 93.8867 60.1932 93.8867 61.7273H94.8924C94.8924 60.7344 95.5359 60.0739 96.5458 60.0739C97.4918 60.0739 98.2163 60.6534 98.2163 61.5739C98.2163 62.3793 97.7433 62.9759 96.7333 64.0795L93.8526 67.233V68Z" fill="black"/>
</svg>
