<svg width="128" height="128" viewBox="0 0 128 128" fill="none" xmlns="http://www.w3.org/2000/svg">
<rect x="13" y="22" width="102" height="84" fill="white"/>
<path d="M16.4731 27.9375C16.6617 27.9375 16.8136 28.0421 16.8136 28.172V30.828C16.8136 30.9579 16.6617 31.0625 16.4731 31.0625C16.3714 31.0625 16.2806 31.0321 16.2183 30.9837L14.2798 29.6638C14.2222 29.6218 14.1866 29.5654 14.1866 29.5031C14.1866 29.4407 14.2222 29.3843 14.2798 29.3423L16.2183 28.0163C16.2806 27.9679 16.3714 27.9375 16.4731 27.9375Z" fill="#555761"/>
<line x1="15" y1="29.5" x2="112" y2="29.5" stroke="#555761"/>
<path d="M22.0625 25.4731C22.0625 25.6617 21.9579 25.8136 21.828 25.8136H19.172C19.0421 25.8136 18.9375 25.6617 18.9375 25.4731C18.9375 25.3714 18.9679 25.2806 19.0163 25.2183L20.3362 23.2798C20.3782 23.2222 20.4346 23.1866 20.4969 23.1866C20.5593 23.1866 20.6157 23.2222 20.6577 23.2798L21.9837 25.2183C22.0321 25.2806 22.0625 25.3714 22.0625 25.4731Z" fill="#555761"/>
<line x1="20.5" y1="25" x2="20.5" y2="103" stroke="#555761"/>
<path d="M59.6548 23.3636H59.2145L58.3054 23.9673V24.4148L59.1932 23.8253H59.2145V27H59.6548V23.3636ZM61.8583 23.3139C61.1197 23.305 60.6438 23.8608 60.6438 24.5284C60.6438 25.2315 61.1623 25.7358 61.7873 25.7358C62.1637 25.7358 62.4833 25.5511 62.6822 25.2528H62.7106C62.7106 26.1477 62.3626 26.6591 61.8015 26.6591C61.418 26.6591 61.1836 26.4176 61.1055 26.0838H60.6722C60.7575 26.6591 61.1907 27.0497 61.8015 27.0497C62.6183 27.0497 63.1225 26.3253 63.1225 25.0327C63.1225 23.6974 62.4549 23.321 61.8583 23.3139ZM61.8583 23.7045C62.3129 23.7045 62.6467 24.0952 62.6467 24.5213C62.6467 24.9545 62.2915 25.3452 61.8441 25.3452C61.3967 25.3452 61.07 24.983 61.07 24.5284C61.07 24.0739 61.4109 23.7045 61.8583 23.7045ZM63.8208 27H66.1148V26.6094H64.4244V26.581L65.2412 25.7074C65.8662 25.038 66.0509 24.7255 66.0509 24.3224C66.0509 23.7614 65.5963 23.3139 64.9571 23.3139C64.3197 23.3139 63.835 23.7472 63.835 24.3864H64.254C64.254 23.9727 64.5221 23.6974 64.9429 23.6974C65.3371 23.6974 65.6389 23.9389 65.6389 24.3224C65.6389 24.658 65.4419 24.9066 65.021 25.3665L63.8208 26.6804V27ZM68.0342 27.0497C68.8367 27.0497 69.2984 26.3697 69.2984 25.1818C69.2984 24.0028 68.8296 23.3139 68.0342 23.3139C67.2387 23.3139 66.77 24.0028 66.77 25.1818C66.77 26.3697 67.2316 27.0497 68.0342 27.0497ZM68.0342 26.6591C67.5051 26.6591 67.1961 26.1282 67.1961 25.1818C67.1961 24.2372 67.5086 23.6974 68.0342 23.6974C68.5597 23.6974 68.8722 24.2372 68.8722 25.1818C68.8722 26.1282 68.5633 26.6591 68.0342 26.6591ZM71.3865 28.0227H71.8055V26.581H71.841C71.9333 26.7301 72.1109 27.0568 72.6365 27.0568C73.3183 27.0568 73.7941 26.5099 73.7941 25.6435C73.7941 24.7841 73.3183 24.2372 72.6294 24.2372C72.0967 24.2372 71.9333 24.5639 71.841 24.706H71.7913V24.2727H71.3865V28.0227ZM71.7984 25.6364C71.7984 25.0256 72.0683 24.6136 72.5796 24.6136C73.1123 24.6136 73.3751 25.0611 73.3751 25.6364C73.3751 26.2188 73.1052 26.6804 72.5796 26.6804C72.0754 26.6804 71.7984 26.2543 71.7984 25.6364ZM74.6335 24.2727H74.1506L75.017 25.6364L74.1506 27H74.6335L75.2869 25.9418L75.9403 27H76.4233L75.5426 25.6364L76.4233 24.2727H75.9403L75.2869 25.3878L74.6335 24.2727Z" fill="black"/>
<path d="M14.3636 71.3452V71.7855L14.9673 72.6946H15.4148L14.8253 71.8068V71.7855H18V71.3452H14.3636ZM17.2543 70.3846V68.6729H18V68.2539H17.2543V67.7567H16.8636V68.2539H14.3636V68.7866L16.892 70.3846H17.2543ZM16.8636 68.6729V69.9087H16.8352L14.9247 68.7013V68.6729H16.8636ZM17.2543 67.1766V65.4649H18V65.0459H17.2543V64.5487H16.8636V65.0459H14.3636V65.5786L16.892 67.1766H17.2543ZM16.8636 65.4649V66.7007H16.8352L14.9247 65.4933V65.4649H16.8636ZM18.0497 62.6973C18.0497 61.8947 17.3697 61.4331 16.1818 61.4331C15.0028 61.4331 14.3139 61.9018 14.3139 62.6973C14.3139 63.4927 15.0028 63.9615 16.1818 63.9615C17.3697 63.9615 18.0497 63.4998 18.0497 62.6973ZM17.6591 62.6973C17.6591 63.2264 17.1282 63.5353 16.1818 63.5353C15.2372 63.5353 14.6974 63.2228 14.6974 62.6973C14.6974 62.1717 15.2372 61.8592 16.1818 61.8592C17.1282 61.8592 17.6591 62.1681 17.6591 62.6973ZM19.0227 59.345V58.926H17.581V58.8904C17.7301 58.7981 18.0568 58.6206 18.0568 58.095C18.0568 57.4132 17.5099 56.9373 16.6435 56.9373C15.7841 56.9373 15.2372 57.4132 15.2372 58.1021C15.2372 58.6348 15.5639 58.7981 15.706 58.8904V58.9402H15.2727V59.345H19.0227ZM16.6364 58.9331C16.0256 58.9331 15.6136 58.6632 15.6136 58.1518C15.6136 57.6191 16.0611 57.3564 16.6364 57.3564C17.2188 57.3564 17.6804 57.6262 17.6804 58.1518C17.6804 58.6561 17.2543 58.9331 16.6364 58.9331ZM15.2727 56.0979V56.5809L16.6364 55.7144L18 56.5809V56.0979L16.9418 55.4445L18 54.7911V54.3081L16.6364 55.1888L15.2727 54.3081V54.7911L16.3878 55.4445L15.2727 56.0979Z" fill="black"/>
<path d="M38.9716 59.2727H37.9148L35.733 60.7216V61.7955L37.8636 60.3807H37.9148V68H38.9716V59.2727ZM44.2599 59.1534C42.4872 59.1321 41.3452 60.4659 41.3452 62.0682C41.3452 63.7557 42.5895 64.9659 44.0895 64.9659C44.9929 64.9659 45.7599 64.5227 46.2372 63.8068H46.3054C46.3054 65.9545 45.4702 67.1818 44.1236 67.1818C43.2031 67.1818 42.6406 66.6023 42.4531 65.8011H41.4134C41.6179 67.1818 42.6577 68.1193 44.1236 68.1193C46.0838 68.1193 47.294 66.3807 47.294 63.2784C47.294 60.0739 45.6918 59.1705 44.2599 59.1534ZM44.2599 60.0909C45.3509 60.0909 46.152 61.0284 46.152 62.0511C46.152 63.0909 45.2997 64.0284 44.2259 64.0284C43.152 64.0284 42.3679 63.1591 42.3679 62.0682C42.3679 60.9773 43.1861 60.0909 44.2599 60.0909ZM48.9698 68H54.4755V67.0625H50.4187V66.9943L52.3789 64.8977C53.8789 63.2912 54.3221 62.5412 54.3221 61.5739C54.3221 60.2273 53.2312 59.1534 51.6971 59.1534C50.1673 59.1534 49.0039 60.1932 49.0039 61.7273H50.0096C50.0096 60.7344 50.6531 60.0739 51.663 60.0739C52.609 60.0739 53.3335 60.6534 53.3335 61.5739C53.3335 62.3793 52.8604 62.9759 51.8505 64.0795L48.9698 67.233V68ZM59.082 68.1193C61.0082 68.1193 62.1161 66.4872 62.1161 63.6364C62.1161 60.8068 60.9911 59.1534 59.082 59.1534C57.1729 59.1534 56.0479 60.8068 56.0479 63.6364C56.0479 66.4872 57.1559 68.1193 59.082 68.1193ZM59.082 67.1818C57.8121 67.1818 57.0707 65.9077 57.0707 63.6364C57.0707 61.3693 57.8207 60.0739 59.082 60.0739C60.3434 60.0739 61.0934 61.3693 61.0934 63.6364C61.0934 65.9077 60.3519 67.1818 59.082 67.1818ZM72.2411 66.4318L72.8888 65.7841L70.8093 63.7045L72.8888 61.625L72.2411 60.9773L70.1616 63.0568L68.082 60.9773L67.4343 61.625L69.5138 63.7045L67.4343 65.7841L68.082 66.4318L70.1616 64.3523L72.2411 66.4318ZM81.4638 59.2727H80.407L78.2251 60.7216V61.7955L80.3558 60.3807H80.407V68H81.4638V59.2727ZM83.7692 66.2102H87.8771V68H88.8828V66.2102H90.076V65.2727H88.8828V59.2727H87.6044L83.7692 65.3409V66.2102ZM87.8771 65.2727H84.9112V65.2045L87.8089 60.6193H87.8771V65.2727ZM91.4684 66.2102H95.5763V68H96.582V66.2102H97.7752V65.2727H96.582V59.2727H95.3036L91.4684 65.3409V66.2102ZM95.5763 65.2727H92.6104V65.2045L95.5082 60.6193H95.5763V65.2727ZM102.219 68.1193C104.145 68.1193 105.253 66.4872 105.253 63.6364C105.253 60.8068 104.128 59.1534 102.219 59.1534C100.31 59.1534 99.1847 60.8068 99.1847 63.6364C99.1847 66.4872 100.293 68.1193 102.219 68.1193ZM102.219 67.1818C100.949 67.1818 100.207 65.9077 100.207 63.6364C100.207 61.3693 100.957 60.0739 102.219 60.0739C103.48 60.0739 104.23 61.3693 104.23 63.6364C104.23 65.9077 103.489 67.1818 102.219 67.1818Z" fill="black"/>
</svg>
