<svg width="128" height="128" viewBox="0 0 128 128" fill="none" xmlns="http://www.w3.org/2000/svg">
<rect x="13" y="36" width="102" height="55" fill="white"/>
<path d="M17.4731 41.9375C17.6617 41.9375 17.8136 42.0421 17.8136 42.172V44.828C17.8136 44.9579 17.6617 45.0625 17.4731 45.0625C17.3714 45.0625 17.2806 45.0321 17.2183 44.9837L15.2798 43.6638C15.2222 43.6218 15.1866 43.5654 15.1866 43.5031C15.1866 43.4407 15.2222 43.3843 15.2798 43.3423L17.2183 42.0163C17.2806 41.9679 17.3714 41.9375 17.4731 41.9375Z" fill="#555761"/>
<line x1="16" y1="43.5" x2="113" y2="43.5" stroke="#555761"/>
<path d="M22.0625 39.4732C22.0625 39.6618 21.9579 39.8137 21.828 39.8137H19.172C19.0421 39.8137 18.9375 39.6618 18.9375 39.4732C18.9375 39.3715 18.9679 39.2807 19.0163 39.2184L20.3362 37.2799C20.3782 37.2223 20.4346 37.1868 20.4969 37.1868C20.5593 37.1868 20.6157 37.2223 20.6577 37.2799L21.9837 39.2184C22.0321 39.2807 22.0625 39.3715 22.0625 39.4732Z" fill="#555761"/>
<line x1="20.5" y1="39" x2="20.5" y2="88" stroke="#555761"/>
<path d="M59.6548 37.3636H59.2145L58.3054 37.9673V38.4148L59.1932 37.8253H59.2145V41H59.6548V37.3636ZM61.8583 37.3139C61.1197 37.305 60.6438 37.8608 60.6438 38.5284C60.6438 39.2315 61.1623 39.7358 61.7873 39.7358C62.1637 39.7358 62.4833 39.5511 62.6822 39.2528H62.7106C62.7106 40.1477 62.3626 40.6591 61.8015 40.6591C61.418 40.6591 61.1836 40.4176 61.1055 40.0838H60.6722C60.7575 40.6591 61.1907 41.0497 61.8015 41.0497C62.6183 41.0497 63.1225 40.3253 63.1225 39.0327C63.1225 37.6974 62.4549 37.321 61.8583 37.3139ZM61.8583 37.7045C62.3129 37.7045 62.6467 38.0952 62.6467 38.5213C62.6467 38.9545 62.2915 39.3452 61.8441 39.3452C61.3967 39.3452 61.07 38.983 61.07 38.5284C61.07 38.0739 61.4109 37.7045 61.8583 37.7045ZM63.8208 41H66.1148V40.6094H64.4244V40.581L65.2412 39.7074C65.8662 39.038 66.0509 38.7255 66.0509 38.3224C66.0509 37.7614 65.5963 37.3139 64.9571 37.3139C64.3197 37.3139 63.835 37.7472 63.835 38.3864H64.254C64.254 37.9727 64.5221 37.6974 64.9429 37.6974C65.3371 37.6974 65.6389 37.9389 65.6389 38.3224C65.6389 38.658 65.4419 38.9066 65.021 39.3665L63.8208 40.6804V41ZM68.0342 41.0497C68.8367 41.0497 69.2984 40.3697 69.2984 39.1818C69.2984 38.0028 68.8296 37.3139 68.0342 37.3139C67.2387 37.3139 66.77 38.0028 66.77 39.1818C66.77 40.3697 67.2316 41.0497 68.0342 41.0497ZM68.0342 40.6591C67.5051 40.6591 67.1961 40.1282 67.1961 39.1818C67.1961 38.2372 67.5086 37.6974 68.0342 37.6974C68.5597 37.6974 68.8722 38.2372 68.8722 39.1818C68.8722 40.1282 68.5633 40.6591 68.0342 40.6591ZM71.3865 42.0227H71.8055V40.581H71.841C71.9333 40.7301 72.1109 41.0568 72.6365 41.0568C73.3183 41.0568 73.7941 40.5099 73.7941 39.6435C73.7941 38.7841 73.3183 38.2372 72.6294 38.2372C72.0967 38.2372 71.9333 38.5639 71.841 38.706H71.7913V38.2727H71.3865V42.0227ZM71.7984 39.6364C71.7984 39.0256 72.0683 38.6136 72.5796 38.6136C73.1123 38.6136 73.3751 39.0611 73.3751 39.6364C73.3751 40.2188 73.1052 40.6804 72.5796 40.6804C72.0754 40.6804 71.7984 40.2543 71.7984 39.6364ZM74.6335 38.2727H74.1506L75.017 39.6364L74.1506 41H74.6335L75.2869 39.9418L75.9403 41H76.4233L75.5426 39.6364L76.4233 38.2727H75.9403L75.2869 39.3878L74.6335 38.2727Z" fill="black"/>
<path d="M14.3636 71.3452V71.7855L14.9673 72.6946H15.4148L14.8253 71.8068V71.7855H18V71.3452H14.3636ZM18.0497 69.1133C18.0497 68.3107 17.3697 67.8491 16.1818 67.8491C15.0028 67.8491 14.3139 68.3178 14.3139 69.1133C14.3139 69.9087 15.0028 70.3775 16.1818 70.3775C17.3697 70.3775 18.0497 69.9158 18.0497 69.1133ZM17.6591 69.1133C17.6591 69.6424 17.1282 69.9513 16.1818 69.9513C15.2372 69.9513 14.6974 69.6388 14.6974 69.1133C14.6974 68.5877 15.2372 68.2752 16.1818 68.2752C17.1282 68.2752 17.6591 68.5842 17.6591 69.1133ZM18.0497 65.9457C18.0497 65.2408 17.6076 64.717 17.0128 64.717C16.5511 64.717 16.2156 64.9904 16.1392 65.4485H16.1108C15.9989 65.081 15.6971 64.8519 15.2869 64.8519C14.772 64.8519 14.3139 65.2585 14.3139 65.9315C14.3139 66.56 14.701 67.082 15.2727 67.1033V66.6772C14.9105 66.6612 14.6974 66.3168 14.6974 65.9386C14.6974 65.5373 14.9407 65.2781 15.3082 65.2781C15.6918 65.2781 15.9403 65.5781 15.9403 66.0096V66.3008H16.331V66.0096C16.331 65.4574 16.6115 65.1502 17.0128 65.1502C17.3981 65.1502 17.6591 65.4858 17.6591 65.9528C17.6591 66.3736 17.4425 66.7074 17.0909 66.734V67.1815C17.6626 67.1548 18.0497 66.6506 18.0497 65.9457ZM18.0497 62.826C18.0497 62.0998 17.6254 61.5938 17.0341 61.5902C16.5742 61.5938 16.1836 61.9009 16.1108 62.2933H16.0895C16.0007 61.9524 15.6669 61.7287 15.2798 61.7251C14.7259 61.7287 14.3139 62.1939 14.3139 62.826C14.3139 63.4652 14.7259 63.9304 15.2798 63.9268C15.6669 63.9304 16.0007 63.7067 16.0895 63.3587H16.1108C16.1836 63.7582 16.5742 64.0653 17.0341 64.0618C17.6254 64.0653 18.0497 63.5593 18.0497 62.826ZM17.6591 62.826C17.6591 63.3249 17.4034 63.6321 17.0128 63.6286C16.6026 63.6321 16.3097 63.293 16.3097 62.826C16.3097 62.3661 16.6026 62.027 17.0128 62.0234C17.4034 62.027 17.6591 62.3342 17.6591 62.826ZM15.9332 62.826C15.9332 63.2237 15.6847 63.5043 15.3082 63.5007C14.9389 63.5043 14.6974 63.2344 14.6974 62.826C14.6974 62.4247 14.9389 62.1548 15.3082 62.1513C15.6847 62.1548 15.9332 62.4354 15.9332 62.826ZM19.0227 59.4964V59.0773H17.581V59.0418C17.7301 58.9495 18.0568 58.7719 18.0568 58.2464C18.0568 57.5645 17.5099 57.0887 16.6435 57.0887C15.7841 57.0887 15.2372 57.5645 15.2372 58.2535C15.2372 58.7861 15.5639 58.9495 15.706 59.0418V59.0915H15.2727V59.4964H19.0227ZM16.6364 59.0844C16.0256 59.0844 15.6136 58.8145 15.6136 58.3032C15.6136 57.7705 16.0611 57.5077 16.6364 57.5077C17.2188 57.5077 17.6804 57.7776 17.6804 58.3032C17.6804 58.8074 17.2543 59.0844 16.6364 59.0844ZM15.2727 56.2493V56.7322L16.6364 55.8658L18 56.7322V56.2493L16.9418 55.5959L18 54.9425V54.4595L16.6364 55.3402L15.2727 54.4595L15.2727 54.9425L16.3878 55.5959L15.2727 56.2493Z" fill="black"/>
<path d="M38.9716 59.2727H37.9148L35.733 60.7216V61.7955L37.8636 60.3807H37.9148V68H38.9716V59.2727ZM44.2599 59.1534C42.4872 59.1321 41.3452 60.4659 41.3452 62.0682C41.3452 63.7557 42.5895 64.9659 44.0895 64.9659C44.9929 64.9659 45.7599 64.5227 46.2372 63.8068H46.3054C46.3054 65.9545 45.4702 67.1818 44.1236 67.1818C43.2031 67.1818 42.6406 66.6023 42.4531 65.8011H41.4134C41.6179 67.1818 42.6577 68.1193 44.1236 68.1193C46.0838 68.1193 47.294 66.3807 47.294 63.2784C47.294 60.0739 45.6918 59.1705 44.2599 59.1534ZM44.2599 60.0909C45.3509 60.0909 46.152 61.0284 46.152 62.0511C46.152 63.0909 45.2997 64.0284 44.2259 64.0284C43.152 64.0284 42.3679 63.1591 42.3679 62.0682C42.3679 60.9773 43.1861 60.0909 44.2599 60.0909ZM48.9698 68H54.4755V67.0625H50.4187V66.9943L52.3789 64.8977C53.8789 63.2912 54.3221 62.5412 54.3221 61.5739C54.3221 60.2273 53.2312 59.1534 51.6971 59.1534C50.1673 59.1534 49.0039 60.1932 49.0039 61.7273H50.0096C50.0096 60.7344 50.6531 60.0739 51.663 60.0739C52.609 60.0739 53.3335 60.6534 53.3335 61.5739C53.3335 62.3793 52.8604 62.9759 51.8505 64.0795L48.9698 67.233V68ZM59.082 68.1193C61.0082 68.1193 62.1161 66.4872 62.1161 63.6364C62.1161 60.8068 60.9911 59.1534 59.082 59.1534C57.1729 59.1534 56.0479 60.8068 56.0479 63.6364C56.0479 66.4872 57.1559 68.1193 59.082 68.1193ZM59.082 67.1818C57.8121 67.1818 57.0707 65.9077 57.0707 63.6364C57.0707 61.3693 57.8207 60.0739 59.082 60.0739C60.3434 60.0739 61.0934 61.3693 61.0934 63.6364C61.0934 65.9077 60.3519 67.1818 59.082 67.1818ZM72.2411 66.4318L72.8888 65.7841L70.8093 63.7045L72.8888 61.625L72.2411 60.9773L70.1616 63.0568L68.082 60.9773L67.4343 61.625L69.5138 63.7045L67.4343 65.7841L68.082 66.4318L70.1616 64.3523L72.2411 66.4318ZM81.4638 59.2727H80.407L78.2251 60.7216V61.7955L80.3558 60.3807H80.407V68H81.4638V59.2727ZM86.8203 68.1193C88.7464 68.1193 89.8544 66.4872 89.8544 63.6364C89.8544 60.8068 88.7294 59.1534 86.8203 59.1534C84.9112 59.1534 83.7862 60.8068 83.7862 63.6364C83.7862 66.4872 84.8942 68.1193 86.8203 68.1193ZM86.8203 67.1818C85.5504 67.1818 84.8089 65.9077 84.8089 63.6364C84.8089 61.3693 85.5589 60.0739 86.8203 60.0739C88.0817 60.0739 88.8317 61.3693 88.8317 63.6364C88.8317 65.9077 88.0902 67.1818 86.8203 67.1818ZM94.4226 68.1193C96.1143 68.1193 97.3714 67.0582 97.3714 65.6307C97.3714 64.5227 96.7152 63.7173 95.6158 63.5341V63.4659C96.4979 63.1974 97.0476 62.473 97.0476 61.4886C97.0476 60.2528 96.0717 59.1534 94.4567 59.1534C92.9482 59.1534 91.6953 60.0824 91.6442 61.4545H92.6669C92.7053 60.5852 93.532 60.0739 94.4396 60.0739C95.4027 60.0739 96.0249 60.6577 96.0249 61.5398C96.0249 62.4602 95.3047 63.0568 94.2692 63.0568H93.5703V63.9943H94.2692C95.5945 63.9943 96.3317 64.6676 96.3317 65.6307C96.3317 66.5554 95.5263 67.1818 94.4055 67.1818C93.3956 67.1818 92.5945 66.6619 92.5305 65.8182H91.4567C91.5206 67.1903 92.7308 68.1193 94.4226 68.1193ZM101.91 68.1193C103.653 68.1193 104.867 67.1009 104.876 65.6818C104.867 64.5781 104.13 63.6406 103.188 63.4659V63.4148C104.006 63.2017 104.543 62.4006 104.552 61.4716C104.543 60.142 103.427 59.1534 101.91 59.1534C100.376 59.1534 99.2592 60.142 99.2678 61.4716C99.2592 62.4006 99.7962 63.2017 100.631 63.4148V63.4659C99.6726 63.6406 98.9354 64.5781 98.9439 65.6818C98.9354 67.1009 100.15 68.1193 101.91 68.1193ZM101.91 67.1818C100.712 67.1818 99.9751 66.5682 99.9837 65.6307C99.9751 64.6463 100.789 63.9432 101.91 63.9432C103.013 63.9432 103.827 64.6463 103.836 65.6307C103.827 66.5682 103.09 67.1818 101.91 67.1818ZM101.91 63.0398C100.955 63.0398 100.282 62.4432 100.29 61.5398C100.282 60.6534 100.93 60.0739 101.91 60.0739C102.873 60.0739 103.521 60.6534 103.529 61.5398C103.521 62.4432 102.847 63.0398 101.91 63.0398Z" fill="black"/>
</svg>
