<svg width="128" height="128" viewBox="0 0 128 128" fill="none" xmlns="http://www.w3.org/2000/svg">
<rect x="6" y="29" width="115" height="69" fill="white"/>
<path d="M16.0625 33.1121C16.0625 33.3277 15.9579 33.5012 15.828 33.5012H13.172C13.0421 33.5012 12.9375 33.3277 12.9375 33.1121C12.9375 32.9959 12.9679 32.8921 13.0163 32.8209L14.3362 30.6054C14.3782 30.5396 14.4346 30.499 14.4969 30.499C14.5593 30.499 14.6157 30.5396 14.6577 30.6054L15.9837 32.8209C16.0321 32.8921 16.0625 32.9959 16.0625 33.1121Z" fill="#555761"/>
<line x1="14.5" y1="32" x2="14.5" y2="95" stroke="#555761"/>
<g clip-path="url(#clip0)">
<path d="M10.112 34.9375C10.3276 34.9375 10.5012 35.0421 10.5012 35.172V37.828C10.5012 37.9579 10.3276 38.0625 10.112 38.0625C9.99583 38.0625 9.8921 38.0321 9.8209 37.9837L7.60542 36.6638C7.53961 36.6218 7.499 36.5654 7.499 36.5031C7.499 36.4407 7.53961 36.3843 7.60542 36.3423L9.8209 35.0163C9.8921 34.9679 9.99583 34.9375 10.112 34.9375Z" fill="#555761"/>
</g>
<line x1="9" y1="36.5" x2="118" y2="36.5" stroke="#555761"/>
<path d="M59.3764 34H61.6705V33.6094H59.9801V33.581L60.7969 32.7074C61.4219 32.038 61.6065 31.7255 61.6065 31.3224C61.6065 30.7614 61.152 30.3139 60.5128 30.3139C59.8754 30.3139 59.3906 30.7472 59.3906 31.3864H59.8097C59.8097 30.9727 60.0778 30.6974 60.4986 30.6974C60.8928 30.6974 61.1946 30.9389 61.1946 31.3224C61.1946 31.658 60.9975 31.9066 60.5767 32.3665L59.3764 33.6804V34ZM63.5898 34.0497C64.3924 34.0497 64.854 33.3697 64.854 32.1818C64.854 31.0028 64.3853 30.3139 63.5898 30.3139C62.7944 30.3139 62.3256 31.0028 62.3256 32.1818C62.3256 33.3697 62.7873 34.0497 63.5898 34.0497ZM63.5898 33.6591C63.0607 33.6591 62.7518 33.1282 62.7518 32.1818C62.7518 31.2372 63.0643 30.6974 63.5898 30.6974C64.1154 30.6974 64.4279 31.2372 64.4279 32.1818C64.4279 33.1282 64.119 33.6591 63.5898 33.6591ZM65.4435 33.2543H67.1552V34H67.5742V33.2543H68.0714V32.8636H67.5742V30.3636H67.0415L65.4435 32.892V33.2543ZM67.1552 32.8636H65.9194V32.8352L67.1268 30.9247H67.1552V32.8636ZM69.9015 34.0497C70.6278 34.0497 71.1338 33.6254 71.1373 33.0341C71.1338 32.5742 70.8266 32.1836 70.4342 32.1108V32.0895C70.7751 32.0007 70.9988 31.6669 71.0024 31.2798C70.9988 30.7259 70.5336 30.3139 69.9015 30.3139C69.2623 30.3139 68.7971 30.7259 68.8007 31.2798C68.7971 31.6669 69.0209 32.0007 69.3689 32.0895V32.1108C68.9694 32.1836 68.6622 32.5742 68.6657 33.0341C68.6622 33.6254 69.1682 34.0497 69.9015 34.0497ZM69.9015 33.6591C69.4026 33.6591 69.0954 33.4034 69.099 33.0128C69.0954 32.6026 69.4346 32.3097 69.9015 32.3097C70.3614 32.3097 70.7006 32.6026 70.7041 33.0128C70.7006 33.4034 70.3934 33.6591 69.9015 33.6591ZM69.9015 31.9332C69.5038 31.9332 69.2233 31.6847 69.2268 31.3082C69.2233 30.9389 69.4932 30.6974 69.9015 30.6974C70.3028 30.6974 70.5727 30.9389 70.5763 31.3082C70.5727 31.6847 70.2922 31.9332 69.9015 31.9332ZM73.2312 35.0227H73.6502V33.581H73.6857C73.7781 33.7301 73.9556 34.0568 74.4812 34.0568C75.163 34.0568 75.6388 33.5099 75.6388 32.6435C75.6388 31.7841 75.163 31.2372 74.4741 31.2372C73.9414 31.2372 73.7781 31.5639 73.6857 31.706H73.636V31.2727H73.2312V35.0227ZM73.6431 32.6364C73.6431 32.0256 73.913 31.6136 74.4244 31.6136C74.957 31.6136 75.2198 32.0611 75.2198 32.6364C75.2198 33.2188 74.9499 33.6804 74.4244 33.6804C73.9201 33.6804 73.6431 33.2543 73.6431 32.6364ZM76.4782 31.2727H75.9953L76.8618 32.6364L75.9953 34H76.4782L77.1317 32.9418L77.7851 34H78.268L77.3873 32.6364L78.268 31.2727H77.7851L77.1317 32.3878L76.4782 31.2727Z" fill="#4D4D4D"/>
<path d="M8.36364 71.3452V71.7855L8.96733 72.6946H9.41477L8.82528 71.8068V71.7855H12V71.3452H8.36364ZM12 70.2994V68.0053H11.6094V69.6957H11.581L10.7074 68.8789C10.038 68.2539 9.7255 68.0692 9.32244 68.0692C8.76136 68.0692 8.31392 68.5238 8.31392 69.163C8.31392 69.8004 8.74716 70.2852 9.38636 70.2852V69.8661C8.97266 69.8661 8.69744 69.598 8.69744 69.1772C8.69744 68.783 8.93892 68.4812 9.32244 68.4812C9.65803 68.4812 9.90661 68.6783 10.3665 69.0991L11.6804 70.2994H12ZM12 67.272V64.978H11.6094V66.6683H11.581L10.7074 65.8516C10.038 65.2266 9.7255 65.0419 9.32244 65.0419C8.76136 65.0419 8.31392 65.4964 8.31392 66.1357C8.31392 66.7731 8.74716 67.2578 9.38636 67.2578V66.8388C8.97266 66.8388 8.69744 66.5707 8.69744 66.1499C8.69744 65.7557 8.93892 65.4538 9.32244 65.4538C9.65803 65.4538 9.90661 65.6509 10.3665 66.0717L11.6804 67.272H12ZM8.31392 63.087C8.30504 63.8256 8.8608 64.3015 9.52841 64.3015C10.2315 64.3015 10.7358 63.783 10.7358 63.158C10.7358 62.7816 10.5511 62.462 10.2528 62.2631V62.2347C11.1477 62.2347 11.6591 62.5827 11.6591 63.1438C11.6591 63.5273 11.4176 63.7617 11.0838 63.8398V64.2731C11.6591 64.1879 12.0497 63.7546 12.0497 63.1438C12.0497 62.3271 11.3253 61.8228 10.0327 61.8228C8.69744 61.8228 8.32102 62.4904 8.31392 63.087ZM8.70455 63.087C8.70455 62.6325 9.09517 62.2987 9.52131 62.2987C9.95455 62.2987 10.3452 62.6538 10.3452 63.1012C10.3452 63.5487 9.98295 63.8754 9.52841 63.8754C9.07386 63.8754 8.70455 63.5344 8.70455 63.087ZM13.0227 59.7112V59.2922H11.581V59.2567C11.7301 59.1643 12.0568 58.9868 12.0568 58.4612C12.0568 57.7794 11.5099 57.3035 10.6435 57.3035C9.78409 57.3035 9.23722 57.7794 9.23722 58.4683C9.23722 59.001 9.56392 59.1643 9.70597 59.2567V59.3064H9.27273V59.7112H13.0227ZM10.6364 59.2993C10.0256 59.2993 9.61364 59.0294 9.61364 58.518C9.61364 57.9854 10.0611 57.7226 10.6364 57.7226C11.2188 57.7226 11.6804 57.9925 11.6804 58.518C11.6804 59.0223 11.2543 59.2993 10.6364 59.2993ZM9.27273 56.4641V56.9471L10.6364 56.0806L12 56.9471V56.4641L10.9418 55.8107L12 55.1573V54.6744L10.6364 55.555L9.27273 54.6744L9.27273 55.1573L10.3878 55.8107L9.27273 56.4641Z" fill="#4D4D4D"/>
<path d="M31.9034 68H37.4091V67.0625H33.3523V66.9943L35.3125 64.8977C36.8125 63.2912 37.2557 62.5412 37.2557 61.5739C37.2557 60.2273 36.1648 59.1534 34.6307 59.1534C33.1009 59.1534 31.9375 60.1932 31.9375 61.7273H32.9432C32.9432 60.7344 33.5866 60.0739 34.5966 60.0739C35.5426 60.0739 36.267 60.6534 36.267 61.5739C36.267 62.3793 35.794 62.9759 34.7841 64.0795L31.9034 67.233V68ZM42.0156 68.1193C43.9418 68.1193 45.0497 66.4872 45.0497 63.6364C45.0497 60.8068 43.9247 59.1534 42.0156 59.1534C40.1065 59.1534 38.9815 60.8068 38.9815 63.6364C38.9815 66.4872 40.0895 68.1193 42.0156 68.1193ZM42.0156 67.1818C40.7457 67.1818 40.0043 65.9077 40.0043 63.6364C40.0043 61.3693 40.7543 60.0739 42.0156 60.0739C43.277 60.0739 44.027 61.3693 44.027 63.6364C44.027 65.9077 43.2855 67.1818 42.0156 67.1818ZM46.4645 66.2102H50.5724V68H51.5781V66.2102H52.7713V65.2727H51.5781V59.2727H50.2997L46.4645 65.3409V66.2102ZM50.5724 65.2727H47.6065V65.2045L50.5043 60.6193H50.5724V65.2727ZM57.1637 68.1193C58.9066 68.1193 60.1211 67.1009 60.1296 65.6818C60.1211 64.5781 59.3839 63.6406 58.4421 63.4659V63.4148C59.2603 63.2017 59.7972 62.4006 59.8058 61.4716C59.7972 60.142 58.6808 59.1534 57.1637 59.1534C55.6296 59.1534 54.5131 60.142 54.5217 61.4716C54.5131 62.4006 55.0501 63.2017 55.8853 63.4148V63.4659C54.9265 63.6406 54.1893 64.5781 54.1978 65.6818C54.1893 67.1009 55.4038 68.1193 57.1637 68.1193ZM57.1637 67.1818C55.9663 67.1818 55.229 66.5682 55.2376 65.6307C55.229 64.6463 56.043 63.9432 57.1637 63.9432C58.2674 63.9432 59.0813 64.6463 59.0898 65.6307C59.0813 66.5682 58.3441 67.1818 57.1637 67.1818ZM57.1637 63.0398C56.2092 63.0398 55.5359 62.4432 55.5444 61.5398C55.5359 60.6534 56.1836 60.0739 57.1637 60.0739C58.1268 60.0739 58.7745 60.6534 58.783 61.5398C58.7745 62.4432 58.1012 63.0398 57.1637 63.0398ZM70.2685 66.4318L70.9162 65.7841L68.8366 63.7045L70.9162 61.625L70.2685 60.9773L68.1889 63.0568L66.1094 60.9773L65.4616 61.625L67.5412 63.7045L65.4616 65.7841L66.1094 66.4318L68.1889 64.3523L70.2685 66.4318ZM79.4911 59.2727H78.4343L76.2525 60.7216V61.7955L78.3832 60.3807H78.4343V68H79.4911V59.2727ZM82.0011 68H87.5067V67.0625H83.4499V66.9943L85.4102 64.8977C86.9102 63.2912 87.3533 62.5412 87.3533 61.5739C87.3533 60.2273 86.2624 59.1534 84.7283 59.1534C83.1985 59.1534 82.0352 60.1932 82.0352 61.7273H83.0408C83.0408 60.7344 83.6843 60.0739 84.6942 60.0739C85.6403 60.0739 86.3647 60.6534 86.3647 61.5739C86.3647 62.3793 85.8917 62.9759 84.8817 64.0795L82.0011 67.233V68ZM89.2667 68H94.7724V67.0625H90.7156V66.9943L92.6758 64.8977C94.1758 63.2912 94.619 62.5412 94.619 61.5739C94.619 60.2273 93.5281 59.1534 91.994 59.1534C90.4641 59.1534 89.3008 60.1932 89.3008 61.7273H90.3065C90.3065 60.7344 90.9499 60.0739 91.9599 60.0739C92.9059 60.0739 93.6303 60.6534 93.6303 61.5739C93.6303 62.3793 93.1573 62.9759 92.1474 64.0795L89.2667 67.233V68ZM99.3107 59.1534C97.538 59.1321 96.396 60.4659 96.396 62.0682C96.396 63.7557 97.6403 64.9659 99.1403 64.9659C100.044 64.9659 100.811 64.5227 101.288 63.8068H101.356C101.356 65.9545 100.521 67.1818 99.1744 67.1818C98.2539 67.1818 97.6914 66.6023 97.5039 65.8011H96.4641C96.6687 67.1818 97.7085 68.1193 99.1744 68.1193C101.135 68.1193 102.345 66.3807 102.345 63.2784C102.345 60.0739 100.743 59.1705 99.3107 59.1534ZM99.3107 60.0909C100.402 60.0909 101.203 61.0284 101.203 62.0511C101.203 63.0909 100.35 64.0284 99.2766 64.0284C98.2028 64.0284 97.4187 63.1591 97.4187 62.0682C97.4187 60.9773 98.2369 60.0909 99.3107 60.0909Z" fill="black"/>
<defs>
<clipPath id="clip0">
<rect width="5" height="8" fill="white" transform="translate(5 39) rotate(-90)"/>
</clipPath>
</defs>
</svg>
