<svg width="128" height="128" viewBox="0 0 128 128" fill="none" xmlns="http://www.w3.org/2000/svg">
<rect x="6" y="33" width="115" height="62" fill="white"/>
<path d="M16.0625 37.1121C16.0625 37.3277 15.9579 37.5012 15.828 37.5012H13.172C13.0421 37.5012 12.9375 37.3277 12.9375 37.1121C12.9375 36.9959 12.9679 36.8921 13.0163 36.8209L14.3362 34.6054C14.3782 34.5396 14.4346 34.499 14.4969 34.499C14.5593 34.499 14.6157 34.5396 14.6577 34.6054L15.9837 36.8209C16.0321 36.8921 16.0625 36.9959 16.0625 37.1121Z" fill="#555761"/>
<line x1="14.5" y1="36" x2="14.5" y2="92" stroke="#555761"/>
<g clip-path="url(#clip0)">
<path d="M10.112 38.9375C10.3276 38.9375 10.5012 39.0421 10.5012 39.172V41.828C10.5012 41.9579 10.3276 42.0625 10.112 42.0625C9.99583 42.0625 9.8921 42.0321 9.8209 41.9837L7.60542 40.6638C7.53961 40.6218 7.499 40.5654 7.499 40.5031C7.499 40.4407 7.53961 40.3843 7.60542 40.3423L9.8209 39.0163C9.8921 38.9679 9.99583 38.9375 10.112 38.9375Z" fill="#555761"/>
</g>
<line x1="9" y1="40.5" x2="118" y2="40.5" stroke="#555761"/>
<path d="M59.3764 38H61.6705V37.6094H59.9801V37.581L60.7969 36.7074C61.4219 36.038 61.6065 35.7255 61.6065 35.3224C61.6065 34.7614 61.152 34.3139 60.5128 34.3139C59.8754 34.3139 59.3906 34.7472 59.3906 35.3864H59.8097C59.8097 34.9727 60.0778 34.6974 60.4986 34.6974C60.8928 34.6974 61.1946 34.9389 61.1946 35.3224C61.1946 35.658 60.9975 35.9066 60.5767 36.3665L59.3764 37.6804V38ZM63.5898 38.0497C64.3924 38.0497 64.854 37.3697 64.854 36.1818C64.854 35.0028 64.3853 34.3139 63.5898 34.3139C62.7944 34.3139 62.3256 35.0028 62.3256 36.1818C62.3256 37.3697 62.7873 38.0497 63.5898 38.0497ZM63.5898 37.6591C63.0607 37.6591 62.7518 37.1282 62.7518 36.1818C62.7518 35.2372 63.0643 34.6974 63.5898 34.6974C64.1154 34.6974 64.4279 35.2372 64.4279 36.1818C64.4279 37.1282 64.119 37.6591 63.5898 37.6591ZM65.4435 37.2543H67.1552V38H67.5742V37.2543H68.0714V36.8636H67.5742V34.3636H67.0415L65.4435 36.892V37.2543ZM67.1552 36.8636H65.9194V36.8352L67.1268 34.9247H67.1552V36.8636ZM69.9015 38.0497C70.6278 38.0497 71.1338 37.6254 71.1373 37.0341C71.1338 36.5742 70.8266 36.1836 70.4342 36.1108V36.0895C70.7751 36.0007 70.9988 35.6669 71.0024 35.2798C70.9988 34.7259 70.5336 34.3139 69.9015 34.3139C69.2623 34.3139 68.7971 34.7259 68.8007 35.2798C68.7971 35.6669 69.0209 36.0007 69.3689 36.0895V36.1108C68.9694 36.1836 68.6622 36.5742 68.6657 37.0341C68.6622 37.6254 69.1682 38.0497 69.9015 38.0497ZM69.9015 37.6591C69.4026 37.6591 69.0954 37.4034 69.099 37.0128C69.0954 36.6026 69.4346 36.3097 69.9015 36.3097C70.3614 36.3097 70.7006 36.6026 70.7041 37.0128C70.7006 37.4034 70.3934 37.6591 69.9015 37.6591ZM69.9015 35.9332C69.5038 35.9332 69.2233 35.6847 69.2268 35.3082C69.2233 34.9389 69.4932 34.6974 69.9015 34.6974C70.3028 34.6974 70.5727 34.9389 70.5763 35.3082C70.5727 35.6847 70.2922 35.9332 69.9015 35.9332ZM73.2312 39.0227H73.6502V37.581H73.6857C73.7781 37.7301 73.9556 38.0568 74.4812 38.0568C75.163 38.0568 75.6388 37.5099 75.6388 36.6435C75.6388 35.7841 75.163 35.2372 74.4741 35.2372C73.9414 35.2372 73.7781 35.5639 73.6857 35.706H73.636V35.2727H73.2312V39.0227ZM73.6431 36.6364C73.6431 36.0256 73.913 35.6136 74.4244 35.6136C74.957 35.6136 75.2198 36.0611 75.2198 36.6364C75.2198 37.2188 74.9499 37.6804 74.4244 37.6804C73.9201 37.6804 73.6431 37.2543 73.6431 36.6364ZM76.4782 35.2727H75.9953L76.8618 36.6364L75.9953 38H76.4782L77.1317 36.9418L77.7851 38H78.268L77.3873 36.6364L78.268 35.2727H77.7851L77.1317 36.3878L76.4782 35.2727Z" fill="#4D4D4D"/>
<path d="M8.36364 71.3452V71.7855L8.96733 72.6946H9.41477L8.82528 71.8068V71.7855H12V71.3452H8.36364ZM8.36364 69.021V69.4613L8.96733 70.3704H9.41477L8.82528 69.4826V69.4613H12V69.021H8.36364ZM12.0497 66.8388C12.0497 66.1463 11.5384 65.6385 10.8423 65.6385C10.1374 65.6385 9.62074 66.1286 9.62074 66.7962C9.62074 67.0412 9.70774 67.2791 9.8267 67.4283V67.4496L8.75426 67.3217V65.8018H8.36364V67.6911L10.1534 67.9112L10.2031 67.4993C10.0948 67.3484 10.0167 67.0909 10.0185 66.8672C10.022 66.4038 10.3736 66.0646 10.8494 66.0646C11.3164 66.0646 11.6591 66.3913 11.6591 66.8388C11.6591 67.2116 11.4194 67.5082 11.0909 67.5419V67.968C11.6449 67.9414 12.0497 67.4638 12.0497 66.8388ZM12 64.9331V62.6391H11.6094V64.3295H11.581L10.7074 63.5127C10.038 62.8877 9.7255 62.703 9.32244 62.703C8.76136 62.703 8.31392 63.1576 8.31392 63.7968C8.31392 64.4342 8.74716 64.9189 9.38636 64.9189V64.4999C8.97266 64.4999 8.69744 64.2318 8.69744 63.811C8.69744 63.4168 8.93892 63.115 9.32244 63.115C9.65803 63.115 9.90661 63.3121 10.3665 63.7329L11.6804 64.9331H12ZM13.0227 60.4925V60.0734H11.581V60.0379C11.7301 59.9456 12.0568 59.768 12.0568 59.2425C12.0568 58.5606 11.5099 58.0848 10.6435 58.0848C9.78409 58.0848 9.23722 58.5606 9.23722 59.2496C9.23722 59.7822 9.56392 59.9456 9.70597 60.0379V60.0876H9.27273V60.4925H13.0227ZM10.6364 60.0805C10.0256 60.0805 9.61364 59.8106 9.61364 59.2993C9.61364 58.7666 10.0611 58.5038 10.6364 58.5038C11.2188 58.5038 11.6804 58.7737 11.6804 59.2993C11.6804 59.8035 11.2543 60.0805 10.6364 60.0805ZM9.27273 57.2454V57.7283L10.6364 56.8619L12 57.7283V57.2454L10.9418 56.592L12 55.9386V55.4556L10.6364 56.3363L9.27273 55.4556V55.9386L10.3878 56.592L9.27273 57.2454Z" fill="#4D4D4D"/>
<path d="M31.9034 68H37.4091V67.0625H33.3523V66.9943L35.3125 64.8977C36.8125 63.2912 37.2557 62.5412 37.2557 61.5739C37.2557 60.2273 36.1648 59.1534 34.6307 59.1534C33.1009 59.1534 31.9375 60.1932 31.9375 61.7273H32.9432C32.9432 60.7344 33.5866 60.0739 34.5966 60.0739C35.5426 60.0739 36.267 60.6534 36.267 61.5739C36.267 62.3793 35.794 62.9759 34.7841 64.0795L31.9034 67.233V68ZM42.0156 68.1193C43.9418 68.1193 45.0497 66.4872 45.0497 63.6364C45.0497 60.8068 43.9247 59.1534 42.0156 59.1534C40.1065 59.1534 38.9815 60.8068 38.9815 63.6364C38.9815 66.4872 40.0895 68.1193 42.0156 68.1193ZM42.0156 67.1818C40.7457 67.1818 40.0043 65.9077 40.0043 63.6364C40.0043 61.3693 40.7543 60.0739 42.0156 60.0739C43.277 60.0739 44.027 61.3693 44.027 63.6364C44.027 65.9077 43.2855 67.1818 42.0156 67.1818ZM46.4645 66.2102H50.5724V68H51.5781V66.2102H52.7713V65.2727H51.5781V59.2727H50.2997L46.4645 65.3409V66.2102ZM50.5724 65.2727H47.6065V65.2045L50.5043 60.6193H50.5724V65.2727ZM57.1637 68.1193C58.9066 68.1193 60.1211 67.1009 60.1296 65.6818C60.1211 64.5781 59.3839 63.6406 58.4421 63.4659V63.4148C59.2603 63.2017 59.7972 62.4006 59.8058 61.4716C59.7972 60.142 58.6808 59.1534 57.1637 59.1534C55.6296 59.1534 54.5131 60.142 54.5217 61.4716C54.5131 62.4006 55.0501 63.2017 55.8853 63.4148V63.4659C54.9265 63.6406 54.1893 64.5781 54.1978 65.6818C54.1893 67.1009 55.4038 68.1193 57.1637 68.1193ZM57.1637 67.1818C55.9663 67.1818 55.229 66.5682 55.2376 65.6307C55.229 64.6463 56.043 63.9432 57.1637 63.9432C58.2674 63.9432 59.0813 64.6463 59.0898 65.6307C59.0813 66.5682 58.3441 67.1818 57.1637 67.1818ZM57.1637 63.0398C56.2092 63.0398 55.5359 62.4432 55.5444 61.5398C55.5359 60.6534 56.1836 60.0739 57.1637 60.0739C58.1268 60.0739 58.7745 60.6534 58.783 61.5398C58.7745 62.4432 58.1012 63.0398 57.1637 63.0398ZM70.2685 66.4318L70.9162 65.7841L68.8366 63.7045L70.9162 61.625L70.2685 60.9773L68.1889 63.0568L66.1094 60.9773L65.4616 61.625L67.5412 63.7045L65.4616 65.7841L66.1094 66.4318L68.1889 64.3523L70.2685 66.4318ZM79.4911 59.2727H78.4343L76.2525 60.7216V61.7955L78.3832 60.3807H78.4343V68H79.4911V59.2727ZM85.0692 59.2727H84.0124L81.8306 60.7216V61.7955L83.9613 60.3807H84.0124V68H85.0692V59.2727ZM90.3065 68.1193C91.9684 68.1193 93.1871 66.892 93.1871 65.2216C93.1871 63.5298 92.011 62.2898 90.4087 62.2898C89.8207 62.2898 89.2496 62.4986 88.8917 62.7841H88.8406L89.1474 60.2102H92.7951V59.2727H88.261L87.7326 63.5682L88.7212 63.6875C89.0835 63.4276 89.7013 63.2401 90.2383 63.2443C91.3505 63.2528 92.1644 64.0966 92.1644 65.2386C92.1644 66.3594 91.3803 67.1818 90.3065 67.1818C89.4116 67.1818 88.6999 66.6065 88.619 65.8182H87.5962C87.6602 67.1477 88.8065 68.1193 90.3065 68.1193ZM94.88 68H100.386V67.0625H96.3288V66.9943L98.2891 64.8977C99.7891 63.2912 100.232 62.5412 100.232 61.5739C100.232 60.2273 99.1413 59.1534 97.6072 59.1534C96.0774 59.1534 94.9141 60.1932 94.9141 61.7273H95.9197C95.9197 60.7344 96.5632 60.0739 97.5732 60.0739C98.5192 60.0739 99.2436 60.6534 99.2436 61.5739C99.2436 62.3793 98.7706 62.9759 97.7607 64.0795L94.88 67.233V68Z" fill="black"/>
<defs>
<clipPath id="clip0">
<rect width="5" height="8" fill="white" transform="translate(5 43) rotate(-90)"/>
</clipPath>
</defs>
</svg>
