<svg width="128" height="128" viewBox="0 0 128 128" fill="none" xmlns="http://www.w3.org/2000/svg">
<rect x="7" y="21" width="115" height="86" fill="white"/>
<path d="M16.0625 25.1121C16.0625 25.3277 15.9579 25.5012 15.828 25.5012H13.172C13.0421 25.5012 12.9375 25.3277 12.9375 25.1121C12.9375 24.9959 12.9679 24.8921 13.0163 24.8209L14.3362 22.6054C14.3782 22.5396 14.4346 22.499 14.4969 22.499C14.5593 22.499 14.6157 22.5396 14.6577 22.6054L15.9837 24.8209C16.0321 24.8921 16.0625 24.9959 16.0625 25.1121Z" fill="#555761"/>
<line x1="14.5" y1="24" x2="14.5" y2="104" stroke="#555761"/>
<g clip-path="url(#clip0)">
<path d="M11.112 26.9375C11.3276 26.9375 11.5012 27.0421 11.5012 27.172V29.828C11.5012 29.9579 11.3276 30.0625 11.112 30.0625C10.9958 30.0625 10.8921 30.0321 10.8209 29.9837L8.60542 28.6638C8.53961 28.6218 8.499 28.5654 8.499 28.5031C8.499 28.4407 8.53961 28.3843 8.60542 28.3423L10.8209 27.0163C10.8921 26.9679 10.9958 26.9375 11.112 26.9375Z" fill="#555761"/>
</g>
<line x1="10" y1="28.5" x2="119" y2="28.5" stroke="#555761"/>
<path d="M59.3764 26H61.6705V25.6094H59.9801V25.581L60.7969 24.7074C61.4219 24.038 61.6065 23.7255 61.6065 23.3224C61.6065 22.7614 61.152 22.3139 60.5128 22.3139C59.8754 22.3139 59.3906 22.7472 59.3906 23.3864H59.8097C59.8097 22.9727 60.0778 22.6974 60.4986 22.6974C60.8928 22.6974 61.1946 22.9389 61.1946 23.3224C61.1946 23.658 60.9975 23.9066 60.5767 24.3665L59.3764 25.6804V26ZM63.5898 26.0497C64.3924 26.0497 64.854 25.3697 64.854 24.1818C64.854 23.0028 64.3853 22.3139 63.5898 22.3139C62.7944 22.3139 62.3256 23.0028 62.3256 24.1818C62.3256 25.3697 62.7873 26.0497 63.5898 26.0497ZM63.5898 25.6591C63.0607 25.6591 62.7518 25.1282 62.7518 24.1818C62.7518 23.2372 63.0643 22.6974 63.5898 22.6974C64.1154 22.6974 64.4279 23.2372 64.4279 24.1818C64.4279 25.1282 64.119 25.6591 63.5898 25.6591ZM65.4435 25.2543H67.1552V26H67.5742V25.2543H68.0714V24.8636H67.5742V22.3636H67.0415L65.4435 24.892V25.2543ZM67.1552 24.8636H65.9194V24.8352L67.1268 22.9247H67.1552V24.8636ZM69.9015 26.0497C70.6278 26.0497 71.1338 25.6254 71.1373 25.0341C71.1338 24.5742 70.8266 24.1836 70.4342 24.1108V24.0895C70.7751 24.0007 70.9988 23.6669 71.0024 23.2798C70.9988 22.7259 70.5336 22.3139 69.9015 22.3139C69.2623 22.3139 68.7971 22.7259 68.8007 23.2798C68.7971 23.6669 69.0209 24.0007 69.3689 24.0895V24.1108C68.9694 24.1836 68.6622 24.5742 68.6657 25.0341C68.6622 25.6254 69.1682 26.0497 69.9015 26.0497ZM69.9015 25.6591C69.4026 25.6591 69.0954 25.4034 69.099 25.0128C69.0954 24.6026 69.4346 24.3097 69.9015 24.3097C70.3614 24.3097 70.7006 24.6026 70.7041 25.0128C70.7006 25.4034 70.3934 25.6591 69.9015 25.6591ZM69.9015 23.9332C69.5038 23.9332 69.2233 23.6847 69.2268 23.3082C69.2233 22.9389 69.4932 22.6974 69.9015 22.6974C70.3028 22.6974 70.5727 22.9389 70.5763 23.3082C70.5727 23.6847 70.2922 23.9332 69.9015 23.9332ZM73.2312 27.0227H73.6502V25.581H73.6857C73.7781 25.7301 73.9556 26.0568 74.4812 26.0568C75.163 26.0568 75.6388 25.5099 75.6388 24.6435C75.6388 23.7841 75.163 23.2372 74.4741 23.2372C73.9414 23.2372 73.7781 23.5639 73.6857 23.706H73.636V23.2727H73.2312V27.0227ZM73.6431 24.6364C73.6431 24.0256 73.913 23.6136 74.4244 23.6136C74.957 23.6136 75.2198 24.0611 75.2198 24.6364C75.2198 25.2188 74.9499 25.6804 74.4244 25.6804C73.9201 25.6804 73.6431 25.2543 73.6431 24.6364ZM76.4782 23.2727H75.9953L76.8618 24.6364L75.9953 26H76.4782L77.1317 24.9418L77.7851 26H78.268L77.3873 24.6364L78.268 23.2727H77.7851L77.1317 24.3878L76.4782 23.2727Z" fill="#4D4D4D"/>
<path d="M8.36364 71.3452V71.7855L8.96733 72.6946H9.41477L8.82528 71.8068V71.7855H12V71.3452H8.36364ZM12.0497 69.163C12.0497 68.4705 11.5384 67.9627 10.8423 67.9627C10.1374 67.9627 9.62074 68.4528 9.62074 69.1204C9.62074 69.3654 9.70774 69.6033 9.8267 69.7525V69.7738L8.75426 69.646V68.1261H8.36364V70.0153L10.1534 70.2354L10.2031 69.8235C10.0948 69.6726 10.0167 69.4151 10.0185 69.1914C10.022 68.728 10.3736 68.3888 10.8494 68.3888C11.3164 68.3888 11.6591 68.7156 11.6591 69.163C11.6591 69.5359 11.4194 69.8324 11.0909 69.8661V70.2923C11.6449 70.2656 12.0497 69.788 12.0497 69.163ZM12.0497 66.0287C12.0497 65.3238 11.6076 64.8 11.0128 64.8C10.5511 64.8 10.2156 65.0734 10.1392 65.5315H10.1108C9.99893 65.164 9.69709 64.9349 9.28693 64.9349C8.77202 64.9349 8.31392 65.3415 8.31392 66.0145C8.31392 66.643 8.70099 67.165 9.27273 67.1863V66.7602C8.91051 66.7442 8.69744 66.3998 8.69744 66.0216C8.69744 65.6203 8.9407 65.3611 9.30824 65.3611C9.69176 65.3611 9.94034 65.6611 9.94034 66.0926V66.3838H10.331V66.0926C10.331 65.5404 10.6115 65.2332 11.0128 65.2332C11.3981 65.2332 11.6591 65.5688 11.6591 66.0358C11.6591 66.4566 11.4425 66.7904 11.0909 66.817V67.2645C11.6626 67.2378 12.0497 66.7336 12.0497 66.0287ZM12.0497 62.8664C12.0586 62.1313 11.5046 61.6519 10.8281 61.6519C10.125 61.6519 9.62074 62.1721 9.62074 62.7954C9.62074 63.17 9.80362 63.4914 10.1037 63.6903V63.7187C9.21768 63.7169 8.70455 63.3724 8.70455 62.8096C8.70455 62.426 8.94602 62.1952 9.27273 62.1135V61.6803C8.7081 61.7691 8.31392 62.1988 8.31392 62.8096C8.31392 63.6281 9.03835 64.1306 10.3239 64.1306C11.668 64.1306 12.0426 63.463 12.0497 62.8664ZM11.6591 62.8664C11.6591 63.3227 11.2702 63.6565 10.8352 63.6547C10.4002 63.653 10.0114 63.3032 10.0114 62.8522C10.0114 62.4065 10.3771 62.078 10.8281 62.078C11.2898 62.078 11.6591 62.4207 11.6591 62.8664ZM13.0227 59.5403V59.1213H11.581V59.0858C11.7301 58.9934 12.0568 58.8159 12.0568 58.2903C12.0568 57.6085 11.5099 57.1326 10.6435 57.1326C9.78409 57.1326 9.23722 57.6085 9.23722 58.2974C9.23722 58.8301 9.56392 58.9934 9.70597 59.0858V59.1355H9.27273V59.5403H13.0227ZM10.6364 59.1284C10.0256 59.1284 9.61364 58.8585 9.61364 58.3471C9.61364 57.8145 10.0611 57.5517 10.6364 57.5517C11.2188 57.5517 11.6804 57.8216 11.6804 58.3471C11.6804 58.8514 11.2543 59.1284 10.6364 59.1284ZM9.27273 56.2932V56.7762L10.6364 55.9097L12 56.7762V56.2932L10.9418 55.6398L12 54.9864V54.5035L10.6364 55.3841L9.27273 54.5035L9.27273 54.9864L10.3878 55.6398L9.27273 56.2932Z" fill="#4D4D4D"/>
<path d="M31.9034 68H37.4091V67.0625H33.3523V66.9943L35.3125 64.8977C36.8125 63.2912 37.2557 62.5412 37.2557 61.5739C37.2557 60.2273 36.1648 59.1534 34.6307 59.1534C33.1009 59.1534 31.9375 60.1932 31.9375 61.7273H32.9432C32.9432 60.7344 33.5866 60.0739 34.5966 60.0739C35.5426 60.0739 36.267 60.6534 36.267 61.5739C36.267 62.3793 35.794 62.9759 34.7841 64.0795L31.9034 67.233V68ZM42.0156 68.1193C43.9418 68.1193 45.0497 66.4872 45.0497 63.6364C45.0497 60.8068 43.9247 59.1534 42.0156 59.1534C40.1065 59.1534 38.9815 60.8068 38.9815 63.6364C38.9815 66.4872 40.0895 68.1193 42.0156 68.1193ZM42.0156 67.1818C40.7457 67.1818 40.0043 65.9077 40.0043 63.6364C40.0043 61.3693 40.7543 60.0739 42.0156 60.0739C43.277 60.0739 44.027 61.3693 44.027 63.6364C44.027 65.9077 43.2855 67.1818 42.0156 67.1818ZM46.4645 66.2102H50.5724V68H51.5781V66.2102H52.7713V65.2727H51.5781V59.2727H50.2997L46.4645 65.3409V66.2102ZM50.5724 65.2727H47.6065V65.2045L50.5043 60.6193H50.5724V65.2727ZM57.1637 68.1193C58.9066 68.1193 60.1211 67.1009 60.1296 65.6818C60.1211 64.5781 59.3839 63.6406 58.4421 63.4659V63.4148C59.2603 63.2017 59.7972 62.4006 59.8058 61.4716C59.7972 60.142 58.6808 59.1534 57.1637 59.1534C55.6296 59.1534 54.5131 60.142 54.5217 61.4716C54.5131 62.4006 55.0501 63.2017 55.8853 63.4148V63.4659C54.9265 63.6406 54.1893 64.5781 54.1978 65.6818C54.1893 67.1009 55.4038 68.1193 57.1637 68.1193ZM57.1637 67.1818C55.9663 67.1818 55.229 66.5682 55.2376 65.6307C55.229 64.6463 56.043 63.9432 57.1637 63.9432C58.2674 63.9432 59.0813 64.6463 59.0898 65.6307C59.0813 66.5682 58.3441 67.1818 57.1637 67.1818ZM57.1637 63.0398C56.2092 63.0398 55.5359 62.4432 55.5444 61.5398C55.5359 60.6534 56.1836 60.0739 57.1637 60.0739C58.1268 60.0739 58.7745 60.6534 58.783 61.5398C58.7745 62.4432 58.1012 63.0398 57.1637 63.0398ZM70.2685 66.4318L70.9162 65.7841L68.8366 63.7045L70.9162 61.625L70.2685 60.9773L68.1889 63.0568L66.1094 60.9773L65.4616 61.625L67.5412 63.7045L65.4616 65.7841L66.1094 66.4318L68.1889 64.3523L70.2685 66.4318ZM79.4911 59.2727H78.4343L76.2525 60.7216V61.7955L78.3832 60.3807H78.4343V68H79.4911V59.2727ZM84.7283 68.1193C86.3903 68.1193 87.609 66.892 87.609 65.2216C87.609 63.5298 86.4329 62.2898 84.8306 62.2898C84.2425 62.2898 83.6715 62.4986 83.3136 62.7841H83.2624L83.5692 60.2102H87.217V59.2727H82.6829L82.1545 63.5682L83.1431 63.6875C83.5053 63.4276 84.1232 63.2401 84.6602 63.2443C85.7724 63.2528 86.5863 64.0966 86.5863 65.2386C86.5863 66.3594 85.8022 67.1818 84.7283 67.1818C83.8335 67.1818 83.1218 66.6065 83.0408 65.8182H82.0181C82.082 67.1477 83.2283 68.1193 84.7283 68.1193ZM92.2507 68.1193C93.9425 68.1193 95.1996 67.0582 95.1996 65.6307C95.1996 64.5227 94.5433 63.7173 93.4439 63.5341V63.4659C94.326 63.1974 94.8757 62.473 94.8757 61.4886C94.8757 60.2528 93.8999 59.1534 92.2848 59.1534C90.7763 59.1534 89.5234 60.0824 89.4723 61.4545H90.495C90.5334 60.5852 91.3601 60.0739 92.2678 60.0739C93.2308 60.0739 93.853 60.6577 93.853 61.5398C93.853 62.4602 93.1328 63.0568 92.0973 63.0568H91.3984V63.9943H92.0973C93.4226 63.9943 94.1598 64.6676 94.1598 65.6307C94.1598 66.5554 93.3544 67.1818 92.2337 67.1818C91.2237 67.1818 90.4226 66.6619 90.3587 65.8182H89.2848C89.3487 67.1903 90.5589 68.1193 92.2507 68.1193ZM99.8402 68.1193C101.604 68.1406 102.755 66.8111 102.755 65.1875C102.755 63.5 101.506 62.2898 100.011 62.2898C99.1115 62.2898 98.3402 62.7287 97.8629 63.4489H97.7947C97.799 61.3224 98.6257 60.0909 99.9766 60.0909C100.897 60.0909 101.451 60.6705 101.647 61.4545H102.687C102.474 60.0994 101.442 59.1534 99.9766 59.1534C98.0121 59.1534 96.8061 60.892 96.8061 63.9773C96.8061 67.2031 98.4084 68.1023 99.8402 68.1193ZM99.8402 67.1818C98.745 67.1818 97.9439 66.2486 97.9482 65.2045C97.9524 64.1605 98.7919 63.2273 99.8743 63.2273C100.944 63.2273 101.732 64.1051 101.732 65.1875C101.732 66.2955 100.91 67.1818 99.8402 67.1818Z" fill="black"/>
<defs>
<clipPath id="clip0">
<rect width="5" height="8" fill="white" transform="translate(6 31) rotate(-90)"/>
</clipPath>
</defs>
</svg>
