<svg width="128" height="128" viewBox="0 0 128 128" fill="none" xmlns="http://www.w3.org/2000/svg">
<rect x="19" y="39" width="90" height="50" fill="white"/>
<path d="M28.0625 43.1121C28.0625 43.3277 27.9579 43.5012 27.828 43.5012H25.172C25.0421 43.5012 24.9375 43.3277 24.9375 43.1121C24.9375 42.9959 24.9679 42.8921 25.0163 42.8209L26.3362 40.6054C26.3782 40.5396 26.4346 40.499 26.4969 40.499C26.5593 40.499 26.6157 40.5396 26.6577 40.6054L27.9837 42.8209C28.0321 42.8921 28.0625 42.9959 28.0625 43.1121Z" fill="#555761"/>
<line x1="26.5" y1="42" x2="26.5" y2="86" stroke="#555761"/>
<g clip-path="url(#clip0)">
<path d="M23.1121 44.9375C23.3277 44.9375 23.5012 45.0421 23.5012 45.172V47.828C23.5012 47.9579 23.3277 48.0625 23.1121 48.0625C22.9959 48.0625 22.8921 48.0321 22.8209 47.9837L20.6054 46.6638C20.5396 46.6218 20.499 46.5654 20.499 46.5031C20.499 46.4407 20.5396 46.3843 20.6054 46.3423L22.8209 45.0163C22.8921 44.9679 22.9959 44.9375 23.1121 44.9375Z" fill="#555761"/>
</g>
<line x1="22" y1="46.5" x2="106" y2="46.5" stroke="#555761"/>
<path d="M60.5838 44.0497C61.3189 44.0586 61.7983 43.5046 61.7983 42.8281C61.7983 42.125 61.2781 41.6207 60.6548 41.6207C60.2802 41.6207 59.9588 41.8036 59.7599 42.1037H59.7315C59.7333 41.2177 60.0778 40.7045 60.6406 40.7045C61.0241 40.7045 61.255 40.946 61.3366 41.2727H61.7699C61.6811 40.7081 61.2514 40.3139 60.6406 40.3139C59.8221 40.3139 59.3196 41.0384 59.3196 42.3239C59.3196 43.668 59.9872 44.0426 60.5838 44.0497ZM60.5838 43.6591C60.1275 43.6591 59.7937 43.2702 59.7955 42.8352C59.7972 42.4002 60.147 42.0114 60.598 42.0114C61.0437 42.0114 61.3722 42.3771 61.3722 42.8281C61.3722 43.2898 61.0295 43.6591 60.5838 43.6591ZM62.4113 43.2543H64.123V44H64.542V43.2543H65.0392V42.8636H64.542V40.3636H64.0093L62.4113 42.892V43.2543ZM64.123 42.8636H62.8872V42.8352L64.0945 40.9247H64.123V42.8636ZM66.8906 44.0497C67.6932 44.0497 68.1548 43.3697 68.1548 42.1818C68.1548 41.0028 67.6861 40.3139 66.8906 40.3139C66.0952 40.3139 65.6264 41.0028 65.6264 42.1818C65.6264 43.3697 66.0881 44.0497 66.8906 44.0497ZM66.8906 43.6591C66.3615 43.6591 66.0526 43.1282 66.0526 42.1818C66.0526 41.2372 66.3651 40.6974 66.8906 40.6974C67.4162 40.6974 67.7287 41.2372 67.7287 42.1818C67.7287 43.1282 67.4197 43.6591 66.8906 43.6591ZM70.2429 45.0227H70.6619V43.581H70.6974C70.7898 43.7301 70.9673 44.0568 71.4929 44.0568C72.1747 44.0568 72.6506 43.5099 72.6506 42.6435C72.6506 41.7841 72.1747 41.2372 71.4858 41.2372C70.9531 41.2372 70.7898 41.5639 70.6974 41.706H70.6477V41.2727H70.2429V45.0227ZM70.6548 42.6364C70.6548 42.0256 70.9247 41.6136 71.4361 41.6136C71.9688 41.6136 72.2315 42.0611 72.2315 42.6364C72.2315 43.2188 71.9616 43.6804 71.4361 43.6804C70.9318 43.6804 70.6548 43.2543 70.6548 42.6364ZM73.49 41.2727H73.007L73.8735 42.6364L73.007 44H73.49L74.1434 42.9418L74.7968 44H75.2797L74.3991 42.6364L75.2797 41.2727H74.7968L74.1434 42.3878L73.49 41.2727Z" fill="#4D4D4D"/>
<path d="M24.0497 73.3949C24.0497 72.69 23.6076 72.1662 23.0128 72.1662C22.5511 72.1662 22.2156 72.4396 22.1392 72.8977H22.1108C21.9989 72.5302 21.6971 72.3011 21.2869 72.3011C20.772 72.3011 20.3139 72.7077 20.3139 73.3807C20.3139 74.0092 20.701 74.5312 21.2727 74.5526V74.1264C20.9105 74.1104 20.6974 73.766 20.6974 73.3878C20.6974 72.9865 20.9407 72.7273 21.3082 72.7273C21.6918 72.7273 21.9403 73.0273 21.9403 73.4588V73.75H22.331V73.4588C22.331 72.9066 22.6115 72.5994 23.0128 72.5994C23.3981 72.5994 23.6591 72.935 23.6591 73.402C23.6591 73.8228 23.4425 74.1566 23.0909 74.1832V74.6307C23.6626 74.604 24.0497 74.0998 24.0497 73.3949ZM24.0497 70.2326C24.0586 69.4975 23.5046 69.0181 22.8281 69.0181C22.125 69.0181 21.6207 69.5384 21.6207 70.1616C21.6207 70.5362 21.8036 70.8576 22.1037 71.0565V71.0849C21.2177 71.0831 20.7045 70.7386 20.7045 70.1758C20.7045 69.7923 20.946 69.5614 21.2727 69.4798V69.0465C20.7081 69.1353 20.3139 69.565 20.3139 70.1758C20.3139 70.9943 21.0384 71.4968 22.3239 71.4968C23.668 71.4968 24.0426 70.8292 24.0497 70.2326ZM23.6591 70.2326C23.6591 70.6889 23.2702 71.0227 22.8352 71.021C22.4002 71.0192 22.0114 70.6694 22.0114 70.2184C22.0114 69.7727 22.3771 69.4442 22.8281 69.4442C23.2898 69.4442 23.6591 69.7869 23.6591 70.2326ZM24.0497 67.1338C24.0497 66.3312 23.3697 65.8696 22.1818 65.8696C21.0028 65.8696 20.3139 66.3383 20.3139 67.1338C20.3139 67.9292 21.0028 68.398 22.1818 68.398C23.3697 68.398 24.0497 67.9363 24.0497 67.1338ZM23.6591 67.1338C23.6591 67.6629 23.1282 67.9719 22.1818 67.9719C21.2372 67.9719 20.6974 67.6594 20.6974 67.1338C20.6974 66.6082 21.2372 66.2957 22.1818 66.2957C23.1282 66.2957 23.6591 66.6047 23.6591 67.1338ZM25.0227 63.7815V63.3625H23.581V63.327C23.7301 63.2346 24.0568 63.0571 24.0568 62.5315C24.0568 61.8497 23.5099 61.3738 22.6435 61.3738C21.7841 61.3738 21.2372 61.8497 21.2372 62.5386C21.2372 63.0713 21.5639 63.2346 21.706 63.327V63.3767H21.2727V63.7815H25.0227ZM22.6364 63.3696C22.0256 63.3696 21.6136 63.0997 21.6136 62.5883C21.6136 62.0557 22.0611 61.7929 22.6364 61.7929C23.2188 61.7929 23.6804 62.0628 23.6804 62.5883C23.6804 63.0926 23.2543 63.3696 22.6364 63.3696ZM21.2727 60.5344V61.0174L22.6364 60.1509L24 61.0174V60.5344L22.9418 59.881L24 59.2276V58.7447L22.6364 59.6254L21.2727 58.7447V59.2276L22.3878 59.881L21.2727 60.5344Z" fill="#4D4D4D"/>
<path d="M40.8011 70.1193C42.5653 70.1406 43.7159 68.8111 43.7159 67.1875C43.7159 65.5 42.4673 64.2898 40.9716 64.2898C40.0724 64.2898 39.3011 64.7287 38.8239 65.4489H38.7557C38.7599 63.3224 39.5866 62.0909 40.9375 62.0909C41.858 62.0909 42.4119 62.6705 42.608 63.4545H43.6477C43.4347 62.0994 42.4034 61.1534 40.9375 61.1534C38.973 61.1534 37.767 62.892 37.767 65.9773C37.767 69.2031 39.3693 70.1023 40.8011 70.1193ZM40.8011 69.1818C39.706 69.1818 38.9048 68.2486 38.9091 67.2045C38.9134 66.1605 39.7528 65.2273 40.8352 65.2273C41.9048 65.2273 42.6932 66.1051 42.6932 67.1875C42.6932 68.2955 41.8707 69.1818 40.8011 69.1818ZM45.1871 68.2102H49.2951V70H50.3008V68.2102H51.494V67.2727H50.3008V61.2727H49.0224L45.1871 67.3409V68.2102ZM49.2951 67.2727H46.3292V67.2045L49.2269 62.6193H49.2951V67.2727ZM55.9375 70.1193C57.8636 70.1193 58.9716 68.4872 58.9716 65.6364C58.9716 62.8068 57.8466 61.1534 55.9375 61.1534C54.0284 61.1534 52.9034 62.8068 52.9034 65.6364C52.9034 68.4872 54.0114 70.1193 55.9375 70.1193ZM55.9375 69.1818C54.6676 69.1818 53.9261 67.9077 53.9261 65.6364C53.9261 63.3693 54.6761 62.0739 55.9375 62.0739C57.1989 62.0739 57.9489 63.3693 57.9489 65.6364C57.9489 67.9077 57.2074 69.1818 55.9375 69.1818ZM69.0966 68.4318L69.7443 67.7841L67.6648 65.7045L69.7443 63.625L69.0966 62.9773L67.017 65.0568L64.9375 62.9773L64.2898 63.625L66.3693 65.7045L64.2898 67.7841L64.9375 68.4318L67.017 66.3523L69.0966 68.4318ZM78.1999 70.1193C79.8917 70.1193 81.1488 69.0582 81.1488 67.6307C81.1488 66.5227 80.4925 65.7173 79.3931 65.5341V65.4659C80.2752 65.1974 80.8249 64.473 80.8249 63.4886C80.8249 62.2528 79.8491 61.1534 78.234 61.1534C76.7255 61.1534 75.4727 62.0824 75.4215 63.4545H76.4442C76.4826 62.5852 77.3093 62.0739 78.217 62.0739C79.18 62.0739 79.8022 62.6577 79.8022 63.5398C79.8022 64.4602 79.082 65.0568 78.0465 65.0568H77.3477V65.9943H78.0465C79.3718 65.9943 80.109 66.6676 80.109 67.6307C80.109 68.5554 79.3036 69.1818 78.1829 69.1818C77.1729 69.1818 76.3718 68.6619 76.3079 67.8182H75.234C75.2979 69.1903 76.5082 70.1193 78.1999 70.1193ZM85.7894 70.1193C87.5536 70.1406 88.7042 68.8111 88.7042 67.1875C88.7042 65.5 87.4556 64.2898 85.9599 64.2898C85.0607 64.2898 84.2894 64.7287 83.8121 65.4489H83.744C83.7482 63.3224 84.5749 62.0909 85.9258 62.0909C86.8462 62.0909 87.4002 62.6705 87.5962 63.4545H88.636C88.4229 62.0994 87.3917 61.1534 85.9258 61.1534C83.9613 61.1534 82.7553 62.892 82.7553 65.9773C82.7553 69.2031 84.3576 70.1023 85.7894 70.1193ZM85.7894 69.1818C84.6942 69.1818 83.8931 68.2486 83.8974 67.2045C83.9016 66.1605 84.7411 65.2273 85.8235 65.2273C86.8931 65.2273 87.6815 66.1051 87.6815 67.1875C87.6815 68.2955 86.859 69.1818 85.7894 69.1818ZM93.2266 70.1193C95.1527 70.1193 96.2607 68.4872 96.2607 65.6364C96.2607 62.8068 95.1357 61.1534 93.2266 61.1534C91.3175 61.1534 90.1925 62.8068 90.1925 65.6364C90.1925 68.4872 91.3004 70.1193 93.2266 70.1193ZM93.2266 69.1818C91.9567 69.1818 91.2152 67.9077 91.2152 65.6364C91.2152 63.3693 91.9652 62.0739 93.2266 62.0739C94.4879 62.0739 95.2379 63.3693 95.2379 65.6364C95.2379 67.9077 94.4964 69.1818 93.2266 69.1818Z" fill="black"/>
<defs>
<clipPath id="clip0">
<rect width="5" height="8" fill="white" transform="translate(18 49) rotate(-90)"/>
</clipPath>
</defs>
</svg>
