<svg width="128" height="128" viewBox="0 0 128 128" fill="none" xmlns="http://www.w3.org/2000/svg">
<rect x="1" y="29" width="126" height="70" fill="white"/>
<path d="M10.0625 33.1121C10.0625 33.3277 9.95792 33.5012 9.82802 33.5012H7.17198C7.04208 33.5012 6.9375 33.3277 6.9375 33.1121C6.9375 32.9959 6.96793 32.8921 7.01627 32.8209L8.3362 30.6054C8.3782 30.5396 8.43464 30.499 8.49695 30.499C8.55926 30.499 8.6157 30.5396 8.65769 30.6054L9.98373 32.8209C10.0321 32.8921 10.0625 32.9959 10.0625 33.1121Z" fill="#555761"/>
<line x1="8.5" y1="32" x2="8.5" y2="96" stroke="#555761"/>
<g clip-path="url(#clip0)">
<path d="M5.11203 34.9375C5.32764 34.9375 5.50121 35.0421 5.50121 35.172V37.828C5.50121 37.9579 5.32764 38.0625 5.11203 38.0625C4.99582 38.0625 4.89209 38.0321 4.8209 37.9837L2.60541 36.6638C2.53961 36.6218 2.49899 36.5654 2.49899 36.5031C2.49899 36.4407 2.5396 36.3843 2.60541 36.3423L4.8209 35.0163C4.89209 34.9679 4.99582 34.9375 5.11203 34.9375Z" fill="#555761"/>
</g>
<line x1="4" y1="36.5" x2="124" y2="36.5" stroke="#555761"/>
<path d="M59.2912 33.2543H61.0028V34H61.4219V33.2543H61.919V32.8636H61.4219V30.3636H60.8892L59.2912 32.892V33.2543ZM61.0028 32.8636H59.767V32.8352L60.9744 30.9247H61.0028V32.8636ZM63.7705 34.0497C64.5731 34.0497 65.0347 33.3697 65.0347 32.1818C65.0347 31.0028 64.566 30.3139 63.7705 30.3139C62.9751 30.3139 62.5063 31.0028 62.5063 32.1818C62.5063 33.3697 62.968 34.0497 63.7705 34.0497ZM63.7705 33.6591C63.2414 33.6591 62.9324 33.1282 62.9324 32.1818C62.9324 31.2372 63.2449 30.6974 63.7705 30.6974C64.2961 30.6974 64.6086 31.2372 64.6086 32.1818C64.6086 33.1282 64.2996 33.6591 63.7705 33.6591ZM66.8671 30.3139C66.1285 30.305 65.6526 30.8608 65.6526 31.5284C65.6526 32.2315 66.1711 32.7358 66.7961 32.7358C67.1725 32.7358 67.4921 32.5511 67.691 32.2528H67.7194C67.7194 33.1477 67.3714 33.6591 66.8103 33.6591C66.4268 33.6591 66.1924 33.4176 66.1143 33.0838H65.681C65.7662 33.6591 66.1995 34.0497 66.8103 34.0497C67.627 34.0497 68.1313 33.3253 68.1313 32.0327C68.1313 30.6974 67.4637 30.321 66.8671 30.3139ZM66.8671 30.7045C67.3216 30.7045 67.6555 31.0952 67.6555 31.5213C67.6555 31.9545 67.3003 32.3452 66.8529 32.3452C66.4055 32.3452 66.0787 31.983 66.0787 31.5284C66.0787 31.0739 66.4197 30.7045 66.8671 30.7045ZM70.0369 34.0497C70.772 34.0586 71.2514 33.5046 71.2514 32.8281C71.2514 32.125 70.7312 31.6207 70.108 31.6207C69.7333 31.6207 69.4119 31.8036 69.2131 32.1037H69.1847C69.1864 31.2177 69.5309 30.7045 70.0938 30.7045C70.4773 30.7045 70.7081 30.946 70.7898 31.2727H71.223C71.1342 30.7081 70.7045 30.3139 70.0938 30.3139C69.2752 30.3139 68.7727 31.0384 68.7727 32.3239C68.7727 33.668 69.4403 34.0426 70.0369 34.0497ZM70.0369 33.6591C69.5806 33.6591 69.2468 33.2702 69.2486 32.8352C69.2504 32.4002 69.6001 32.0114 70.0511 32.0114C70.4968 32.0114 70.8253 32.3771 70.8253 32.8281C70.8253 33.2898 70.4826 33.6591 70.0369 33.6591ZM73.363 35.0227H73.782V33.581H73.8176C73.9099 33.7301 74.0874 34.0568 74.613 34.0568C75.2948 34.0568 75.7707 33.5099 75.7707 32.6435C75.7707 31.7841 75.2948 31.2372 74.6059 31.2372C74.0732 31.2372 73.9099 31.5639 73.8176 31.706H73.7678V31.2727H73.363V35.0227ZM73.7749 32.6364C73.7749 32.0256 74.0448 31.6136 74.5562 31.6136C75.0889 31.6136 75.3517 32.0611 75.3517 32.6364C75.3517 33.2188 75.0818 33.6804 74.5562 33.6804C74.0519 33.6804 73.7749 33.2543 73.7749 32.6364ZM76.6101 31.2727H76.1271L76.9936 32.6364L76.1271 34H76.6101L77.2635 32.9418L77.9169 34H78.3999L77.5192 32.6364L78.3999 31.2727H77.9169L77.2635 32.3878L76.6101 31.2727Z" fill="#4D4D4D"/>
<path d="M6 74.6236V72.3295H5.60938V74.0199H5.58097L4.70739 73.2031C4.038 72.5781 3.7255 72.3935 3.32244 72.3935C2.76136 72.3935 2.31392 72.848 2.31392 73.4872C2.31392 74.1246 2.74716 74.6094 3.38636 74.6094V74.1903C2.97266 74.1903 2.69744 73.9222 2.69744 73.5014C2.69744 73.1072 2.93892 72.8054 3.32244 72.8054C3.65803 72.8054 3.90661 73.0025 4.36648 73.4233L5.6804 74.6236H6ZM6.04972 70.3675C6.04972 69.6626 5.6076 69.1388 5.01278 69.1388C4.55114 69.1388 4.21555 69.4123 4.1392 69.8704H4.1108C3.99893 69.5028 3.69709 69.2738 3.28693 69.2738C2.77202 69.2738 2.31392 69.6804 2.31392 70.3533C2.31392 70.9819 2.70099 71.5039 3.27273 71.5252L3.27273 71.0991C2.91051 71.0831 2.69744 70.7386 2.69744 70.3604C2.69744 69.9592 2.9407 69.6999 3.30824 69.6999C3.69176 69.6999 3.94034 70 3.94034 70.4315V70.7227H4.33097V70.4315C4.33097 69.8793 4.61151 69.5721 5.01278 69.5721C5.39808 69.5721 5.65909 69.9077 5.65909 70.3746C5.65909 70.7955 5.44247 71.1293 5.09091 71.1559V71.6033C5.66264 71.5767 6.04972 71.0724 6.04972 70.3675ZM6.04972 67.2266C6.04972 66.424 5.36967 65.9624 4.18182 65.9624C3.00284 65.9624 2.31392 66.4311 2.31392 67.2266C2.31392 68.022 3.00284 68.4908 4.18182 68.4908C5.36967 68.4908 6.04972 68.0291 6.04972 67.2266ZM5.65909 67.2266C5.65909 67.7557 5.1282 68.0646 4.18182 68.0646C3.23722 68.0646 2.69744 67.7521 2.69744 67.2266C2.69744 66.701 3.23722 66.3885 4.18182 66.3885C5.1282 66.3885 5.65909 66.6974 5.65909 67.2266ZM5.25426 65.3729V63.6612H6V63.2422H5.25426V62.745H4.86364V63.2422H2.36364V63.7749L4.89205 65.3729H5.25426ZM4.86364 63.6612L4.86364 64.897H4.83523L2.92472 63.6896V63.6612H4.86364ZM7.02273 60.6663V60.2472H5.58097V60.2117C5.73011 60.1194 6.05682 59.9419 6.05682 59.4163C6.05682 58.7345 5.50994 58.2586 4.64347 58.2586C3.78409 58.2586 3.23722 58.7345 3.23722 59.4234C3.23722 59.9561 3.56392 60.1194 3.70597 60.2117V60.2615H3.27273V60.6663H7.02273ZM4.63636 60.2544C4.02557 60.2544 3.61364 59.9845 3.61364 59.4731C3.61364 58.9404 4.06108 58.6776 4.63636 58.6776C5.21875 58.6776 5.6804 58.9475 5.6804 59.4731C5.6804 59.9774 5.25426 60.2544 4.63636 60.2544ZM3.27273 57.4192V57.9022L4.63636 57.0357L6 57.9022V57.4192L4.94176 56.7658L6 56.1124V55.6294L4.63636 56.5101L3.27273 55.6294V56.1124L4.38778 56.7658L3.27273 57.4192Z" fill="#4D4D4D"/>
<path d="M29.6989 66.2102H33.8068V68H34.8125V66.2102H36.0057V65.2727H34.8125V59.2727H33.5341L29.6989 65.3409V66.2102ZM33.8068 65.2727H30.8409V65.2045L33.7386 60.6193H33.8068V65.2727ZM40.4492 68.1193C42.3754 68.1193 43.4833 66.4872 43.4833 63.6364C43.4833 60.8068 42.3583 59.1534 40.4492 59.1534C38.5401 59.1534 37.4151 60.8068 37.4151 63.6364C37.4151 66.4872 38.5231 68.1193 40.4492 68.1193ZM40.4492 67.1818C39.1793 67.1818 38.4379 65.9077 38.4379 63.6364C38.4379 61.3693 39.1879 60.0739 40.4492 60.0739C41.7106 60.0739 42.4606 61.3693 42.4606 63.6364C42.4606 65.9077 41.7191 67.1818 40.4492 67.1818ZM47.881 59.1534C46.1083 59.1321 44.9663 60.4659 44.9663 62.0682C44.9663 63.7557 46.2106 64.9659 47.7106 64.9659C48.614 64.9659 49.381 64.5227 49.8583 63.8068H49.9265C49.9265 65.9545 49.0913 67.1818 47.7447 67.1818C46.8242 67.1818 46.2617 66.6023 46.0742 65.8011H45.0344C45.239 67.1818 46.2788 68.1193 47.7447 68.1193C49.7049 68.1193 50.9151 66.3807 50.9151 63.2784C50.9151 60.0739 49.3129 59.1705 47.881 59.1534ZM47.881 60.0909C48.9719 60.0909 49.7731 61.0284 49.7731 62.0511C49.7731 63.0909 48.9208 64.0284 47.8469 64.0284C46.7731 64.0284 45.989 63.1591 45.989 62.0682C45.989 60.9773 46.8072 60.0909 47.881 60.0909ZM55.4886 68.1193C57.2528 68.1406 58.4034 66.8111 58.4034 65.1875C58.4034 63.5 57.1548 62.2898 55.6591 62.2898C54.7599 62.2898 53.9886 62.7287 53.5114 63.4489H53.4432C53.4474 61.3224 54.2741 60.0909 55.625 60.0909C56.5455 60.0909 57.0994 60.6705 57.2955 61.4545H58.3352C58.1222 60.0994 57.0909 59.1534 55.625 59.1534C53.6605 59.1534 52.4545 60.892 52.4545 63.9773C52.4545 67.2031 54.0568 68.1023 55.4886 68.1193ZM55.4886 67.1818C54.3935 67.1818 53.5923 66.2486 53.5966 65.2045C53.6009 64.1605 54.4403 63.2273 55.5227 63.2273C56.5923 63.2273 57.3807 64.1051 57.3807 65.1875C57.3807 66.2955 56.5582 67.1818 55.4886 67.1818ZM68.5849 66.4318L69.2326 65.7841L67.1531 63.7045L69.2326 61.625L68.5849 60.9773L66.5053 63.0568L64.4258 60.9773L63.7781 61.625L65.8576 63.7045L63.7781 65.7841L64.4258 66.4318L66.5053 64.3523L68.5849 66.4318ZM74.7393 68H80.245V67.0625H76.1882V66.9943L78.1484 64.8977C79.6484 63.2912 80.0916 62.5412 80.0916 61.5739C80.0916 60.2273 79.0007 59.1534 77.4666 59.1534C75.9368 59.1534 74.7734 60.1932 74.7734 61.7273H75.7791C75.7791 60.7344 76.4226 60.0739 77.4325 60.0739C78.3786 60.0739 79.103 60.6534 79.103 61.5739C79.103 62.3793 78.63 62.9759 77.62 64.0795L74.7393 67.233V68ZM84.9538 68.1193C86.6456 68.1193 87.9027 67.0582 87.9027 65.6307C87.9027 64.5227 87.2464 63.7173 86.147 63.5341V63.4659C87.0291 63.1974 87.5788 62.473 87.5788 61.4886C87.5788 60.2528 86.603 59.1534 84.9879 59.1534C83.4794 59.1534 82.2266 60.0824 82.1754 61.4545H83.1982C83.2365 60.5852 84.0632 60.0739 84.9709 60.0739C85.9339 60.0739 86.5561 60.6577 86.5561 61.5398C86.5561 62.4602 85.8359 63.0568 84.8004 63.0568H84.1016V63.9943H84.8004C86.1257 63.9943 86.8629 64.6676 86.8629 65.6307C86.8629 66.5554 86.0575 67.1818 84.9368 67.1818C83.9268 67.1818 83.1257 66.6619 83.0618 65.8182H81.9879C82.0518 67.1903 83.2621 68.1193 84.9538 68.1193ZM92.4922 68.1193C94.4183 68.1193 95.5263 66.4872 95.5263 63.6364C95.5263 60.8068 94.4013 59.1534 92.4922 59.1534C90.5831 59.1534 89.4581 60.8068 89.4581 63.6364C89.4581 66.4872 90.5661 68.1193 92.4922 68.1193ZM92.4922 67.1818C91.2223 67.1818 90.4808 65.9077 90.4808 63.6364C90.4808 61.3693 91.2308 60.0739 92.4922 60.0739C93.7536 60.0739 94.5036 61.3693 94.5036 63.6364C94.5036 65.9077 93.7621 67.1818 92.4922 67.1818ZM96.9411 66.2102H101.049V68H102.055V66.2102H103.248V65.2727H102.055V59.2727H100.776L96.9411 65.3409V66.2102ZM101.049 65.2727H98.0831V65.2045L100.981 60.6193H101.049V65.2727Z" fill="black"/>
<defs>
<clipPath id="clip0">
<rect width="5" height="8" fill="white" transform="translate(0 39) rotate(-90)"/>
</clipPath>
</defs>
</svg>
