<svg width="128" height="128" viewBox="0 0 128 128" fill="none" xmlns="http://www.w3.org/2000/svg">
<rect x="1" y="30" width="126" height="68" fill="white"/>
<path d="M10.0625 34.1121C10.0625 34.3277 9.95792 34.5012 9.82802 34.5012H7.17198C7.04208 34.5012 6.9375 34.3277 6.9375 34.1121C6.9375 33.9959 6.96793 33.8921 7.01627 33.8209L8.3362 31.6054C8.3782 31.5396 8.43464 31.499 8.49695 31.499C8.55926 31.499 8.6157 31.5396 8.65769 31.6054L9.98373 33.8209C10.0321 33.8921 10.0625 33.9959 10.0625 34.1121Z" fill="#555761"/>
<line x1="8.5" y1="33" x2="8.5" y2="95" stroke="#555761"/>
<g clip-path="url(#clip0)">
<path d="M5.11203 35.9375C5.32764 35.9375 5.50121 36.0421 5.50121 36.172V38.828C5.50121 38.9579 5.32764 39.0625 5.11203 39.0625C4.99582 39.0625 4.89209 39.0321 4.8209 38.9837L2.60541 37.6638C2.53961 37.6218 2.49899 37.5654 2.49899 37.5031C2.49899 37.4407 2.5396 37.3843 2.60541 37.3423L4.8209 36.0163C4.89209 35.9679 4.99582 35.9375 5.11203 35.9375Z" fill="#555761"/>
</g>
<line x1="4" y1="37.5" x2="124" y2="37.5" stroke="#555761"/>
<path d="M59.2912 34.2543H61.0028V35H61.4219V34.2543H61.919V33.8636H61.4219V31.3636H60.8892L59.2912 33.892V34.2543ZM61.0028 33.8636H59.767V33.8352L60.9744 31.9247H61.0028V33.8636ZM63.7705 35.0497C64.5731 35.0497 65.0347 34.3697 65.0347 33.1818C65.0347 32.0028 64.566 31.3139 63.7705 31.3139C62.9751 31.3139 62.5063 32.0028 62.5063 33.1818C62.5063 34.3697 62.968 35.0497 63.7705 35.0497ZM63.7705 34.6591C63.2414 34.6591 62.9324 34.1282 62.9324 33.1818C62.9324 32.2372 63.2449 31.6974 63.7705 31.6974C64.2961 31.6974 64.6086 32.2372 64.6086 33.1818C64.6086 34.1282 64.2996 34.6591 63.7705 34.6591ZM66.8671 31.3139C66.1285 31.305 65.6526 31.8608 65.6526 32.5284C65.6526 33.2315 66.1711 33.7358 66.7961 33.7358C67.1725 33.7358 67.4921 33.5511 67.691 33.2528H67.7194C67.7194 34.1477 67.3714 34.6591 66.8103 34.6591C66.4268 34.6591 66.1924 34.4176 66.1143 34.0838H65.681C65.7662 34.6591 66.1995 35.0497 66.8103 35.0497C67.627 35.0497 68.1313 34.3253 68.1313 33.0327C68.1313 31.6974 67.4637 31.321 66.8671 31.3139ZM66.8671 31.7045C67.3216 31.7045 67.6555 32.0952 67.6555 32.5213C67.6555 32.9545 67.3003 33.3452 66.8529 33.3452C66.4055 33.3452 66.0787 32.983 66.0787 32.5284C66.0787 32.0739 66.4197 31.7045 66.8671 31.7045ZM70.0369 35.0497C70.772 35.0586 71.2514 34.5046 71.2514 33.8281C71.2514 33.125 70.7312 32.6207 70.108 32.6207C69.7333 32.6207 69.4119 32.8036 69.2131 33.1037H69.1847C69.1864 32.2177 69.5309 31.7045 70.0938 31.7045C70.4773 31.7045 70.7081 31.946 70.7898 32.2727H71.223C71.1342 31.7081 70.7045 31.3139 70.0938 31.3139C69.2752 31.3139 68.7727 32.0384 68.7727 33.3239C68.7727 34.668 69.4403 35.0426 70.0369 35.0497ZM70.0369 34.6591C69.5806 34.6591 69.2468 34.2702 69.2486 33.8352C69.2504 33.4002 69.6001 33.0114 70.0511 33.0114C70.4968 33.0114 70.8253 33.3771 70.8253 33.8281C70.8253 34.2898 70.4826 34.6591 70.0369 34.6591ZM73.363 36.0227H73.782V34.581H73.8176C73.9099 34.7301 74.0874 35.0568 74.613 35.0568C75.2948 35.0568 75.7707 34.5099 75.7707 33.6435C75.7707 32.7841 75.2948 32.2372 74.6059 32.2372C74.0732 32.2372 73.9099 32.5639 73.8176 32.706H73.7678V32.2727H73.363V36.0227ZM73.7749 33.6364C73.7749 33.0256 74.0448 32.6136 74.5562 32.6136C75.0889 32.6136 75.3517 33.0611 75.3517 33.6364C75.3517 34.2188 75.0818 34.6804 74.5562 34.6804C74.0519 34.6804 73.7749 34.2543 73.7749 33.6364ZM76.6101 32.2727H76.1271L76.9936 33.6364L76.1271 35H76.6101L77.2635 33.9418L77.9169 35H78.3999L77.5192 33.6364L78.3999 32.2727H77.9169L77.2635 33.3878L76.6101 32.2727Z" fill="#4D4D4D"/>
<path d="M6 73.6236V71.3295H5.60938V73.0199H5.58097L4.70739 72.2031C4.038 71.5781 3.7255 71.3935 3.32244 71.3935C2.76136 71.3935 2.31392 71.848 2.31392 72.4872C2.31392 73.1246 2.74716 73.6094 3.38636 73.6094V73.1903C2.97266 73.1903 2.69744 72.9222 2.69744 72.5014C2.69744 72.1072 2.93892 71.8054 3.32244 71.8054C3.65803 71.8054 3.90661 72.0025 4.36648 72.4233L5.6804 73.6236H6ZM6 70.5962V68.3022H5.60938V69.9925H5.58097L4.70739 69.1758C4.038 68.5508 3.7255 68.3661 3.32244 68.3661C2.76136 68.3661 2.31392 68.8207 2.31392 69.4599C2.31392 70.0973 2.74716 70.582 3.38636 70.582L3.38636 70.163C2.97266 70.163 2.69744 69.8949 2.69744 69.4741C2.69744 69.0799 2.93892 68.7781 3.32244 68.7781C3.65803 68.7781 3.90661 68.9751 4.36648 69.396L5.6804 70.5962H6ZM2.36364 66.2905V66.7308L2.96733 67.6399H3.41477L2.82528 66.7521V66.7308H6V66.2905H2.36364ZM5.25426 65.3299V63.6183H6V63.1992H5.25426V62.7021H4.86364L4.86364 63.1992H2.36364V63.7319L4.89205 65.3299H5.25426ZM4.86364 63.6183V64.854H4.83523L2.92472 63.6467V63.6183H4.86364ZM7.02273 60.6233V60.2043H5.58097V60.1688C5.73011 60.0764 6.05682 59.8989 6.05682 59.3733C6.05682 58.6915 5.50994 58.2156 4.64347 58.2156C3.78409 58.2156 3.23722 58.6915 3.23722 59.3804C3.23722 59.9131 3.56392 60.0764 3.70597 60.1688V60.2185H3.27273V60.6233H7.02273ZM4.63636 60.2114C4.02557 60.2114 3.61364 59.9415 3.61364 59.4301C3.61364 58.8975 4.06108 58.6347 4.63636 58.6347C5.21875 58.6347 5.6804 58.9046 5.6804 59.4301C5.6804 59.9344 5.25426 60.2114 4.63636 60.2114ZM3.27273 57.3762V57.8592L4.63636 56.9927L6 57.8592V57.3762L4.94176 56.7228L6 56.0694V55.5865L4.63636 56.4672L3.27273 55.5865L3.27273 56.0694L4.38778 56.7228L3.27273 57.3762Z" fill="#4D4D4D"/>
<path d="M29.6989 66.2102H33.8068V68H34.8125V66.2102H36.0057V65.2727H34.8125V59.2727H33.5341L29.6989 65.3409V66.2102ZM33.8068 65.2727H30.8409V65.2045L33.7386 60.6193H33.8068V65.2727ZM40.4492 68.1193C42.3754 68.1193 43.4833 66.4872 43.4833 63.6364C43.4833 60.8068 42.3583 59.1534 40.4492 59.1534C38.5401 59.1534 37.4151 60.8068 37.4151 63.6364C37.4151 66.4872 38.5231 68.1193 40.4492 68.1193ZM40.4492 67.1818C39.1793 67.1818 38.4379 65.9077 38.4379 63.6364C38.4379 61.3693 39.1879 60.0739 40.4492 60.0739C41.7106 60.0739 42.4606 61.3693 42.4606 63.6364C42.4606 65.9077 41.7191 67.1818 40.4492 67.1818ZM47.881 59.1534C46.1083 59.1321 44.9663 60.4659 44.9663 62.0682C44.9663 63.7557 46.2106 64.9659 47.7106 64.9659C48.614 64.9659 49.381 64.5227 49.8583 63.8068H49.9265C49.9265 65.9545 49.0913 67.1818 47.7447 67.1818C46.8242 67.1818 46.2617 66.6023 46.0742 65.8011H45.0344C45.239 67.1818 46.2788 68.1193 47.7447 68.1193C49.7049 68.1193 50.9151 66.3807 50.9151 63.2784C50.9151 60.0739 49.3129 59.1705 47.881 59.1534ZM47.881 60.0909C48.9719 60.0909 49.7731 61.0284 49.7731 62.0511C49.7731 63.0909 48.9208 64.0284 47.8469 64.0284C46.7731 64.0284 45.989 63.1591 45.989 62.0682C45.989 60.9773 46.8072 60.0909 47.881 60.0909ZM55.4886 68.1193C57.2528 68.1406 58.4034 66.8111 58.4034 65.1875C58.4034 63.5 57.1548 62.2898 55.6591 62.2898C54.7599 62.2898 53.9886 62.7287 53.5114 63.4489H53.4432C53.4474 61.3224 54.2741 60.0909 55.625 60.0909C56.5455 60.0909 57.0994 60.6705 57.2955 61.4545H58.3352C58.1222 60.0994 57.0909 59.1534 55.625 59.1534C53.6605 59.1534 52.4545 60.892 52.4545 63.9773C52.4545 67.2031 54.0568 68.1023 55.4886 68.1193ZM55.4886 67.1818C54.3935 67.1818 53.5923 66.2486 53.5966 65.2045C53.6009 64.1605 54.4403 63.2273 55.5227 63.2273C56.5923 63.2273 57.3807 64.1051 57.3807 65.1875C57.3807 66.2955 56.5582 67.1818 55.4886 67.1818ZM68.5849 66.4318L69.2326 65.7841L67.1531 63.7045L69.2326 61.625L68.5849 60.9773L66.5053 63.0568L64.4258 60.9773L63.7781 61.625L65.8576 63.7045L63.7781 65.7841L64.4258 66.4318L66.5053 64.3523L68.5849 66.4318ZM74.7393 68H80.245V67.0625H76.1882V66.9943L78.1484 64.8977C79.6484 63.2912 80.0916 62.5412 80.0916 61.5739C80.0916 60.2273 79.0007 59.1534 77.4666 59.1534C75.9368 59.1534 74.7734 60.1932 74.7734 61.7273H75.7791C75.7791 60.7344 76.4226 60.0739 77.4325 60.0739C78.3786 60.0739 79.103 60.6534 79.103 61.5739C79.103 62.3793 78.63 62.9759 77.62 64.0795L74.7393 67.233V68ZM82.005 68H87.5107V67.0625H83.4538V66.9943L85.4141 64.8977C86.9141 63.2912 87.3572 62.5412 87.3572 61.5739C87.3572 60.2273 86.2663 59.1534 84.7322 59.1534C83.2024 59.1534 82.0391 60.1932 82.0391 61.7273H83.0447C83.0447 60.7344 83.6882 60.0739 84.6982 60.0739C85.6442 60.0739 86.3686 60.6534 86.3686 61.5739C86.3686 62.3793 85.8956 62.9759 84.8857 64.0795L82.005 67.233V68ZM92.3388 59.2727H91.282L89.1001 60.7216V61.7955L91.2308 60.3807H91.282V68H92.3388V59.2727ZM94.6442 66.2102H98.7521V68H99.7578V66.2102H100.951V65.2727H99.7578V59.2727H98.4794L94.6442 65.3409V66.2102ZM98.7521 65.2727H95.7862V65.2045L98.6839 60.6193H98.7521V65.2727Z" fill="black"/>
<defs>
<clipPath id="clip0">
<rect width="5" height="8" fill="white" transform="translate(0 40) rotate(-90)"/>
</clipPath>
</defs>
</svg>
