<svg width="128" height="128" viewBox="0 0 128 128" fill="none" xmlns="http://www.w3.org/2000/svg">
<rect x="1" y="26" width="126" height="76" fill="white"/>
<path d="M10.0625 30.1121C10.0625 30.3277 9.95792 30.5012 9.82802 30.5012H7.17198C7.04208 30.5012 6.9375 30.3277 6.9375 30.1121C6.9375 29.9959 6.96793 29.8921 7.01627 29.8209L8.3362 27.6054C8.3782 27.5396 8.43464 27.499 8.49695 27.499C8.55926 27.499 8.6157 27.5396 8.65769 27.6054L9.98373 29.8209C10.0321 29.8921 10.0625 29.9959 10.0625 30.1121Z" fill="#555761"/>
<line x1="8.5" y1="29" x2="8.5" y2="99" stroke="#555761"/>
<g clip-path="url(#clip0)">
<path d="M5.11203 31.9375C5.32764 31.9375 5.50121 32.0421 5.50121 32.172V34.828C5.50121 34.9579 5.32764 35.0625 5.11203 35.0625C4.99582 35.0625 4.89209 35.0321 4.8209 34.9837L2.60541 33.6638C2.53961 33.6218 2.49899 33.5654 2.49899 33.5031C2.49899 33.4407 2.5396 33.3843 2.60541 33.3423L4.8209 32.0163C4.89209 31.9679 4.99582 31.9375 5.11203 31.9375Z" fill="#555761"/>
</g>
<line x1="4" y1="33.5" x2="124" y2="33.5" stroke="#555761"/>
<path d="M59.2912 30.2543H61.0028V31H61.4219V30.2543H61.919V29.8636H61.4219V27.3636H60.8892L59.2912 29.892V30.2543ZM61.0028 29.8636H59.767V29.8352L60.9744 27.9247H61.0028V29.8636ZM63.7705 31.0497C64.5731 31.0497 65.0347 30.3697 65.0347 29.1818C65.0347 28.0028 64.566 27.3139 63.7705 27.3139C62.9751 27.3139 62.5063 28.0028 62.5063 29.1818C62.5063 30.3697 62.968 31.0497 63.7705 31.0497ZM63.7705 30.6591C63.2414 30.6591 62.9324 30.1282 62.9324 29.1818C62.9324 28.2372 63.2449 27.6974 63.7705 27.6974C64.2961 27.6974 64.6086 28.2372 64.6086 29.1818C64.6086 30.1282 64.2996 30.6591 63.7705 30.6591ZM66.8671 27.3139C66.1285 27.305 65.6526 27.8608 65.6526 28.5284C65.6526 29.2315 66.1711 29.7358 66.7961 29.7358C67.1725 29.7358 67.4921 29.5511 67.691 29.2528H67.7194C67.7194 30.1477 67.3714 30.6591 66.8103 30.6591C66.4268 30.6591 66.1924 30.4176 66.1143 30.0838H65.681C65.7662 30.6591 66.1995 31.0497 66.8103 31.0497C67.627 31.0497 68.1313 30.3253 68.1313 29.0327C68.1313 27.6974 67.4637 27.321 66.8671 27.3139ZM66.8671 27.7045C67.3216 27.7045 67.6555 28.0952 67.6555 28.5213C67.6555 28.9545 67.3003 29.3452 66.8529 29.3452C66.4055 29.3452 66.0787 28.983 66.0787 28.5284C66.0787 28.0739 66.4197 27.7045 66.8671 27.7045ZM70.0369 31.0497C70.772 31.0586 71.2514 30.5046 71.2514 29.8281C71.2514 29.125 70.7312 28.6207 70.108 28.6207C69.7333 28.6207 69.4119 28.8036 69.2131 29.1037H69.1847C69.1864 28.2177 69.5309 27.7045 70.0938 27.7045C70.4773 27.7045 70.7081 27.946 70.7898 28.2727H71.223C71.1342 27.7081 70.7045 27.3139 70.0938 27.3139C69.2752 27.3139 68.7727 28.0384 68.7727 29.3239C68.7727 30.668 69.4403 31.0426 70.0369 31.0497ZM70.0369 30.6591C69.5806 30.6591 69.2468 30.2702 69.2486 29.8352C69.2504 29.4002 69.6001 29.0114 70.0511 29.0114C70.4968 29.0114 70.8253 29.3771 70.8253 29.8281C70.8253 30.2898 70.4826 30.6591 70.0369 30.6591ZM73.363 32.0227H73.782V30.581H73.8176C73.9099 30.7301 74.0874 31.0568 74.613 31.0568C75.2948 31.0568 75.7707 30.5099 75.7707 29.6435C75.7707 28.7841 75.2948 28.2372 74.6059 28.2372C74.0732 28.2372 73.9099 28.5639 73.8176 28.706H73.7678V28.2727H73.363V32.0227ZM73.7749 29.6364C73.7749 29.0256 74.0448 28.6136 74.5562 28.6136C75.0889 28.6136 75.3517 29.0611 75.3517 29.6364C75.3517 30.2188 75.0818 30.6804 74.5562 30.6804C74.0519 30.6804 73.7749 30.2543 73.7749 29.6364ZM76.6101 28.2727H76.1271L76.9936 29.6364L76.1271 31H76.6101L77.2635 29.9418L77.9169 31H78.3999L77.5192 29.6364L78.3999 28.2727H77.9169L77.2635 29.3878L76.6101 28.2727Z" fill="#4D4D4D"/>
<path d="M6 74.6236V72.3295H5.60938V74.0199H5.58097L4.70739 73.2031C4.038 72.5781 3.7255 72.3935 3.32244 72.3935C2.76136 72.3935 2.31392 72.848 2.31392 73.4872C2.31392 74.1246 2.74716 74.6094 3.38636 74.6094V74.1903C2.97266 74.1903 2.69744 73.9222 2.69744 73.5014C2.69744 73.1072 2.93892 72.8054 3.32244 72.8054C3.65803 72.8054 3.90661 73.0025 4.36648 73.4233L5.6804 74.6236H6ZM5.25426 71.7596V70.0479H6V69.6289H5.25426V69.1317H4.86364V69.6289H2.36364V70.1616L4.89205 71.7596H5.25426ZM4.86364 70.0479V71.2837H4.83523L2.92472 70.0763V70.0479H4.86364ZM6.04972 67.33C6.04972 66.6375 5.53835 66.1297 4.84233 66.1297C4.13743 66.1297 3.62074 66.6198 3.62074 67.2874C3.62074 67.5324 3.70774 67.7703 3.8267 67.9195V67.9408L2.75426 67.8129V66.2931H2.36364V68.1823L4.15341 68.4024L4.20312 67.9905C4.09482 67.8396 4.01669 67.5821 4.01847 67.3584C4.02202 66.895 4.37358 66.5558 4.84943 66.5558C5.31641 66.5558 5.65909 66.8825 5.65909 67.33C5.65909 67.7029 5.41939 67.9994 5.09091 68.0331V68.4593C5.64489 68.4326 6.04972 67.955 6.04972 67.33ZM6.04972 64.2596C6.04972 63.5334 5.62536 63.0273 5.03409 63.0238C4.57422 63.0273 4.18359 63.3345 4.1108 63.7269H4.08949C4.00071 63.386 3.6669 63.1623 3.27983 63.1587C2.72585 63.1623 2.31392 63.6275 2.31392 64.2596C2.31392 64.8988 2.72585 65.364 3.27983 65.3604C3.6669 65.364 4.00071 65.1403 4.08949 64.7923H4.1108C4.18359 65.1918 4.57422 65.4989 5.03409 65.4954C5.62536 65.4989 6.04972 64.9929 6.04972 64.2596ZM5.65909 64.2596C5.65909 64.7585 5.40341 65.0657 5.01278 65.0621C4.60263 65.0657 4.30966 64.7266 4.30966 64.2596C4.30966 63.7997 4.60263 63.4606 5.01278 63.457C5.40341 63.4606 5.65909 63.7678 5.65909 64.2596ZM3.93324 64.2596C3.93324 64.6573 3.68466 64.9379 3.30824 64.9343C2.93892 64.9379 2.69744 64.668 2.69744 64.2596C2.69744 63.8583 2.93892 63.5884 3.30824 63.5849C3.68466 63.5884 3.93324 63.869 3.93324 64.2596ZM7.02273 60.93V60.5109H5.58097V60.4754C5.73011 60.3831 6.05682 60.2055 6.05682 59.68C6.05682 58.9981 5.50994 58.5223 4.64347 58.5223C3.78409 58.5223 3.23722 58.9981 3.23722 59.6871C3.23722 60.2197 3.56392 60.3831 3.70597 60.4754V60.5251H3.27273V60.93H7.02273ZM4.63636 60.518C4.02557 60.518 3.61364 60.2481 3.61364 59.7368C3.61364 59.2041 4.06108 58.9413 4.63636 58.9413C5.21875 58.9413 5.6804 59.2112 5.6804 59.7368C5.6804 60.241 5.25426 60.518 4.63636 60.518ZM3.27273 57.6829V58.1658L4.63636 57.2994L6 58.1658V57.6829L4.94176 57.0295L6 56.3761V55.8931L4.63636 56.7738L3.27273 55.8931V56.3761L4.38778 57.0295L3.27273 57.6829Z" fill="#4D4D4D"/>
<path d="M29.6989 66.2102H33.8068V68H34.8125V66.2102H36.0057V65.2727H34.8125V59.2727H33.5341L29.6989 65.3409V66.2102ZM33.8068 65.2727H30.8409V65.2045L33.7386 60.6193H33.8068V65.2727ZM40.4492 68.1193C42.3754 68.1193 43.4833 66.4872 43.4833 63.6364C43.4833 60.8068 42.3583 59.1534 40.4492 59.1534C38.5401 59.1534 37.4151 60.8068 37.4151 63.6364C37.4151 66.4872 38.5231 68.1193 40.4492 68.1193ZM40.4492 67.1818C39.1793 67.1818 38.4379 65.9077 38.4379 63.6364C38.4379 61.3693 39.1879 60.0739 40.4492 60.0739C41.7106 60.0739 42.4606 61.3693 42.4606 63.6364C42.4606 65.9077 41.7191 67.1818 40.4492 67.1818ZM47.881 59.1534C46.1083 59.1321 44.9663 60.4659 44.9663 62.0682C44.9663 63.7557 46.2106 64.9659 47.7106 64.9659C48.614 64.9659 49.381 64.5227 49.8583 63.8068H49.9265C49.9265 65.9545 49.0913 67.1818 47.7447 67.1818C46.8242 67.1818 46.2617 66.6023 46.0742 65.8011H45.0344C45.239 67.1818 46.2788 68.1193 47.7447 68.1193C49.7049 68.1193 50.9151 66.3807 50.9151 63.2784C50.9151 60.0739 49.3129 59.1705 47.881 59.1534ZM47.881 60.0909C48.9719 60.0909 49.7731 61.0284 49.7731 62.0511C49.7731 63.0909 48.9208 64.0284 47.8469 64.0284C46.7731 64.0284 45.989 63.1591 45.989 62.0682C45.989 60.9773 46.8072 60.0909 47.881 60.0909ZM55.4886 68.1193C57.2528 68.1406 58.4034 66.8111 58.4034 65.1875C58.4034 63.5 57.1548 62.2898 55.6591 62.2898C54.7599 62.2898 53.9886 62.7287 53.5114 63.4489H53.4432C53.4474 61.3224 54.2741 60.0909 55.625 60.0909C56.5455 60.0909 57.0994 60.6705 57.2955 61.4545H58.3352C58.1222 60.0994 57.0909 59.1534 55.625 59.1534C53.6605 59.1534 52.4545 60.892 52.4545 63.9773C52.4545 67.2031 54.0568 68.1023 55.4886 68.1193ZM55.4886 67.1818C54.3935 67.1818 53.5923 66.2486 53.5966 65.2045C53.6009 64.1605 54.4403 63.2273 55.5227 63.2273C56.5923 63.2273 57.3807 64.1051 57.3807 65.1875C57.3807 66.2955 56.5582 67.1818 55.4886 67.1818ZM68.5849 66.4318L69.2326 65.7841L67.1531 63.7045L69.2326 61.625L68.5849 60.9773L66.5053 63.0568L64.4258 60.9773L63.7781 61.625L65.8576 63.7045L63.7781 65.7841L64.4258 66.4318L66.5053 64.3523L68.5849 66.4318ZM74.7393 68H80.245V67.0625H76.1882V66.9943L78.1484 64.8977C79.6484 63.2912 80.0916 62.5412 80.0916 61.5739C80.0916 60.2273 79.0007 59.1534 77.4666 59.1534C75.9368 59.1534 74.7734 60.1932 74.7734 61.7273H75.7791C75.7791 60.7344 76.4226 60.0739 77.4325 60.0739C78.3786 60.0739 79.103 60.6534 79.103 61.5739C79.103 62.3793 78.63 62.9759 77.62 64.0795L74.7393 67.233V68ZM81.6129 66.2102H85.7209V68H86.7266V66.2102H87.9197V65.2727H86.7266V59.2727H85.4482L81.6129 65.3409V66.2102ZM85.7209 65.2727H82.755V65.2045L85.6527 60.6193H85.7209V65.2727ZM92.244 68.1193C93.9059 68.1193 95.1246 66.892 95.1246 65.2216C95.1246 63.5298 93.9485 62.2898 92.3462 62.2898C91.7582 62.2898 91.1871 62.4986 90.8292 62.7841H90.7781L91.0849 60.2102H94.7326V59.2727H90.1985L89.6701 63.5682L90.6587 63.6875C91.021 63.4276 91.6388 63.2401 92.1758 63.2443C93.288 63.2528 94.1019 64.0966 94.1019 65.2386C94.1019 66.3594 93.3178 67.1818 92.244 67.1818C91.3491 67.1818 90.6374 66.6065 90.5565 65.8182H89.5337C89.5977 67.1477 90.744 68.1193 92.244 68.1193ZM99.6129 68.1193C101.356 68.1193 102.57 67.1009 102.579 65.6818C102.57 64.5781 101.833 63.6406 100.891 63.4659V63.4148C101.71 63.2017 102.246 62.4006 102.255 61.4716C102.246 60.142 101.13 59.1534 99.6129 59.1534C98.0788 59.1534 96.9624 60.142 96.9709 61.4716C96.9624 62.4006 97.4993 63.2017 98.3345 63.4148V63.4659C97.3757 63.6406 96.6385 64.5781 96.647 65.6818C96.6385 67.1009 97.853 68.1193 99.6129 68.1193ZM99.6129 67.1818C98.4155 67.1818 97.6783 66.5682 97.6868 65.6307C97.6783 64.6463 98.4922 63.9432 99.6129 63.9432C100.717 63.9432 101.531 64.6463 101.539 65.6307C101.531 66.5682 100.793 67.1818 99.6129 67.1818ZM99.6129 63.0398C98.6584 63.0398 97.9851 62.4432 97.9936 61.5398C97.9851 60.6534 98.6328 60.0739 99.6129 60.0739C100.576 60.0739 101.224 60.6534 101.232 61.5398C101.224 62.4432 100.55 63.0398 99.6129 63.0398Z" fill="black"/>
<defs>
<clipPath id="clip0">
<rect width="5" height="8" fill="white" transform="translate(0 36) rotate(-90)"/>
</clipPath>
</defs>
</svg>
