<svg width="128" height="128" viewBox="0 0 128 128" fill="none" xmlns="http://www.w3.org/2000/svg">
<rect x="1" y="18" width="126" height="91" fill="white"/>
<path d="M10.0625 22.1121C10.0625 22.3277 9.95792 22.5012 9.82802 22.5012H7.17198C7.04208 22.5012 6.9375 22.3277 6.9375 22.1121C6.9375 21.9959 6.96793 21.8921 7.01627 21.8209L8.3362 19.6054C8.3782 19.5396 8.43464 19.499 8.49695 19.499C8.55926 19.499 8.6157 19.5396 8.65769 19.6054L9.98373 21.8209C10.0321 21.8921 10.0625 21.9959 10.0625 22.1121Z" fill="#555761"/>
<line x1="8.5" y1="21" x2="8.5" y2="106" stroke="#555761"/>
<g clip-path="url(#clip0)">
<path d="M5.11203 23.9375C5.32764 23.9375 5.50121 24.0421 5.50121 24.172V26.828C5.50121 26.9579 5.32764 27.0625 5.11203 27.0625C4.99582 27.0625 4.89209 27.0321 4.8209 26.9837L2.60541 25.6638C2.53961 25.6218 2.49899 25.5654 2.49899 25.5031C2.49899 25.4407 2.5396 25.3843 2.60541 25.3423L4.8209 24.0163C4.89209 23.9679 4.99582 23.9375 5.11203 23.9375Z" fill="#555761"/>
</g>
<line x1="4" y1="25.5" x2="124" y2="25.5" stroke="#555761"/>
<path d="M59.2912 22.2543H61.0028V23H61.4219V22.2543H61.919V21.8636H61.4219V19.3636H60.8892L59.2912 21.892V22.2543ZM61.0028 21.8636H59.767V21.8352L60.9744 19.9247H61.0028V21.8636ZM63.7705 23.0497C64.5731 23.0497 65.0347 22.3697 65.0347 21.1818C65.0347 20.0028 64.566 19.3139 63.7705 19.3139C62.9751 19.3139 62.5063 20.0028 62.5063 21.1818C62.5063 22.3697 62.968 23.0497 63.7705 23.0497ZM63.7705 22.6591C63.2414 22.6591 62.9324 22.1282 62.9324 21.1818C62.9324 20.2372 63.2449 19.6974 63.7705 19.6974C64.2961 19.6974 64.6086 20.2372 64.6086 21.1818C64.6086 22.1282 64.2996 22.6591 63.7705 22.6591ZM66.8671 19.3139C66.1285 19.305 65.6526 19.8608 65.6526 20.5284C65.6526 21.2315 66.1711 21.7358 66.7961 21.7358C67.1725 21.7358 67.4921 21.5511 67.691 21.2528H67.7194C67.7194 22.1477 67.3714 22.6591 66.8103 22.6591C66.4268 22.6591 66.1924 22.4176 66.1143 22.0838H65.681C65.7662 22.6591 66.1995 23.0497 66.8103 23.0497C67.627 23.0497 68.1313 22.3253 68.1313 21.0327C68.1313 19.6974 67.4637 19.321 66.8671 19.3139ZM66.8671 19.7045C67.3216 19.7045 67.6555 20.0952 67.6555 20.5213C67.6555 20.9545 67.3003 21.3452 66.8529 21.3452C66.4055 21.3452 66.0787 20.983 66.0787 20.5284C66.0787 20.0739 66.4197 19.7045 66.8671 19.7045ZM70.0369 23.0497C70.772 23.0586 71.2514 22.5046 71.2514 21.8281C71.2514 21.125 70.7312 20.6207 70.108 20.6207C69.7333 20.6207 69.4119 20.8036 69.2131 21.1037H69.1847C69.1864 20.2177 69.5309 19.7045 70.0938 19.7045C70.4773 19.7045 70.7081 19.946 70.7898 20.2727H71.223C71.1342 19.7081 70.7045 19.3139 70.0938 19.3139C69.2752 19.3139 68.7727 20.0384 68.7727 21.3239C68.7727 22.668 69.4403 23.0426 70.0369 23.0497ZM70.0369 22.6591C69.5806 22.6591 69.2468 22.2702 69.2486 21.8352C69.2504 21.4002 69.6001 21.0114 70.0511 21.0114C70.4968 21.0114 70.8253 21.3771 70.8253 21.8281C70.8253 22.2898 70.4826 22.6591 70.0369 22.6591ZM73.363 24.0227H73.782V22.581H73.8176C73.9099 22.7301 74.0874 23.0568 74.613 23.0568C75.2948 23.0568 75.7707 22.5099 75.7707 21.6435C75.7707 20.7841 75.2948 20.2372 74.6059 20.2372C74.0732 20.2372 73.9099 20.5639 73.8176 20.706H73.7678V20.2727H73.363V24.0227ZM73.7749 21.6364C73.7749 21.0256 74.0448 20.6136 74.5562 20.6136C75.0889 20.6136 75.3517 21.0611 75.3517 21.6364C75.3517 22.2188 75.0818 22.6804 74.5562 22.6804C74.0519 22.6804 73.7749 22.2543 73.7749 21.6364ZM76.6101 20.2727H76.1271L76.9936 21.6364L76.1271 23H76.6101L77.2635 21.9418L77.9169 23H78.3999L77.5192 21.6364L78.3999 20.2727H77.9169L77.2635 21.3878L76.6101 20.2727Z" fill="#4D4D4D"/>
<path d="M6.04972 73.3949C6.04972 72.69 5.6076 72.1662 5.01278 72.1662C4.55114 72.1662 4.21555 72.4396 4.1392 72.8977H4.1108C3.99893 72.5302 3.69709 72.3011 3.28693 72.3011C2.77202 72.3011 2.31392 72.7077 2.31392 73.3807C2.31392 74.0092 2.70099 74.5312 3.27273 74.5526V74.1264C2.91051 74.1104 2.69744 73.766 2.69744 73.3878C2.69744 72.9865 2.9407 72.7273 3.30824 72.7273C3.69176 72.7273 3.94034 73.0273 3.94034 73.4588V73.75H4.33097V73.4588C4.33097 72.9066 4.61151 72.5994 5.01278 72.5994C5.39808 72.5994 5.65909 72.935 5.65909 73.402C5.65909 73.8228 5.44247 74.1566 5.09091 74.1832V74.6307C5.66264 74.604 6.04972 74.0998 6.04972 73.3949ZM6.04972 70.2539C6.04972 69.4513 5.36967 68.9897 4.18182 68.9897C3.00284 68.9897 2.31392 69.4585 2.31392 70.2539C2.31392 71.0494 3.00284 71.5181 4.18182 71.5181C5.36967 71.5181 6.04972 71.0565 6.04972 70.2539ZM5.65909 70.2539C5.65909 70.783 5.1282 71.092 4.18182 71.092C3.23722 71.092 2.69744 70.7795 2.69744 70.2539C2.69744 69.7283 3.23722 69.4158 4.18182 69.4158C5.1282 69.4158 5.65909 69.7248 5.65909 70.2539ZM6 68.299V67.8374L2.77557 66.218H2.36364V68.5476H2.75426V66.6726H2.78267L6 68.299ZM6 65.5562V63.2622H5.60938V64.9525H5.58097L4.70739 64.1357C4.038 63.5107 3.7255 63.3261 3.32244 63.3261C2.76136 63.3261 2.31392 63.7806 2.31392 64.4198C2.31392 65.0573 2.74716 65.542 3.38636 65.542V65.123C2.97266 65.123 2.69744 64.8548 2.69744 64.434C2.69744 64.0399 2.93892 63.738 3.32244 63.738C3.65803 63.738 3.90661 63.9351 4.36648 64.3559L5.6804 65.5562H6ZM7.02273 61.1155V60.6965H5.58097V60.661C5.73011 60.5686 6.05682 60.3911 6.05682 59.8655C6.05682 59.1837 5.50994 58.7078 4.64347 58.7078C3.78409 58.7078 3.23722 59.1837 3.23722 59.8726C3.23722 60.4053 3.56392 60.5686 3.70597 60.661V60.7107H3.27273V61.1155H7.02273ZM4.63636 60.7036C4.02557 60.7036 3.61364 60.4337 3.61364 59.9223C3.61364 59.3896 4.06108 59.1269 4.63636 59.1269C5.21875 59.1269 5.6804 59.3968 5.6804 59.9223C5.6804 60.4266 5.25426 60.7036 4.63636 60.7036ZM3.27273 57.8684V58.3514L4.63636 57.4849L6 58.3514V57.8684L4.94176 57.215L6 56.5616V56.0787L4.63636 56.9593L3.27273 56.0787V56.5616L4.38778 57.215L3.27273 57.8684Z" fill="#4D4D4D"/>
<path d="M29.6989 66.2102H33.8068V68H34.8125V66.2102H36.0057V65.2727H34.8125V59.2727H33.5341L29.6989 65.3409V66.2102ZM33.8068 65.2727H30.8409V65.2045L33.7386 60.6193H33.8068V65.2727ZM40.4492 68.1193C42.3754 68.1193 43.4833 66.4872 43.4833 63.6364C43.4833 60.8068 42.3583 59.1534 40.4492 59.1534C38.5401 59.1534 37.4151 60.8068 37.4151 63.6364C37.4151 66.4872 38.5231 68.1193 40.4492 68.1193ZM40.4492 67.1818C39.1793 67.1818 38.4379 65.9077 38.4379 63.6364C38.4379 61.3693 39.1879 60.0739 40.4492 60.0739C41.7106 60.0739 42.4606 61.3693 42.4606 63.6364C42.4606 65.9077 41.7191 67.1818 40.4492 67.1818ZM47.881 59.1534C46.1083 59.1321 44.9663 60.4659 44.9663 62.0682C44.9663 63.7557 46.2106 64.9659 47.7106 64.9659C48.614 64.9659 49.381 64.5227 49.8583 63.8068H49.9265C49.9265 65.9545 49.0913 67.1818 47.7447 67.1818C46.8242 67.1818 46.2617 66.6023 46.0742 65.8011H45.0344C45.239 67.1818 46.2788 68.1193 47.7447 68.1193C49.7049 68.1193 50.9151 66.3807 50.9151 63.2784C50.9151 60.0739 49.3129 59.1705 47.881 59.1534ZM47.881 60.0909C48.9719 60.0909 49.7731 61.0284 49.7731 62.0511C49.7731 63.0909 48.9208 64.0284 47.8469 64.0284C46.7731 64.0284 45.989 63.1591 45.989 62.0682C45.989 60.9773 46.8072 60.0909 47.881 60.0909ZM55.4886 68.1193C57.2528 68.1406 58.4034 66.8111 58.4034 65.1875C58.4034 63.5 57.1548 62.2898 55.6591 62.2898C54.7599 62.2898 53.9886 62.7287 53.5114 63.4489H53.4432C53.4474 61.3224 54.2741 60.0909 55.625 60.0909C56.5455 60.0909 57.0994 60.6705 57.2955 61.4545H58.3352C58.1222 60.0994 57.0909 59.1534 55.625 59.1534C53.6605 59.1534 52.4545 60.892 52.4545 63.9773C52.4545 67.2031 54.0568 68.1023 55.4886 68.1193ZM55.4886 67.1818C54.3935 67.1818 53.5923 66.2486 53.5966 65.2045C53.6009 64.1605 54.4403 63.2273 55.5227 63.2273C56.5923 63.2273 57.3807 64.1051 57.3807 65.1875C57.3807 66.2955 56.5582 67.1818 55.4886 67.1818ZM68.5849 66.4318L69.2326 65.7841L67.1531 63.7045L69.2326 61.625L68.5849 60.9773L66.5053 63.0568L64.4258 60.9773L63.7781 61.625L65.8576 63.7045L63.7781 65.7841L64.4258 66.4318L66.5053 64.3523L68.5849 66.4318ZM77.6882 68.1193C79.38 68.1193 80.6371 67.0582 80.6371 65.6307C80.6371 64.5227 79.9808 63.7173 78.8814 63.5341V63.4659C79.7635 63.1974 80.3132 62.473 80.3132 61.4886C80.3132 60.2528 79.3374 59.1534 77.7223 59.1534C76.2138 59.1534 74.9609 60.0824 74.9098 61.4545H75.9325C75.9709 60.5852 76.7976 60.0739 77.7053 60.0739C78.6683 60.0739 79.2905 60.6577 79.2905 61.5398C79.2905 62.4602 78.5703 63.0568 77.5348 63.0568H76.8359V63.9943H77.5348C78.8601 63.9943 79.5973 64.6676 79.5973 65.6307C79.5973 66.5554 78.7919 67.1818 77.6712 67.1818C76.6612 67.1818 75.8601 66.6619 75.7962 65.8182H74.7223C74.7862 67.1903 75.9964 68.1193 77.6882 68.1193ZM85.2266 68.1193C87.1527 68.1193 88.2607 66.4872 88.2607 63.6364C88.2607 60.8068 87.1357 59.1534 85.2266 59.1534C83.3175 59.1534 82.1925 60.8068 82.1925 63.6364C82.1925 66.4872 83.3004 68.1193 85.2266 68.1193ZM85.2266 67.1818C83.9567 67.1818 83.2152 65.9077 83.2152 63.6364C83.2152 61.3693 83.9652 60.0739 85.2266 60.0739C86.4879 60.0739 87.2379 61.3693 87.2379 63.6364C87.2379 65.9077 86.4964 67.1818 85.2266 67.1818ZM89.9183 68H91.0263L94.9126 60.2614V59.2727H89.3217V60.2102H93.8217V60.2784L89.9183 68ZM96.5011 68H102.007V67.0625H97.9499V66.9943L99.9102 64.8977C101.41 63.2912 101.853 62.5412 101.853 61.5739C101.853 60.2273 100.762 59.1534 99.2283 59.1534C97.6985 59.1534 96.5352 60.1932 96.5352 61.7273H97.5408C97.5408 60.7344 98.1843 60.0739 99.1942 60.0739C100.14 60.0739 100.865 60.6534 100.865 61.5739C100.865 62.3793 100.392 62.9759 99.3817 64.0795L96.5011 67.233V68Z" fill="black"/>
<defs>
<clipPath id="clip0">
<rect width="5" height="8" fill="white" transform="translate(0 28) rotate(-90)"/>
</clipPath>
</defs>
</svg>
