<svg width="128" height="128" viewBox="0 0 128 128" fill="none" xmlns="http://www.w3.org/2000/svg">
<rect x="16" y="37" width="95" height="54" fill="white"/>
<path d="M25.0625 41.1121C25.0625 41.3277 24.9579 41.5012 24.828 41.5012H22.172C22.0421 41.5012 21.9375 41.3277 21.9375 41.1121C21.9375 40.9959 21.9679 40.8921 22.0163 40.8209L23.3362 38.6054C23.3782 38.5396 23.4346 38.499 23.4969 38.499C23.5593 38.499 23.6157 38.5396 23.6577 38.6054L24.9837 40.8209C25.0321 40.8921 25.0625 40.9959 25.0625 41.1121Z" fill="#555761"/>
<line x1="23.5" y1="40" x2="23.5" y2="88" stroke="#555761"/>
<g clip-path="url(#clip0)">
<path d="M20.112 42.9375C20.3276 42.9375 20.5012 43.0421 20.5012 43.172V45.828C20.5012 45.9579 20.3276 46.0625 20.112 46.0625C19.9958 46.0625 19.8921 46.0321 19.8209 45.9837L17.6054 44.6638C17.5396 44.6218 17.499 44.5654 17.499 44.5031C17.499 44.4407 17.5396 44.3843 17.6054 44.3423L19.8209 43.0163C19.8921 42.9679 19.9958 42.9375 20.112 42.9375Z" fill="#555761"/>
</g>
<line x1="19" y1="44.5" x2="108" y2="44.5" stroke="#555761"/>
<path d="M58.6548 38.3636H58.2145L57.3054 38.9673V39.4148L58.1932 38.8253H58.2145V42H58.6548V38.3636ZM59.7006 42H61.9947V41.6094H60.3043V41.581L61.1211 40.7074C61.7461 40.038 61.9308 39.7255 61.9308 39.3224C61.9308 38.7614 61.4762 38.3139 60.837 38.3139C60.1996 38.3139 59.7148 38.7472 59.7148 39.3864H60.1339C60.1339 38.9727 60.402 38.6974 60.8228 38.6974C61.217 38.6974 61.5188 38.9389 61.5188 39.3224C61.5188 39.658 61.3217 39.9066 60.9009 40.3665L59.7006 41.6804V42ZM63.8928 42.0497C64.619 42.0497 65.125 41.6254 65.1286 41.0341C65.125 40.5742 64.8178 40.1836 64.4254 40.1108V40.0895C64.7663 40.0007 64.9901 39.6669 64.9936 39.2798C64.9901 38.7259 64.5249 38.3139 63.8928 38.3139C63.2536 38.3139 62.7884 38.7259 62.7919 39.2798C62.7884 39.6669 63.0121 40.0007 63.3601 40.0895V40.1108C62.9606 40.1836 62.6534 40.5742 62.657 41.0341C62.6534 41.6254 63.1594 42.0497 63.8928 42.0497ZM63.8928 41.6591C63.3938 41.6591 63.0866 41.4034 63.0902 41.0128C63.0866 40.6026 63.4258 40.3097 63.8928 40.3097C64.3526 40.3097 64.6918 40.6026 64.6953 41.0128C64.6918 41.4034 64.3846 41.6591 63.8928 41.6591ZM63.8928 39.9332C63.495 39.9332 63.2145 39.6847 63.218 39.3082C63.2145 38.9389 63.4844 38.6974 63.8928 38.6974C64.294 38.6974 64.5639 38.9389 64.5675 39.3082C64.5639 39.6847 64.2834 39.9332 63.8928 39.9332ZM66.9951 42.0497C67.7977 42.0497 68.2593 41.3697 68.2593 40.1818C68.2593 39.0028 67.7906 38.3139 66.9951 38.3139C66.1997 38.3139 65.7309 39.0028 65.7309 40.1818C65.7309 41.3697 66.1926 42.0497 66.9951 42.0497ZM66.9951 41.6591C66.466 41.6591 66.157 41.1282 66.157 40.1818C66.157 39.2372 66.4695 38.6974 66.9951 38.6974C67.5207 38.6974 67.8332 39.2372 67.8332 40.1818C67.8332 41.1282 67.5242 41.6591 66.9951 41.6591ZM70.3474 43.0227H70.7664V41.581H70.8019C70.8943 41.7301 71.0718 42.0568 71.5974 42.0568C72.2792 42.0568 72.7551 41.5099 72.7551 40.6435C72.7551 39.7841 72.2792 39.2372 71.5903 39.2372C71.0576 39.2372 70.8943 39.5639 70.8019 39.706H70.7522V39.2727H70.3474V43.0227ZM70.7593 40.6364C70.7593 40.0256 71.0292 39.6136 71.5406 39.6136C72.0732 39.6136 72.336 40.0611 72.336 40.6364C72.336 41.2188 72.0661 41.6804 71.5406 41.6804C71.0363 41.6804 70.7593 41.2543 70.7593 40.6364ZM73.5945 39.2727H73.1115L73.978 40.6364L73.1115 42H73.5945L74.2479 40.9418L74.9013 42H75.3842L74.5036 40.6364L75.3842 39.2727H74.9013L74.2479 40.3878L73.5945 39.2727Z" fill="#4D4D4D"/>
<path d="M21 73.5099V73.0483L17.7756 71.429H17.3636V73.7585H17.7543V71.8835H17.7827L21 73.5099ZM21 70.7671V68.4731H20.6094V70.1634H20.581L19.7074 69.3467C19.038 68.7217 18.7255 68.537 18.3224 68.537C17.7614 68.537 17.3139 68.9916 17.3139 69.6308C17.3139 70.2682 17.7472 70.7529 18.3864 70.7529V70.3339C17.9727 70.3339 17.6974 70.0658 17.6974 69.645C17.6974 69.2508 17.9389 68.949 18.3224 68.949C18.658 68.949 18.9066 69.146 19.3665 69.5669L20.6804 70.7671H21ZM21.0497 66.5537C21.0497 65.7512 20.3697 65.2895 19.1818 65.2895C18.0028 65.2895 17.3139 65.7583 17.3139 66.5537C17.3139 67.3492 18.0028 67.8179 19.1818 67.8179C20.3697 67.8179 21.0497 67.3563 21.0497 66.5537ZM20.6591 66.5537C20.6591 67.0828 20.1282 67.3918 19.1818 67.3918C18.2372 67.3918 17.6974 67.0793 17.6974 66.5537C17.6974 66.0281 18.2372 65.7156 19.1818 65.7156C20.1282 65.7156 20.6591 66.0246 20.6591 66.5537ZM22.0227 63.2014V62.7824H20.581V62.7469C20.7301 62.6546 21.0568 62.477 21.0568 61.9514C21.0568 61.2696 20.5099 60.7938 19.6435 60.7938C18.7841 60.7938 18.2372 61.2696 18.2372 61.9585C18.2372 62.4912 18.5639 62.6546 18.706 62.7469V62.7966H18.2727V63.2014H22.0227ZM19.6364 62.7895C19.0256 62.7895 18.6136 62.5196 18.6136 62.0083C18.6136 61.4756 19.0611 61.2128 19.6364 61.2128C20.2188 61.2128 20.6804 61.4827 20.6804 62.0083C20.6804 62.5125 20.2543 62.7895 19.6364 62.7895ZM18.2727 59.9544V60.4373L19.6364 59.5708L21 60.4373V59.9544L19.9418 59.301L21 58.6475V58.1646L19.6364 59.0453L18.2727 58.1646V58.6475L19.3878 59.301L18.2727 59.9544Z" fill="#4D4D4D"/>
<path d="M36.9716 59.2727H35.9148L33.733 60.7216V61.7955L35.8636 60.3807H35.9148V68H36.9716V59.2727ZM39.4815 68H44.9872V67.0625H40.9304V66.9943L42.8906 64.8977C44.3906 63.2912 44.8338 62.5412 44.8338 61.5739C44.8338 60.2273 43.7429 59.1534 42.2088 59.1534C40.679 59.1534 39.5156 60.1932 39.5156 61.7273H40.5213C40.5213 60.7344 41.1648 60.0739 42.1747 60.0739C43.1207 60.0739 43.8452 60.6534 43.8452 61.5739C43.8452 62.3793 43.3722 62.9759 42.3622 64.0795L39.4815 67.233V68ZM49.5426 68.1193C51.2855 68.1193 52.5 67.1009 52.5085 65.6818C52.5 64.5781 51.7628 63.6406 50.821 63.4659V63.4148C51.6392 63.2017 52.1761 62.4006 52.1847 61.4716C52.1761 60.142 51.0597 59.1534 49.5426 59.1534C48.0085 59.1534 46.892 60.142 46.9006 61.4716C46.892 62.4006 47.429 63.2017 48.2642 63.4148V63.4659C47.3054 63.6406 46.5682 64.5781 46.5767 65.6818C46.5682 67.1009 47.7827 68.1193 49.5426 68.1193ZM49.5426 67.1818C48.3452 67.1818 47.608 66.5682 47.6165 65.6307C47.608 64.6463 48.4219 63.9432 49.5426 63.9432C50.6463 63.9432 51.4602 64.6463 51.4688 65.6307C51.4602 66.5682 50.723 67.1818 49.5426 67.1818ZM49.5426 63.0398C48.5881 63.0398 47.9148 62.4432 47.9233 61.5398C47.9148 60.6534 48.5625 60.0739 49.5426 60.0739C50.5057 60.0739 51.1534 60.6534 51.1619 61.5398C51.1534 62.4432 50.4801 63.0398 49.5426 63.0398ZM56.9883 68.1193C58.9144 68.1193 60.0224 66.4872 60.0224 63.6364C60.0224 60.8068 58.8974 59.1534 56.9883 59.1534C55.0792 59.1534 53.9542 60.8068 53.9542 63.6364C53.9542 66.4872 55.0621 68.1193 56.9883 68.1193ZM56.9883 67.1818C55.7184 67.1818 54.9769 65.9077 54.9769 63.6364C54.9769 61.3693 55.7269 60.0739 56.9883 60.0739C58.2496 60.0739 58.9996 61.3693 58.9996 63.6364C58.9996 65.9077 58.2582 67.1818 56.9883 67.1818ZM70.1474 66.4318L70.7951 65.7841L68.7156 63.7045L70.7951 61.625L70.1474 60.9773L68.0678 63.0568L65.9883 60.9773L65.3406 61.625L67.4201 63.7045L65.3406 65.7841L65.9883 66.4318L68.0678 64.3523L70.1474 66.4318ZM76.5746 68H77.6825L81.5689 60.2614V59.2727H75.978V60.2102H80.478V60.2784L76.5746 68ZM83.1573 68H88.663V67.0625H84.6062V66.9943L86.5664 64.8977C88.0664 63.2912 88.5096 62.5412 88.5096 61.5739C88.5096 60.2273 87.4187 59.1534 85.8846 59.1534C84.3548 59.1534 83.1914 60.1932 83.1914 61.7273H84.1971C84.1971 60.7344 84.8406 60.0739 85.8505 60.0739C86.7965 60.0739 87.521 60.6534 87.521 61.5739C87.521 62.3793 87.0479 62.9759 86.038 64.0795L83.1573 67.233V68ZM93.2695 68.1193C95.1957 68.1193 96.3036 66.4872 96.3036 63.6364C96.3036 60.8068 95.1786 59.1534 93.2695 59.1534C91.3604 59.1534 90.2354 60.8068 90.2354 63.6364C90.2354 66.4872 91.3434 68.1193 93.2695 68.1193ZM93.2695 67.1818C91.9996 67.1818 91.2582 65.9077 91.2582 63.6364C91.2582 61.3693 92.0082 60.0739 93.2695 60.0739C94.5309 60.0739 95.2809 61.3693 95.2809 63.6364C95.2809 65.9077 94.5394 67.1818 93.2695 67.1818Z" fill="black"/>
<defs>
<clipPath id="clip0">
<rect width="5" height="8" fill="white" transform="translate(15 47) rotate(-90)"/>
</clipPath>
</defs>
</svg>
