<svg width="128" height="128" viewBox="0 0 128 128" fill="none" xmlns="http://www.w3.org/2000/svg">
<rect x="19" y="37" width="90" height="54" fill="white"/>
<path d="M28.0625 41.1121C28.0625 41.3277 27.9579 41.5012 27.828 41.5012H25.172C25.0421 41.5012 24.9375 41.3277 24.9375 41.1121C24.9375 40.9959 24.9679 40.8921 25.0163 40.8209L26.3362 38.6054C26.3782 38.5396 26.4346 38.499 26.4969 38.499C26.5593 38.499 26.6157 38.5396 26.6577 38.6054L27.9837 40.8209C28.0321 40.8921 28.0625 40.9959 28.0625 41.1121Z" fill="#555761"/>
<line x1="26.5" y1="40" x2="26.5" y2="88" stroke="#555761"/>
<g clip-path="url(#clip0)">
<path d="M23.112 42.9375C23.3276 42.9375 23.5012 43.0421 23.5012 43.172V45.828C23.5012 45.9579 23.3276 46.0625 23.112 46.0625C22.9958 46.0625 22.8921 46.0321 22.8209 45.9837L20.6054 44.6638C20.5396 44.6218 20.499 44.5654 20.499 44.5031C20.499 44.4407 20.5396 44.3843 20.6054 44.3423L22.8209 43.0163C22.8921 42.9679 22.9958 42.9375 23.112 42.9375Z" fill="#555761"/>
</g>
<line x1="22" y1="44.5" x2="106" y2="44.5" stroke="#555761"/>
<path d="M58.6548 38.3636H58.2145L57.3054 38.9673V39.4148L58.1932 38.8253H58.2145V42H58.6548V38.3636ZM59.7006 42H61.9947V41.6094H60.3043V41.581L61.1211 40.7074C61.7461 40.038 61.9308 39.7255 61.9308 39.3224C61.9308 38.7614 61.4762 38.3139 60.837 38.3139C60.1996 38.3139 59.7148 38.7472 59.7148 39.3864H60.1339C60.1339 38.9727 60.402 38.6974 60.8228 38.6974C61.217 38.6974 61.5188 38.9389 61.5188 39.3224C61.5188 39.658 61.3217 39.9066 60.9009 40.3665L59.7006 41.6804V42ZM63.8928 42.0497C64.619 42.0497 65.125 41.6254 65.1286 41.0341C65.125 40.5742 64.8178 40.1836 64.4254 40.1108V40.0895C64.7663 40.0007 64.9901 39.6669 64.9936 39.2798C64.9901 38.7259 64.5249 38.3139 63.8928 38.3139C63.2536 38.3139 62.7884 38.7259 62.7919 39.2798C62.7884 39.6669 63.0121 40.0007 63.3601 40.0895V40.1108C62.9606 40.1836 62.6534 40.5742 62.657 41.0341C62.6534 41.6254 63.1594 42.0497 63.8928 42.0497ZM63.8928 41.6591C63.3938 41.6591 63.0866 41.4034 63.0902 41.0128C63.0866 40.6026 63.4258 40.3097 63.8928 40.3097C64.3526 40.3097 64.6918 40.6026 64.6953 41.0128C64.6918 41.4034 64.3846 41.6591 63.8928 41.6591ZM63.8928 39.9332C63.495 39.9332 63.2145 39.6847 63.218 39.3082C63.2145 38.9389 63.4844 38.6974 63.8928 38.6974C64.294 38.6974 64.5639 38.9389 64.5675 39.3082C64.5639 39.6847 64.2834 39.9332 63.8928 39.9332ZM66.9951 42.0497C67.7977 42.0497 68.2593 41.3697 68.2593 40.1818C68.2593 39.0028 67.7906 38.3139 66.9951 38.3139C66.1997 38.3139 65.7309 39.0028 65.7309 40.1818C65.7309 41.3697 66.1926 42.0497 66.9951 42.0497ZM66.9951 41.6591C66.466 41.6591 66.157 41.1282 66.157 40.1818C66.157 39.2372 66.4695 38.6974 66.9951 38.6974C67.5207 38.6974 67.8332 39.2372 67.8332 40.1818C67.8332 41.1282 67.5242 41.6591 66.9951 41.6591ZM70.3474 43.0227H70.7664V41.581H70.8019C70.8943 41.7301 71.0718 42.0568 71.5974 42.0568C72.2792 42.0568 72.7551 41.5099 72.7551 40.6435C72.7551 39.7841 72.2792 39.2372 71.5903 39.2372C71.0576 39.2372 70.8943 39.5639 70.8019 39.706H70.7522V39.2727H70.3474V43.0227ZM70.7593 40.6364C70.7593 40.0256 71.0292 39.6136 71.5406 39.6136C72.0732 39.6136 72.336 40.0611 72.336 40.6364C72.336 41.2188 72.0661 41.6804 71.5406 41.6804C71.0363 41.6804 70.7593 41.2543 70.7593 40.6364ZM73.5945 39.2727H73.1115L73.978 40.6364L73.1115 42H73.5945L74.2479 40.9418L74.9013 42H75.3842L74.5036 40.6364L75.3842 39.2727H74.9013L74.2479 40.3878L73.5945 39.2727Z" fill="#4D4D4D"/>
<path d="M24 74.5099V74.0483L20.7756 72.429H20.3636V74.7585H20.7543V72.8835H20.7827L24 74.5099ZM24.0497 70.6379C24.0586 69.9028 23.5046 69.4234 22.8281 69.4234C22.125 69.4234 21.6207 69.9436 21.6207 70.5669C21.6207 70.9415 21.8036 71.2629 22.1037 71.4617V71.4901C21.2177 71.4884 20.7045 71.1439 20.7045 70.5811C20.7045 70.1975 20.946 69.9667 21.2727 69.885V69.4518C20.7081 69.5406 20.3139 69.9703 20.3139 70.5811C20.3139 71.3996 21.0384 71.9021 22.3239 71.9021C23.668 71.9021 24.0426 71.2345 24.0497 70.6379ZM23.6591 70.6379C23.6591 71.0942 23.2702 71.428 22.8352 71.4262C22.4002 71.4244 22.0114 71.0747 22.0114 70.6237C22.0114 70.178 22.3771 69.8495 22.8281 69.8495C23.2898 69.8495 23.6591 70.1922 23.6591 70.6379ZM24.0497 67.5604C24.0497 66.8342 23.6254 66.3281 23.0341 66.3246C22.5742 66.3281 22.1836 66.6353 22.1108 67.0277H22.0895C22.0007 66.6868 21.6669 66.4631 21.2798 66.4595C20.7259 66.4631 20.3139 66.9283 20.3139 67.5604C20.3139 68.1996 20.7259 68.6648 21.2798 68.6612C21.6669 68.6648 22.0007 68.4411 22.0895 68.093H22.1108C22.1836 68.4925 22.5742 68.7997 23.0341 68.7962C23.6254 68.7997 24.0497 68.2937 24.0497 67.5604ZM23.6591 67.5604C23.6591 68.0593 23.4034 68.3665 23.0128 68.3629C22.6026 68.3665 22.3097 68.0273 22.3097 67.5604C22.3097 67.1005 22.6026 66.7614 23.0128 66.7578C23.4034 66.7614 23.6591 67.0685 23.6591 67.5604ZM21.9332 67.5604C21.9332 67.9581 21.6847 68.2386 21.3082 68.2351C20.9389 68.2386 20.6974 67.9688 20.6974 67.5604C20.6974 67.1591 20.9389 66.8892 21.3082 66.8857C21.6847 66.8892 21.9332 67.1697 21.9332 67.5604ZM25.0227 64.2307V63.8117H23.581V63.7762C23.7301 63.6839 24.0568 63.5063 24.0568 62.9807C24.0568 62.2989 23.5099 61.8231 22.6435 61.8231C21.7841 61.8231 21.2372 62.2989 21.2372 62.9878C21.2372 63.5205 21.5639 63.6839 21.706 63.7762V63.8259H21.2727V64.2307H25.0227ZM22.6364 63.8188C22.0256 63.8188 21.6136 63.5489 21.6136 63.0376C21.6136 62.5049 22.0611 62.2421 22.6364 62.2421C23.2188 62.2421 23.6804 62.512 23.6804 63.0376C23.6804 63.5418 23.2543 63.8188 22.6364 63.8188ZM21.2727 60.9837V61.4666L22.6364 60.6001L24 61.4666V60.9837L22.9418 60.3303L24 59.6768V59.1939L22.6364 60.0746L21.2727 59.1939V59.6768L22.3878 60.3303L21.2727 60.9837Z" fill="#4D4D4D"/>
<path d="M40.9716 61.2727H39.9148L37.733 62.7216V63.7955L39.8636 62.3807H39.9148V70H40.9716V61.2727ZM43.4815 70H48.9872V69.0625H44.9304V68.9943L46.8906 66.8977C48.3906 65.2912 48.8338 64.5412 48.8338 63.5739C48.8338 62.2273 47.7429 61.1534 46.2088 61.1534C44.679 61.1534 43.5156 62.1932 43.5156 63.7273H44.5213C44.5213 62.7344 45.1648 62.0739 46.1747 62.0739C47.1207 62.0739 47.8452 62.6534 47.8452 63.5739C47.8452 64.3793 47.3722 64.9759 46.3622 66.0795L43.4815 69.233V70ZM53.5426 70.1193C55.2855 70.1193 56.5 69.1009 56.5085 67.6818C56.5 66.5781 55.7628 65.6406 54.821 65.4659V65.4148C55.6392 65.2017 56.1761 64.4006 56.1847 63.4716C56.1761 62.142 55.0597 61.1534 53.5426 61.1534C52.0085 61.1534 50.892 62.142 50.9006 63.4716C50.892 64.4006 51.429 65.2017 52.2642 65.4148V65.4659C51.3054 65.6406 50.5682 66.5781 50.5767 67.6818C50.5682 69.1009 51.7827 70.1193 53.5426 70.1193ZM53.5426 69.1818C52.3452 69.1818 51.608 68.5682 51.6165 67.6307C51.608 66.6463 52.4219 65.9432 53.5426 65.9432C54.6463 65.9432 55.4602 66.6463 55.4688 67.6307C55.4602 68.5682 54.723 69.1818 53.5426 69.1818ZM53.5426 65.0398C52.5881 65.0398 51.9148 64.4432 51.9233 63.5398C51.9148 62.6534 52.5625 62.0739 53.5426 62.0739C54.5057 62.0739 55.1534 62.6534 55.1619 63.5398C55.1534 64.4432 54.4801 65.0398 53.5426 65.0398ZM60.9883 70.1193C62.9144 70.1193 64.0224 68.4872 64.0224 65.6364C64.0224 62.8068 62.8974 61.1534 60.9883 61.1534C59.0792 61.1534 57.9542 62.8068 57.9542 65.6364C57.9542 68.4872 59.0621 70.1193 60.9883 70.1193ZM60.9883 69.1818C59.7184 69.1818 58.9769 67.9077 58.9769 65.6364C58.9769 63.3693 59.7269 62.0739 60.9883 62.0739C62.2496 62.0739 62.9996 63.3693 62.9996 65.6364C62.9996 67.9077 62.2582 69.1818 60.9883 69.1818ZM74.1474 68.4318L74.7951 67.7841L72.7156 65.7045L74.7951 63.625L74.1474 62.9773L72.0678 65.0568L69.9883 62.9773L69.3406 63.625L71.4201 65.7045L69.3406 67.7841L69.9883 68.4318L72.0678 66.3523L74.1474 68.4318ZM80.5746 70H81.6825L85.5689 62.2614V61.2727H79.978V62.2102H84.478V62.2784L80.5746 70ZM89.8675 70.1193C91.6317 70.1406 92.7823 68.8111 92.7823 67.1875C92.7823 65.5 91.5337 64.2898 90.038 64.2898C89.1388 64.2898 88.3675 64.7287 87.8903 65.4489H87.8221C87.8263 63.3224 88.6531 62.0909 90.0039 62.0909C90.9244 62.0909 91.4783 62.6705 91.6744 63.4545H92.7141C92.5011 62.0994 91.4698 61.1534 90.0039 61.1534C88.0394 61.1534 86.8335 62.892 86.8335 65.9773C86.8335 69.2031 88.4357 70.1023 89.8675 70.1193ZM89.8675 69.1818C88.7724 69.1818 87.9712 68.2486 87.9755 67.2045C87.9798 66.1605 88.8192 65.2273 89.9016 65.2273C90.9712 65.2273 91.7596 66.1051 91.7596 67.1875C91.7596 68.2955 90.9371 69.1818 89.8675 69.1818ZM97.2536 70.1193C98.9964 70.1193 100.211 69.1009 100.219 67.6818C100.211 66.5781 99.4737 65.6406 98.532 65.4659V65.4148C99.3501 65.2017 99.8871 64.4006 99.8956 63.4716C99.8871 62.142 98.7706 61.1534 97.2536 61.1534C95.7195 61.1534 94.603 62.142 94.6115 63.4716C94.603 64.4006 95.1399 65.2017 95.9751 65.4148V65.4659C95.0163 65.6406 94.2791 66.5781 94.2876 67.6818C94.2791 69.1009 95.4936 70.1193 97.2536 70.1193ZM97.2536 69.1818C96.0561 69.1818 95.3189 68.5682 95.3274 67.6307C95.3189 66.6463 96.1328 65.9432 97.2536 65.9432C98.3572 65.9432 99.1712 66.6463 99.1797 67.6307C99.1712 68.5682 98.4339 69.1818 97.2536 69.1818ZM97.2536 65.0398C96.299 65.0398 95.6257 64.4432 95.6342 63.5398C95.6257 62.6534 96.2734 62.0739 97.2536 62.0739C98.2166 62.0739 98.8643 62.6534 98.8729 63.5398C98.8643 64.4432 98.1911 65.0398 97.2536 65.0398Z" fill="black"/>
<defs>
<clipPath id="clip0">
<rect width="5" height="8" fill="white" transform="translate(18 47) rotate(-90)"/>
</clipPath>
</defs>
</svg>
