<svg width="128" height="128" viewBox="0 0 128 128" fill="none" xmlns="http://www.w3.org/2000/svg">
<rect x="19" y="30" width="90" height="68" fill="white"/>
<path d="M28.0625 33.1121C28.0625 33.3277 27.9579 33.5012 27.828 33.5012H25.172C25.0421 33.5012 24.9375 33.3277 24.9375 33.1121C24.9375 32.9959 24.9679 32.8921 25.0163 32.8209L26.3362 30.6054C26.3782 30.5396 26.4346 30.499 26.4969 30.499C26.5593 30.499 26.6157 30.5396 26.6577 30.6054L27.9837 32.8209C28.0321 32.8921 28.0625 32.9959 28.0625 33.1121Z" fill="#555761"/>
<line x1="26.5" y1="32" x2="26.5" y2="96" stroke="#555761"/>
<g clip-path="url(#clip0)">
<path d="M23.1121 35.9375C23.3277 35.9375 23.5012 36.0421 23.5012 36.172V38.828C23.5012 38.9579 23.3277 39.0625 23.1121 39.0625C22.9959 39.0625 22.8921 39.0321 22.8209 38.9837L20.6054 37.6638C20.5396 37.6218 20.499 37.5654 20.499 37.5031C20.499 37.4407 20.5396 37.3843 20.6054 37.3423L22.8209 36.0163C22.8921 35.9679 22.9959 35.9375 23.1121 35.9375Z" fill="#555761"/>
</g>
<line x1="22" y1="37.5" x2="106" y2="37.5" stroke="#555761"/>
<path d="M58.6548 31.3636H58.2145L57.3054 31.9673V32.4148L58.1932 31.8253H58.2145V35H58.6548V31.3636ZM59.7006 35H61.9947V34.6094H60.3043V34.581L61.1211 33.7074C61.7461 33.038 61.9308 32.7255 61.9308 32.3224C61.9308 31.7614 61.4762 31.3139 60.837 31.3139C60.1996 31.3139 59.7148 31.7472 59.7148 32.3864H60.1339C60.1339 31.9727 60.402 31.6974 60.8228 31.6974C61.217 31.6974 61.5188 31.9389 61.5188 32.3224C61.5188 32.658 61.3217 32.9066 60.9009 33.3665L59.7006 34.6804V35ZM63.8928 35.0497C64.619 35.0497 65.125 34.6254 65.1286 34.0341C65.125 33.5742 64.8178 33.1836 64.4254 33.1108V33.0895C64.7663 33.0007 64.9901 32.6669 64.9936 32.2798C64.9901 31.7259 64.5249 31.3139 63.8928 31.3139C63.2536 31.3139 62.7884 31.7259 62.7919 32.2798C62.7884 32.6669 63.0121 33.0007 63.3601 33.0895V33.1108C62.9606 33.1836 62.6534 33.5742 62.657 34.0341C62.6534 34.6254 63.1594 35.0497 63.8928 35.0497ZM63.8928 34.6591C63.3938 34.6591 63.0866 34.4034 63.0902 34.0128C63.0866 33.6026 63.4258 33.3097 63.8928 33.3097C64.3526 33.3097 64.6918 33.6026 64.6953 34.0128C64.6918 34.4034 64.3846 34.6591 63.8928 34.6591ZM63.8928 32.9332C63.495 32.9332 63.2145 32.6847 63.218 32.3082C63.2145 31.9389 63.4844 31.6974 63.8928 31.6974C64.294 31.6974 64.5639 31.9389 64.5675 32.3082C64.5639 32.6847 64.2834 32.9332 63.8928 32.9332ZM66.9951 35.0497C67.7977 35.0497 68.2593 34.3697 68.2593 33.1818C68.2593 32.0028 67.7906 31.3139 66.9951 31.3139C66.1997 31.3139 65.7309 32.0028 65.7309 33.1818C65.7309 34.3697 66.1926 35.0497 66.9951 35.0497ZM66.9951 34.6591C66.466 34.6591 66.157 34.1282 66.157 33.1818C66.157 32.2372 66.4695 31.6974 66.9951 31.6974C67.5207 31.6974 67.8332 32.2372 67.8332 33.1818C67.8332 34.1282 67.5242 34.6591 66.9951 34.6591ZM70.3474 36.0227H70.7664V34.581H70.8019C70.8943 34.7301 71.0718 35.0568 71.5974 35.0568C72.2792 35.0568 72.7551 34.5099 72.7551 33.6435C72.7551 32.7841 72.2792 32.2372 71.5903 32.2372C71.0576 32.2372 70.8943 32.5639 70.8019 32.706H70.7522V32.2727H70.3474V36.0227ZM70.7593 33.6364C70.7593 33.0256 71.0292 32.6136 71.5406 32.6136C72.0732 32.6136 72.336 33.0611 72.336 33.6364C72.336 34.2188 72.0661 34.6804 71.5406 34.6804C71.0363 34.6804 70.7593 34.2543 70.7593 33.6364ZM73.5945 32.2727H73.1115L73.978 33.6364L73.1115 35H73.5945L74.2479 33.9418L74.9013 35H75.3842L74.5036 33.6364L75.3842 32.2727H74.9013L74.2479 33.3878L73.5945 32.2727Z" fill="#4D4D4D"/>
<path d="M20.3139 73.4659C20.305 74.2045 20.8608 74.6804 21.5284 74.6804C22.2315 74.6804 22.7358 74.1619 22.7358 73.5369C22.7358 73.1605 22.5511 72.8409 22.2528 72.642V72.6136C23.1477 72.6136 23.6591 72.9616 23.6591 73.5227C23.6591 73.9062 23.4176 74.1406 23.0838 74.2188V74.652C23.6591 74.5668 24.0497 74.1335 24.0497 73.5227C24.0497 72.706 23.3253 72.2017 22.0327 72.2017C20.6974 72.2017 20.321 72.8693 20.3139 73.4659ZM20.7045 73.4659C20.7045 73.0114 21.0952 72.6776 21.5213 72.6776C21.9545 72.6776 22.3452 73.0327 22.3452 73.4801C22.3452 73.9276 21.983 74.2543 21.5284 74.2543C21.0739 74.2543 20.7045 73.9134 20.7045 73.4659ZM24.0497 70.2961C24.0586 69.561 23.5046 69.0816 22.8281 69.0816C22.125 69.0816 21.6207 69.6018 21.6207 70.2251C21.6207 70.5997 21.8036 70.9211 22.1037 71.1199V71.1483C21.2177 71.1466 20.7045 70.8021 20.7045 70.2393C20.7045 69.8557 20.946 69.6249 21.2727 69.5432V69.11C20.7081 69.1988 20.3139 69.6285 20.3139 70.2393C20.3139 71.0578 21.0384 71.5603 22.3239 71.5603C23.668 71.5603 24.0426 70.8927 24.0497 70.2961ZM23.6591 70.2961C23.6591 70.7524 23.2702 71.0862 22.8352 71.0844C22.4002 71.0827 22.0114 70.7329 22.0114 70.2819C22.0114 69.8362 22.3771 69.5077 22.8281 69.5077C23.2898 69.5077 23.6591 69.8504 23.6591 70.2961ZM24.0497 67.1973C24.0497 66.3947 23.3697 65.9331 22.1818 65.9331C21.0028 65.9331 20.3139 66.4018 20.3139 67.1973C20.3139 67.9927 21.0028 68.4615 22.1818 68.4615C23.3697 68.4615 24.0497 67.9998 24.0497 67.1973ZM23.6591 67.1973C23.6591 67.7264 23.1282 68.0353 22.1818 68.0353C21.2372 68.0353 20.6974 67.7228 20.6974 67.1973C20.6974 66.6717 21.2372 66.3592 22.1818 66.3592C23.1282 66.3592 23.6591 66.6681 23.6591 67.1973ZM25.0227 63.845V63.426H23.581V63.3904C23.7301 63.2981 24.0568 63.1206 24.0568 62.595C24.0568 61.9132 23.5099 61.4373 22.6435 61.4373C21.7841 61.4373 21.2372 61.9132 21.2372 62.6021C21.2372 63.1348 21.5639 63.2981 21.706 63.3904V63.4402H21.2727V63.845H25.0227ZM22.6364 63.4331C22.0256 63.4331 21.6136 63.1632 21.6136 62.6518C21.6136 62.1191 22.0611 61.8564 22.6364 61.8564C23.2188 61.8564 23.6804 62.1262 23.6804 62.6518C23.6804 63.1561 23.2543 63.4331 22.6364 63.4331ZM21.2727 60.5979V61.0809L22.6364 60.2144L24 61.0809V60.5979L22.9418 59.9445L24 59.2911V58.8081L22.6364 59.6888L21.2727 58.8081V59.2911L22.3878 59.9445L21.2727 60.5979Z" fill="#4D4D4D"/>
<path d="M40.9716 61.2727H39.9148L37.733 62.7216V63.7955L39.8636 62.3807H39.9148V70H40.9716V61.2727ZM43.4815 70H48.9872V69.0625H44.9304V68.9943L46.8906 66.8977C48.3906 65.2912 48.8338 64.5412 48.8338 63.5739C48.8338 62.2273 47.7429 61.1534 46.2088 61.1534C44.679 61.1534 43.5156 62.1932 43.5156 63.7273H44.5213C44.5213 62.7344 45.1648 62.0739 46.1747 62.0739C47.1207 62.0739 47.8452 62.6534 47.8452 63.5739C47.8452 64.3793 47.3722 64.9759 46.3622 66.0795L43.4815 69.233V70ZM53.5426 70.1193C55.2855 70.1193 56.5 69.1009 56.5085 67.6818C56.5 66.5781 55.7628 65.6406 54.821 65.4659V65.4148C55.6392 65.2017 56.1761 64.4006 56.1847 63.4716C56.1761 62.142 55.0597 61.1534 53.5426 61.1534C52.0085 61.1534 50.892 62.142 50.9006 63.4716C50.892 64.4006 51.429 65.2017 52.2642 65.4148V65.4659C51.3054 65.6406 50.5682 66.5781 50.5767 67.6818C50.5682 69.1009 51.7827 70.1193 53.5426 70.1193ZM53.5426 69.1818C52.3452 69.1818 51.608 68.5682 51.6165 67.6307C51.608 66.6463 52.4219 65.9432 53.5426 65.9432C54.6463 65.9432 55.4602 66.6463 55.4688 67.6307C55.4602 68.5682 54.723 69.1818 53.5426 69.1818ZM53.5426 65.0398C52.5881 65.0398 51.9148 64.4432 51.9233 63.5398C51.9148 62.6534 52.5625 62.0739 53.5426 62.0739C54.5057 62.0739 55.1534 62.6534 55.1619 63.5398C55.1534 64.4432 54.4801 65.0398 53.5426 65.0398ZM60.9883 70.1193C62.9144 70.1193 64.0224 68.4872 64.0224 65.6364C64.0224 62.8068 62.8974 61.1534 60.9883 61.1534C59.0792 61.1534 57.9542 62.8068 57.9542 65.6364C57.9542 68.4872 59.0621 70.1193 60.9883 70.1193ZM60.9883 69.1818C59.7184 69.1818 58.9769 67.9077 58.9769 65.6364C58.9769 63.3693 59.7269 62.0739 60.9883 62.0739C62.2496 62.0739 62.9996 63.3693 62.9996 65.6364C62.9996 67.9077 62.2582 69.1818 60.9883 69.1818ZM74.1474 68.4318L74.7951 67.7841L72.7156 65.7045L74.7951 63.625L74.1474 62.9773L72.0678 65.0568L69.9883 62.9773L69.3406 63.625L71.4201 65.7045L69.3406 67.7841L69.9883 68.4318L72.0678 66.3523L74.1474 68.4318ZM83.0803 61.1534C81.3075 61.1321 80.1655 62.4659 80.1655 64.0682C80.1655 65.7557 81.4098 66.9659 82.9098 66.9659C83.8132 66.9659 84.5803 66.5227 85.0575 65.8068H85.1257C85.1257 67.9545 84.2905 69.1818 82.9439 69.1818C82.0234 69.1818 81.4609 68.6023 81.2734 67.8011H80.2337C80.4382 69.1818 81.478 70.1193 82.9439 70.1193C84.9041 70.1193 86.1143 68.3807 86.1143 65.2784C86.1143 62.0739 84.5121 61.1705 83.0803 61.1534ZM83.0803 62.0909C84.1712 62.0909 84.9723 63.0284 84.9723 64.0511C84.9723 65.0909 84.12 66.0284 83.0462 66.0284C81.9723 66.0284 81.1882 65.1591 81.1882 64.0682C81.1882 62.9773 82.0064 62.0909 83.0803 62.0909ZM90.6879 70.1193C92.4521 70.1406 93.6026 68.8111 93.6026 67.1875C93.6026 65.5 92.354 64.2898 90.8583 64.2898C89.9592 64.2898 89.1879 64.7287 88.7106 65.4489H88.6424C88.6467 63.3224 89.4734 62.0909 90.8242 62.0909C91.7447 62.0909 92.2987 62.6705 92.4947 63.4545H93.5344C93.3214 62.0994 92.2901 61.1534 90.8242 61.1534C88.8597 61.1534 87.6538 62.892 87.6538 65.9773C87.6538 69.2031 89.256 70.1023 90.6879 70.1193ZM90.6879 69.1818C89.5927 69.1818 88.7915 68.2486 88.7958 67.2045C88.8001 66.1605 89.6396 65.2273 90.7219 65.2273C91.7915 65.2273 92.5799 66.1051 92.5799 67.1875C92.5799 68.2955 91.7575 69.1818 90.6879 69.1818ZM98.125 70.1193C100.051 70.1193 101.159 68.4872 101.159 65.6364C101.159 62.8068 100.034 61.1534 98.125 61.1534C96.2159 61.1534 95.0909 62.8068 95.0909 65.6364C95.0909 68.4872 96.1989 70.1193 98.125 70.1193ZM98.125 69.1818C96.8551 69.1818 96.1136 67.9077 96.1136 65.6364C96.1136 63.3693 96.8636 62.0739 98.125 62.0739C99.3864 62.0739 100.136 63.3693 100.136 65.6364C100.136 67.9077 99.3949 69.1818 98.125 69.1818Z" fill="black"/>
<defs>
<clipPath id="clip0">
<rect width="5" height="8" fill="white" transform="translate(18 40) rotate(-90)"/>
</clipPath>
</defs>
</svg>
