<svg width="128" height="128" viewBox="0 0 128 128" fill="none" xmlns="http://www.w3.org/2000/svg">
<rect x="14" y="14" width="100" height="100" fill="white"/>
<path d="M23.0625 18.1121C23.0625 18.3277 22.9579 18.5012 22.828 18.5012H20.172C20.0421 18.5012 19.9375 18.3277 19.9375 18.1121C19.9375 17.9959 19.9679 17.8921 20.0163 17.8209L21.3362 15.6054C21.3782 15.5396 21.4346 15.499 21.4969 15.499C21.5593 15.499 21.6157 15.5396 21.6577 15.6054L22.9837 17.8209C23.0321 17.8921 23.0625 17.9959 23.0625 18.1121Z" fill="#555761"/>
<line x1="21.5" y1="17" x2="21.5" y2="110" stroke="#555761"/>
<g clip-path="url(#clip0)">
<path d="M18.112 19.9375C18.3276 19.9375 18.5012 20.0421 18.5012 20.172V22.828C18.5012 22.9579 18.3276 23.0625 18.112 23.0625C17.9958 23.0625 17.8921 23.0321 17.8209 22.9837L15.6054 21.6638C15.5396 21.6218 15.499 21.5654 15.499 21.5031C15.499 21.4407 15.5396 21.3843 15.6054 21.3423L17.8209 20.0163C17.8921 19.9679 17.9958 19.9375 18.112 19.9375Z" fill="#555761"/>
</g>
<line x1="17" y1="21.5" x2="111" y2="21.5" stroke="#555761"/>
<path d="M60.6548 15.3636H60.2145L59.3054 15.9673V16.4148L60.1932 15.8253H60.2145V19H60.6548V15.3636ZM62.8867 19.0497C63.6893 19.0497 64.1509 18.3697 64.1509 17.1818C64.1509 16.0028 63.6822 15.3139 62.8867 15.3139C62.0913 15.3139 61.6225 16.0028 61.6225 17.1818C61.6225 18.3697 62.0842 19.0497 62.8867 19.0497ZM62.8867 18.6591C62.3576 18.6591 62.0487 18.1282 62.0487 17.1818C62.0487 16.2372 62.3612 15.6974 62.8867 15.6974C63.4123 15.6974 63.7248 16.2372 63.7248 17.1818C63.7248 18.1282 63.4158 18.6591 62.8867 18.6591ZM64.8256 19H67.1197V18.6094H65.4293V18.581L66.2461 17.7074C66.8711 17.038 67.0558 16.7255 67.0558 16.3224C67.0558 15.7614 66.6012 15.3139 65.962 15.3139C65.3246 15.3139 64.8398 15.7472 64.8398 16.3864H65.2589C65.2589 15.9727 65.527 15.6974 65.9478 15.6974C66.342 15.6974 66.6438 15.9389 66.6438 16.3224C66.6438 16.658 66.4467 16.9066 66.0259 17.3665L64.8256 18.6804V19ZM67.6896 18.2543H69.4013V19H69.8203V18.2543H70.3175V17.8636H69.8203V15.3636H69.2876L67.6896 17.892V18.2543ZM69.4013 17.8636H68.1655V17.8352L69.3729 15.9247H69.4013V17.8636ZM72.3962 20.0227H72.8153V18.581H72.8508C72.9431 18.7301 73.1206 19.0568 73.6462 19.0568C74.328 19.0568 74.8039 18.5099 74.8039 17.6435C74.8039 16.7841 74.328 16.2372 73.6391 16.2372C73.1064 16.2372 72.9431 16.5639 72.8508 16.706H72.801V16.2727H72.3962V20.0227ZM72.8081 17.6364C72.8081 17.0256 73.078 16.6136 73.5894 16.6136C74.1221 16.6136 74.3849 17.0611 74.3849 17.6364C74.3849 18.2188 74.115 18.6804 73.5894 18.6804C73.0851 18.6804 72.8081 18.2543 72.8081 17.6364ZM76.6292 16.2727H76.0468V15.6193H75.6278V16.2727H75.2158V16.6278H75.6278V18.3324C75.6278 18.8082 76.0113 19.0355 76.3664 19.0355C76.5226 19.0355 76.6221 19.0071 76.6789 18.9858L76.5937 18.6094C76.5581 18.6165 76.5013 18.6307 76.409 18.6307C76.2243 18.6307 76.0468 18.5739 76.0468 18.2188V16.6278H76.6292V16.2727Z" fill="#4D4D4D"/>
<path d="M15.3636 71.3452V71.7855L15.9673 72.6946H16.4148L15.8253 71.8068V71.7855H19V71.3452H15.3636ZM19.0497 69.1133C19.0497 68.3107 18.3697 67.8491 17.1818 67.8491C16.0028 67.8491 15.3139 68.3178 15.3139 69.1133C15.3139 69.9087 16.0028 70.3775 17.1818 70.3775C18.3697 70.3775 19.0497 69.9158 19.0497 69.1133ZM18.6591 69.1133C18.6591 69.6424 18.1282 69.9513 17.1818 69.9513C16.2372 69.9513 15.6974 69.6388 15.6974 69.1133C15.6974 68.5877 16.2372 68.2752 17.1818 68.2752C18.1282 68.2752 18.6591 68.5842 18.6591 69.1133ZM19 67.1744V64.8803H18.6094V66.5707H18.581L17.7074 65.7539C17.038 65.1289 16.7255 64.9442 16.3224 64.9442C15.7614 64.9442 15.3139 65.3988 15.3139 66.038C15.3139 66.6754 15.7472 67.1602 16.3864 67.1602V66.7411C15.9727 66.7411 15.6974 66.473 15.6974 66.0522C15.6974 65.658 15.9389 65.3562 16.3224 65.3562C16.658 65.3562 16.9066 65.5533 17.3665 65.9741L18.6804 67.1744H19ZM18.2543 64.3104V62.5987H19V62.1797H18.2543V61.6825H17.8636V62.1797H15.3636V62.7124L17.892 64.3104H18.2543ZM17.8636 62.5987V63.8345H17.8352L15.9247 62.6271V62.5987H17.8636ZM20.0227 59.6038V59.1847H18.581V59.1492C18.7301 59.0569 19.0568 58.8794 19.0568 58.3538C19.0568 57.672 18.5099 57.1961 17.6435 57.1961C16.7841 57.1961 16.2372 57.672 16.2372 58.3609C16.2372 58.8936 16.5639 59.0569 16.706 59.1492V59.199H16.2727V59.6038H20.0227ZM17.6364 59.1919C17.0256 59.1919 16.6136 58.922 16.6136 58.4106C16.6136 57.8779 17.0611 57.6151 17.6364 57.6151C18.2188 57.6151 18.6804 57.885 18.6804 58.4106C18.6804 58.9149 18.2543 59.1919 17.6364 59.1919ZM16.2727 55.3708V55.9532H15.6193V56.3722H16.2727V56.7842H16.6278V56.3722H18.3324C18.8082 56.3722 19.0355 55.9887 19.0355 55.6336C19.0355 55.4774 19.0071 55.3779 18.9858 55.3211L18.6094 55.4063C18.6165 55.4419 18.6307 55.4987 18.6307 55.591C18.6307 55.7757 18.5739 55.9532 18.2188 55.9532H16.6278V55.3708H16.2727Z" fill="#4D4D4D"/>
<path d="M38.9716 59.2727H37.9148L35.733 60.7216V61.7955L37.8636 60.3807H37.9148V68H38.9716V59.2727ZM44.3281 68.1193C46.2543 68.1193 47.3622 66.4872 47.3622 63.6364C47.3622 60.8068 46.2372 59.1534 44.3281 59.1534C42.419 59.1534 41.294 60.8068 41.294 63.6364C41.294 66.4872 42.402 68.1193 44.3281 68.1193ZM44.3281 67.1818C43.0582 67.1818 42.3168 65.9077 42.3168 63.6364C42.3168 61.3693 43.0668 60.0739 44.3281 60.0739C45.5895 60.0739 46.3395 61.3693 46.3395 63.6364C46.3395 65.9077 45.598 67.1818 44.3281 67.1818ZM48.9815 68H54.4872V67.0625H50.4304V66.9943L52.3906 64.8977C53.8906 63.2912 54.3338 62.5412 54.3338 61.5739C54.3338 60.2273 53.2429 59.1534 51.7088 59.1534C50.179 59.1534 49.0156 60.1932 49.0156 61.7273H50.0213C50.0213 60.7344 50.6648 60.0739 51.6747 60.0739C52.6207 60.0739 53.3452 60.6534 53.3452 61.5739C53.3452 62.3793 52.8722 62.9759 51.8622 64.0795L48.9815 67.233V68ZM55.8551 66.2102H59.9631V68H60.9688V66.2102H62.1619V65.2727H60.9688V59.2727H59.6903L55.8551 65.3409V66.2102ZM59.9631 65.2727H56.9972V65.2045L59.8949 60.6193H59.9631V65.2727ZM72.2646 66.4318L72.9123 65.7841L70.8327 63.7045L72.9123 61.625L72.2646 60.9773L70.185 63.0568L68.1055 60.9773L67.4577 61.625L69.5373 63.7045L67.4577 65.7841L68.1055 66.4318L70.185 64.3523L72.2646 66.4318ZM81.4872 59.2727H80.4304L78.2486 60.7216V61.7955L80.3793 60.3807H80.4304V68H81.4872V59.2727ZM86.8438 68.1193C88.7699 68.1193 89.8778 66.4872 89.8778 63.6364C89.8778 60.8068 88.7528 59.1534 86.8438 59.1534C84.9347 59.1534 83.8097 60.8068 83.8097 63.6364C83.8097 66.4872 84.9176 68.1193 86.8438 68.1193ZM86.8438 67.1818C85.5739 67.1818 84.8324 65.9077 84.8324 63.6364C84.8324 61.3693 85.5824 60.0739 86.8438 60.0739C88.1051 60.0739 88.8551 61.3693 88.8551 63.6364C88.8551 65.9077 88.1136 67.1818 86.8438 67.1818ZM91.4972 68H97.0028V67.0625H92.946V66.9943L94.9062 64.8977C96.4062 63.2912 96.8494 62.5412 96.8494 61.5739C96.8494 60.2273 95.7585 59.1534 94.2244 59.1534C92.6946 59.1534 91.5312 60.1932 91.5312 61.7273H92.5369C92.5369 60.7344 93.1804 60.0739 94.1903 60.0739C95.1364 60.0739 95.8608 60.6534 95.8608 61.5739C95.8608 62.3793 95.3878 62.9759 94.3778 64.0795L91.4972 67.233V68ZM98.3707 66.2102H102.479V68H103.484V66.2102H104.678V65.2727H103.484V59.2727H102.206L98.3707 65.3409V66.2102ZM102.479 65.2727H99.5128V65.2045L102.411 60.6193H102.479V65.2727Z" fill="black"/>
<defs>
<clipPath id="clip0">
<rect width="5" height="8" fill="white" transform="translate(13 24) rotate(-90)"/>
</clipPath>
</defs>
</svg>
