<svg width="128" height="128" viewBox="0 0 128 128" fill="none" xmlns="http://www.w3.org/2000/svg">
<rect x="6" y="26" width="116" height="75" fill="white"/>
<path d="M9.6365 31.9375C9.83205 31.9375 9.98948 32.0421 9.98948 32.172V34.828C9.98948 34.9579 9.83205 35.0625 9.6365 35.0625C9.53111 35.0625 9.43702 35.0321 9.37245 34.9837L7.36306 33.6638C7.30338 33.6218 7.26654 33.5654 7.26654 33.5031C7.26654 33.4407 7.30337 33.3843 7.36306 33.3423L9.37245 32.0163C9.43702 31.9679 9.53111 31.9375 9.6365 31.9375Z" fill="#555761"/>
<line x1="8.62793" y1="33.5" x2="119.279" y2="33.5" stroke="#555761"/>
<path d="M60.6548 27.3636H60.2145L59.3054 27.9673V28.4148L60.1932 27.8253H60.2145V31H60.6548V27.3636ZM61.7006 31H63.9947V30.6094H62.3043V30.581L63.1211 29.7074C63.7461 29.038 63.9308 28.7255 63.9308 28.3224C63.9308 27.7614 63.4762 27.3139 62.837 27.3139C62.1996 27.3139 61.7148 27.7472 61.7148 28.3864H62.1339C62.1339 27.9727 62.402 27.6974 62.8228 27.6974C63.217 27.6974 63.5188 27.9389 63.5188 28.3224C63.5188 28.658 63.3217 28.9066 62.9009 29.3665L61.7006 30.6804V31ZM65.9141 31.0497C66.7166 31.0497 67.1783 30.3697 67.1783 29.1818C67.1783 28.0028 66.7095 27.3139 65.9141 27.3139C65.1186 27.3139 64.6499 28.0028 64.6499 29.1818C64.6499 30.3697 65.1115 31.0497 65.9141 31.0497ZM65.9141 30.6591C65.3849 30.6591 65.076 30.1282 65.076 29.1818C65.076 28.2372 65.3885 27.6974 65.9141 27.6974C66.4396 27.6974 66.7521 28.2372 66.7521 29.1818C66.7521 30.1282 66.4432 30.6591 65.9141 30.6591ZM69.0391 31.0497C69.8416 31.0497 70.3033 30.3697 70.3033 29.1818C70.3033 28.0028 69.8345 27.3139 69.0391 27.3139C68.2436 27.3139 67.7749 28.0028 67.7749 29.1818C67.7749 30.3697 68.2365 31.0497 69.0391 31.0497ZM69.0391 30.6591C68.5099 30.6591 68.201 30.1282 68.201 29.1818C68.201 28.2372 68.5135 27.6974 69.0391 27.6974C69.5646 27.6974 69.8771 28.2372 69.8771 29.1818C69.8771 30.1282 69.5682 30.6591 69.0391 30.6591ZM72.3913 32.0227H72.8104V30.581H72.8459C72.9382 30.7301 73.1158 31.0568 73.6413 31.0568C74.3232 31.0568 74.799 30.5099 74.799 29.6435C74.799 28.7841 74.3232 28.2372 73.6342 28.2372C73.1016 28.2372 72.9382 28.5639 72.8459 28.706H72.7962V28.2727H72.3913V32.0227ZM72.8033 29.6364C72.8033 29.0256 73.0732 28.6136 73.5845 28.6136C74.1172 28.6136 74.38 29.0611 74.38 29.6364C74.38 30.2188 74.1101 30.6804 73.5845 30.6804C73.0803 30.6804 72.8033 30.2543 72.8033 29.6364ZM75.6384 28.2727H75.1555L76.0219 29.6364L75.1555 31H75.6384L76.2918 29.9418L76.9452 31H77.4282L76.5475 29.6364L77.4282 28.2727H76.9452L76.2918 29.3878L75.6384 28.2727Z" fill="black"/>
<path d="M11.0497 71.4162C11.0586 70.6811 10.5046 70.2017 9.82812 70.2017C9.125 70.2017 8.62074 70.7219 8.62074 71.3452C8.62074 71.7198 8.80362 72.0412 9.10369 72.2401V72.2685C8.21768 72.2667 7.70455 71.9222 7.70455 71.3594C7.70455 70.9759 7.94602 70.745 8.27273 70.6634V70.2301C7.7081 70.3189 7.31392 70.7486 7.31392 71.3594C7.31392 72.1779 8.03835 72.6804 9.32386 72.6804C10.668 72.6804 11.0426 72.0128 11.0497 71.4162ZM10.6591 71.4162C10.6591 71.8725 10.2702 72.2063 9.83523 72.2045C9.40021 72.2028 9.01136 71.853 9.01136 71.402C9.01136 70.9563 9.37713 70.6278 9.82812 70.6278C10.2898 70.6278 10.6591 70.9705 10.6591 71.4162ZM11.0497 68.2748C11.0497 67.5699 10.6076 67.0461 10.0128 67.0461C9.55114 67.0461 9.21555 67.3195 9.1392 67.7776H9.1108C8.99893 67.4101 8.69709 67.181 8.28693 67.181C7.77202 67.181 7.31392 67.5876 7.31392 68.2606C7.31392 68.8891 7.70099 69.4111 8.27273 69.4324V69.0063C7.91051 68.9903 7.69744 68.6459 7.69744 68.2677C7.69744 67.8664 7.9407 67.6072 8.30824 67.6072C8.69176 67.6072 8.94034 67.9072 8.94034 68.3387V68.6299H9.33097V68.3387C9.33097 67.7865 9.61151 67.4793 10.0128 67.4793C10.3981 67.4793 10.6591 67.8149 10.6591 68.2819C10.6591 68.7027 10.4425 69.0365 10.0909 69.0631V69.5106C10.6626 69.4839 11.0497 68.9797 11.0497 68.2748ZM11.0497 65.1338C11.0497 64.3312 10.3697 63.8696 9.18182 63.8696C8.00284 63.8696 7.31392 64.3383 7.31392 65.1338C7.31392 65.9292 8.00284 66.398 9.18182 66.398C10.3697 66.398 11.0497 65.9363 11.0497 65.1338ZM10.6591 65.1338C10.6591 65.6629 10.1282 65.9719 9.18182 65.9719C8.23722 65.9719 7.69744 65.6594 7.69744 65.1338C7.69744 64.6082 8.23722 64.2957 9.18182 64.2957C10.1282 64.2957 10.6591 64.6047 10.6591 65.1338ZM12.0227 61.7815V61.3625H10.581V61.327C10.7301 61.2346 11.0568 61.0571 11.0568 60.5315C11.0568 59.8497 10.5099 59.3738 9.64347 59.3738C8.78409 59.3738 8.23722 59.8497 8.23722 60.5386C8.23722 61.0713 8.56392 61.2346 8.70597 61.327V61.3767H8.27273V61.7815H12.0227ZM9.63636 61.3696C9.02557 61.3696 8.61364 61.0997 8.61364 60.5883C8.61364 60.0557 9.06108 59.7929 9.63636 59.7929C10.2188 59.7929 10.6804 60.0628 10.6804 60.5883C10.6804 61.0926 10.2543 61.3696 9.63636 61.3696ZM8.27273 58.5344V59.0174L9.63636 58.1509L11 59.0174V58.5344L9.94176 57.881L11 57.2276V56.7447L9.63636 57.6254L8.27273 56.7447V57.2276L9.38778 57.881L8.27273 58.5344Z" fill="black"/>
<path d="M15.0625 29.1121C15.0625 29.3277 14.9579 29.5012 14.828 29.5012H12.172C12.0421 29.5012 11.9375 29.3277 11.9375 29.1121C11.9375 28.9959 11.9679 28.8921 12.0163 28.8209L13.3362 26.6054C13.3782 26.5396 13.4346 26.499 13.4969 26.499C13.5593 26.499 13.6157 26.5396 13.6577 26.6054L14.9837 28.8209C15.0321 28.8921 15.0625 28.9959 15.0625 29.1121Z" fill="#555761"/>
<line x1="13.5" y1="28" x2="13.5" y2="98" stroke="#555761"/>
<path d="M38.9716 58.2727H37.9148L35.733 59.7216V60.7955L37.8636 59.3807H37.9148V67H38.9716V58.2727ZM41.4815 67H46.9872V66.0625H42.9304V65.9943L44.8906 63.8977C46.3906 62.2912 46.8338 61.5412 46.8338 60.5739C46.8338 59.2273 45.7429 58.1534 44.2088 58.1534C42.679 58.1534 41.5156 59.1932 41.5156 60.7273H42.5213C42.5213 59.7344 43.1648 59.0739 44.1747 59.0739C45.1207 59.0739 45.8452 59.6534 45.8452 60.5739C45.8452 61.3793 45.3722 61.9759 44.3622 63.0795L41.4815 66.233V67ZM51.5938 67.1193C53.5199 67.1193 54.6278 65.4872 54.6278 62.6364C54.6278 59.8068 53.5028 58.1534 51.5938 58.1534C49.6847 58.1534 48.5597 59.8068 48.5597 62.6364C48.5597 65.4872 49.6676 67.1193 51.5938 67.1193ZM51.5938 66.1818C50.3239 66.1818 49.5824 64.9077 49.5824 62.6364C49.5824 60.3693 50.3324 59.0739 51.5938 59.0739C52.8551 59.0739 53.6051 60.3693 53.6051 62.6364C53.6051 64.9077 52.8636 66.1818 51.5938 66.1818ZM59.0938 67.1193C61.0199 67.1193 62.1278 65.4872 62.1278 62.6364C62.1278 59.8068 61.0028 58.1534 59.0938 58.1534C57.1847 58.1534 56.0597 59.8068 56.0597 62.6364C56.0597 65.4872 57.1676 67.1193 59.0938 67.1193ZM59.0938 66.1818C57.8239 66.1818 57.0824 64.9077 57.0824 62.6364C57.0824 60.3693 57.8324 59.0739 59.0938 59.0739C60.3551 59.0739 61.1051 60.3693 61.1051 62.6364C61.1051 64.9077 60.3636 66.1818 59.0938 66.1818ZM72.2528 65.4318L72.9006 64.7841L70.821 62.7045L72.9006 60.625L72.2528 59.9773L70.1733 62.0568L68.0938 59.9773L67.446 60.625L69.5256 62.7045L67.446 64.7841L68.0938 65.4318L70.1733 63.3523L72.2528 65.4318ZM81.305 67.1193C83.0692 67.1406 84.2198 65.8111 84.2198 64.1875C84.2198 62.5 82.9712 61.2898 81.4755 61.2898C80.5763 61.2898 79.805 61.7287 79.3278 62.4489H79.2596C79.2638 60.3224 80.0906 59.0909 81.4414 59.0909C82.3619 59.0909 82.9158 59.6705 83.1119 60.4545H84.1516C83.9386 59.0994 82.9073 58.1534 81.4414 58.1534C79.4769 58.1534 78.271 59.892 78.271 62.9773C78.271 66.2031 79.8732 67.1023 81.305 67.1193ZM81.305 66.1818C80.2099 66.1818 79.4087 65.2486 79.413 64.2045C79.4173 63.1605 80.2567 62.2273 81.3391 62.2273C82.4087 62.2273 83.1971 63.1051 83.1971 64.1875C83.1971 65.2955 82.3746 66.1818 81.305 66.1818ZM88.8445 67.1193C90.5362 67.1193 91.7933 66.0582 91.7933 64.6307C91.7933 63.5227 91.1371 62.7173 90.0376 62.5341V62.4659C90.9197 62.1974 91.4695 61.473 91.4695 60.4886C91.4695 59.2528 90.4936 58.1534 88.8786 58.1534C87.37 58.1534 86.1172 59.0824 86.0661 60.4545H87.0888C87.1271 59.5852 87.9538 59.0739 88.8615 59.0739C89.8246 59.0739 90.4467 59.6577 90.4467 60.5398C90.4467 61.4602 89.7266 62.0568 88.6911 62.0568H87.9922V62.9943H88.6911C90.0163 62.9943 90.7536 63.6676 90.7536 64.6307C90.7536 65.5554 89.9482 66.1818 88.8274 66.1818C87.8175 66.1818 87.0163 65.6619 86.9524 64.8182H85.8786C85.9425 66.1903 87.1527 67.1193 88.8445 67.1193ZM96.3828 67.1193C98.3089 67.1193 99.4169 65.4872 99.4169 62.6364C99.4169 59.8068 98.2919 58.1534 96.3828 58.1534C94.4737 58.1534 93.3487 59.8068 93.3487 62.6364C93.3487 65.4872 94.4567 67.1193 96.3828 67.1193ZM96.3828 66.1818C95.1129 66.1818 94.3714 64.9077 94.3714 62.6364C94.3714 60.3693 95.1214 59.0739 96.3828 59.0739C97.6442 59.0739 98.3942 60.3693 98.3942 62.6364C98.3942 64.9077 97.6527 66.1818 96.3828 66.1818Z" fill="black"/>
</svg>
