<svg width="128" height="128" viewBox="0 0 128 128" fill="none" xmlns="http://www.w3.org/2000/svg">
<rect x="100" y="6" width="116" height="75" transform="rotate(90 100 6)" fill="white"/>
<path d="M34.0625 9.6365C34.0625 9.83205 33.9579 9.98948 33.828 9.98948H31.172C31.0421 9.98948 30.9375 9.83205 30.9375 9.6365C30.9375 9.53111 30.9679 9.43702 31.0163 9.37245L32.3362 7.36306C32.3782 7.30338 32.4346 7.26654 32.4969 7.26654C32.5593 7.26654 32.6157 7.30337 32.6577 7.36306L33.9837 9.37245C34.0321 9.43702 34.0625 9.53111 34.0625 9.6365Z" fill="#555761"/>
<line x1="32.5" y1="8.62793" x2="32.5" y2="119.279" stroke="#555761"/>
<path d="M30.0497 71.4588C30.0497 70.7326 29.6254 70.2266 29.0341 70.223C28.5742 70.2266 28.1836 70.5337 28.1108 70.9261H28.0895C28.0007 70.5852 27.6669 70.3615 27.2798 70.358C26.7259 70.3615 26.3139 70.8267 26.3139 71.4588C26.3139 72.098 26.7259 72.5632 27.2798 72.5597C27.6669 72.5632 28.0007 72.3395 28.0895 71.9915H28.1108C28.1836 72.391 28.5742 72.6982 29.0341 72.6946C29.6254 72.6982 30.0497 72.1921 30.0497 71.4588ZM29.6591 71.4588C29.6591 71.9577 29.4034 72.2649 29.0128 72.2614C28.6026 72.2649 28.3097 71.9258 28.3097 71.4588C28.3097 70.9989 28.6026 70.6598 29.0128 70.6562C29.4034 70.6598 29.6591 70.967 29.6591 71.4588ZM27.9332 71.4588C27.9332 71.8565 27.6847 72.1371 27.3082 72.1335C26.9389 72.1371 26.6974 71.8672 26.6974 71.4588C26.6974 71.0575 26.9389 70.7876 27.3082 70.7841C27.6847 70.7876 27.9332 71.0682 27.9332 71.4588ZM30.0497 68.4062C30.0497 67.7137 29.5384 67.2059 28.8423 67.2059C28.1374 67.2059 27.6207 67.6959 27.6207 68.3635C27.6207 68.6086 27.7077 68.8465 27.8267 68.9956V69.017L26.7543 68.8891V67.3692H26.3636V69.2584L28.1534 69.4786L28.2031 69.0667C28.0948 68.9157 28.0167 68.6583 28.0185 68.4346C28.022 67.9711 28.3736 67.632 28.8494 67.632C29.3164 67.632 29.6591 67.9587 29.6591 68.4062C29.6591 68.779 29.4194 69.0756 29.0909 69.1093V69.5354C29.6449 69.5088 30.0497 69.0312 30.0497 68.4062ZM26.3636 65.2221V65.6625L26.9673 66.5716H27.4148L26.8253 65.6838V65.6625H30V65.2221H26.3636ZM31.0227 62.763V62.3439H29.581V62.3084C29.7301 62.2161 30.0568 62.0385 30.0568 61.513C30.0568 60.8311 29.5099 60.3553 28.6435 60.3553C27.7841 60.3553 27.2372 60.8311 27.2372 61.5201C27.2372 62.0527 27.5639 62.2161 27.706 62.3084V62.3581H27.2727V62.763H31.0227ZM28.6364 62.351C28.0256 62.351 27.6136 62.0811 27.6136 61.5698C27.6136 61.0371 28.0611 60.7743 28.6364 60.7743C29.2188 60.7743 29.6804 61.0442 29.6804 61.5698C29.6804 62.074 29.2543 62.351 28.6364 62.351ZM27.2727 59.5159V59.9988L28.6364 59.1324L30 59.9988V59.5159L28.9418 58.8625L30 58.2091V57.7261L28.6364 58.6068L27.2727 57.7261V58.2091L28.3878 58.8625L27.2727 59.5159Z" fill="black"/>
<path d="M58.6051 11.0497C59.31 11.0497 59.8338 10.6076 59.8338 10.0128C59.8338 9.55114 59.5604 9.21555 59.1023 9.1392V9.1108C59.4698 8.99893 59.6989 8.69709 59.6989 8.28693C59.6989 7.77202 59.2923 7.31392 58.6193 7.31392C57.9908 7.31392 57.4688 7.70099 57.4474 8.27273H57.8736C57.8896 7.91051 58.234 7.69744 58.6122 7.69744C59.0135 7.69744 59.2727 7.9407 59.2727 8.30824C59.2727 8.69176 58.9727 8.94034 58.5412 8.94034H58.25V9.33097H58.5412C59.0934 9.33097 59.4006 9.61151 59.4006 10.0128C59.4006 10.3981 59.065 10.6591 58.598 10.6591C58.1772 10.6591 57.8434 10.4425 57.8168 10.0909H57.3693C57.396 10.6626 57.9002 11.0497 58.6051 11.0497ZM61.8384 7.36364H61.3981L60.489 7.96733V8.41477L61.3768 7.82528H61.3981V11H61.8384V7.36364ZM64.0206 11.0497C64.7131 11.0497 65.2209 10.5384 65.2209 9.84233C65.2209 9.13743 64.7308 8.62074 64.0632 8.62074C63.8182 8.62074 63.5803 8.70774 63.4311 8.8267H63.4098L63.5376 7.75426H65.0575V7.36364H63.1683L62.9482 9.15341L63.3601 9.20312C63.511 9.09482 63.7685 9.01669 63.9922 9.01847C64.4556 9.02202 64.7947 9.37358 64.7947 9.84943C64.7947 10.3164 64.468 10.6591 64.0206 10.6591C63.6477 10.6591 63.3512 10.4194 63.3175 10.0909H62.8913C62.918 10.6449 63.3956 11.0497 64.0206 11.0497ZM67.3396 12.0227H67.7586V10.581H67.7941C67.8865 10.7301 68.064 11.0568 68.5896 11.0568C69.2714 11.0568 69.7472 10.5099 69.7472 9.64347C69.7472 8.78409 69.2714 8.23722 68.5825 8.23722C68.0498 8.23722 67.8865 8.56392 67.7941 8.70597H67.7444V8.27273H67.3396V12.0227ZM67.7515 9.63636C67.7515 9.02557 68.0214 8.61364 68.5328 8.61364C69.0654 8.61364 69.3282 9.06108 69.3282 9.63636C69.3282 10.2188 69.0583 10.6804 68.5328 10.6804C68.0285 10.6804 67.7515 10.2543 67.7515 9.63636ZM70.5866 8.27273H70.1037L70.9702 9.63636L70.1037 11H70.5866L71.2401 9.94176L71.8935 11H72.3764L71.4957 9.63636L72.3764 8.27273H71.8935L71.2401 9.38778L70.5866 8.27273Z" fill="black"/>
<g clip-path="url(#clip0)">
<path d="M28.1121 11.9375C28.3277 11.9375 28.5012 12.0421 28.5012 12.172V14.828C28.5012 14.9579 28.3277 15.0625 28.1121 15.0625C27.9959 15.0625 27.8921 15.0321 27.8209 14.9837L25.6054 13.6638C25.5396 13.6218 25.499 13.5654 25.499 13.5031C25.499 13.4407 25.5396 13.3843 25.6054 13.3423L27.8209 12.0163C27.8921 11.9679 27.9959 11.9375 28.1121 11.9375Z" fill="#555761"/>
</g>
<line x1="27" y1="13.5" x2="97" y2="13.5" stroke="#555761"/>
<path d="M41.8523 70.1193C43.544 70.1193 44.8011 69.0582 44.8011 67.6307C44.8011 66.5227 44.1449 65.7173 43.0455 65.5341V65.4659C43.9276 65.1974 44.4773 64.473 44.4773 63.4886C44.4773 62.2528 43.5014 61.1534 41.8864 61.1534C40.3778 61.1534 39.125 62.0824 39.0739 63.4545H40.0966C40.1349 62.5852 40.9616 62.0739 41.8693 62.0739C42.8324 62.0739 43.4545 62.6577 43.4545 63.5398C43.4545 64.4602 42.7344 65.0568 41.6989 65.0568H41V65.9943H41.6989C43.0241 65.9943 43.7614 66.6676 43.7614 67.6307C43.7614 68.5554 42.956 69.1818 41.8352 69.1818C40.8253 69.1818 40.0241 68.6619 39.9602 67.8182H38.8864C38.9503 69.1903 40.1605 70.1193 41.8523 70.1193ZM49.6122 61.2727H48.5554L46.3736 62.7216V63.7955L48.5043 62.3807H48.5554V70H49.6122V61.2727ZM54.8494 70.1193C56.5114 70.1193 57.7301 68.892 57.7301 67.2216C57.7301 65.5298 56.554 64.2898 54.9517 64.2898C54.3636 64.2898 53.7926 64.4986 53.4347 64.7841H53.3835L53.6903 62.2102H57.3381V61.2727H52.804L52.2756 65.5682L53.2642 65.6875C53.6264 65.4276 54.2443 65.2401 54.7812 65.2443C55.8935 65.2528 56.7074 66.0966 56.7074 67.2386C56.7074 68.3594 55.9233 69.1818 54.8494 69.1818C53.9545 69.1818 53.2429 68.6065 53.1619 67.8182H52.1392C52.2031 69.1477 53.3494 70.1193 54.8494 70.1193ZM67.9286 68.4318L68.5763 67.7841L66.4968 65.7045L68.5763 63.625L67.9286 62.9773L65.8491 65.0568L63.7695 62.9773L63.1218 63.625L65.2013 65.7045L63.1218 67.7841L63.7695 68.4318L65.8491 66.3523L67.9286 68.4318ZM76.8786 70.1193C78.6214 70.1193 79.8359 69.1009 79.8445 67.6818C79.8359 66.5781 79.0987 65.6406 78.157 65.4659V65.4148C78.9751 65.2017 79.5121 64.4006 79.5206 63.4716C79.5121 62.142 78.3956 61.1534 76.8786 61.1534C75.3445 61.1534 74.228 62.142 74.2365 63.4716C74.228 64.4006 74.7649 65.2017 75.6001 65.4148V65.4659C74.6413 65.6406 73.9041 66.5781 73.9126 67.6818C73.9041 69.1009 75.1186 70.1193 76.8786 70.1193ZM76.8786 69.1818C75.6811 69.1818 74.9439 68.5682 74.9524 67.6307C74.9439 66.6463 75.7578 65.9432 76.8786 65.9432C77.9822 65.9432 78.7962 66.6463 78.8047 67.6307C78.7962 68.5682 78.0589 69.1818 76.8786 69.1818ZM76.8786 65.0398C75.924 65.0398 75.2507 64.4432 75.2592 63.5398C75.2507 62.6534 75.8984 62.0739 76.8786 62.0739C77.8416 62.0739 78.4893 62.6534 78.4979 63.5398C78.4893 64.4432 77.8161 65.0398 76.8786 65.0398ZM84.2049 70.1193C85.8668 70.1193 87.0856 68.892 87.0856 67.2216C87.0856 65.5298 85.9094 64.2898 84.3072 64.2898C83.7191 64.2898 83.1481 64.4986 82.7901 64.7841H82.739L83.0458 62.2102H86.6935V61.2727H82.1594L81.631 65.5682L82.6197 65.6875C82.9819 65.4276 83.5998 65.2401 84.1367 65.2443C85.2489 65.2528 86.0629 66.0966 86.0629 67.2386C86.0629 68.3594 85.2788 69.1818 84.2049 69.1818C83.31 69.1818 82.5984 68.6065 82.5174 67.8182H81.4947C81.5586 69.1477 82.7049 70.1193 84.2049 70.1193ZM91.8466 61.2727H90.7898L88.608 62.7216V63.7955L90.7386 62.3807H90.7898V70H91.8466V61.2727Z" fill="black"/>
<defs>
<clipPath id="clip0">
<rect width="5" height="8" fill="white" transform="translate(23 16) rotate(-90)"/>
</clipPath>
</defs>
</svg>
