<svg width="128" height="128" viewBox="0 0 128 128" fill="none" xmlns="http://www.w3.org/2000/svg">
<rect x="26" y="5" width="76" height="117" fill="white"/>
<path d="M35.0625 8.11206C35.0625 8.32767 34.9579 8.50124 34.828 8.50124H32.172C32.0421 8.50124 31.9375 8.32767 31.9375 8.11206C31.9375 7.99585 31.9679 7.89212 32.0163 7.82093L33.3362 5.60544C33.3782 5.53964 33.4346 5.49902 33.4969 5.49902C33.5593 5.49902 33.6157 5.53963 33.6577 5.60544L34.9837 7.82093C35.0321 7.89212 35.0625 7.99585 35.0625 8.11206Z" fill="#555761"/>
<line x1="33.5" y1="7" x2="33.5" y2="119" stroke="#555761"/>
<g clip-path="url(#clip0)">
<path d="M29.112 10.9375C29.3276 10.9375 29.5012 11.0421 29.5012 11.172V13.828C29.5012 13.9579 29.3276 14.0625 29.112 14.0625C28.9958 14.0625 28.8921 14.0321 28.8209 13.9837L26.6054 12.6638C26.5396 12.6218 26.499 12.5654 26.499 12.5031C26.499 12.4407 26.5396 12.3843 26.6054 12.3423L28.8209 11.0163C28.8921 10.9679 28.9958 10.9375 29.112 10.9375Z" fill="#555761"/>
</g>
<line x1="28" y1="12.5" x2="99" y2="12.5" stroke="#555761"/>
<path d="M58.5838 10.0497C59.3189 10.0586 59.7983 9.50462 59.7983 8.82812C59.7983 8.125 59.2781 7.62074 58.6548 7.62074C58.2802 7.62074 57.9588 7.80362 57.7599 8.10369H57.7315C57.7333 7.21768 58.0778 6.70455 58.6406 6.70455C59.0241 6.70455 59.255 6.94602 59.3366 7.27273H59.7699C59.6811 6.7081 59.2514 6.31392 58.6406 6.31392C57.8221 6.31392 57.3196 7.03835 57.3196 8.32386C57.3196 9.66797 57.9872 10.0426 58.5838 10.0497ZM58.5838 9.65909C58.1275 9.65909 57.7937 9.27024 57.7955 8.83523C57.7972 8.40021 58.147 8.01136 58.598 8.01136C59.0437 8.01136 59.3722 8.37713 59.3722 8.82812C59.3722 9.28977 59.0295 9.65909 58.5838 9.65909ZM61.7252 10.0497C62.4301 10.0497 62.9539 9.6076 62.9539 9.01278C62.9539 8.55114 62.6805 8.21555 62.2224 8.1392V8.1108C62.5899 7.99893 62.819 7.69709 62.819 7.28693C62.819 6.77202 62.4124 6.31392 61.7394 6.31392C61.1109 6.31392 60.5889 6.70099 60.5676 7.27273H60.9937C61.0097 6.91051 61.3541 6.69744 61.7323 6.69744C62.1336 6.69744 62.3928 6.9407 62.3928 7.30824C62.3928 7.69176 62.0928 7.94034 61.6613 7.94034H61.3701V8.33097H61.6613C62.2135 8.33097 62.5207 8.61151 62.5207 9.01278C62.5207 9.39808 62.1851 9.65909 61.7181 9.65909C61.2973 9.65909 60.9635 9.44247 60.9369 9.09091H60.4894C60.5161 9.66264 61.0203 10.0497 61.7252 10.0497ZM64.8662 10.0497C65.6688 10.0497 66.1304 9.36967 66.1304 8.18182C66.1304 7.00284 65.6617 6.31392 64.8662 6.31392C64.0708 6.31392 63.602 7.00284 63.602 8.18182C63.602 9.36967 64.0637 10.0497 64.8662 10.0497ZM64.8662 9.65909C64.3371 9.65909 64.0281 9.1282 64.0281 8.18182C64.0281 7.23722 64.3406 6.69744 64.8662 6.69744C65.3918 6.69744 65.7043 7.23722 65.7043 8.18182C65.7043 9.1282 65.3953 9.65909 64.8662 9.65909ZM68.2185 11.0227H68.6375V9.58097H68.673C68.7654 9.73011 68.9429 10.0568 69.4685 10.0568C70.1503 10.0568 70.6262 9.50994 70.6262 8.64347C70.6262 7.78409 70.1503 7.23722 69.4614 7.23722C68.9287 7.23722 68.7654 7.56392 68.673 7.70597H68.6233V7.27273H68.2185V11.0227ZM68.6304 8.63636C68.6304 8.02557 68.9003 7.61364 69.4117 7.61364C69.9443 7.61364 70.2071 8.06108 70.2071 8.63636C70.2071 9.21875 69.9372 9.6804 69.4117 9.6804C68.9074 9.6804 68.6304 9.25426 68.6304 8.63636ZM71.4656 7.27273H70.9826L71.8491 8.63636L70.9826 10H71.4656L72.119 8.94176L72.7724 10H73.2553L72.3746 8.63636L73.2553 7.27273H72.7724L72.119 8.38778L71.4656 7.27273Z" fill="black"/>
<path d="M27.3636 71.3452V71.7855L27.9673 72.6946H28.4148L27.8253 71.8068V71.7855H31V71.3452H27.3636ZM31 70.2994V68.0053H30.6094V69.6957H30.581L29.7074 68.8789C29.038 68.2539 28.7255 68.0692 28.3224 68.0692C27.7614 68.0692 27.3139 68.5238 27.3139 69.163C27.3139 69.8004 27.7472 70.2852 28.3864 70.2852V69.8661C27.9727 69.8661 27.6974 69.598 27.6974 69.1772C27.6974 68.783 27.9389 68.4812 28.3224 68.4812C28.658 68.4812 28.9066 68.6783 29.3665 69.0991L30.6804 70.2994H31ZM31.0497 66.0859C31.0497 65.2834 30.3697 64.8217 29.1818 64.8217C28.0028 64.8217 27.3139 65.2905 27.3139 66.0859C27.3139 66.8814 28.0028 67.3501 29.1818 67.3501C30.3697 67.3501 31.0497 66.8885 31.0497 66.0859ZM30.6591 66.0859C30.6591 66.6151 30.1282 66.924 29.1818 66.924C28.2372 66.924 27.6974 66.6115 27.6974 66.0859C27.6974 65.5604 28.2372 65.2479 29.1818 65.2479C30.1282 65.2479 30.6591 65.5568 30.6591 66.0859ZM31.0497 62.9609C31.0497 62.1584 30.3697 61.6967 29.1818 61.6967C28.0028 61.6967 27.3139 62.1655 27.3139 62.9609C27.3139 63.7564 28.0028 64.2251 29.1818 64.2251C30.3697 64.2251 31.0497 63.7635 31.0497 62.9609ZM30.6591 62.9609C30.6591 63.4901 30.1282 63.799 29.1818 63.799C28.2372 63.799 27.6974 63.4865 27.6974 62.9609C27.6974 62.4354 28.2372 62.1229 29.1818 62.1229C30.1282 62.1229 30.6591 62.4318 30.6591 62.9609ZM32.0227 59.6087V59.1896H30.581V59.1541C30.7301 59.0618 31.0568 58.8842 31.0568 58.3587C31.0568 57.6768 30.5099 57.201 29.6435 57.201C28.7841 57.201 28.2372 57.6768 28.2372 58.3658C28.2372 58.8984 28.5639 59.0618 28.706 59.1541V59.2038H28.2727V59.6087H32.0227ZM29.6364 59.1967C29.0256 59.1967 28.6136 58.9268 28.6136 58.4155C28.6136 57.8828 29.0611 57.62 29.6364 57.62C30.2188 57.62 30.6804 57.8899 30.6804 58.4155C30.6804 58.9197 30.2543 59.1967 29.6364 59.1967ZM28.2727 56.3616V56.8445L29.6364 55.9781L31 56.8445V56.3616L29.9418 55.7082L31 55.0548V54.5718L29.6364 55.4525L28.2727 54.5718V55.0548L29.3878 55.7082L28.2727 56.3616Z" fill="black"/>
<path d="M38.8011 68.1193C40.5653 68.1406 41.7159 66.8111 41.7159 65.1875C41.7159 63.5 40.4673 62.2898 38.9716 62.2898C38.0724 62.2898 37.3011 62.7287 36.8239 63.4489H36.7557C36.7599 61.3224 37.5866 60.0909 38.9375 60.0909C39.858 60.0909 40.4119 60.6705 40.608 61.4545H41.6477C41.4347 60.0994 40.4034 59.1534 38.9375 59.1534C36.973 59.1534 35.767 60.892 35.767 63.9773C35.767 67.2031 37.3693 68.1023 38.8011 68.1193ZM38.8011 67.1818C37.706 67.1818 36.9048 66.2486 36.9091 65.2045C36.9134 64.1605 37.7528 63.2273 38.8352 63.2273C39.9048 63.2273 40.6932 64.1051 40.6932 65.1875C40.6932 66.2955 39.8707 67.1818 38.8011 67.1818ZM46.3406 68.1193C48.0323 68.1193 49.2894 67.0582 49.2894 65.6307C49.2894 64.5227 48.6332 63.7173 47.5337 63.5341V63.4659C48.4158 63.1974 48.9656 62.473 48.9656 61.4886C48.9656 60.2528 47.9897 59.1534 46.3746 59.1534C44.8661 59.1534 43.6133 60.0824 43.5621 61.4545H44.5849C44.6232 60.5852 45.4499 60.0739 46.3576 60.0739C47.3207 60.0739 47.9428 60.6577 47.9428 61.5398C47.9428 62.4602 47.2227 63.0568 46.1871 63.0568H45.4883V63.9943H46.1871C47.5124 63.9943 48.2496 64.6676 48.2496 65.6307C48.2496 66.5554 47.4442 67.1818 46.3235 67.1818C45.3136 67.1818 44.5124 66.6619 44.4485 65.8182H43.3746C43.4386 67.1903 44.6488 68.1193 46.3406 68.1193ZM53.8789 68.1193C55.805 68.1193 56.913 66.4872 56.913 63.6364C56.913 60.8068 55.788 59.1534 53.8789 59.1534C51.9698 59.1534 50.8448 60.8068 50.8448 63.6364C50.8448 66.4872 51.9528 68.1193 53.8789 68.1193ZM53.8789 67.1818C52.609 67.1818 51.8675 65.9077 51.8675 63.6364C51.8675 61.3693 52.6175 60.0739 53.8789 60.0739C55.1403 60.0739 55.8903 61.3693 55.8903 63.6364C55.8903 65.9077 55.1488 67.1818 53.8789 67.1818ZM67.038 66.4318L67.6857 65.7841L65.6062 63.7045L67.6857 61.625L67.038 60.9773L64.9585 63.0568L62.8789 60.9773L62.2312 61.625L64.3107 63.7045L62.2312 65.7841L62.8789 66.4318L64.9585 64.3523L67.038 66.4318ZM76.2607 59.2727H75.2038L73.022 60.7216V61.7955L75.1527 60.3807H75.2038V68H76.2607V59.2727ZM78.7706 68H84.2763V67.0625H80.2195V66.9943L82.1797 64.8977C83.6797 63.2912 84.1229 62.5412 84.1229 61.5739C84.1229 60.2273 83.032 59.1534 81.4979 59.1534C79.968 59.1534 78.8047 60.1932 78.8047 61.7273H79.8104C79.8104 60.7344 80.4538 60.0739 81.4638 60.0739C82.4098 60.0739 83.1342 60.6534 83.1342 61.5739C83.1342 62.3793 82.6612 62.9759 81.6513 64.0795L78.7706 67.233V68ZM88.8828 68.1193C90.8089 68.1193 91.9169 66.4872 91.9169 63.6364C91.9169 60.8068 90.7919 59.1534 88.8828 59.1534C86.9737 59.1534 85.8487 60.8068 85.8487 63.6364C85.8487 66.4872 86.9567 68.1193 88.8828 68.1193ZM88.8828 67.1818C87.6129 67.1818 86.8714 65.9077 86.8714 63.6364C86.8714 61.3693 87.6214 60.0739 88.8828 60.0739C90.1442 60.0739 90.8942 61.3693 90.8942 63.6364C90.8942 65.9077 90.1527 67.1818 88.8828 67.1818ZM96.3828 68.1193C98.3089 68.1193 99.4169 66.4872 99.4169 63.6364C99.4169 60.8068 98.2919 59.1534 96.3828 59.1534C94.4737 59.1534 93.3487 60.8068 93.3487 63.6364C93.3487 66.4872 94.4567 68.1193 96.3828 68.1193ZM96.3828 67.1818C95.1129 67.1818 94.3714 65.9077 94.3714 63.6364C94.3714 61.3693 95.1214 60.0739 96.3828 60.0739C97.6442 60.0739 98.3942 61.3693 98.3942 63.6364C98.3942 65.9077 97.6527 67.1818 96.3828 67.1818Z" fill="black"/>
<defs>
<clipPath id="clip0">
<rect width="5" height="8" fill="white" transform="translate(24 15) rotate(-90)"/>
</clipPath>
</defs>
</svg>
