<svg width="128" height="128" viewBox="0 0 128 128" fill="none" xmlns="http://www.w3.org/2000/svg">
<rect x="14" y="14" width="100" height="100" fill="white"/>
<g clip-path="url(#clip0)">
<path d="M17.112 19.9375C17.3276 19.9375 17.5012 20.0421 17.5012 20.172V22.828C17.5012 22.9579 17.3276 23.0625 17.112 23.0625C16.9958 23.0625 16.8921 23.0321 16.8209 22.9837L14.6054 21.6638C14.5396 21.6218 14.499 21.5654 14.499 21.5031C14.499 21.4407 14.5396 21.3843 14.6054 21.3423L16.8209 20.0163C16.8921 19.9679 16.9958 19.9375 17.112 19.9375Z" fill="#555761"/>
</g>
<line x1="16" y1="21.5" x2="111" y2="21.5" stroke="#555761"/>
<path d="M23.0625 17.1121C23.0625 17.3277 22.9579 17.5012 22.828 17.5012H20.172C20.0421 17.5012 19.9375 17.3277 19.9375 17.1121C19.9375 16.9959 19.9679 16.8921 20.0163 16.8209L21.3362 14.6054C21.3782 14.5396 21.4346 14.499 21.4969 14.499C21.5593 14.499 21.6157 14.5396 21.6577 14.6054L22.9837 16.8209C23.0321 16.8921 23.0625 16.9959 23.0625 17.1121Z" fill="#555761"/>
<line x1="21.5" y1="16" x2="21.5" y2="111" stroke="#555761"/>
<path d="M59.6548 15.3636H59.2145L58.3054 15.9673V16.4148L59.1932 15.8253H59.2145V19H59.6548V15.3636ZM60.7006 19H62.9947V18.6094H61.3043V18.581L62.1211 17.7074C62.7461 17.038 62.9308 16.7255 62.9308 16.3224C62.9308 15.7614 62.4762 15.3139 61.837 15.3139C61.1996 15.3139 60.7148 15.7472 60.7148 16.3864H61.1339C61.1339 15.9727 61.402 15.6974 61.8228 15.6974C62.217 15.6974 62.5188 15.9389 62.5188 16.3224C62.5188 16.658 62.3217 16.9066 61.9009 17.3665L60.7006 18.6804V19ZM64.9141 19.0497C65.7166 19.0497 66.1783 18.3697 66.1783 17.1818C66.1783 16.0028 65.7095 15.3139 64.9141 15.3139C64.1186 15.3139 63.6499 16.0028 63.6499 17.1818C63.6499 18.3697 64.1115 19.0497 64.9141 19.0497ZM64.9141 18.6591C64.3849 18.6591 64.076 18.1282 64.076 17.1818C64.076 16.2372 64.3885 15.6974 64.9141 15.6974C65.4396 15.6974 65.7521 16.2372 65.7521 17.1818C65.7521 18.1282 65.4432 18.6591 64.9141 18.6591ZM68.0391 19.0497C68.8416 19.0497 69.3033 18.3697 69.3033 17.1818C69.3033 16.0028 68.8345 15.3139 68.0391 15.3139C67.2436 15.3139 66.7749 16.0028 66.7749 17.1818C66.7749 18.3697 67.2365 19.0497 68.0391 19.0497ZM68.0391 18.6591C67.5099 18.6591 67.201 18.1282 67.201 17.1818C67.201 16.2372 67.5135 15.6974 68.0391 15.6974C68.5646 15.6974 68.8771 16.2372 68.8771 17.1818C68.8771 18.1282 68.5682 18.6591 68.0391 18.6591ZM71.3913 20.0227H71.8104V18.581H71.8459C71.9382 18.7301 72.1158 19.0568 72.6413 19.0568C73.3232 19.0568 73.799 18.5099 73.799 17.6435C73.799 16.7841 73.3232 16.2372 72.6342 16.2372C72.1016 16.2372 71.9382 16.5639 71.8459 16.706H71.7962V16.2727H71.3913V20.0227ZM71.8033 17.6364C71.8033 17.0256 72.0732 16.6136 72.5845 16.6136C73.1172 16.6136 73.38 17.0611 73.38 17.6364C73.38 18.2188 73.1101 18.6804 72.5845 18.6804C72.0803 18.6804 71.8033 18.2543 71.8033 17.6364ZM74.6384 16.2727H74.1555L75.0219 17.6364L74.1555 19H74.6384L75.2918 17.9418L75.9452 19H76.4282L75.5475 17.6364L76.4282 16.2727H75.9452L75.2918 17.3878L74.6384 16.2727Z" fill="black"/>
<path d="M15.3636 71.3452V71.7855L15.9673 72.6946H16.4148L15.8253 71.8068V71.7855H19V71.3452H15.3636ZM19 70.2994V68.0053H18.6094V69.6957H18.581L17.7074 68.8789C17.038 68.2539 16.7255 68.0692 16.3224 68.0692C15.7614 68.0692 15.3139 68.5238 15.3139 69.163C15.3139 69.8004 15.7472 70.2852 16.3864 70.2852V69.8661C15.9727 69.8661 15.6974 69.598 15.6974 69.1772C15.6974 68.783 15.9389 68.4812 16.3224 68.4812C16.658 68.4812 16.9066 68.6783 17.3665 69.0991L18.6804 70.2994H19ZM19.0497 66.0859C19.0497 65.2834 18.3697 64.8217 17.1818 64.8217C16.0028 64.8217 15.3139 65.2905 15.3139 66.0859C15.3139 66.8814 16.0028 67.3501 17.1818 67.3501C18.3697 67.3501 19.0497 66.8885 19.0497 66.0859ZM18.6591 66.0859C18.6591 66.6151 18.1282 66.924 17.1818 66.924C16.2372 66.924 15.6974 66.6115 15.6974 66.0859C15.6974 65.5604 16.2372 65.2479 17.1818 65.2479C18.1282 65.2479 18.6591 65.5568 18.6591 66.0859ZM19.0497 62.9609C19.0497 62.1584 18.3697 61.6967 17.1818 61.6967C16.0028 61.6967 15.3139 62.1655 15.3139 62.9609C15.3139 63.7564 16.0028 64.2251 17.1818 64.2251C18.3697 64.2251 19.0497 63.7635 19.0497 62.9609ZM18.6591 62.9609C18.6591 63.4901 18.1282 63.799 17.1818 63.799C16.2372 63.799 15.6974 63.4865 15.6974 62.9609C15.6974 62.4354 16.2372 62.1229 17.1818 62.1229C18.1282 62.1229 18.6591 62.4318 18.6591 62.9609ZM20.0227 59.6087V59.1896H18.581V59.1541C18.7301 59.0618 19.0568 58.8842 19.0568 58.3587C19.0568 57.6768 18.5099 57.201 17.6435 57.201C16.7841 57.201 16.2372 57.6768 16.2372 58.3658C16.2372 58.8984 16.5639 59.0618 16.706 59.1541V59.2038H16.2727V59.6087H20.0227ZM17.6364 59.1967C17.0256 59.1967 16.6136 58.9268 16.6136 58.4155C16.6136 57.8828 17.0611 57.62 17.6364 57.62C18.2188 57.62 18.6804 57.8899 18.6804 58.4155C18.6804 58.9197 18.2543 59.1967 17.6364 59.1967ZM16.2727 56.3616V56.8445L17.6364 55.9781L19 56.8445V56.3616L17.9418 55.7082L19 55.0548V54.5718L17.6364 55.4525L16.2727 54.5718V55.0548L17.3878 55.7082L16.2727 56.3616Z" fill="black"/>
<path d="M33.9716 59.2727H32.9148L30.733 60.7216V61.7955L32.8636 60.3807H32.9148V68H33.9716V59.2727ZM36.4815 68H41.9872V67.0625H37.9304V66.9943L39.8906 64.8977C41.3906 63.2912 41.8338 62.5412 41.8338 61.5739C41.8338 60.2273 40.7429 59.1534 39.2088 59.1534C37.679 59.1534 36.5156 60.1932 36.5156 61.7273H37.5213C37.5213 60.7344 38.1648 60.0739 39.1747 60.0739C40.1207 60.0739 40.8452 60.6534 40.8452 61.5739C40.8452 62.3793 40.3722 62.9759 39.3622 64.0795L36.4815 67.233V68ZM46.5938 68.1193C48.5199 68.1193 49.6278 66.4872 49.6278 63.6364C49.6278 60.8068 48.5028 59.1534 46.5938 59.1534C44.6847 59.1534 43.5597 60.8068 43.5597 63.6364C43.5597 66.4872 44.6676 68.1193 46.5938 68.1193ZM46.5938 67.1818C45.3239 67.1818 44.5824 65.9077 44.5824 63.6364C44.5824 61.3693 45.3324 60.0739 46.5938 60.0739C47.8551 60.0739 48.6051 61.3693 48.6051 63.6364C48.6051 65.9077 47.8636 67.1818 46.5938 67.1818ZM54.0938 68.1193C56.0199 68.1193 57.1278 66.4872 57.1278 63.6364C57.1278 60.8068 56.0028 59.1534 54.0938 59.1534C52.1847 59.1534 51.0597 60.8068 51.0597 63.6364C51.0597 66.4872 52.1676 68.1193 54.0938 68.1193ZM54.0938 67.1818C52.8239 67.1818 52.0824 65.9077 52.0824 63.6364C52.0824 61.3693 52.8324 60.0739 54.0938 60.0739C55.3551 60.0739 56.1051 61.3693 56.1051 63.6364C56.1051 65.9077 55.3636 67.1818 54.0938 67.1818ZM70.6278 66.4318L71.2756 65.7841L69.196 63.7045L71.2756 61.625L70.6278 60.9773L68.5483 63.0568L66.4688 60.9773L65.821 61.625L67.9006 63.7045L65.821 65.7841L66.4688 66.4318L68.5483 64.3523L70.6278 66.4318ZM79.8505 59.2727H78.7937L76.6119 60.7216V61.7955L78.7425 60.3807H78.7937V68H79.8505V59.2727ZM82.3604 68H87.8661V67.0625H83.8093V66.9943L85.7695 64.8977C87.2695 63.2912 87.7127 62.5412 87.7127 61.5739C87.7127 60.2273 86.6218 59.1534 85.0877 59.1534C83.5579 59.1534 82.3945 60.1932 82.3945 61.7273H83.4002C83.4002 60.7344 84.0437 60.0739 85.0536 60.0739C85.9996 60.0739 86.7241 60.6534 86.7241 61.5739C86.7241 62.3793 86.2511 62.9759 85.2411 64.0795L82.3604 67.233V68ZM92.4727 68.1193C94.3988 68.1193 95.5067 66.4872 95.5067 63.6364C95.5067 60.8068 94.3817 59.1534 92.4727 59.1534C90.5636 59.1534 89.4386 60.8068 89.4386 63.6364C89.4386 66.4872 90.5465 68.1193 92.4727 68.1193ZM92.4727 67.1818C91.2028 67.1818 90.4613 65.9077 90.4613 63.6364C90.4613 61.3693 91.2113 60.0739 92.4727 60.0739C93.734 60.0739 94.484 61.3693 94.484 63.6364C94.484 65.9077 93.7425 67.1818 92.4727 67.1818ZM99.9727 68.1193C101.899 68.1193 103.007 66.4872 103.007 63.6364C103.007 60.8068 101.882 59.1534 99.9727 59.1534C98.0636 59.1534 96.9386 60.8068 96.9386 63.6364C96.9386 66.4872 98.0465 68.1193 99.9727 68.1193ZM99.9727 67.1818C98.7028 67.1818 97.9613 65.9077 97.9613 63.6364C97.9613 61.3693 98.7113 60.0739 99.9727 60.0739C101.234 60.0739 101.984 61.3693 101.984 63.6364C101.984 65.9077 101.243 67.1818 99.9727 67.1818Z" fill="black"/>
<defs>
<clipPath id="clip0">
<rect width="5" height="8" fill="white" transform="translate(12 24) rotate(-90)"/>
</clipPath>
</defs>
</svg>
