<svg width="128" height="128" viewBox="0 0 128 128" fill="none" xmlns="http://www.w3.org/2000/svg">
<rect x="6" y="26" width="116" height="75" fill="white"/>
<path d="M9.6365 31.9375C9.83205 31.9375 9.98948 32.0421 9.98948 32.172V34.828C9.98948 34.9579 9.83205 35.0625 9.6365 35.0625C9.53111 35.0625 9.43702 35.0321 9.37245 34.9837L7.36306 33.6638C7.30338 33.6218 7.26654 33.5654 7.26654 33.5031C7.26654 33.4407 7.30337 33.3843 7.36306 33.3423L9.37245 32.0163C9.43702 31.9679 9.53111 31.9375 9.6365 31.9375Z" fill="#555761"/>
<line x1="8.62793" y1="33.5" x2="119.279" y2="33.5" stroke="#555761"/>
<path d="M60.6548 27.3636H60.2145L59.3054 27.9673V28.4148L60.1932 27.8253H60.2145V31H60.6548V27.3636ZM62.8583 27.3139C62.1197 27.305 61.6438 27.8608 61.6438 28.5284C61.6438 29.2315 62.1623 29.7358 62.7873 29.7358C63.1637 29.7358 63.4833 29.5511 63.6822 29.2528H63.7106C63.7106 30.1477 63.3626 30.6591 62.8015 30.6591C62.418 30.6591 62.1836 30.4176 62.1055 30.0838H61.6722C61.7575 30.6591 62.1907 31.0497 62.8015 31.0497C63.6183 31.0497 64.1225 30.3253 64.1225 29.0327C64.1225 27.6974 63.4549 27.321 62.8583 27.3139ZM62.8583 27.7045C63.3129 27.7045 63.6467 28.0952 63.6467 28.5213C63.6467 28.9545 63.2915 29.3452 62.8441 29.3452C62.3967 29.3452 62.07 28.983 62.07 28.5284C62.07 28.0739 62.4109 27.7045 62.8583 27.7045ZM64.8208 31H67.1148V30.6094H65.4244V30.581L66.2412 29.7074C66.8662 29.038 67.0509 28.7255 67.0509 28.3224C67.0509 27.7614 66.5963 27.3139 65.9571 27.3139C65.3197 27.3139 64.835 27.7472 64.835 28.3864H65.254C65.254 27.9727 65.5221 27.6974 65.9429 27.6974C66.3371 27.6974 66.6389 27.9389 66.6389 28.3224C66.6389 28.658 66.4419 28.9066 66.021 29.3665L64.8208 30.6804V31ZM69.0342 31.0497C69.8367 31.0497 70.2984 30.3697 70.2984 29.1818C70.2984 28.0028 69.8296 27.3139 69.0342 27.3139C68.2387 27.3139 67.77 28.0028 67.77 29.1818C67.77 30.3697 68.2316 31.0497 69.0342 31.0497ZM69.0342 30.6591C68.5051 30.6591 68.1961 30.1282 68.1961 29.1818C68.1961 28.2372 68.5086 27.6974 69.0342 27.6974C69.5597 27.6974 69.8722 28.2372 69.8722 29.1818C69.8722 30.1282 69.5633 30.6591 69.0342 30.6591ZM72.3865 32.0227H72.8055V30.581H72.841C72.9333 30.7301 73.1109 31.0568 73.6365 31.0568C74.3183 31.0568 74.7941 30.5099 74.7941 29.6435C74.7941 28.7841 74.3183 28.2372 73.6294 28.2372C73.0967 28.2372 72.9333 28.5639 72.841 28.706H72.7913V28.2727H72.3865V32.0227ZM72.7984 29.6364C72.7984 29.0256 73.0683 28.6136 73.5796 28.6136C74.1123 28.6136 74.3751 29.0611 74.3751 29.6364C74.3751 30.2188 74.1052 30.6804 73.5796 30.6804C73.0754 30.6804 72.7984 30.2543 72.7984 29.6364ZM75.6335 28.2727H75.1506L76.017 29.6364L75.1506 31H75.6335L76.2869 29.9418L76.9403 31H77.4233L76.5426 29.6364L77.4233 28.2727H76.9403L76.2869 29.3878L75.6335 28.2727Z" fill="black"/>
<path d="M7.36364 71.3452V71.7855L7.96733 72.6946H8.41477L7.82528 71.8068V71.7855H11V71.3452H7.36364ZM11.0497 69.1133C11.0497 68.3107 10.3697 67.8491 9.18182 67.8491C8.00284 67.8491 7.31392 68.3178 7.31392 69.1133C7.31392 69.9087 8.00284 70.3775 9.18182 70.3775C10.3697 70.3775 11.0497 69.9158 11.0497 69.1133ZM10.6591 69.1133C10.6591 69.6424 10.1282 69.9513 9.18182 69.9513C8.23722 69.9513 7.69744 69.6388 7.69744 69.1133C7.69744 68.5877 8.23722 68.2752 9.18182 68.2752C10.1282 68.2752 10.6591 68.5842 10.6591 69.1133ZM11.0497 66.0096C11.0497 65.2834 10.6254 64.7773 10.0341 64.7738C9.57422 64.7773 9.18359 65.0845 9.1108 65.4769H9.08949C9.00071 65.136 8.6669 64.9123 8.27983 64.9087C7.72585 64.9123 7.31392 65.3775 7.31392 66.0096C7.31392 66.6488 7.72585 67.114 8.27983 67.1104C8.6669 67.114 9.00071 66.8903 9.08949 66.5423H9.1108C9.18359 66.9418 9.57422 67.2489 10.0341 67.2454C10.6254 67.2489 11.0497 66.7429 11.0497 66.0096ZM10.6591 66.0096C10.6591 66.5085 10.4034 66.8157 10.0128 66.8121C9.60263 66.8157 9.30966 66.4766 9.30966 66.0096C9.30966 65.5497 9.60263 65.2106 10.0128 65.207C10.4034 65.2106 10.6591 65.5178 10.6591 66.0096ZM8.93324 66.0096C8.93324 66.4073 8.68466 66.6879 8.30824 66.6843C7.93892 66.6879 7.69744 66.418 7.69744 66.0096C7.69744 65.6083 7.93892 65.3384 8.30824 65.3349C8.68466 65.3384 8.93324 65.619 8.93324 66.0096ZM11.0497 62.9072C11.0497 62.1047 10.3697 61.643 9.18182 61.643C8.00284 61.643 7.31392 62.1118 7.31392 62.9072C7.31392 63.7027 8.00284 64.1714 9.18182 64.1714C10.3697 64.1714 11.0497 63.7098 11.0497 62.9072ZM10.6591 62.9072C10.6591 63.4363 10.1282 63.7453 9.18182 63.7453C8.23722 63.7453 7.69744 63.4328 7.69744 62.9072C7.69744 62.3817 8.23722 62.0692 9.18182 62.0692C10.1282 62.0692 10.6591 62.3781 10.6591 62.9072ZM12.0227 59.555V59.1359H10.581V59.1004C10.7301 59.0081 11.0568 58.8305 11.0568 58.305C11.0568 57.6231 10.5099 57.1473 9.64347 57.1473C8.78409 57.1473 8.23722 57.6231 8.23722 58.3121C8.23722 58.8447 8.56392 59.0081 8.70597 59.1004V59.1501H8.27273V59.555H12.0227ZM9.63636 59.143C9.02557 59.143 8.61364 58.8731 8.61364 58.3618C8.61364 57.8291 9.06108 57.5663 9.63636 57.5663C10.2188 57.5663 10.6804 57.8362 10.6804 58.3618C10.6804 58.866 10.2543 59.143 9.63636 59.143ZM8.27273 56.3079V56.7908L9.63636 55.9244L11 56.7908V56.3079L9.94176 55.6545L11 55.0011V54.5181L9.63636 55.3988L8.27273 54.5181V55.0011L9.38778 55.6545L8.27273 56.3079Z" fill="black"/>
<path d="M15.0625 29.1121C15.0625 29.3277 14.9579 29.5012 14.828 29.5012H12.172C12.0421 29.5012 11.9375 29.3277 11.9375 29.1121C11.9375 28.9959 11.9679 28.8921 12.0163 28.8209L13.3362 26.6054C13.3782 26.5396 13.4346 26.499 13.4969 26.499C13.5593 26.499 13.6157 26.5396 13.6577 26.6054L14.9837 28.8209C15.0321 28.8921 15.0625 28.9959 15.0625 29.1121Z" fill="#555761"/>
<line x1="13.5" y1="28" x2="13.5" y2="98" stroke="#555761"/>
<path d="M35.9716 58.2727H34.9148L32.733 59.7216V60.7955L34.8636 59.3807H34.9148V67H35.9716V58.2727ZM41.2599 58.1534C39.4872 58.1321 38.3452 59.4659 38.3452 61.0682C38.3452 62.7557 39.5895 63.9659 41.0895 63.9659C41.9929 63.9659 42.7599 63.5227 43.2372 62.8068H43.3054C43.3054 64.9545 42.4702 66.1818 41.1236 66.1818C40.2031 66.1818 39.6406 65.6023 39.4531 64.8011H38.4134C38.6179 66.1818 39.6577 67.1193 41.1236 67.1193C43.0838 67.1193 44.294 65.3807 44.294 62.2784C44.294 59.0739 42.6918 58.1705 41.2599 58.1534ZM41.2599 59.0909C42.3509 59.0909 43.152 60.0284 43.152 61.0511C43.152 62.0909 42.2997 63.0284 41.2259 63.0284C40.152 63.0284 39.3679 62.1591 39.3679 61.0682C39.3679 59.9773 40.1861 59.0909 41.2599 59.0909ZM45.9698 67H51.4755V66.0625H47.4187V65.9943L49.3789 63.8977C50.8789 62.2912 51.3221 61.5412 51.3221 60.5739C51.3221 59.2273 50.2312 58.1534 48.6971 58.1534C47.1673 58.1534 46.0039 59.1932 46.0039 60.7273H47.0096C47.0096 59.7344 47.6531 59.0739 48.663 59.0739C49.609 59.0739 50.3335 59.6534 50.3335 60.5739C50.3335 61.3793 49.8604 61.9759 48.8505 63.0795L45.9698 66.233V67ZM56.082 67.1193C58.0082 67.1193 59.1161 65.4872 59.1161 62.6364C59.1161 59.8068 57.9911 58.1534 56.082 58.1534C54.1729 58.1534 53.0479 59.8068 53.0479 62.6364C53.0479 65.4872 54.1559 67.1193 56.082 67.1193ZM56.082 66.1818C54.8121 66.1818 54.0707 64.9077 54.0707 62.6364C54.0707 60.3693 54.8207 59.0739 56.082 59.0739C57.3434 59.0739 58.0934 60.3693 58.0934 62.6364C58.0934 64.9077 57.3519 66.1818 56.082 66.1818ZM69.2411 65.4318L69.8888 64.7841L67.8093 62.7045L69.8888 60.625L69.2411 59.9773L67.1616 62.0568L65.082 59.9773L64.4343 60.625L66.5138 62.7045L64.4343 64.7841L65.082 65.4318L67.1616 63.3523L69.2411 65.4318ZM78.4638 58.2727H77.407L75.2251 59.7216V60.7955L77.3558 59.3807H77.407V67H78.4638V58.2727ZM83.8203 67.1193C85.7464 67.1193 86.8544 65.4872 86.8544 62.6364C86.8544 59.8068 85.7294 58.1534 83.8203 58.1534C81.9112 58.1534 80.7862 59.8068 80.7862 62.6364C80.7862 65.4872 81.8942 67.1193 83.8203 67.1193ZM83.8203 66.1818C82.5504 66.1818 81.8089 64.9077 81.8089 62.6364C81.8089 60.3693 82.5589 59.0739 83.8203 59.0739C85.0817 59.0739 85.8317 60.3693 85.8317 62.6364C85.8317 64.9077 85.0902 66.1818 83.8203 66.1818ZM91.2692 67.1193C93.0121 67.1193 94.2266 66.1009 94.2351 64.6818C94.2266 63.5781 93.4893 62.6406 92.5476 62.4659V62.4148C93.3658 62.2017 93.9027 61.4006 93.9112 60.4716C93.9027 59.142 92.7862 58.1534 91.2692 58.1534C89.7351 58.1534 88.6186 59.142 88.6271 60.4716C88.6186 61.4006 89.1555 62.2017 89.9908 62.4148V62.4659C89.032 62.6406 88.2947 63.5781 88.3033 64.6818C88.2947 66.1009 89.5092 67.1193 91.2692 67.1193ZM91.2692 66.1818C90.0717 66.1818 89.3345 65.5682 89.343 64.6307C89.3345 63.6463 90.1484 62.9432 91.2692 62.9432C92.3729 62.9432 93.1868 63.6463 93.1953 64.6307C93.1868 65.5682 92.4496 66.1818 91.2692 66.1818ZM91.2692 62.0398C90.3146 62.0398 89.6413 61.4432 89.6499 60.5398C89.6413 59.6534 90.2891 59.0739 91.2692 59.0739C92.2322 59.0739 92.88 59.6534 92.8885 60.5398C92.88 61.4432 92.2067 62.0398 91.2692 62.0398ZM98.7148 67.1193C100.641 67.1193 101.749 65.4872 101.749 62.6364C101.749 59.8068 100.624 58.1534 98.7148 58.1534C96.8058 58.1534 95.6808 59.8068 95.6808 62.6364C95.6808 65.4872 96.7887 67.1193 98.7148 67.1193ZM98.7148 66.1818C97.445 66.1818 96.7035 64.9077 96.7035 62.6364C96.7035 60.3693 97.4535 59.0739 98.7148 59.0739C99.9762 59.0739 100.726 60.3693 100.726 62.6364C100.726 64.9077 99.9847 66.1818 98.7148 66.1818Z" fill="black"/>
</svg>
