<svg width="128" height="128" viewBox="0 0 128 128" fill="none" xmlns="http://www.w3.org/2000/svg">
<rect x="14" y="14" width="100" height="100" fill="white"/>
<g clip-path="url(#clip0)">
<path d="M17.1121 19.9375C17.3277 19.9375 17.5012 20.0421 17.5012 20.172V22.828C17.5012 22.9579 17.3277 23.0625 17.1121 23.0625C16.9959 23.0625 16.8921 23.0321 16.8209 22.9837L14.6054 21.6638C14.5396 21.6218 14.499 21.5654 14.499 21.5031C14.499 21.4407 14.5396 21.3843 14.6054 21.3423L16.8209 20.0163C16.8921 19.9679 16.9959 19.9375 17.1121 19.9375Z" fill="#555761"/>
</g>
<line x1="16" y1="21.5" x2="111" y2="21.5" stroke="#555761"/>
<path d="M23.0625 17.1121C23.0625 17.3277 22.9579 17.5012 22.828 17.5012H20.172C20.0421 17.5012 19.9375 17.3277 19.9375 17.1121C19.9375 16.9959 19.9679 16.8921 20.0163 16.8209L21.3362 14.6054C21.3782 14.5396 21.4346 14.499 21.4969 14.499C21.5593 14.499 21.6157 14.5396 21.6577 14.6054L22.9837 16.8209C23.0321 16.8921 23.0625 16.9959 23.0625 17.1121Z" fill="#555761"/>
<line x1="21.5" y1="16" x2="21.5" y2="111" stroke="#555761"/>
<path d="M59.6548 15.3636H59.2145L58.3054 15.9673V16.4148L59.1932 15.8253H59.2145V19H59.6548V15.3636ZM61.8867 19.0497C62.6893 19.0497 63.1509 18.3697 63.1509 17.1818C63.1509 16.0028 62.6822 15.3139 61.8867 15.3139C61.0913 15.3139 60.6225 16.0028 60.6225 17.1818C60.6225 18.3697 61.0842 19.0497 61.8867 19.0497ZM61.8867 18.6591C61.3576 18.6591 61.0487 18.1282 61.0487 17.1818C61.0487 16.2372 61.3612 15.6974 61.8867 15.6974C62.4123 15.6974 62.7248 16.2372 62.7248 17.1818C62.7248 18.1282 62.4158 18.6591 61.8867 18.6591ZM64.9904 19.0497C65.7166 19.0497 66.2227 18.6254 66.2262 18.0341C66.2227 17.5742 65.9155 17.1836 65.5231 17.1108V17.0895C65.864 17.0007 66.0877 16.6669 66.0913 16.2798C66.0877 15.7259 65.6225 15.3139 64.9904 15.3139C64.3512 15.3139 63.886 15.7259 63.8896 16.2798C63.886 16.6669 64.1097 17.0007 64.4577 17.0895V17.1108C64.0582 17.1836 63.7511 17.5742 63.7546 18.0341C63.7511 18.6254 64.2571 19.0497 64.9904 19.0497ZM64.9904 18.6591C64.4915 18.6591 64.1843 18.4034 64.1879 18.0128C64.1843 17.6026 64.5234 17.3097 64.9904 17.3097C65.4503 17.3097 65.7894 17.6026 65.793 18.0128C65.7894 18.4034 65.4822 18.6591 64.9904 18.6591ZM64.9904 16.9332C64.5927 16.9332 64.3121 16.6847 64.3157 16.3082C64.3121 15.9389 64.582 15.6974 64.9904 15.6974C65.3917 15.6974 65.6616 15.9389 65.6651 16.3082C65.6616 16.6847 65.381 16.9332 64.9904 16.9332ZM68.0928 19.0497C68.8953 19.0497 69.357 18.3697 69.357 17.1818C69.357 16.0028 68.8882 15.3139 68.0928 15.3139C67.2973 15.3139 66.8286 16.0028 66.8286 17.1818C66.8286 18.3697 67.2902 19.0497 68.0928 19.0497ZM68.0928 18.6591C67.5637 18.6591 67.2547 18.1282 67.2547 17.1818C67.2547 16.2372 67.5672 15.6974 68.0928 15.6974C68.6183 15.6974 68.9308 16.2372 68.9308 17.1818C68.9308 18.1282 68.6219 18.6591 68.0928 18.6591ZM71.445 20.0227H71.8641V18.581H71.8996C71.9919 18.7301 72.1695 19.0568 72.695 19.0568C73.3769 19.0568 73.8527 18.5099 73.8527 17.6435C73.8527 16.7841 73.3769 16.2372 72.6879 16.2372C72.1553 16.2372 71.9919 16.5639 71.8996 16.706H71.8499V16.2727H71.445V20.0227ZM71.857 17.6364C71.857 17.0256 72.1269 16.6136 72.6382 16.6136C73.1709 16.6136 73.4337 17.0611 73.4337 17.6364C73.4337 18.2188 73.1638 18.6804 72.6382 18.6804C72.134 18.6804 71.857 18.2543 71.857 17.6364ZM74.6921 16.2727H74.2092L75.0756 17.6364L74.2092 19H74.6921L75.3455 17.9418L75.9989 19H76.4819L75.6012 17.6364L76.4819 16.2727H75.9989L75.3455 17.3878L74.6921 16.2727Z" fill="black"/>
<path d="M15.3636 71.3452V71.7855L15.9673 72.6946H16.4148L15.8253 71.8068V71.7855H19V71.3452H15.3636ZM19.0497 69.1133C19.0497 68.3107 18.3697 67.8491 17.1818 67.8491C16.0028 67.8491 15.3139 68.3178 15.3139 69.1133C15.3139 69.9087 16.0028 70.3775 17.1818 70.3775C18.3697 70.3775 19.0497 69.9158 19.0497 69.1133ZM18.6591 69.1133C18.6591 69.6424 18.1282 69.9513 17.1818 69.9513C16.2372 69.9513 15.6974 69.6388 15.6974 69.1133C15.6974 68.5877 16.2372 68.2752 17.1818 68.2752C18.1282 68.2752 18.6591 68.5842 18.6591 69.1133ZM19.0497 66.0096C19.0497 65.2834 18.6254 64.7773 18.0341 64.7738C17.5742 64.7773 17.1836 65.0845 17.1108 65.4769H17.0895C17.0007 65.136 16.6669 64.9123 16.2798 64.9087C15.7259 64.9123 15.3139 65.3775 15.3139 66.0096C15.3139 66.6488 15.7259 67.114 16.2798 67.1104C16.6669 67.114 17.0007 66.8903 17.0895 66.5423H17.1108C17.1836 66.9418 17.5742 67.2489 18.0341 67.2454C18.6254 67.2489 19.0497 66.7429 19.0497 66.0096ZM18.6591 66.0096C18.6591 66.5085 18.4034 66.8157 18.0128 66.8121C17.6026 66.8157 17.3097 66.4766 17.3097 66.0096C17.3097 65.5497 17.6026 65.2106 18.0128 65.207C18.4034 65.2106 18.6591 65.5178 18.6591 66.0096ZM16.9332 66.0096C16.9332 66.4073 16.6847 66.6879 16.3082 66.6843C15.9389 66.6879 15.6974 66.418 15.6974 66.0096C15.6974 65.6083 15.9389 65.3384 16.3082 65.3349C16.6847 65.3384 16.9332 65.619 16.9332 66.0096ZM19.0497 62.9072C19.0497 62.1047 18.3697 61.643 17.1818 61.643C16.0028 61.643 15.3139 62.1118 15.3139 62.9072C15.3139 63.7027 16.0028 64.1714 17.1818 64.1714C18.3697 64.1714 19.0497 63.7098 19.0497 62.9072ZM18.6591 62.9072C18.6591 63.4363 18.1282 63.7453 17.1818 63.7453C16.2372 63.7453 15.6974 63.4328 15.6974 62.9072C15.6974 62.3817 16.2372 62.0692 17.1818 62.0692C18.1282 62.0692 18.6591 62.3781 18.6591 62.9072ZM20.0227 59.555V59.1359H18.581V59.1004C18.7301 59.0081 19.0568 58.8305 19.0568 58.305C19.0568 57.6231 18.5099 57.1473 17.6435 57.1473C16.7841 57.1473 16.2372 57.6231 16.2372 58.3121C16.2372 58.8447 16.5639 59.0081 16.706 59.1004V59.1501H16.2727V59.555H20.0227ZM17.6364 59.143C17.0256 59.143 16.6136 58.8731 16.6136 58.3618C16.6136 57.8291 17.0611 57.5663 17.6364 57.5663C18.2188 57.5663 18.6804 57.8362 18.6804 58.3618C18.6804 58.866 18.2543 59.143 17.6364 59.143ZM16.2727 56.3079V56.7908L17.6364 55.9244L19 56.7908V56.3079L17.9418 55.6545L19 55.0011V54.5181L17.6364 55.3988L16.2727 54.5181V55.0011L17.3878 55.6545L16.2727 56.3079Z" fill="black"/>
<path d="M37.9716 59.2727H36.9148L34.733 60.7216V61.7955L36.8636 60.3807H36.9148V68H37.9716V59.2727ZM43.3281 68.1193C45.2543 68.1193 46.3622 66.4872 46.3622 63.6364C46.3622 60.8068 45.2372 59.1534 43.3281 59.1534C41.419 59.1534 40.294 60.8068 40.294 63.6364C40.294 66.4872 41.402 68.1193 43.3281 68.1193ZM43.3281 67.1818C42.0582 67.1818 41.3168 65.9077 41.3168 63.6364C41.3168 61.3693 42.0668 60.0739 43.3281 60.0739C44.5895 60.0739 45.3395 61.3693 45.3395 63.6364C45.3395 65.9077 44.598 67.1818 43.3281 67.1818ZM50.777 68.1193C52.5199 68.1193 53.7344 67.1009 53.7429 65.6818C53.7344 64.5781 52.9972 63.6406 52.0554 63.4659V63.4148C52.8736 63.2017 53.4105 62.4006 53.419 61.4716C53.4105 60.142 52.294 59.1534 50.777 59.1534C49.2429 59.1534 48.1264 60.142 48.1349 61.4716C48.1264 62.4006 48.6634 63.2017 49.4986 63.4148V63.4659C48.5398 63.6406 47.8026 64.5781 47.8111 65.6818C47.8026 67.1009 49.017 68.1193 50.777 68.1193ZM50.777 67.1818C49.5795 67.1818 48.8423 66.5682 48.8509 65.6307C48.8423 64.6463 49.6562 63.9432 50.777 63.9432C51.8807 63.9432 52.6946 64.6463 52.7031 65.6307C52.6946 66.5682 51.9574 67.1818 50.777 67.1818ZM50.777 63.0398C49.8224 63.0398 49.1491 62.4432 49.1577 61.5398C49.1491 60.6534 49.7969 60.0739 50.777 60.0739C51.7401 60.0739 52.3878 60.6534 52.3963 61.5398C52.3878 62.4432 51.7145 63.0398 50.777 63.0398ZM58.2227 68.1193C60.1488 68.1193 61.2567 66.4872 61.2567 63.6364C61.2567 60.8068 60.1317 59.1534 58.2227 59.1534C56.3136 59.1534 55.1886 60.8068 55.1886 63.6364C55.1886 66.4872 56.2965 68.1193 58.2227 68.1193ZM58.2227 67.1818C56.9528 67.1818 56.2113 65.9077 56.2113 63.6364C56.2113 61.3693 56.9613 60.0739 58.2227 60.0739C59.484 60.0739 60.234 61.3693 60.234 63.6364C60.234 65.9077 59.4925 67.1818 58.2227 67.1818ZM71.3817 66.4318L72.0295 65.7841L69.9499 63.7045L72.0295 61.625L71.3817 60.9773L69.3022 63.0568L67.2227 60.9773L66.5749 61.625L68.6545 63.7045L66.5749 65.7841L67.2227 66.4318L69.3022 64.3523L71.3817 66.4318ZM80.6044 59.2727H79.5476L77.3658 60.7216V61.7955L79.4964 60.3807H79.5476V68H80.6044V59.2727ZM85.9609 68.1193C87.8871 68.1193 88.995 66.4872 88.995 63.6364C88.995 60.8068 87.87 59.1534 85.9609 59.1534C84.0518 59.1534 82.9268 60.8068 82.9268 63.6364C82.9268 66.4872 84.0348 68.1193 85.9609 68.1193ZM85.9609 67.1818C84.6911 67.1818 83.9496 65.9077 83.9496 63.6364C83.9496 61.3693 84.6996 60.0739 85.9609 60.0739C87.2223 60.0739 87.9723 61.3693 87.9723 63.6364C87.9723 65.9077 87.2308 67.1818 85.9609 67.1818ZM93.4098 68.1193C95.1527 68.1193 96.3672 67.1009 96.3757 65.6818C96.3672 64.5781 95.63 63.6406 94.6882 63.4659V63.4148C95.5064 63.2017 96.0433 62.4006 96.0518 61.4716C96.0433 60.142 94.9268 59.1534 93.4098 59.1534C91.8757 59.1534 90.7592 60.142 90.7678 61.4716C90.7592 62.4006 91.2962 63.2017 92.1314 63.4148V63.4659C91.1726 63.6406 90.4354 64.5781 90.4439 65.6818C90.4354 67.1009 91.6499 68.1193 93.4098 68.1193ZM93.4098 67.1818C92.2124 67.1818 91.4751 66.5682 91.4837 65.6307C91.4751 64.6463 92.2891 63.9432 93.4098 63.9432C94.5135 63.9432 95.3274 64.6463 95.3359 65.6307C95.3274 66.5682 94.5902 67.1818 93.4098 67.1818ZM93.4098 63.0398C92.4553 63.0398 91.782 62.4432 91.7905 61.5398C91.782 60.6534 92.4297 60.0739 93.4098 60.0739C94.3729 60.0739 95.0206 60.6534 95.0291 61.5398C95.0206 62.4432 94.3473 63.0398 93.4098 63.0398ZM100.855 68.1193C102.782 68.1193 103.89 66.4872 103.89 63.6364C103.89 60.8068 102.765 59.1534 100.855 59.1534C98.9464 59.1534 97.8214 60.8068 97.8214 63.6364C97.8214 66.4872 98.9293 68.1193 100.855 68.1193ZM100.855 67.1818C99.5856 67.1818 98.8441 65.9077 98.8441 63.6364C98.8441 61.3693 99.5941 60.0739 100.855 60.0739C102.117 60.0739 102.867 61.3693 102.867 63.6364C102.867 65.9077 102.125 67.1818 100.855 67.1818Z" fill="black"/>
<defs>
<clipPath id="clip0">
<rect width="5" height="8" fill="white" transform="translate(12 24) rotate(-90)"/>
</clipPath>
</defs>
</svg>
