<svg width="128" height="128" viewBox="0 0 128 128" fill="none" xmlns="http://www.w3.org/2000/svg">
<rect x="23" y="5" width="82" height="117" fill="white"/>
<path d="M32.0625 8.11206C32.0625 8.32767 31.9579 8.50124 31.828 8.50124H29.172C29.0421 8.50124 28.9375 8.32767 28.9375 8.11206C28.9375 7.99585 28.9679 7.89212 29.0163 7.82093L30.3362 5.60544C30.3782 5.53964 30.4346 5.49902 30.4969 5.49902C30.5593 5.49902 30.6157 5.53963 30.6577 5.60544L31.9837 7.82093C32.0321 7.89212 32.0625 7.99585 32.0625 8.11206Z" fill="#555761"/>
<line x1="30.5" y1="7" x2="30.5" y2="119" stroke="#555761"/>
<g clip-path="url(#clip0)">
<path d="M27.1121 10.9375C27.3277 10.9375 27.5012 11.0421 27.5012 11.172V13.828C27.5012 13.9579 27.3277 14.0625 27.1121 14.0625C26.9959 14.0625 26.8921 14.0321 26.8209 13.9837L24.6054 12.6638C24.5396 12.6218 24.499 12.5654 24.499 12.5031C24.499 12.4407 24.5396 12.3843 24.6054 12.3423L26.8209 11.0163C26.8921 10.9679 26.9959 10.9375 27.1121 10.9375Z" fill="#555761"/>
</g>
<line x1="26" y1="12.5" x2="102" y2="12.5" stroke="#555761"/>
<path d="M58.6548 6.36364H58.2145L57.3054 6.96733V7.41477L58.1932 6.82528H58.2145V10H58.6548V6.36364ZM60.8867 10.0497C61.6893 10.0497 62.1509 9.36967 62.1509 8.18182C62.1509 7.00284 61.6822 6.31392 60.8867 6.31392C60.0913 6.31392 59.6225 7.00284 59.6225 8.18182C59.6225 9.36967 60.0842 10.0497 60.8867 10.0497ZM60.8867 9.65909C60.3576 9.65909 60.0487 9.1282 60.0487 8.18182C60.0487 7.23722 60.3612 6.69744 60.8867 6.69744C61.4123 6.69744 61.7248 7.23722 61.7248 8.18182C61.7248 9.1282 61.4158 9.65909 60.8867 9.65909ZM63.9904 10.0497C64.7166 10.0497 65.2227 9.62536 65.2262 9.03409C65.2227 8.57422 64.9155 8.18359 64.5231 8.1108V8.08949C64.864 8.00071 65.0877 7.6669 65.0913 7.27983C65.0877 6.72585 64.6225 6.31392 63.9904 6.31392C63.3512 6.31392 62.886 6.72585 62.8896 7.27983C62.886 7.6669 63.1097 8.00071 63.4577 8.08949V8.1108C63.0582 8.18359 62.7511 8.57422 62.7546 9.03409C62.7511 9.62536 63.2571 10.0497 63.9904 10.0497ZM63.9904 9.65909C63.4915 9.65909 63.1843 9.40341 63.1879 9.01278C63.1843 8.60263 63.5234 8.30966 63.9904 8.30966C64.4503 8.30966 64.7894 8.60263 64.793 9.01278C64.7894 9.40341 64.4822 9.65909 63.9904 9.65909ZM63.9904 7.93324C63.5927 7.93324 63.3121 7.68466 63.3157 7.30824C63.3121 6.93892 63.582 6.69744 63.9904 6.69744C64.3917 6.69744 64.6616 6.93892 64.6651 7.30824C64.6616 7.68466 64.381 7.93324 63.9904 7.93324ZM67.0928 10.0497C67.8953 10.0497 68.357 9.36967 68.357 8.18182C68.357 7.00284 67.8882 6.31392 67.0928 6.31392C66.2973 6.31392 65.8286 7.00284 65.8286 8.18182C65.8286 9.36967 66.2902 10.0497 67.0928 10.0497ZM67.0928 9.65909C66.5637 9.65909 66.2547 9.1282 66.2547 8.18182C66.2547 7.23722 66.5672 6.69744 67.0928 6.69744C67.6183 6.69744 67.9308 7.23722 67.9308 8.18182C67.9308 9.1282 67.6219 9.65909 67.0928 9.65909ZM70.445 11.0227H70.8641V9.58097H70.8996C70.9919 9.73011 71.1695 10.0568 71.695 10.0568C72.3769 10.0568 72.8527 9.50994 72.8527 8.64347C72.8527 7.78409 72.3769 7.23722 71.6879 7.23722C71.1553 7.23722 70.9919 7.56392 70.8996 7.70597H70.8499V7.27273H70.445V11.0227ZM70.857 8.63636C70.857 8.02557 71.1269 7.61364 71.6382 7.61364C72.1709 7.61364 72.4337 8.06108 72.4337 8.63636C72.4337 9.21875 72.1638 9.6804 71.6382 9.6804C71.134 9.6804 70.857 9.25426 70.857 8.63636ZM73.6921 7.27273H73.2092L74.0756 8.63636L73.2092 10H73.6921L74.3455 8.94176L74.9989 10H75.4819L74.6012 8.63636L75.4819 7.27273H74.9989L74.3455 8.38778L73.6921 7.27273Z" fill="black"/>
<path d="M24.3636 71.3452V71.7855L24.9673 72.6946H25.4148L24.8253 71.8068V71.7855H28V71.3452H24.3636ZM28.0497 69.0707C28.0497 68.3658 27.6076 67.842 27.0128 67.842C26.5511 67.842 26.2156 68.1154 26.1392 68.5735H26.1108C25.9989 68.206 25.6971 67.9769 25.2869 67.9769C24.772 67.9769 24.3139 68.3835 24.3139 69.0565C24.3139 69.685 24.701 70.207 25.2727 70.2283V69.8022C24.9105 69.7862 24.6974 69.4418 24.6974 69.0636C24.6974 68.6623 24.9407 68.4031 25.3082 68.4031C25.6918 68.4031 25.9403 68.7031 25.9403 69.1346V69.4258H26.331V69.1346C26.331 68.5824 26.6115 68.2752 27.0128 68.2752C27.3981 68.2752 27.6591 68.6108 27.6591 69.0778C27.6591 69.4986 27.4425 69.8324 27.0909 69.859V70.3065C27.6626 70.2798 28.0497 69.7756 28.0497 69.0707ZM28.0497 65.9794C28.0497 65.2869 27.5384 64.7791 26.8423 64.7791C26.1374 64.7791 25.6207 65.2692 25.6207 65.9368C25.6207 66.1818 25.7077 66.4197 25.8267 66.5689V66.5902L24.7543 66.4624V64.9425H24.3636V66.8317L26.1534 67.0518L26.2031 66.6399C26.0948 66.489 26.0167 66.2315 26.0185 66.0078C26.022 65.5444 26.3736 65.2053 26.8494 65.2053C27.3164 65.2053 27.6591 65.532 27.6591 65.9794C27.6591 66.3523 27.4194 66.6488 27.0909 66.6825V67.1087C27.6449 67.082 28.0497 66.6044 28.0497 65.9794ZM28.0497 62.8877C28.0497 62.0851 27.3697 61.6235 26.1818 61.6235C25.0028 61.6235 24.3139 62.0922 24.3139 62.8877C24.3139 63.6831 25.0028 64.1519 26.1818 64.1519C27.3697 64.1519 28.0497 63.6903 28.0497 62.8877ZM27.6591 62.8877C27.6591 63.4168 27.1282 63.7258 26.1818 63.7258C25.2372 63.7258 24.6974 63.4133 24.6974 62.8877C24.6974 62.3621 25.2372 62.0496 26.1818 62.0496C27.1282 62.0496 27.6591 62.3586 27.6591 62.8877ZM29.0227 59.5354V59.1164H27.581V59.0809C27.7301 58.9885 28.0568 58.811 28.0568 58.2854C28.0568 57.6036 27.5099 57.1278 26.6435 57.1278C25.7841 57.1278 25.2372 57.6036 25.2372 58.2925C25.2372 58.8252 25.5639 58.9885 25.706 59.0809V59.1306H25.2727V59.5354H29.0227ZM26.6364 59.1235C26.0256 59.1235 25.6136 58.8536 25.6136 58.3422C25.6136 57.8096 26.0611 57.5468 26.6364 57.5468C27.2188 57.5468 27.6804 57.8167 27.6804 58.3422C27.6804 58.8465 27.2543 59.1235 26.6364 59.1235ZM25.2727 56.2884V56.7713L26.6364 55.9048L28 56.7713V56.2884L26.9418 55.6349L28 54.9815V54.4986L26.6364 55.3793L25.2727 54.4986V54.9815L26.3878 55.6349L25.2727 56.2884Z" fill="black"/>
<path d="M35.9716 58.2727H34.9148L32.733 59.7216V60.7955L34.8636 59.3807H34.9148V67H35.9716V58.2727ZM41.3281 67.1193C43.2543 67.1193 44.3622 65.4872 44.3622 62.6364C44.3622 59.8068 43.2372 58.1534 41.3281 58.1534C39.419 58.1534 38.294 59.8068 38.294 62.6364C38.294 65.4872 39.402 67.1193 41.3281 67.1193ZM41.3281 66.1818C40.0582 66.1818 39.3168 64.9077 39.3168 62.6364C39.3168 60.3693 40.0668 59.0739 41.3281 59.0739C42.5895 59.0739 43.3395 60.3693 43.3395 62.6364C43.3395 64.9077 42.598 66.1818 41.3281 66.1818ZM48.777 67.1193C50.5199 67.1193 51.7344 66.1009 51.7429 64.6818C51.7344 63.5781 50.9972 62.6406 50.0554 62.4659V62.4148C50.8736 62.2017 51.4105 61.4006 51.419 60.4716C51.4105 59.142 50.294 58.1534 48.777 58.1534C47.2429 58.1534 46.1264 59.142 46.1349 60.4716C46.1264 61.4006 46.6634 62.2017 47.4986 62.4148V62.4659C46.5398 62.6406 45.8026 63.5781 45.8111 64.6818C45.8026 66.1009 47.017 67.1193 48.777 67.1193ZM48.777 66.1818C47.5795 66.1818 46.8423 65.5682 46.8509 64.6307C46.8423 63.6463 47.6562 62.9432 48.777 62.9432C49.8807 62.9432 50.6946 63.6463 50.7031 64.6307C50.6946 65.5682 49.9574 66.1818 48.777 66.1818ZM48.777 62.0398C47.8224 62.0398 47.1491 61.4432 47.1577 60.5398C47.1491 59.6534 47.7969 59.0739 48.777 59.0739C49.7401 59.0739 50.3878 59.6534 50.3963 60.5398C50.3878 61.4432 49.7145 62.0398 48.777 62.0398ZM56.2227 67.1193C58.1488 67.1193 59.2567 65.4872 59.2567 62.6364C59.2567 59.8068 58.1317 58.1534 56.2227 58.1534C54.3136 58.1534 53.1886 59.8068 53.1886 62.6364C53.1886 65.4872 54.2965 67.1193 56.2227 67.1193ZM56.2227 66.1818C54.9528 66.1818 54.2113 64.9077 54.2113 62.6364C54.2113 60.3693 54.9613 59.0739 56.2227 59.0739C57.484 59.0739 58.234 60.3693 58.234 62.6364C58.234 64.9077 57.4925 66.1818 56.2227 66.1818ZM69.3817 65.4318L70.0295 64.7841L67.9499 62.7045L70.0295 60.625L69.3817 59.9773L67.3022 62.0568L65.2227 59.9773L64.5749 60.625L66.6545 62.7045L64.5749 64.7841L65.2227 65.4318L67.3022 63.3523L69.3817 65.4318ZM78.6044 58.2727H77.5476L75.3658 59.7216V60.7955L77.4964 59.3807H77.5476V67H78.6044V58.2727ZM84.0632 67.1193C85.755 67.1193 87.0121 66.0582 87.0121 64.6307C87.0121 63.5227 86.3558 62.7173 85.2564 62.5341V62.4659C86.1385 62.1974 86.6882 61.473 86.6882 60.4886C86.6882 59.2528 85.7124 58.1534 84.0973 58.1534C82.5888 58.1534 81.3359 59.0824 81.2848 60.4545H82.3075C82.3459 59.5852 83.1726 59.0739 84.0803 59.0739C85.0433 59.0739 85.6655 59.6577 85.6655 60.5398C85.6655 61.4602 84.9453 62.0568 83.9098 62.0568H83.2109V62.9943H83.9098C85.2351 62.9943 85.9723 63.6676 85.9723 64.6307C85.9723 65.5554 85.1669 66.1818 84.0462 66.1818C83.0362 66.1818 82.2351 65.6619 82.1712 64.8182H81.0973C81.1612 66.1903 82.3714 67.1193 84.0632 67.1193ZM91.4822 67.1193C93.1442 67.1193 94.3629 65.892 94.3629 64.2216C94.3629 62.5298 93.1868 61.2898 91.5845 61.2898C90.9964 61.2898 90.4254 61.4986 90.0675 61.7841H90.0163L90.3232 59.2102H93.9709V58.2727H89.4368L88.9084 62.5682L89.897 62.6875C90.2592 62.4276 90.8771 62.2401 91.4141 62.2443C92.5263 62.2528 93.3402 63.0966 93.3402 64.2386C93.3402 65.3594 92.5561 66.1818 91.4822 66.1818C90.5874 66.1818 89.8757 65.6065 89.7947 64.8182H88.772C88.8359 66.1477 89.9822 67.1193 91.4822 67.1193ZM98.9023 67.1193C100.828 67.1193 101.936 65.4872 101.936 62.6364C101.936 59.8068 100.811 58.1534 98.9023 58.1534C96.9933 58.1534 95.8683 59.8068 95.8683 62.6364C95.8683 65.4872 96.9762 67.1193 98.9023 67.1193ZM98.9023 66.1818C97.6325 66.1818 96.891 64.9077 96.891 62.6364C96.891 60.3693 97.641 59.0739 98.9023 59.0739C100.164 59.0739 100.914 60.3693 100.914 62.6364C100.914 64.9077 100.172 66.1818 98.9023 66.1818Z" fill="black"/>
<defs>
<clipPath id="clip0">
<rect width="5" height="8" fill="white" transform="translate(22 15) rotate(-90)"/>
</clipPath>
</defs>
</svg>
