<svg width="128" height="128" viewBox="0 0 128 128" fill="none" xmlns="http://www.w3.org/2000/svg">
<rect x="6" y="42" width="117" height="44" fill="white"/>
<path d="M9.63653 47.9375C9.83208 47.9375 9.98952 48.0421 9.98952 48.172V50.828C9.98952 50.9579 9.83208 51.0625 9.63653 51.0625C9.53114 51.0625 9.43705 51.0321 9.37248 50.9837L7.36309 49.6638C7.30341 49.6218 7.26657 49.5654 7.26657 49.5031C7.26657 49.4407 7.3034 49.3843 7.36309 49.3423L9.37248 48.0163C9.43705 47.9679 9.53114 47.9375 9.63653 47.9375Z" fill="#555761"/>
<line x1="9" y1="49.5" x2="120" y2="49.5" stroke="#555761"/>
<path d="M15.0625 46.1121C15.0625 46.3277 14.9579 46.5012 14.828 46.5012H12.172C12.0421 46.5012 11.9375 46.3277 11.9375 46.1121C11.9375 45.9959 11.9679 45.8921 12.0163 45.8209L13.3362 43.6054C13.3782 43.5396 13.4346 43.499 13.4969 43.499C13.5593 43.499 13.6157 43.5396 13.6577 43.6054L14.9837 45.8209C15.0321 45.8921 15.0625 45.9959 15.0625 46.1121Z" fill="#555761"/>
<line x1="13.5" y1="45" x2="13.5" y2="83" stroke="#555761"/>
<path d="M55.6548 44.3636H55.2145L54.3054 44.9673V45.4148L55.1932 44.8253H55.2145V48H55.6548V44.3636ZM57.8867 48.0497C58.6893 48.0497 59.1509 47.3697 59.1509 46.1818C59.1509 45.0028 58.6822 44.3139 57.8867 44.3139C57.0913 44.3139 56.6225 45.0028 56.6225 46.1818C56.6225 47.3697 57.0842 48.0497 57.8867 48.0497ZM57.8867 47.6591C57.3576 47.6591 57.0487 47.1282 57.0487 46.1818C57.0487 45.2372 57.3612 44.6974 57.8867 44.6974C58.4123 44.6974 58.7248 45.2372 58.7248 46.1818C58.7248 47.1282 58.4158 47.6591 57.8867 47.6591ZM60.9904 48.0497C61.7166 48.0497 62.2227 47.6254 62.2262 47.0341C62.2227 46.5742 61.9155 46.1836 61.5231 46.1108V46.0895C61.864 46.0007 62.0877 45.6669 62.0913 45.2798C62.0877 44.7259 61.6225 44.3139 60.9904 44.3139C60.3512 44.3139 59.886 44.7259 59.8896 45.2798C59.886 45.6669 60.1097 46.0007 60.4577 46.0895V46.1108C60.0582 46.1836 59.7511 46.5742 59.7546 47.0341C59.7511 47.6254 60.2571 48.0497 60.9904 48.0497ZM60.9904 47.6591C60.4915 47.6591 60.1843 47.4034 60.1879 47.0128C60.1843 46.6026 60.5234 46.3097 60.9904 46.3097C61.4503 46.3097 61.7894 46.6026 61.793 47.0128C61.7894 47.4034 61.4822 47.6591 60.9904 47.6591ZM60.9904 45.9332C60.5927 45.9332 60.3121 45.6847 60.3157 45.3082C60.3121 44.9389 60.582 44.6974 60.9904 44.6974C61.3917 44.6974 61.6616 44.9389 61.6651 45.3082C61.6616 45.6847 61.381 45.9332 60.9904 45.9332ZM64.0928 48.0497C64.8953 48.0497 65.357 47.3697 65.357 46.1818C65.357 45.0028 64.8882 44.3139 64.0928 44.3139C63.2973 44.3139 62.8286 45.0028 62.8286 46.1818C62.8286 47.3697 63.2902 48.0497 64.0928 48.0497ZM64.0928 47.6591C63.5637 47.6591 63.2547 47.1282 63.2547 46.1818C63.2547 45.2372 63.5672 44.6974 64.0928 44.6974C64.6183 44.6974 64.9308 45.2372 64.9308 46.1818C64.9308 47.1282 64.6219 47.6591 64.0928 47.6591ZM67.445 49.0227H67.8641V47.581H67.8996C67.9919 47.7301 68.1695 48.0568 68.695 48.0568C69.3769 48.0568 69.8527 47.5099 69.8527 46.6435C69.8527 45.7841 69.3769 45.2372 68.6879 45.2372C68.1553 45.2372 67.9919 45.5639 67.8996 45.706H67.8499V45.2727H67.445V49.0227ZM67.857 46.6364C67.857 46.0256 68.1269 45.6136 68.6382 45.6136C69.1709 45.6136 69.4337 46.0611 69.4337 46.6364C69.4337 47.2188 69.1638 47.6804 68.6382 47.6804C68.134 47.6804 67.857 47.2543 67.857 46.6364ZM70.6921 45.2727H70.2092L71.0756 46.6364L70.2092 48H70.6921L71.3455 46.9418L71.9989 48H72.4819L71.6012 46.6364L72.4819 45.2727H71.9989L71.3455 46.3878L70.6921 45.2727Z" fill="black"/>
<path d="M11.0497 72.4872C11.0497 71.7947 10.5384 71.2869 9.84233 71.2869C9.13743 71.2869 8.62074 71.777 8.62074 72.4446C8.62074 72.6896 8.70774 72.9276 8.8267 73.0767V73.098L7.75426 72.9702V71.4503H7.36364V73.3395L9.15341 73.5597L9.20312 73.1477C9.09482 72.9968 9.01669 72.7393 9.01847 72.5156C9.02202 72.0522 9.37358 71.7131 9.84943 71.7131C10.3164 71.7131 10.6591 72.0398 10.6591 72.4872C10.6591 72.8601 10.4194 73.1566 10.0909 73.1903V73.6165C10.6449 73.5898 11.0497 73.1122 11.0497 72.4872ZM11.0497 69.3742C11.0586 68.6391 10.5046 68.1597 9.82812 68.1597C9.125 68.1597 8.62074 68.68 8.62074 69.3032C8.62074 69.6778 8.80362 69.9992 9.10369 70.1981V70.2265C8.21768 70.2247 7.70455 69.8802 7.70455 69.3174C7.70455 68.9339 7.94602 68.703 8.27273 68.6214V68.1881C7.7081 68.2769 7.31392 68.7066 7.31392 69.3174C7.31392 70.1359 8.03835 70.6384 9.32386 70.6384C10.668 70.6384 11.0426 69.9708 11.0497 69.3742ZM10.6591 69.3742C10.6591 69.8305 10.2702 70.1643 9.83523 70.1626C9.40021 70.1608 9.01136 69.811 9.01136 69.36C9.01136 68.9143 9.37713 68.5858 9.82812 68.5858C10.2898 68.5858 10.6591 68.9285 10.6591 69.3742ZM11.0497 66.2541C11.0586 65.519 10.5046 65.0396 9.82812 65.0396C9.125 65.0396 8.62074 65.5598 8.62074 66.1831C8.62074 66.5577 8.80362 66.8791 9.10369 67.0779V67.1064C8.21768 67.1046 7.70455 66.7601 7.70455 66.1973C7.70455 65.8137 7.94602 65.5829 8.27273 65.5012V65.068C7.7081 65.1568 7.31392 65.5865 7.31392 66.1973C7.31392 67.0158 8.03835 67.5183 9.32386 67.5183C10.668 67.5183 11.0426 66.8507 11.0497 66.2541ZM10.6591 66.2541C10.6591 66.7104 10.2702 67.0442 9.83523 67.0424C9.40021 67.0407 9.01136 66.6909 9.01136 66.2399C9.01136 65.7942 9.37713 65.4657 9.82812 65.4657C10.2898 65.4657 10.6591 65.8084 10.6591 66.2541ZM12.0227 62.928V62.509H10.581V62.4735C10.7301 62.3811 11.0568 62.2036 11.0568 61.678C11.0568 60.9962 10.5099 60.5203 9.64347 60.5203C8.78409 60.5203 8.23722 60.9962 8.23722 61.6851C8.23722 62.2178 8.56392 62.3811 8.70597 62.4735V62.5232H8.27273V62.928H12.0227ZM9.63636 62.5161C9.02557 62.5161 8.61364 62.2462 8.61364 61.7348C8.61364 61.2021 9.06108 60.9394 9.63636 60.9394C10.2188 60.9394 10.6804 61.2093 10.6804 61.7348C10.6804 62.2391 10.2543 62.5161 9.63636 62.5161ZM8.27273 59.6809V60.1639L9.63636 59.2974L11 60.1639V59.6809L9.94176 59.0275L11 58.3741V57.8912L9.63636 58.7718L8.27273 57.8912V58.3741L9.38778 59.0275L8.27273 59.6809Z" fill="black"/>
<path d="M37.9716 60.2727H36.9148L34.733 61.7216V62.7955L36.8636 61.3807H36.9148V69H37.9716V60.2727ZM43.3281 69.1193C45.2543 69.1193 46.3622 67.4872 46.3622 64.6364C46.3622 61.8068 45.2372 60.1534 43.3281 60.1534C41.419 60.1534 40.294 61.8068 40.294 64.6364C40.294 67.4872 41.402 69.1193 43.3281 69.1193ZM43.3281 68.1818C42.0582 68.1818 41.3168 66.9077 41.3168 64.6364C41.3168 62.3693 42.0668 61.0739 43.3281 61.0739C44.5895 61.0739 45.3395 62.3693 45.3395 64.6364C45.3395 66.9077 44.598 68.1818 43.3281 68.1818ZM50.777 69.1193C52.5199 69.1193 53.7344 68.1009 53.7429 66.6818C53.7344 65.5781 52.9972 64.6406 52.0554 64.4659V64.4148C52.8736 64.2017 53.4105 63.4006 53.419 62.4716C53.4105 61.142 52.294 60.1534 50.777 60.1534C49.2429 60.1534 48.1264 61.142 48.1349 62.4716C48.1264 63.4006 48.6634 64.2017 49.4986 64.4148V64.4659C48.5398 64.6406 47.8026 65.5781 47.8111 66.6818C47.8026 68.1009 49.017 69.1193 50.777 69.1193ZM50.777 68.1818C49.5795 68.1818 48.8423 67.5682 48.8509 66.6307C48.8423 65.6463 49.6562 64.9432 50.777 64.9432C51.8807 64.9432 52.6946 65.6463 52.7031 66.6307C52.6946 67.5682 51.9574 68.1818 50.777 68.1818ZM50.777 64.0398C49.8224 64.0398 49.1491 63.4432 49.1577 62.5398C49.1491 61.6534 49.7969 61.0739 50.777 61.0739C51.7401 61.0739 52.3878 61.6534 52.3963 62.5398C52.3878 63.4432 51.7145 64.0398 50.777 64.0398ZM58.2227 69.1193C60.1488 69.1193 61.2567 67.4872 61.2567 64.6364C61.2567 61.8068 60.1317 60.1534 58.2227 60.1534C56.3136 60.1534 55.1886 61.8068 55.1886 64.6364C55.1886 67.4872 56.2965 69.1193 58.2227 69.1193ZM58.2227 68.1818C56.9528 68.1818 56.2113 66.9077 56.2113 64.6364C56.2113 62.3693 56.9613 61.0739 58.2227 61.0739C59.484 61.0739 60.234 62.3693 60.234 64.6364C60.234 66.9077 59.4925 68.1818 58.2227 68.1818ZM71.3817 67.4318L72.0295 66.7841L69.9499 64.7045L72.0295 62.625L71.3817 61.9773L69.3022 64.0568L67.2227 61.9773L66.5749 62.625L68.6545 64.7045L66.5749 66.7841L67.2227 67.4318L69.3022 65.3523L71.3817 67.4318ZM80.2635 69.1193C81.9254 69.1193 83.1442 67.892 83.1442 66.2216C83.1442 64.5298 81.968 63.2898 80.3658 63.2898C79.7777 63.2898 79.2067 63.4986 78.8487 63.7841H78.7976L79.1044 61.2102H82.7521V60.2727H78.218L77.6896 64.5682L78.6783 64.6875C79.0405 64.4276 79.6584 64.2401 80.1953 64.2443C81.3075 64.2528 82.1214 65.0966 82.1214 66.2386C82.1214 67.3594 81.3374 68.1818 80.2635 68.1818C79.3686 68.1818 78.657 67.6065 78.576 66.8182H77.5533C77.6172 68.1477 78.7635 69.1193 80.2635 69.1193ZM87.7347 69.1193C89.4989 69.1406 90.6495 67.8111 90.6495 66.1875C90.6495 64.5 89.4009 63.2898 87.9052 63.2898C87.006 63.2898 86.2347 63.7287 85.7575 64.4489H85.6893C85.6935 62.3224 86.5202 61.0909 87.8711 61.0909C88.7915 61.0909 89.3455 61.6705 89.5415 62.4545H90.5813C90.3683 61.0994 89.337 60.1534 87.8711 60.1534C85.9066 60.1534 84.7006 61.892 84.7006 64.9773C84.7006 68.2031 86.3029 69.1023 87.7347 69.1193ZM87.7347 68.1818C86.6396 68.1818 85.8384 67.2486 85.8427 66.2045C85.8469 65.1605 86.6864 64.2273 87.7688 64.2273C88.8384 64.2273 89.6268 65.1051 89.6268 66.1875C89.6268 67.2955 88.8043 68.1818 87.7347 68.1818ZM95.223 69.1193C96.9872 69.1406 98.1378 67.8111 98.1378 66.1875C98.1378 64.5 96.8892 63.2898 95.3935 63.2898C94.4943 63.2898 93.723 63.7287 93.2457 64.4489H93.1776C93.1818 62.3224 94.0085 61.0909 95.3594 61.0909C96.2798 61.0909 96.8338 61.6705 97.0298 62.4545H98.0696C97.8565 61.0994 96.8253 60.1534 95.3594 60.1534C93.3949 60.1534 92.1889 61.892 92.1889 64.9773C92.1889 68.2031 93.7912 69.1023 95.223 69.1193ZM95.223 68.1818C94.1278 68.1818 93.3267 67.2486 93.331 66.2045C93.3352 65.1605 94.1747 64.2273 95.2571 64.2273C96.3267 64.2273 97.1151 65.1051 97.1151 66.1875C97.1151 67.2955 96.2926 68.1818 95.223 68.1818Z" fill="black"/>
</svg>
