<svg width="128" height="128" viewBox="0 0 128 128" fill="none" xmlns="http://www.w3.org/2000/svg">
<rect x="14" y="14" width="100" height="100" fill="white"/>
<path d="M23.0625 18.1121C23.0625 18.3277 22.9579 18.5012 22.828 18.5012H20.172C20.0421 18.5012 19.9375 18.3277 19.9375 18.1121C19.9375 17.9959 19.9679 17.8921 20.0163 17.8209L21.3362 15.6054C21.3782 15.5396 21.4346 15.499 21.4969 15.499C21.5593 15.499 21.6157 15.5396 21.6577 15.6054L22.9837 17.8209C23.0321 17.8921 23.0625 17.9959 23.0625 18.1121Z" fill="#555761"/>
<line x1="21.5" y1="17" x2="21.5" y2="110" stroke="#555761"/>
<g clip-path="url(#clip0)">
<path d="M18.1121 19.9375C18.3277 19.9375 18.5012 20.0421 18.5012 20.172V22.828C18.5012 22.9579 18.3277 23.0625 18.1121 23.0625C17.9959 23.0625 17.8921 23.0321 17.8209 22.9837L15.6054 21.6638C15.5396 21.6218 15.499 21.5654 15.499 21.5031C15.499 21.4407 15.5396 21.3843 15.6054 21.3423L17.8209 20.0163C17.8921 19.9679 17.9959 19.9375 18.1121 19.9375Z" fill="#555761"/>
</g>
<line x1="17" y1="21.5" x2="111" y2="21.5" stroke="#555761"/>
<path d="M59.2912 18.2543H61.0028V19H61.4219V18.2543H61.919V17.8636H61.4219V15.3636H60.8892L59.2912 17.892V18.2543ZM61.0028 17.8636H59.767V17.8352L60.9744 15.9247H61.0028V17.8636ZM63.7705 19.0497C64.5731 19.0497 65.0347 18.3697 65.0347 17.1818C65.0347 16.0028 64.566 15.3139 63.7705 15.3139C62.9751 15.3139 62.5063 16.0028 62.5063 17.1818C62.5063 18.3697 62.968 19.0497 63.7705 19.0497ZM63.7705 18.6591C63.2414 18.6591 62.9324 18.1282 62.9324 17.1818C62.9324 16.2372 63.2449 15.6974 63.7705 15.6974C64.2961 15.6974 64.6086 16.2372 64.6086 17.1818C64.6086 18.1282 64.2996 18.6591 63.7705 18.6591ZM67.1228 20.0227H67.5418V18.581H67.5773C67.6697 18.7301 67.8472 19.0568 68.3728 19.0568C69.0546 19.0568 69.5305 18.5099 69.5305 17.6435C69.5305 16.7841 69.0546 16.2372 68.3657 16.2372C67.833 16.2372 67.6697 16.5639 67.5773 16.706H67.5276V16.2727H67.1228V20.0227ZM67.5347 17.6364C67.5347 17.0256 67.8046 16.6136 68.316 16.6136C68.8486 16.6136 69.1114 17.0611 69.1114 17.6364C69.1114 18.2188 68.8415 18.6804 68.316 18.6804C67.8117 18.6804 67.5347 18.2543 67.5347 17.6364ZM71.3557 16.2727H70.7733V15.6193H70.3543V16.2727H69.9424V16.6278H70.3543V18.3324C70.3543 18.8082 70.7378 19.0355 71.093 19.0355C71.2492 19.0355 71.3486 19.0071 71.4055 18.9858L71.3202 18.6094C71.2847 18.6165 71.2279 18.6307 71.1356 18.6307C70.9509 18.6307 70.7733 18.5739 70.7733 18.2188V16.6278H71.3557V16.2727Z" fill="#4D4D4D"/>
<path d="M18.2543 72.7088V70.9972H19V70.5781H18.2543V70.081H17.8636V70.5781H15.3636V71.1108L17.892 72.7088H18.2543ZM17.8636 70.9972V72.233H17.8352L15.9247 71.0256V70.9972H17.8636ZM19.0497 68.2295C19.0497 67.4269 18.3697 66.9653 17.1818 66.9653C16.0028 66.9653 15.3139 67.434 15.3139 68.2295C15.3139 69.0249 16.0028 69.4937 17.1818 69.4937C18.3697 69.4937 19.0497 69.032 19.0497 68.2295ZM18.6591 68.2295C18.6591 68.7586 18.1282 69.0676 17.1818 69.0676C16.2372 69.0676 15.6974 68.7551 15.6974 68.2295C15.6974 67.7039 16.2372 67.3914 17.1818 67.3914C18.1282 67.3914 18.6591 67.7004 18.6591 68.2295ZM20.0227 64.8772V64.4582H18.581V64.4227C18.7301 64.3303 19.0568 64.1528 19.0568 63.6272C19.0568 62.9454 18.5099 62.4695 17.6435 62.4695C16.7841 62.4695 16.2372 62.9454 16.2372 63.6343C16.2372 64.167 16.5639 64.3303 16.706 64.4227V64.4724H16.2727V64.8772H20.0227ZM17.6364 64.4653C17.0256 64.4653 16.6136 64.1954 16.6136 63.684C16.6136 63.1514 17.0611 62.8886 17.6364 62.8886C18.2188 62.8886 18.6804 63.1585 18.6804 63.684C18.6804 64.1883 18.2543 64.4653 17.6364 64.4653ZM16.2727 60.6443V61.2267H15.6193V61.6457H16.2727V62.0576H16.6278V61.6457H18.3324C18.8082 61.6457 19.0355 61.2622 19.0355 60.907C19.0355 60.7508 19.0071 60.6514 18.9858 60.5945L18.6094 60.6798C18.6165 60.7153 18.6307 60.7721 18.6307 60.8644C18.6307 61.0491 18.5739 61.2267 18.2188 61.2267H16.6278V60.6443H16.2727Z" fill="#4D4D4D"/>
<path d="M45.6989 66.2102H49.8068V68H50.8125V66.2102H52.0057V65.2727H50.8125V59.2727H49.5341L45.6989 65.3409V66.2102ZM49.8068 65.2727H46.8409V65.2045L49.7386 60.6193H49.8068V65.2727ZM56.4492 68.1193C58.3754 68.1193 59.4833 66.4872 59.4833 63.6364C59.4833 60.8068 58.3583 59.1534 56.4492 59.1534C54.5401 59.1534 53.4151 60.8068 53.4151 63.6364C53.4151 66.4872 54.5231 68.1193 56.4492 68.1193ZM56.4492 67.1818C55.1793 67.1818 54.4379 65.9077 54.4379 63.6364C54.4379 61.3693 55.1879 60.0739 56.4492 60.0739C57.7106 60.0739 58.4606 61.3693 58.4606 63.6364C58.4606 65.9077 57.7191 67.1818 56.4492 67.1818ZM69.6083 66.4318L70.256 65.7841L68.1765 63.7045L70.256 61.625L69.6083 60.9773L67.5288 63.0568L65.4492 60.9773L64.8015 61.625L66.881 63.7045L64.8015 65.7841L65.4492 66.4318L67.5288 64.3523L69.6083 66.4318ZM75.5582 66.2102H79.6662V68H80.6719V66.2102H81.8651V65.2727H80.6719V59.2727H79.3935L75.5582 65.3409V66.2102ZM79.6662 65.2727H76.7003V65.2045L79.598 60.6193H79.6662V65.2727ZM86.3086 68.1193C88.2347 68.1193 89.3427 66.4872 89.3427 63.6364C89.3427 60.8068 88.2177 59.1534 86.3086 59.1534C84.3995 59.1534 83.2745 60.8068 83.2745 63.6364C83.2745 66.4872 84.3825 68.1193 86.3086 68.1193ZM86.3086 67.1818C85.0387 67.1818 84.2972 65.9077 84.2972 63.6364C84.2972 61.3693 85.0472 60.0739 86.3086 60.0739C87.57 60.0739 88.32 61.3693 88.32 63.6364C88.32 65.9077 87.5785 67.1818 86.3086 67.1818Z" fill="black"/>
<defs>
<clipPath id="clip0">
<rect width="5" height="8" fill="white" transform="translate(13 24) rotate(-90)"/>
</clipPath>
</defs>
</svg>
