<svg width="128" height="128" viewBox="0 0 128 128" fill="none" xmlns="http://www.w3.org/2000/svg">
<rect x="14" y="14" width="100" height="100" fill="white"/>
<path d="M23.0625 18.1121C23.0625 18.3277 22.9579 18.5012 22.828 18.5012H20.172C20.0421 18.5012 19.9375 18.3277 19.9375 18.1121C19.9375 17.9959 19.9679 17.8921 20.0163 17.8209L21.3362 15.6054C21.3782 15.5396 21.4346 15.499 21.4969 15.499C21.5593 15.499 21.6157 15.5396 21.6577 15.6054L22.9837 17.8209C23.0321 17.8921 23.0625 17.9959 23.0625 18.1121Z" fill="#555761"/>
<line x1="21.5" y1="17" x2="21.5" y2="110" stroke="#555761"/>
<g clip-path="url(#clip0)">
<path d="M18.1121 19.9375C18.3277 19.9375 18.5012 20.0421 18.5012 20.172V22.828C18.5012 22.9579 18.3277 23.0625 18.1121 23.0625C17.9959 23.0625 17.8921 23.0321 17.8209 22.9837L15.6054 21.6638C15.5396 21.6218 15.499 21.5654 15.499 21.5031C15.499 21.4407 15.5396 21.3843 15.6054 21.3423L17.8209 20.0163C17.8921 19.9679 17.9959 19.9375 18.1121 19.9375Z" fill="#555761"/>
</g>
<line x1="17" y1="21.5" x2="111" y2="21.5" stroke="#555761"/>
<path d="M60.5412 19.0497C61.2674 19.0497 61.7734 18.6254 61.777 18.0341C61.7734 17.5742 61.4663 17.1836 61.0739 17.1108V17.0895C61.4148 17.0007 61.6385 16.6669 61.642 16.2798C61.6385 15.7259 61.1733 15.3139 60.5412 15.3139C59.902 15.3139 59.4368 15.7259 59.4403 16.2798C59.4368 16.6669 59.6605 17.0007 60.0085 17.0895V17.1108C59.609 17.1836 59.3018 17.5742 59.3054 18.0341C59.3018 18.6254 59.8079 19.0497 60.5412 19.0497ZM60.5412 18.6591C60.0423 18.6591 59.7351 18.4034 59.7386 18.0128C59.7351 17.6026 60.0742 17.3097 60.5412 17.3097C61.0011 17.3097 61.3402 17.6026 61.3438 18.0128C61.3402 18.4034 61.033 18.6591 60.5412 18.6591ZM60.5412 16.9332C60.1435 16.9332 59.8629 16.6847 59.8665 16.3082C59.8629 15.9389 60.1328 15.6974 60.5412 15.6974C60.9425 15.6974 61.2124 15.9389 61.2159 16.3082C61.2124 16.6847 60.9318 16.9332 60.5412 16.9332ZM63.6862 19.0497C64.3911 19.0497 64.9149 18.6076 64.9149 18.0128C64.9149 17.5511 64.6414 17.2156 64.1833 17.1392V17.1108C64.5509 16.9989 64.7799 16.6971 64.7799 16.2869C64.7799 15.772 64.3733 15.3139 63.7004 15.3139C63.0718 15.3139 62.5498 15.701 62.5285 16.2727H62.9546C62.9706 15.9105 63.3151 15.6974 63.6933 15.6974C64.0945 15.6974 64.3538 15.9407 64.3538 16.3082C64.3538 16.6918 64.0537 16.9403 63.6222 16.9403H63.3311V17.331H63.6222C64.1744 17.331 64.4816 17.6115 64.4816 18.0128C64.4816 18.3981 64.146 18.6591 63.6791 18.6591C63.2583 18.6591 62.9244 18.4425 62.8978 18.0909H62.4504C62.477 18.6626 62.9813 19.0497 63.6862 19.0497ZM65.8413 19.0284C66.017 19.0284 66.1609 18.8846 66.1609 18.7088C66.1609 18.533 66.017 18.3892 65.8413 18.3892C65.6655 18.3892 65.5217 18.533 65.5217 18.7088C65.5217 18.8846 65.6655 19.0284 65.8413 19.0284ZM67.9688 19.0497C68.6613 19.0497 69.1691 18.5384 69.1691 17.8423C69.1691 17.1374 68.6791 16.6207 68.0115 16.6207C67.7664 16.6207 67.5285 16.7077 67.3794 16.8267H67.358L67.4859 15.7543H69.0058V15.3636H67.1166L66.8964 17.1534L67.3083 17.2031C67.4593 17.0948 67.7167 17.0167 67.9404 17.0185C68.4039 17.022 68.743 17.3736 68.743 17.8494C68.743 18.3164 68.4163 18.6591 67.9688 18.6591C67.596 18.6591 67.2994 18.4194 67.2657 18.0909H66.8396C66.8662 18.6449 67.3438 19.0497 67.9688 19.0497ZM71.2878 20.0227H71.7069V18.581H71.7424C71.8347 18.7301 72.0123 19.0568 72.5378 19.0568C73.2196 19.0568 73.6955 18.5099 73.6955 17.6435C73.6955 16.7841 73.2196 16.2372 72.5307 16.2372C71.998 16.2372 71.8347 16.5639 71.7424 16.706H71.6926V16.2727H71.2878V20.0227ZM71.6998 17.6364C71.6998 17.0256 71.9696 16.6136 72.481 16.6136C73.0137 16.6136 73.2765 17.0611 73.2765 17.6364C73.2765 18.2188 73.0066 18.6804 72.481 18.6804C71.9767 18.6804 71.6998 18.2543 71.6998 17.6364ZM75.5208 16.2727H74.9384V15.6193H74.5194V16.2727H74.1074V16.6278H74.5194V18.3324C74.5194 18.8082 74.9029 19.0355 75.258 19.0355C75.4142 19.0355 75.5137 19.0071 75.5705 18.9858L75.4853 18.6094C75.4498 18.6165 75.3929 18.6307 75.3006 18.6307C75.1159 18.6307 74.9384 18.5739 74.9384 18.2188V16.6278H75.5208V16.2727Z" fill="#4D4D4D"/>
<path d="M19.0497 71.4588C19.0497 70.7326 18.6254 70.2266 18.0341 70.223C17.5742 70.2266 17.1836 70.5337 17.1108 70.9261H17.0895C17.0007 70.5852 16.6669 70.3615 16.2798 70.358C15.7259 70.3615 15.3139 70.8267 15.3139 71.4588C15.3139 72.098 15.7259 72.5632 16.2798 72.5597C16.6669 72.5632 17.0007 72.3395 17.0895 71.9915H17.1108C17.1836 72.391 17.5742 72.6982 18.0341 72.6946C18.6254 72.6982 19.0497 72.1921 19.0497 71.4588ZM18.6591 71.4588C18.6591 71.9577 18.4034 72.2649 18.0128 72.2614C17.6026 72.2649 17.3097 71.9258 17.3097 71.4588C17.3097 70.9989 17.6026 70.6598 18.0128 70.6562C18.4034 70.6598 18.6591 70.967 18.6591 71.4588ZM16.9332 71.4588C16.9332 71.8565 16.6847 72.1371 16.3082 72.1335C15.9389 72.1371 15.6974 71.8672 15.6974 71.4588C15.6974 71.0575 15.9389 70.7876 16.3082 70.7841C16.6847 70.7876 16.9332 71.0682 16.9332 71.4588ZM19.0497 68.3138C19.0497 67.6089 18.6076 67.0851 18.0128 67.0851C17.5511 67.0851 17.2156 67.3586 17.1392 67.8167H17.1108C16.9989 67.4491 16.6971 67.2201 16.2869 67.2201C15.772 67.2201 15.3139 67.6267 15.3139 68.2996C15.3139 68.9282 15.701 69.4502 16.2727 69.4715V69.0454C15.9105 69.0294 15.6974 68.6849 15.6974 68.3067C15.6974 67.9055 15.9407 67.6462 16.3082 67.6462C16.6918 67.6462 16.9403 67.9463 16.9403 68.3778V68.6689H17.331V68.3778C17.331 67.8256 17.6115 67.5184 18.0128 67.5184C18.3981 67.5184 18.6591 67.854 18.6591 68.3209C18.6591 68.7417 18.4425 69.0756 18.0909 69.1022V69.5496C18.6626 69.523 19.0497 69.0187 19.0497 68.3138ZM19.0284 66.1587C19.0284 65.983 18.8846 65.8391 18.7088 65.8391C18.533 65.8391 18.3892 65.983 18.3892 66.1587C18.3892 66.3345 18.533 66.4783 18.7088 66.4783C18.8846 66.4783 19.0284 66.3345 19.0284 66.1587ZM19.0497 64.0312C19.0497 63.3387 18.5384 62.8309 17.8423 62.8309C17.1374 62.8309 16.6207 63.3209 16.6207 63.9885C16.6207 64.2336 16.7077 64.4715 16.8267 64.6206V64.642L15.7543 64.5141V62.9942H15.3636V64.8834L17.1534 65.1036L17.2031 64.6917C17.0948 64.5407 17.0167 64.2833 17.0185 64.0596C17.022 63.5961 17.3736 63.257 17.8494 63.257C18.3164 63.257 18.6591 63.5837 18.6591 64.0312C18.6591 64.404 18.4194 64.7006 18.0909 64.7343V65.1604C18.6449 65.1338 19.0497 64.6562 19.0497 64.0312ZM20.0227 60.7122V60.2931H18.581V60.2576C18.7301 60.1653 19.0568 59.9877 19.0568 59.4622C19.0568 58.7804 18.5099 58.3045 17.6435 58.3045C16.7841 58.3045 16.2372 58.7804 16.2372 59.4693C16.2372 60.002 16.5639 60.1653 16.706 60.2576V60.3074H16.2727V60.7122H20.0227ZM17.6364 60.3002C17.0256 60.3002 16.6136 60.0304 16.6136 59.519C16.6136 58.9863 17.0611 58.7235 17.6364 58.7235C18.2188 58.7235 18.6804 58.9934 18.6804 59.519C18.6804 60.0233 18.2543 60.3002 17.6364 60.3002ZM16.2727 56.4792V57.0616H15.6193V57.4806H16.2727V57.8926H16.6278V57.4806H18.3324C18.8082 57.4806 19.0355 57.0971 19.0355 56.742C19.0355 56.5858 19.0071 56.4863 18.9858 56.4295L18.6094 56.5147C18.6165 56.5502 18.6307 56.6071 18.6307 56.6994C18.6307 56.8841 18.5739 57.0616 18.2188 57.0616H16.6278V56.4792H16.2727Z" fill="#4D4D4D"/>
<path d="M39.6989 68.1193C41.4418 68.1193 42.6562 67.1009 42.6648 65.6818C42.6562 64.5781 41.919 63.6406 40.9773 63.4659V63.4148C41.7955 63.2017 42.3324 62.4006 42.3409 61.4716C42.3324 60.142 41.2159 59.1534 39.6989 59.1534C38.1648 59.1534 37.0483 60.142 37.0568 61.4716C37.0483 62.4006 37.5852 63.2017 38.4205 63.4148V63.4659C37.4616 63.6406 36.7244 64.5781 36.733 65.6818C36.7244 67.1009 37.9389 68.1193 39.6989 68.1193ZM39.6989 67.1818C38.5014 67.1818 37.7642 66.5682 37.7727 65.6307C37.7642 64.6463 38.5781 63.9432 39.6989 63.9432C40.8026 63.9432 41.6165 64.6463 41.625 65.6307C41.6165 66.5682 40.8793 67.1818 39.6989 67.1818ZM39.6989 63.0398C38.7443 63.0398 38.071 62.4432 38.0795 61.5398C38.071 60.6534 38.7188 60.0739 39.6989 60.0739C40.6619 60.0739 41.3097 60.6534 41.3182 61.5398C41.3097 62.4432 40.6364 63.0398 39.6989 63.0398ZM47.2468 68.1193C48.9386 68.1193 50.1957 67.0582 50.1957 65.6307C50.1957 64.5227 49.5394 63.7173 48.44 63.5341V63.4659C49.3221 63.1974 49.8718 62.473 49.8718 61.4886C49.8718 60.2528 48.896 59.1534 47.2809 59.1534C45.7724 59.1534 44.5195 60.0824 44.4684 61.4545H45.4911C45.5295 60.5852 46.3562 60.0739 47.2638 60.0739C48.2269 60.0739 48.8491 60.6577 48.8491 61.5398C48.8491 62.4602 48.1289 63.0568 47.0934 63.0568H46.3945V63.9943H47.0934C48.4187 63.9943 49.1559 64.6676 49.1559 65.6307C49.1559 66.5554 48.3505 67.1818 47.2298 67.1818C46.2198 67.1818 45.4187 66.6619 45.3548 65.8182H44.2809C44.3448 67.1903 45.555 68.1193 47.2468 68.1193ZM52.419 68.0682C52.8409 68.0682 53.1861 67.723 53.1861 67.3011C53.1861 66.8793 52.8409 66.5341 52.419 66.5341C51.9972 66.5341 51.652 66.8793 51.652 67.3011C51.652 67.723 51.9972 68.0682 52.419 68.0682ZM57.5252 68.1193C59.1871 68.1193 60.4059 66.892 60.4059 65.2216C60.4059 63.5298 59.2298 62.2898 57.6275 62.2898C57.0394 62.2898 56.4684 62.4986 56.1104 62.7841H56.0593L56.3661 60.2102H60.0138V59.2727H55.4798L54.9513 63.5682L55.94 63.6875C56.3022 63.4276 56.9201 63.2401 57.457 63.2443C58.5692 63.2528 59.3832 64.0966 59.3832 65.2386C59.3832 66.3594 58.5991 67.1818 57.5252 67.1818C56.6303 67.1818 55.9187 66.6065 55.8377 65.8182H54.815C54.8789 67.1477 56.0252 68.1193 57.5252 68.1193ZM70.6044 66.4318L71.2521 65.7841L69.1726 63.7045L71.2521 61.625L70.6044 60.9773L68.5249 63.0568L66.4453 60.9773L65.7976 61.625L67.8771 63.7045L65.7976 65.7841L66.4453 66.4318L68.5249 64.3523L70.6044 66.4318ZM79.5543 68.1193C81.2972 68.1193 82.5117 67.1009 82.5202 65.6818C82.5117 64.5781 81.7745 63.6406 80.8327 63.4659V63.4148C81.6509 63.2017 82.1879 62.4006 82.1964 61.4716C82.1879 60.142 81.0714 59.1534 79.5543 59.1534C78.0202 59.1534 76.9038 60.142 76.9123 61.4716C76.9038 62.4006 77.4407 63.2017 78.2759 63.4148V63.4659C77.3171 63.6406 76.5799 64.5781 76.5884 65.6818C76.5799 67.1009 77.7944 68.1193 79.5543 68.1193ZM79.5543 67.1818C78.3569 67.1818 77.6197 66.5682 77.6282 65.6307C77.6197 64.6463 78.4336 63.9432 79.5543 63.9432C80.658 63.9432 81.4719 64.6463 81.4805 65.6307C81.4719 66.5682 80.7347 67.1818 79.5543 67.1818ZM79.5543 63.0398C78.5998 63.0398 77.9265 62.4432 77.935 61.5398C77.9265 60.6534 78.5742 60.0739 79.5543 60.0739C80.5174 60.0739 81.1651 60.6534 81.1737 61.5398C81.1651 62.4432 80.4918 63.0398 79.5543 63.0398ZM87.1023 68.1193C88.794 68.1193 90.0511 67.0582 90.0511 65.6307C90.0511 64.5227 89.3949 63.7173 88.2955 63.5341V63.4659C89.1776 63.1974 89.7273 62.473 89.7273 61.4886C89.7273 60.2528 88.7514 59.1534 87.1364 59.1534C85.6278 59.1534 84.375 60.0824 84.3239 61.4545H85.3466C85.3849 60.5852 86.2116 60.0739 87.1193 60.0739C88.0824 60.0739 88.7045 60.6577 88.7045 61.5398C88.7045 62.4602 87.9844 63.0568 86.9489 63.0568H86.25V63.9943H86.9489C88.2741 63.9943 89.0114 64.6676 89.0114 65.6307C89.0114 66.5554 88.206 67.1818 87.0852 67.1818C86.0753 67.1818 85.2741 66.6619 85.2102 65.8182H84.1364C84.2003 67.1903 85.4105 68.1193 87.1023 68.1193ZM92.2745 68.0682C92.6964 68.0682 93.0415 67.723 93.0415 67.3011C93.0415 66.8793 92.6964 66.5341 92.2745 66.5341C91.8526 66.5341 91.5075 66.8793 91.5075 67.3011C91.5075 67.723 91.8526 68.0682 92.2745 68.0682ZM97.3807 68.1193C99.0426 68.1193 100.261 66.892 100.261 65.2216C100.261 63.5298 99.0852 62.2898 97.483 62.2898C96.8949 62.2898 96.3239 62.4986 95.9659 62.7841H95.9148L96.2216 60.2102H99.8693V59.2727H95.3352L94.8068 63.5682L95.7955 63.6875C96.1577 63.4276 96.7756 63.2401 97.3125 63.2443C98.4247 63.2528 99.2386 64.0966 99.2386 65.2386C99.2386 66.3594 98.4545 67.1818 97.3807 67.1818C96.4858 67.1818 95.7741 66.6065 95.6932 65.8182H94.6705C94.7344 67.1477 95.8807 68.1193 97.3807 68.1193Z" fill="black"/>
<defs>
<clipPath id="clip0">
<rect width="5" height="8" fill="white" transform="translate(13 24) rotate(-90)"/>
</clipPath>
</defs>
</svg>
