<svg width="128" height="128" viewBox="0 0 128 128" fill="none" xmlns="http://www.w3.org/2000/svg">
<rect x="19" y="19" width="90" height="90" fill="white"/>
<path d="M22.4731 24.9375C22.6617 24.9375 22.8136 25.0421 22.8136 25.172V27.828C22.8136 27.9579 22.6617 28.0625 22.4731 28.0625C22.3714 28.0625 22.2806 28.0321 22.2183 27.9837L20.2798 26.6638C20.2222 26.6218 20.1866 26.5654 20.1866 26.5031C20.1866 26.4407 20.2222 26.3843 20.2798 26.3423L22.2183 25.0163C22.2806 24.9679 22.3714 24.9375 22.4731 24.9375Z" fill="#555761"/>
<line x1="21" y1="26.5" x2="106" y2="26.5" stroke="#555761"/>
<path d="M28.0625 22.4731C28.0625 22.6617 27.9579 22.8136 27.828 22.8136H25.172C25.0421 22.8136 24.9375 22.6617 24.9375 22.4731C24.9375 22.3714 24.9679 22.2806 25.0163 22.2183L26.3362 20.2798C26.3782 20.2222 26.4346 20.1866 26.4969 20.1866C26.5593 20.1866 26.6157 20.2222 26.6577 20.2798L27.9837 22.2183C28.0321 22.2806 28.0625 22.3714 28.0625 22.4731Z" fill="#555761"/>
<line x1="26.5" y1="22" x2="26.5" y2="106" stroke="#555761"/>
<path d="M58.4901 24H58.9517L60.571 20.7756V20.3636H58.2415V20.7543H60.1165V20.7827L58.4901 24ZM62.3621 24.0497C63.0972 24.0586 63.5766 23.5046 63.5766 22.8281C63.5766 22.125 63.0564 21.6207 62.4331 21.6207C62.0585 21.6207 61.7371 21.8036 61.5383 22.1037H61.5099C61.5116 21.2177 61.8561 20.7045 62.4189 20.7045C62.8025 20.7045 63.0333 20.946 63.115 21.2727H63.5482C63.4594 20.7081 63.0297 20.3139 62.4189 20.3139C61.6004 20.3139 61.0979 21.0384 61.0979 22.3239C61.0979 23.668 61.7655 24.0426 62.3621 24.0497ZM62.3621 23.6591C61.9058 23.6591 61.572 23.2702 61.5738 22.8352C61.5756 22.4002 61.9253 22.0114 62.3763 22.0114C62.822 22.0114 63.1505 22.3771 63.1505 22.8281C63.1505 23.2898 62.8078 23.6591 62.3621 23.6591ZM65.6882 25.0227H66.1072V23.581H66.1428C66.2351 23.7301 66.4126 24.0568 66.9382 24.0568C67.62 24.0568 68.0959 23.5099 68.0959 22.6435C68.0959 21.7841 67.62 21.2372 66.9311 21.2372C66.3984 21.2372 66.2351 21.5639 66.1428 21.706H66.093V21.2727H65.6882V25.0227ZM66.1001 22.6364C66.1001 22.0256 66.37 21.6136 66.8814 21.6136C67.4141 21.6136 67.6768 22.0611 67.6768 22.6364C67.6768 23.2188 67.407 23.6804 66.8814 23.6804C66.3771 23.6804 66.1001 23.2543 66.1001 22.6364ZM69.9212 21.2727H69.3388V20.6193H68.9197V21.2727H68.5078V21.6278H68.9197V23.3324C68.9197 23.8082 69.3033 24.0355 69.6584 24.0355C69.8146 24.0355 69.9141 24.0071 69.9709 23.9858L69.8857 23.6094C69.8501 23.6165 69.7933 23.6307 69.701 23.6307C69.5163 23.6307 69.3388 23.5739 69.3388 23.2188V21.6278H69.9212V21.2727Z" fill="black"/>
<path d="M24 72.5099V72.0483L20.7756 70.429H20.3636V72.7585H20.7543V70.8835H20.7827L24 72.5099ZM24.0497 68.6379C24.0586 67.9028 23.5046 67.4234 22.8281 67.4234C22.125 67.4234 21.6207 67.9436 21.6207 68.5669C21.6207 68.9415 21.8036 69.2629 22.1037 69.4617V69.4901C21.2177 69.4884 20.7045 69.1439 20.7045 68.5811C20.7045 68.1975 20.946 67.9667 21.2727 67.885V67.4518C20.7081 67.5406 20.3139 67.9703 20.3139 68.5811C20.3139 69.3996 21.0384 69.9021 22.3239 69.9021C23.668 69.9021 24.0426 69.2345 24.0497 68.6379ZM23.6591 68.6379C23.6591 69.0942 23.2702 69.428 22.8352 69.4262C22.4002 69.4244 22.0114 69.0747 22.0114 68.6237C22.0114 68.178 22.3771 67.8495 22.8281 67.8495C23.2898 67.8495 23.6591 68.1922 23.6591 68.6379ZM25.0227 65.3118V64.8928H23.581V64.8572C23.7301 64.7649 24.0568 64.5874 24.0568 64.0618C24.0568 63.38 23.5099 62.9041 22.6435 62.9041C21.7841 62.9041 21.2372 63.38 21.2372 64.0689C21.2372 64.6016 21.5639 64.7649 21.706 64.8572V64.907H21.2727V65.3118H25.0227ZM22.6364 64.8999C22.0256 64.8999 21.6136 64.63 21.6136 64.1186C21.6136 63.5859 22.0611 63.3232 22.6364 63.3232C23.2188 63.3232 23.6804 63.593 23.6804 64.1186C23.6804 64.6229 23.2543 64.8999 22.6364 64.8999ZM21.2727 61.0788V61.6612H20.6193V62.0803H21.2727V62.4922H21.6278V62.0803H23.3324C23.8082 62.0803 24.0355 61.6967 24.0355 61.3416C24.0355 61.1854 24.0071 61.0859 23.9858 61.0291L23.6094 61.1143C23.6165 61.1499 23.6307 61.2067 23.6307 61.299C23.6307 61.4837 23.5739 61.6612 23.2188 61.6612H21.6278V61.0788H21.2727Z" fill="black"/>
<path d="M47.1761 68H48.2841L52.1705 60.2614V59.2727H46.5795V60.2102H51.0795V60.2784L47.1761 68ZM56.4691 68.1193C58.2333 68.1406 59.3839 66.8111 59.3839 65.1875C59.3839 63.5 58.1353 62.2898 56.6396 62.2898C55.7404 62.2898 54.9691 62.7287 54.4918 63.4489H54.4237C54.4279 61.3224 55.2546 60.0909 56.6055 60.0909C57.5259 60.0909 58.0799 60.6705 58.2759 61.4545H59.3157C59.1026 60.0994 58.0714 59.1534 56.6055 59.1534C54.641 59.1534 53.435 60.892 53.435 63.9773C53.435 67.2031 55.0373 68.1023 56.4691 68.1193ZM56.4691 67.1818C55.3739 67.1818 54.5728 66.2486 54.5771 65.2045C54.5813 64.1605 55.4208 63.2273 56.5032 63.2273C57.5728 63.2273 58.3612 64.1051 58.3612 65.1875C58.3612 66.2955 57.5387 67.1818 56.4691 67.1818ZM69.5653 66.4318L70.2131 65.7841L68.1335 63.7045L70.2131 61.625L69.5653 60.9773L67.4858 63.0568L65.4062 60.9773L64.7585 61.625L66.8381 63.7045L64.7585 65.7841L65.4062 66.4318L67.4858 64.3523L69.5653 66.4318ZM75.9925 68H77.1005L80.9869 60.2614V59.2727H75.396V60.2102H79.896V60.2784L75.9925 68ZM85.2855 68.1193C87.0497 68.1406 88.2003 66.8111 88.2003 65.1875C88.2003 63.5 86.9517 62.2898 85.456 62.2898C84.5568 62.2898 83.7855 62.7287 83.3082 63.4489H83.2401C83.2443 61.3224 84.071 60.0909 85.4219 60.0909C86.3423 60.0909 86.8963 60.6705 87.0923 61.4545H88.1321C87.919 60.0994 86.8878 59.1534 85.4219 59.1534C83.4574 59.1534 82.2514 60.892 82.2514 63.9773C82.2514 67.2031 83.8537 68.1023 85.2855 68.1193ZM85.2855 67.1818C84.1903 67.1818 83.3892 66.2486 83.3935 65.2045C83.3977 64.1605 84.2372 63.2273 85.3196 63.2273C86.3892 63.2273 87.1776 64.1051 87.1776 65.1875C87.1776 66.2955 86.3551 67.1818 85.2855 67.1818Z" fill="black"/>
</svg>
