<svg width="128" height="128" viewBox="0 0 128 128" fill="none" xmlns="http://www.w3.org/2000/svg">
<rect x="19" y="19" width="90" height="90" fill="white"/>
<path d="M22.4731 24.9375C22.6617 24.9375 22.8136 25.0421 22.8136 25.172V27.828C22.8136 27.9579 22.6617 28.0625 22.4731 28.0625C22.3714 28.0625 22.2806 28.0321 22.2183 27.9837L20.2798 26.6638C20.2222 26.6218 20.1866 26.5654 20.1866 26.5031C20.1866 26.4407 20.2222 26.3843 20.2798 26.3423L22.2183 25.0163C22.2806 24.9679 22.3714 24.9375 22.4731 24.9375Z" fill="#555761"/>
<line x1="21" y1="26.5" x2="106" y2="26.5" stroke="#555761"/>
<path d="M28.0625 22.4731C28.0625 22.6617 27.9579 22.8136 27.828 22.8136H25.172C25.0421 22.8136 24.9375 22.6617 24.9375 22.4731C24.9375 22.3714 24.9679 22.2806 25.0163 22.2183L26.3362 20.2798C26.3782 20.2222 26.4346 20.1866 26.4969 20.1866C26.5593 20.1866 26.6157 20.2222 26.6577 20.2798L27.9837 22.2183C28.0321 22.2806 28.0625 22.3714 28.0625 22.4731Z" fill="#555761"/>
<line x1="26.5" y1="22" x2="26.5" y2="106" stroke="#555761"/>
<path d="M58.3764 24H60.6705V23.6094H58.9801V23.581L59.7969 22.7074C60.4219 22.038 60.6065 21.7255 60.6065 21.3224C60.6065 20.7614 60.152 20.3139 59.5128 20.3139C58.8754 20.3139 58.3906 20.7472 58.3906 21.3864H58.8097C58.8097 20.9727 59.0778 20.6974 59.4986 20.6974C59.8928 20.6974 60.1946 20.9389 60.1946 21.3224C60.1946 21.658 59.9975 21.9066 59.5767 22.3665L58.3764 23.6804V24ZM62.5614 20.3139C61.8228 20.305 61.3469 20.8608 61.3469 21.5284C61.3469 22.2315 61.8654 22.7358 62.4904 22.7358C62.8668 22.7358 63.1864 22.5511 63.3853 22.2528H63.4137C63.4137 23.1477 63.0657 23.6591 62.5046 23.6591C62.1211 23.6591 61.8867 23.4176 61.8086 23.0838H61.3754C61.4606 23.6591 61.8938 24.0497 62.5046 24.0497C63.3214 24.0497 63.8256 23.3253 63.8256 22.0327C63.8256 20.6974 63.158 20.321 62.5614 20.3139ZM62.5614 20.7045C63.016 20.7045 63.3498 21.0952 63.3498 21.5213C63.3498 21.9545 62.9947 22.3452 62.5472 22.3452C62.0998 22.3452 61.7731 21.983 61.7731 21.5284C61.7731 21.0739 62.114 20.7045 62.5614 20.7045ZM65.9372 25.0227H66.3563V23.581H66.3918C66.4841 23.7301 66.6617 24.0568 67.1872 24.0568C67.8691 24.0568 68.3449 23.5099 68.3449 22.6435C68.3449 21.7841 67.8691 21.2372 67.1801 21.2372C66.6475 21.2372 66.4841 21.5639 66.3918 21.706H66.3421V21.2727H65.9372V25.0227ZM66.3492 22.6364C66.3492 22.0256 66.6191 21.6136 67.1304 21.6136C67.6631 21.6136 67.9259 22.0611 67.9259 22.6364C67.9259 23.2188 67.656 23.6804 67.1304 23.6804C66.6262 23.6804 66.3492 23.2543 66.3492 22.6364ZM70.1702 21.2727H69.5878V20.6193H69.1688V21.2727H68.7568V21.6278H69.1688V23.3324C69.1688 23.8082 69.5523 24.0355 69.9074 24.0355C70.0637 24.0355 70.1631 24.0071 70.2199 23.9858L70.1347 23.6094C70.0992 23.6165 70.0423 23.6307 69.95 23.6307C69.7654 23.6307 69.5878 23.5739 69.5878 23.2188V21.6278H70.1702V21.2727Z" fill="black"/>
<path d="M24 72.6236V70.3295H23.6094V72.0199H23.581L22.7074 71.2031C22.038 70.5781 21.7255 70.3935 21.3224 70.3935C20.7614 70.3935 20.3139 70.848 20.3139 71.4872C20.3139 72.1246 20.7472 72.6094 21.3864 72.6094V72.1903C20.9727 72.1903 20.6974 71.9222 20.6974 71.5014C20.6974 71.1072 20.9389 70.8054 21.3224 70.8054C21.658 70.8054 21.9066 71.0025 22.3665 71.4233L23.6804 72.6236H24ZM20.3139 68.4386C20.305 69.1772 20.8608 69.6531 21.5284 69.6531C22.2315 69.6531 22.7358 69.1346 22.7358 68.5096C22.7358 68.1332 22.5511 67.8136 22.2528 67.6147V67.5863C23.1477 67.5863 23.6591 67.9343 23.6591 68.4954C23.6591 68.8789 23.4176 69.1133 23.0838 69.1914V69.6246C23.6591 69.5394 24.0497 69.1062 24.0497 68.4954C24.0497 67.6786 23.3253 67.1744 22.0327 67.1744C20.6974 67.1744 20.321 67.842 20.3139 68.4386ZM20.7045 68.4386C20.7045 67.984 21.0952 67.6502 21.5213 67.6502C21.9545 67.6502 22.3452 68.0053 22.3452 68.4528C22.3452 68.9002 21.983 69.2269 21.5284 69.2269C21.0739 69.2269 20.7045 68.886 20.7045 68.4386ZM25.0227 65.0628V64.6437H23.581V64.6082C23.7301 64.5159 24.0568 64.3383 24.0568 63.8128C24.0568 63.1309 23.5099 62.6551 22.6435 62.6551C21.7841 62.6551 21.2372 63.1309 21.2372 63.8199C21.2372 64.3525 21.5639 64.5159 21.706 64.6082V64.6579H21.2727V65.0628H25.0227ZM22.6364 64.6508C22.0256 64.6508 21.6136 64.3809 21.6136 63.8696C21.6136 63.3369 22.0611 63.0741 22.6364 63.0741C23.2188 63.0741 23.6804 63.344 23.6804 63.8696C23.6804 64.3738 23.2543 64.6508 22.6364 64.6508ZM21.2727 60.8298V61.4122H20.6193V61.8312H21.2727V62.2432H21.6278V61.8312H23.3324C23.8082 61.8312 24.0355 61.4477 24.0355 61.0926C24.0355 60.9363 24.0071 60.8369 23.9858 60.7801L23.6094 60.8653C23.6165 60.9008 23.6307 60.9577 23.6307 61.05C23.6307 61.2346 23.5739 61.4122 23.2188 61.4122H21.6278V60.8298H21.2727Z" fill="black"/>
<path d="M46.9034 68H52.4091V67.0625H48.3523V66.9943L50.3125 64.8977C51.8125 63.2912 52.2557 62.5412 52.2557 61.5739C52.2557 60.2273 51.1648 59.1534 49.6307 59.1534C48.1009 59.1534 46.9375 60.1932 46.9375 61.7273H47.9432C47.9432 60.7344 48.5866 60.0739 49.5966 60.0739C50.5426 60.0739 51.267 60.6534 51.267 61.5739C51.267 62.3793 50.794 62.9759 49.7841 64.0795L46.9034 67.233V68ZM56.9474 59.1534C55.1747 59.1321 54.0327 60.4659 54.0327 62.0682C54.0327 63.7557 55.277 64.9659 56.777 64.9659C57.6804 64.9659 58.4474 64.5227 58.9247 63.8068H58.9929C58.9929 65.9545 58.1577 67.1818 56.8111 67.1818C55.8906 67.1818 55.3281 66.6023 55.1406 65.8011H54.1009C54.3054 67.1818 55.3452 68.1193 56.8111 68.1193C58.7713 68.1193 59.9815 66.3807 59.9815 63.2784C59.9815 60.0739 58.3793 59.1705 56.9474 59.1534ZM56.9474 60.0909C58.0384 60.0909 58.8395 61.0284 58.8395 62.0511C58.8395 63.0909 57.9872 64.0284 56.9134 64.0284C55.8395 64.0284 55.0554 63.1591 55.0554 62.0682C55.0554 60.9773 55.8736 60.0909 56.9474 60.0909ZM70.163 66.4318L70.8107 65.7841L68.7312 63.7045L70.8107 61.625L70.163 60.9773L68.0835 63.0568L66.0039 60.9773L65.3562 61.625L67.4357 63.7045L65.3562 65.7841L66.0039 66.4318L68.0835 64.3523L70.163 66.4318ZM76.3175 68H81.8232V67.0625H77.7663V66.9943L79.7266 64.8977C81.2266 63.2912 81.6697 62.5412 81.6697 61.5739C81.6697 60.2273 80.5788 59.1534 79.0447 59.1534C77.5149 59.1534 76.3516 60.1932 76.3516 61.7273H77.3572C77.3572 60.7344 78.0007 60.0739 79.0107 60.0739C79.9567 60.0739 80.6811 60.6534 80.6811 61.5739C80.6811 62.3793 80.2081 62.9759 79.1982 64.0795L76.3175 67.233V68ZM86.3615 59.1534C84.5888 59.1321 83.4467 60.4659 83.4467 62.0682C83.4467 63.7557 84.6911 64.9659 86.1911 64.9659C87.0945 64.9659 87.8615 64.5227 88.3388 63.8068H88.407C88.407 65.9545 87.5717 67.1818 86.2251 67.1818C85.3047 67.1818 84.7422 66.6023 84.5547 65.8011H83.5149C83.7195 67.1818 84.7592 68.1193 86.2251 68.1193C88.1854 68.1193 89.3956 66.3807 89.3956 63.2784C89.3956 60.0739 87.7933 59.1705 86.3615 59.1534ZM86.3615 60.0909C87.4524 60.0909 88.2536 61.0284 88.2536 62.0511C88.2536 63.0909 87.4013 64.0284 86.3274 64.0284C85.2536 64.0284 84.4695 63.1591 84.4695 62.0682C84.4695 60.9773 85.2876 60.0909 86.3615 60.0909Z" fill="black"/>
</svg>
