<svg width="128" height="128" viewBox="0 0 128 128" fill="none" xmlns="http://www.w3.org/2000/svg">
<rect x="24" y="24" width="80" height="80" fill="white"/>
<path d="M33.0625 27.1121C33.0625 27.3277 32.9579 27.5012 32.828 27.5012H30.172C30.0421 27.5012 29.9375 27.3277 29.9375 27.1121C29.9375 26.9959 29.9679 26.8921 30.0163 26.8209L31.3362 24.6054C31.3782 24.5396 31.4346 24.499 31.4969 24.499C31.5593 24.499 31.6157 24.5396 31.6577 24.6054L32.9837 26.8209C33.0321 26.8921 33.0625 26.9959 33.0625 27.1121Z" fill="#555761"/>
<line x1="31.5" y1="26" x2="31.5" y2="101" stroke="#555761"/>
<g clip-path="url(#clip0)">
<path d="M27.1121 29.9375C27.3277 29.9375 27.5012 30.0421 27.5012 30.172V32.828C27.5012 32.9579 27.3277 33.0625 27.1121 33.0625C26.9959 33.0625 26.8921 33.0321 26.8209 32.9837L24.6054 31.6638C24.5396 31.6218 24.499 31.5654 24.499 31.5031C24.499 31.4407 24.5396 31.3843 24.6054 31.3423L26.8209 30.0163C26.8921 29.9679 26.9959 29.9375 27.1121 29.9375Z" fill="#555761"/>
</g>
<line x1="26" y1="31.5" x2="101" y2="31.5" stroke="#555761"/>
<path d="M60.5838 29.0497C61.3189 29.0586 61.7983 28.5046 61.7983 27.8281C61.7983 27.125 61.2781 26.6207 60.6548 26.6207C60.2802 26.6207 59.9588 26.8036 59.7599 27.1037H59.7315C59.7333 26.2177 60.0778 25.7045 60.6406 25.7045C61.0241 25.7045 61.255 25.946 61.3366 26.2727H61.7699C61.6811 25.7081 61.2514 25.3139 60.6406 25.3139C59.8221 25.3139 59.3196 26.0384 59.3196 27.3239C59.3196 28.668 59.9872 29.0426 60.5838 29.0497ZM60.5838 28.6591C60.1275 28.6591 59.7937 28.2702 59.7955 27.8352C59.7972 27.4002 60.147 27.0114 60.598 27.0114C61.0437 27.0114 61.3722 27.3771 61.3722 27.8281C61.3722 28.2898 61.0295 28.6591 60.5838 28.6591ZM63.6826 29.0497C64.4852 29.0497 64.9468 28.3697 64.9468 27.1818C64.9468 26.0028 64.4781 25.3139 63.6826 25.3139C62.8872 25.3139 62.4184 26.0028 62.4184 27.1818C62.4184 28.3697 62.8801 29.0497 63.6826 29.0497ZM63.6826 28.6591C63.1535 28.6591 62.8445 28.1282 62.8445 27.1818C62.8445 26.2372 63.157 25.6974 63.6826 25.6974C64.2082 25.6974 64.5207 26.2372 64.5207 27.1818C64.5207 28.1282 64.2117 28.6591 63.6826 28.6591ZM67.0349 30.0227H67.4539V28.581H67.4894C67.5818 28.7301 67.7593 29.0568 68.2849 29.0568C68.9667 29.0568 69.4426 28.5099 69.4426 27.6435C69.4426 26.7841 68.9667 26.2372 68.2778 26.2372C67.7451 26.2372 67.5818 26.5639 67.4894 26.706H67.4397V26.2727H67.0349V30.0227ZM67.4468 27.6364C67.4468 27.0256 67.7167 26.6136 68.2281 26.6136C68.7607 26.6136 69.0235 27.0611 69.0235 27.6364C69.0235 28.2188 68.7536 28.6804 68.2281 28.6804C67.7238 28.6804 67.4468 28.2543 67.4468 27.6364ZM71.2678 26.2727H70.6855V25.6193H70.2664V26.2727H69.8545V26.6278H70.2664V28.3324C70.2664 28.8082 70.6499 29.0355 71.0051 29.0355C71.1613 29.0355 71.2607 29.0071 71.3176 28.9858L71.2323 28.6094C71.1968 28.6165 71.14 28.6307 71.0477 28.6307C70.863 28.6307 70.6855 28.5739 70.6855 28.2188V26.6278H71.2678V26.2727Z" fill="#4D4D4D"/>
<path d="M29.0497 71.4162C29.0586 70.6811 28.5046 70.2017 27.8281 70.2017C27.125 70.2017 26.6207 70.7219 26.6207 71.3452C26.6207 71.7198 26.8036 72.0412 27.1037 72.2401V72.2685C26.2177 72.2667 25.7045 71.9222 25.7045 71.3594C25.7045 70.9759 25.946 70.745 26.2727 70.6634V70.2301C25.7081 70.3189 25.3139 70.7486 25.3139 71.3594C25.3139 72.1779 26.0384 72.6804 27.3239 72.6804C28.668 72.6804 29.0426 72.0128 29.0497 71.4162ZM28.6591 71.4162C28.6591 71.8725 28.2702 72.2063 27.8352 72.2045C27.4002 72.2028 27.0114 71.853 27.0114 71.402C27.0114 70.9563 27.3771 70.6278 27.8281 70.6278C28.2898 70.6278 28.6591 70.9705 28.6591 71.4162ZM29.0497 68.3174C29.0497 67.5148 28.3697 67.0532 27.1818 67.0532C26.0028 67.0532 25.3139 67.5219 25.3139 68.3174C25.3139 69.1128 26.0028 69.5816 27.1818 69.5816C28.3697 69.5816 29.0497 69.1199 29.0497 68.3174ZM28.6591 68.3174C28.6591 68.8465 28.1282 69.1555 27.1818 69.1555C26.2372 69.1555 25.6974 68.843 25.6974 68.3174C25.6974 67.7918 26.2372 67.4793 27.1818 67.4793C28.1282 67.4793 28.6591 67.7883 28.6591 68.3174ZM30.0227 64.9651V64.5461H28.581V64.5106C28.7301 64.4182 29.0568 64.2407 29.0568 63.7151C29.0568 63.0333 28.5099 62.5574 27.6435 62.5574C26.7841 62.5574 26.2372 63.0333 26.2372 63.7222C26.2372 64.2549 26.5639 64.4182 26.706 64.5106V64.5603H26.2727V64.9651H30.0227ZM27.6364 64.5532C27.0256 64.5532 26.6136 64.2833 26.6136 63.7719C26.6136 63.2393 27.0611 62.9765 27.6364 62.9765C28.2188 62.9765 28.6804 63.2464 28.6804 63.7719C28.6804 64.2762 28.2543 64.5532 27.6364 64.5532ZM26.2727 60.7322V61.3145H25.6193V61.7336H26.2727V62.1455H26.6278V61.7336H28.3324C28.8082 61.7336 29.0355 61.3501 29.0355 60.9949C29.0355 60.8387 29.0071 60.7393 28.9858 60.6824L28.6094 60.7677C28.6165 60.8032 28.6307 60.86 28.6307 60.9523C28.6307 61.137 28.5739 61.3145 28.2188 61.3145H26.6278V60.7322H26.2727Z" fill="#4D4D4D"/>
<path d="M49.8011 70.1193C51.5653 70.1406 52.7159 68.8111 52.7159 67.1875C52.7159 65.5 51.4673 64.2898 49.9716 64.2898C49.0724 64.2898 48.3011 64.7287 47.8239 65.4489H47.7557C47.7599 63.3224 48.5866 62.0909 49.9375 62.0909C50.858 62.0909 51.4119 62.6705 51.608 63.4545H52.6477C52.4347 62.0994 51.4034 61.1534 49.9375 61.1534C47.973 61.1534 46.767 62.892 46.767 65.9773C46.767 69.2031 48.3693 70.1023 49.8011 70.1193ZM49.8011 69.1818C48.706 69.1818 47.9048 68.2486 47.9091 67.2045C47.9134 66.1605 48.7528 65.2273 49.8352 65.2273C50.9048 65.2273 51.6932 66.1051 51.6932 67.1875C51.6932 68.2955 50.8707 69.1818 49.8011 69.1818ZM57.2383 70.1193C59.1644 70.1193 60.2724 68.4872 60.2724 65.6364C60.2724 62.8068 59.1474 61.1534 57.2383 61.1534C55.3292 61.1534 54.2042 62.8068 54.2042 65.6364C54.2042 68.4872 55.3121 70.1193 57.2383 70.1193ZM57.2383 69.1818C55.9684 69.1818 55.2269 67.9077 55.2269 65.6364C55.2269 63.3693 55.9769 62.0739 57.2383 62.0739C58.4996 62.0739 59.2496 63.3693 59.2496 65.6364C59.2496 67.9077 58.5082 69.1818 57.2383 69.1818ZM70.3974 68.4318L71.0451 67.7841L68.9656 65.7045L71.0451 63.625L70.3974 62.9773L68.3178 65.0568L66.2383 62.9773L65.5906 63.625L67.6701 65.7045L65.5906 67.7841L66.2383 68.4318L68.3178 66.3523L70.3974 68.4318ZM79.4496 70.1193C81.2138 70.1406 82.3643 68.8111 82.3643 67.1875C82.3643 65.5 81.1158 64.2898 79.62 64.2898C78.7209 64.2898 77.9496 64.7287 77.4723 65.4489H77.4041C77.4084 63.3224 78.2351 62.0909 79.5859 62.0909C80.5064 62.0909 81.0604 62.6705 81.2564 63.4545H82.2962C82.0831 62.0994 81.0518 61.1534 79.5859 61.1534C77.6214 61.1534 76.4155 62.892 76.4155 65.9773C76.4155 69.2031 78.0178 70.1023 79.4496 70.1193ZM79.4496 69.1818C78.3544 69.1818 77.5533 68.2486 77.5575 67.2045C77.5618 66.1605 78.4013 65.2273 79.4837 65.2273C80.5533 65.2273 81.3416 66.1051 81.3416 67.1875C81.3416 68.2955 80.5192 69.1818 79.4496 69.1818ZM86.8867 70.1193C88.8129 70.1193 89.9208 68.4872 89.9208 65.6364C89.9208 62.8068 88.7958 61.1534 86.8867 61.1534C84.9776 61.1534 83.8526 62.8068 83.8526 65.6364C83.8526 68.4872 84.9606 70.1193 86.8867 70.1193ZM86.8867 69.1818C85.6168 69.1818 84.8754 67.9077 84.8754 65.6364C84.8754 63.3693 85.6254 62.0739 86.8867 62.0739C88.1481 62.0739 88.8981 63.3693 88.8981 65.6364C88.8981 67.9077 88.1566 69.1818 86.8867 69.1818Z" fill="black"/>
<defs>
<clipPath id="clip0">
<rect width="5" height="8" fill="white" transform="translate(22 34) rotate(-90)"/>
</clipPath>
</defs>
</svg>
