<svg width="128" height="128" viewBox="0 0 128 128" fill="none" xmlns="http://www.w3.org/2000/svg">
<rect x="24" y="24" width="80" height="80" fill="white"/>
<path d="M33.0625 27.1121C33.0625 27.3277 32.9579 27.5012 32.828 27.5012H30.172C30.0421 27.5012 29.9375 27.3277 29.9375 27.1121C29.9375 26.9959 29.9679 26.8921 30.0163 26.8209L31.3362 24.6054C31.3782 24.5396 31.4346 24.499 31.4969 24.499C31.5593 24.499 31.6157 24.5396 31.6577 24.6054L32.9837 26.8209C33.0321 26.8921 33.0625 26.9959 33.0625 27.1121Z" fill="#555761"/>
<line x1="31.5" y1="26" x2="31.5" y2="101" stroke="#555761"/>
<g clip-path="url(#clip0)">
<path d="M27.1121 29.9375C27.3277 29.9375 27.5012 30.0421 27.5012 30.172V32.828C27.5012 32.9579 27.3277 33.0625 27.1121 33.0625C26.9959 33.0625 26.8921 33.0321 26.8209 32.9837L24.6054 31.6638C24.5396 31.6218 24.499 31.5654 24.499 31.5031C24.499 31.4407 24.5396 31.3843 24.6054 31.3423L26.8209 30.0163C26.8921 29.9679 26.9959 29.9375 27.1121 29.9375Z" fill="#555761"/>
</g>
<line x1="26" y1="31.5" x2="101" y2="31.5" stroke="#555761"/>
<path d="M59.3764 29H61.6705V28.6094H59.9801V28.581L60.7969 27.7074C61.4219 27.038 61.6065 26.7255 61.6065 26.3224C61.6065 25.7614 61.152 25.3139 60.5128 25.3139C59.8754 25.3139 59.3906 25.7472 59.3906 26.3864H59.8097C59.8097 25.9727 60.0778 25.6974 60.4986 25.6974C60.8928 25.6974 61.1946 25.9389 61.1946 26.3224C61.1946 26.658 60.9975 26.9066 60.5767 27.3665L59.3764 28.6804V29ZM63.5898 29.0497C64.3924 29.0497 64.854 28.3697 64.854 27.1818C64.854 26.0028 64.3853 25.3139 63.5898 25.3139C62.7944 25.3139 62.3256 26.0028 62.3256 27.1818C62.3256 28.3697 62.7873 29.0497 63.5898 29.0497ZM63.5898 28.6591C63.0607 28.6591 62.7518 28.1282 62.7518 27.1818C62.7518 26.2372 63.0643 25.6974 63.5898 25.6974C64.1154 25.6974 64.4279 26.2372 64.4279 27.1818C64.4279 28.1282 64.119 28.6591 63.5898 28.6591ZM66.9421 30.0227H67.3612V28.581H67.3967C67.489 28.7301 67.6665 29.0568 68.1921 29.0568C68.8739 29.0568 69.3498 28.5099 69.3498 27.6435C69.3498 26.7841 68.8739 26.2372 68.185 26.2372C67.6523 26.2372 67.489 26.5639 67.3967 26.706H67.3469V26.2727H66.9421V30.0227ZM67.354 27.6364C67.354 27.0256 67.6239 26.6136 68.1353 26.6136C68.668 26.6136 68.9308 27.0611 68.9308 27.6364C68.9308 28.2188 68.6609 28.6804 68.1353 28.6804C67.631 28.6804 67.354 28.2543 67.354 27.6364ZM71.1751 26.2727H70.5927V25.6193H70.1737V26.2727H69.7617V26.6278H70.1737V28.3324C70.1737 28.8082 70.5572 29.0355 70.9123 29.0355C71.0685 29.0355 71.168 29.0071 71.2248 28.9858L71.1396 28.6094C71.104 28.6165 71.0472 28.6307 70.9549 28.6307C70.7702 28.6307 70.5927 28.5739 70.5927 28.2188V26.6278H71.1751V26.2727Z" fill="#4D4D4D"/>
<path d="M29 72.6236V70.3295H28.6094V72.0199H28.581L27.7074 71.2031C27.038 70.5781 26.7255 70.3935 26.3224 70.3935C25.7614 70.3935 25.3139 70.848 25.3139 71.4872C25.3139 72.1246 25.7472 72.6094 26.3864 72.6094V72.1903C25.9727 72.1903 25.6974 71.9222 25.6974 71.5014C25.6974 71.1072 25.9389 70.8054 26.3224 70.8054C26.658 70.8054 26.9066 71.0025 27.3665 71.4233L28.6804 72.6236H29ZM29.0497 68.4102C29.0497 67.6076 28.3697 67.146 27.1818 67.146C26.0028 67.146 25.3139 67.6147 25.3139 68.4102C25.3139 69.2056 26.0028 69.6744 27.1818 69.6744C28.3697 69.6744 29.0497 69.2127 29.0497 68.4102ZM28.6591 68.4102C28.6591 68.9393 28.1282 69.2482 27.1818 69.2482C26.2372 69.2482 25.6974 68.9357 25.6974 68.4102C25.6974 67.8846 26.2372 67.5721 27.1818 67.5721C28.1282 67.5721 28.6591 67.881 28.6591 68.4102ZM30.0227 65.0579V64.6388H28.581V64.6033C28.7301 64.511 29.0568 64.3335 29.0568 63.8079C29.0568 63.1261 28.5099 62.6502 27.6435 62.6502C26.7841 62.6502 26.2372 63.1261 26.2372 63.815C26.2372 64.3477 26.5639 64.511 26.706 64.6033V64.6531H26.2727V65.0579H30.0227ZM27.6364 64.646C27.0256 64.646 26.6136 64.3761 26.6136 63.8647C26.6136 63.332 27.0611 63.0692 27.6364 63.0692C28.2188 63.0692 28.6804 63.3391 28.6804 63.8647C28.6804 64.369 28.2543 64.646 27.6364 64.646ZM26.2727 60.8249V61.4073H25.6193V61.8263H26.2727V62.2383H26.6278V61.8263H28.3324C28.8082 61.8263 29.0355 61.4428 29.0355 61.0877C29.0355 60.9315 29.0071 60.832 28.9858 60.7752L28.6094 60.8604C28.6165 60.896 28.6307 60.9528 28.6307 61.0451C28.6307 61.2298 28.5739 61.4073 28.2188 61.4073H26.6278V60.8249H26.2727Z" fill="#4D4D4D"/>
<path d="M46.9034 70H52.4091V69.0625H48.3523V68.9943L50.3125 66.8977C51.8125 65.2912 52.2557 64.5412 52.2557 63.5739C52.2557 62.2273 51.1648 61.1534 49.6307 61.1534C48.1009 61.1534 46.9375 62.1932 46.9375 63.7273H47.9432C47.9432 62.7344 48.5866 62.0739 49.5966 62.0739C50.5426 62.0739 51.267 62.6534 51.267 63.5739C51.267 64.3793 50.794 64.9759 49.7841 66.0795L46.9034 69.233V70ZM57.0156 70.1193C58.9418 70.1193 60.0497 68.4872 60.0497 65.6364C60.0497 62.8068 58.9247 61.1534 57.0156 61.1534C55.1065 61.1534 53.9815 62.8068 53.9815 65.6364C53.9815 68.4872 55.0895 70.1193 57.0156 70.1193ZM57.0156 69.1818C55.7457 69.1818 55.0043 67.9077 55.0043 65.6364C55.0043 63.3693 55.7543 62.0739 57.0156 62.0739C58.277 62.0739 59.027 63.3693 59.027 65.6364C59.027 67.9077 58.2855 69.1818 57.0156 69.1818ZM70.1747 68.4318L70.8224 67.7841L68.7429 65.7045L70.8224 63.625L70.1747 62.9773L68.0952 65.0568L66.0156 62.9773L65.3679 63.625L67.4474 65.7045L65.3679 67.7841L66.0156 68.4318L68.0952 66.3523L70.1747 68.4318ZM76.3292 70H81.8349V69.0625H77.7781V68.9943L79.7383 66.8977C81.2383 65.2912 81.6815 64.5412 81.6815 63.5739C81.6815 62.2273 80.5906 61.1534 79.0565 61.1534C77.5266 61.1534 76.3633 62.1932 76.3633 63.7273H77.369C77.369 62.7344 78.0124 62.0739 79.0224 62.0739C79.9684 62.0739 80.6928 62.6534 80.6928 63.5739C80.6928 64.3793 80.2198 64.9759 79.2099 66.0795L76.3292 69.233V70ZM86.4414 70.1193C88.3675 70.1193 89.4755 68.4872 89.4755 65.6364C89.4755 62.8068 88.3505 61.1534 86.4414 61.1534C84.5323 61.1534 83.4073 62.8068 83.4073 65.6364C83.4073 68.4872 84.5153 70.1193 86.4414 70.1193ZM86.4414 69.1818C85.1715 69.1818 84.43 67.9077 84.43 65.6364C84.43 63.3693 85.18 62.0739 86.4414 62.0739C87.7028 62.0739 88.4528 63.3693 88.4528 65.6364C88.4528 67.9077 87.7113 69.1818 86.4414 69.1818Z" fill="black"/>
<defs>
<clipPath id="clip0">
<rect width="5" height="8" fill="white" transform="translate(22 34) rotate(-90)"/>
</clipPath>
</defs>
</svg>
