<svg width="128" height="128" viewBox="0 0 128 128" fill="none" xmlns="http://www.w3.org/2000/svg">
<rect x="24" y="24" width="80" height="80" fill="white"/>
<path d="M33.0625 27.1121C33.0625 27.3277 32.9579 27.5012 32.828 27.5012H30.172C30.0421 27.5012 29.9375 27.3277 29.9375 27.1121C29.9375 26.9959 29.9679 26.8921 30.0163 26.8209L31.3362 24.6054C31.3782 24.5396 31.4346 24.499 31.4969 24.499C31.5593 24.499 31.6157 24.5396 31.6577 24.6054L32.9837 26.8209C33.0321 26.8921 33.0625 26.9959 33.0625 27.1121Z" fill="#555761"/>
<line x1="31.5" y1="26" x2="31.5" y2="101" stroke="#555761"/>
<g clip-path="url(#clip0)">
<path d="M27.112 29.9375C27.3276 29.9375 27.5012 30.0421 27.5012 30.172V32.828C27.5012 32.9579 27.3276 33.0625 27.112 33.0625C26.9958 33.0625 26.8921 33.0321 26.8209 32.9837L24.6054 31.6638C24.5396 31.6218 24.499 31.5654 24.499 31.5031C24.499 31.4407 24.5396 31.3843 24.6054 31.3423L26.8209 30.0163C26.8921 29.9679 26.9958 29.9375 27.112 29.9375Z" fill="#555761"/>
</g>
<line x1="26" y1="31.5" x2="101" y2="31.5" stroke="#555761"/>
<path d="M60.6051 29.0497C61.31 29.0497 61.8338 28.6076 61.8338 28.0128C61.8338 27.5511 61.5604 27.2156 61.1023 27.1392V27.1108C61.4698 26.9989 61.6989 26.6971 61.6989 26.2869C61.6989 25.772 61.2923 25.3139 60.6193 25.3139C59.9908 25.3139 59.4688 25.701 59.4474 26.2727H59.8736C59.8896 25.9105 60.234 25.6974 60.6122 25.6974C61.0135 25.6974 61.2727 25.9407 61.2727 26.3082C61.2727 26.6918 60.9727 26.9403 60.5412 26.9403H60.25V27.331H60.5412C61.0934 27.331 61.4006 27.6115 61.4006 28.0128C61.4006 28.3981 61.065 28.6591 60.598 28.6591C60.1772 28.6591 59.8434 28.4425 59.8168 28.0909H59.3693C59.396 28.6626 59.9002 29.0497 60.6051 29.0497ZM62.56 29H64.854V28.6094H63.1637V28.581L63.9805 27.7074C64.6055 27.038 64.7901 26.7255 64.7901 26.3224C64.7901 25.7614 64.3356 25.3139 63.6964 25.3139C63.0589 25.3139 62.5742 25.7472 62.5742 26.3864H62.9933C62.9933 25.9727 63.2614 25.6974 63.6822 25.6974C64.0763 25.6974 64.3782 25.9389 64.3782 26.3224C64.3782 26.658 64.1811 26.9066 63.7603 27.3665L62.56 28.6804V29ZM67.0007 30.0227H67.4197V28.581H67.4553C67.5476 28.7301 67.7251 29.0568 68.2507 29.0568C68.9325 29.0568 69.4084 28.5099 69.4084 27.6435C69.4084 26.7841 68.9325 26.2372 68.2436 26.2372C67.7109 26.2372 67.5476 26.5639 67.4553 26.706H67.4055V26.2727H67.0007V30.0227ZM67.4126 27.6364C67.4126 27.0256 67.6825 26.6136 68.1939 26.6136C68.7266 26.6136 68.9893 27.0611 68.9893 27.6364C68.9893 28.2188 68.7195 28.6804 68.1939 28.6804C67.6896 28.6804 67.4126 28.2543 67.4126 27.6364ZM71.2337 26.2727H70.6513V25.6193H70.2322V26.2727H69.8203V26.6278H70.2322V28.3324C70.2322 28.8082 70.6158 29.0355 70.9709 29.0355C71.1271 29.0355 71.2266 29.0071 71.2834 28.9858L71.1982 28.6094C71.1626 28.6165 71.1058 28.6307 71.0135 28.6307C70.8288 28.6307 70.6513 28.5739 70.6513 28.2188V26.6278H71.2337V26.2727Z" fill="#4D4D4D"/>
<path d="M29.0497 71.3949C29.0497 70.69 28.6076 70.1662 28.0128 70.1662C27.5511 70.1662 27.2156 70.4396 27.1392 70.8977H27.1108C26.9989 70.5302 26.6971 70.3011 26.2869 70.3011C25.772 70.3011 25.3139 70.7077 25.3139 71.3807C25.3139 72.0092 25.701 72.5312 26.2727 72.5526V72.1264C25.9105 72.1104 25.6974 71.766 25.6974 71.3878C25.6974 70.9865 25.9407 70.7273 26.3082 70.7273C26.6918 70.7273 26.9403 71.0273 26.9403 71.4588V71.75H27.331V71.4588C27.331 70.9066 27.6115 70.5994 28.0128 70.5994C28.3981 70.5994 28.6591 70.935 28.6591 71.402C28.6591 71.8228 28.4425 72.1566 28.0909 72.1832V72.6307C28.6626 72.604 29.0497 72.0998 29.0497 71.3949ZM29 69.44V67.146H28.6094V68.8363H28.581L27.7074 68.0195C27.038 67.3945 26.7255 67.2099 26.3224 67.2099C25.7614 67.2099 25.3139 67.6644 25.3139 68.3036C25.3139 68.9411 25.7472 69.4258 26.3864 69.4258V69.0067C25.9727 69.0067 25.6974 68.7386 25.6974 68.3178C25.6974 67.9237 25.9389 67.6218 26.3224 67.6218C26.658 67.6218 26.9066 67.8189 27.3665 68.2397L28.6804 69.44H29ZM30.0227 64.9993V64.5803H28.581V64.5447C28.7301 64.4524 29.0568 64.2749 29.0568 63.7493C29.0568 63.0675 28.5099 62.5916 27.6435 62.5916C26.7841 62.5916 26.2372 63.0675 26.2372 63.7564C26.2372 64.2891 26.5639 64.4524 26.706 64.5447V64.5945H26.2727V64.9993H30.0227ZM27.6364 64.5874C27.0256 64.5874 26.6136 64.3175 26.6136 63.8061C26.6136 63.2734 27.0611 63.0107 27.6364 63.0107C28.2188 63.0107 28.6804 63.2805 28.6804 63.8061C28.6804 64.3104 28.2543 64.5874 27.6364 64.5874ZM26.2727 60.7663V61.3487H25.6193V61.7678H26.2727V62.1797H26.6278V61.7678H28.3324C28.8082 61.7678 29.0355 61.3842 29.0355 61.0291C29.0355 60.8729 29.0071 60.7734 28.9858 60.7166L28.6094 60.8018C28.6165 60.8374 28.6307 60.8942 28.6307 60.9865C28.6307 61.1712 28.5739 61.3487 28.2188 61.3487H26.6278V60.7663H26.2727Z" fill="#4D4D4D"/>
<path d="M48.8523 68.1193C50.544 68.1193 51.8011 67.0582 51.8011 65.6307C51.8011 64.5227 51.1449 63.7173 50.0455 63.5341V63.4659C50.9276 63.1974 51.4773 62.473 51.4773 61.4886C51.4773 60.2528 50.5014 59.1534 48.8864 59.1534C47.3778 59.1534 46.125 60.0824 46.0739 61.4545H47.0966C47.1349 60.5852 47.9616 60.0739 48.8693 60.0739C49.8324 60.0739 50.4545 60.6577 50.4545 61.5398C50.4545 62.4602 49.7344 63.0568 48.6989 63.0568H48V63.9943H48.6989C50.0241 63.9943 50.7614 64.6676 50.7614 65.6307C50.7614 66.5554 49.956 67.1818 48.8352 67.1818C47.8253 67.1818 47.0241 66.6619 46.9602 65.8182H45.8864C45.9503 67.1903 47.1605 68.1193 48.8523 68.1193ZM53.544 68H59.0497V67.0625H54.9929V66.9943L56.9531 64.8977C58.4531 63.2912 58.8963 62.5412 58.8963 61.5739C58.8963 60.2273 57.8054 59.1534 56.2713 59.1534C54.7415 59.1534 53.5781 60.1932 53.5781 61.7273H54.5838C54.5838 60.7344 55.2273 60.0739 56.2372 60.0739C57.1832 60.0739 57.9077 60.6534 57.9077 61.5739C57.9077 62.3793 57.4347 62.9759 56.4247 64.0795L53.544 67.233V68ZM69.3153 66.4318L69.9631 65.7841L67.8835 63.7045L69.9631 61.625L69.3153 60.9773L67.2358 63.0568L65.1562 60.9773L64.5085 61.625L66.5881 63.7045L64.5085 65.7841L65.1562 66.4318L67.2358 64.3523L69.3153 66.4318ZM78.4187 68.1193C80.1104 68.1193 81.3675 67.0582 81.3675 65.6307C81.3675 64.5227 80.7113 63.7173 79.6119 63.5341V63.4659C80.494 63.1974 81.0437 62.473 81.0437 61.4886C81.0437 60.2528 80.0678 59.1534 78.4528 59.1534C76.9442 59.1534 75.6914 60.0824 75.6403 61.4545H76.663C76.7013 60.5852 77.5281 60.0739 78.4357 60.0739C79.3988 60.0739 80.021 60.6577 80.021 61.5398C80.021 62.4602 79.3008 63.0568 78.2653 63.0568H77.5664V63.9943H78.2653C79.5906 63.9943 80.3278 64.6676 80.3278 65.6307C80.3278 66.5554 79.5224 67.1818 78.4016 67.1818C77.3917 67.1818 76.5906 66.6619 76.5266 65.8182H75.4528C75.5167 67.1903 76.7269 68.1193 78.4187 68.1193ZM83.1104 68H88.6161V67.0625H84.5593V66.9943L86.5195 64.8977C88.0195 63.2912 88.4627 62.5412 88.4627 61.5739C88.4627 60.2273 87.3718 59.1534 85.8377 59.1534C84.3079 59.1534 83.1445 60.1932 83.1445 61.7273H84.1502C84.1502 60.7344 84.7937 60.0739 85.8036 60.0739C86.7496 60.0739 87.4741 60.6534 87.4741 61.5739C87.4741 62.3793 87.0011 62.9759 85.9911 64.0795L83.1104 67.233V68Z" fill="black"/>
<defs>
<clipPath id="clip0">
<rect width="5" height="8" fill="white" transform="translate(22 34) rotate(-90)"/>
</clipPath>
</defs>
</svg>
