<svg width="128" height="128" viewBox="0 0 128 128" fill="none" xmlns="http://www.w3.org/2000/svg">
<rect x="14" y="14" width="100" height="100" fill="white"/>
<path d="M23.0625 18.1121C23.0625 18.3277 22.9579 18.5012 22.828 18.5012H20.172C20.0421 18.5012 19.9375 18.3277 19.9375 18.1121C19.9375 17.9959 19.9679 17.8921 20.0163 17.8209L21.3362 15.6054C21.3782 15.5396 21.4346 15.499 21.4969 15.499C21.5593 15.499 21.6157 15.5396 21.6577 15.6054L22.9837 17.8209C23.0321 17.8921 23.0625 17.9959 23.0625 18.1121Z" fill="#555761"/>
<line x1="21.5" y1="17" x2="21.5" y2="110" stroke="#555761"/>
<g clip-path="url(#clip0)">
<path d="M18.112 19.9375C18.3276 19.9375 18.5012 20.0421 18.5012 20.172V22.828C18.5012 22.9579 18.3276 23.0625 18.112 23.0625C17.9958 23.0625 17.8921 23.0321 17.8209 22.9837L15.6054 21.6638C15.5396 21.6218 15.499 21.5654 15.499 21.5031C15.499 21.4407 15.5396 21.3843 15.6054 21.3423L17.8209 20.0163C17.8921 19.9679 17.9958 19.9375 18.112 19.9375Z" fill="#555761"/>
</g>
<line x1="17" y1="21.5" x2="111" y2="21.5" stroke="#555761"/>
<path d="M59.3764 19H61.6705V18.6094H59.9801V18.581L60.7969 17.7074C61.4219 17.038 61.6065 16.7255 61.6065 16.3224C61.6065 15.7614 61.152 15.3139 60.5128 15.3139C59.8754 15.3139 59.3906 15.7472 59.3906 16.3864H59.8097C59.8097 15.9727 60.0778 15.6974 60.4986 15.6974C60.8928 15.6974 61.1946 15.9389 61.1946 16.3224C61.1946 16.658 60.9975 16.9066 60.5767 17.3665L59.3764 18.6804V19ZM63.5401 19.0497C64.2326 19.0497 64.7404 18.5384 64.7404 17.8423C64.7404 17.1374 64.2504 16.6207 63.5827 16.6207C63.3377 16.6207 63.0998 16.7077 62.9506 16.8267H62.9293L63.0572 15.7543H64.5771V15.3636H62.6879L62.4677 17.1534L62.8796 17.2031C63.0305 17.0948 63.288 17.0167 63.5117 17.0185C63.9751 17.022 64.3143 17.3736 64.3143 17.8494C64.3143 18.3164 63.9876 18.6591 63.5401 18.6591C63.1673 18.6591 62.8707 18.4194 62.837 18.0909H62.4109C62.4375 18.6449 62.9151 19.0497 63.5401 19.0497ZM66.6531 19.0497C67.3882 19.0586 67.8676 18.5046 67.8676 17.8281C67.8676 17.125 67.3474 16.6207 66.7242 16.6207C66.3495 16.6207 66.0281 16.8036 65.8293 17.1037H65.8009C65.8026 16.2177 66.1471 15.7045 66.71 15.7045C67.0935 15.7045 67.3243 15.946 67.406 16.2727H67.8392C67.7504 15.7081 67.3208 15.3139 66.71 15.3139C65.8914 15.3139 65.3889 16.0384 65.3889 17.3239C65.3889 18.668 66.0566 19.0426 66.6531 19.0497ZM66.6531 18.6591C66.1968 18.6591 65.863 18.2702 65.8648 17.8352C65.8666 17.4002 66.2164 17.0114 66.6673 17.0114C67.113 17.0114 67.4415 17.3771 67.4415 17.8281C67.4415 18.2898 67.0988 18.6591 66.6531 18.6591ZM69.9792 20.0227H70.3983V18.581H70.4338C70.5261 18.7301 70.7037 19.0568 71.2292 19.0568C71.911 19.0568 72.3869 18.5099 72.3869 17.6435C72.3869 16.7841 71.911 16.2372 71.2221 16.2372C70.6895 16.2372 70.5261 16.5639 70.4338 16.706H70.3841V16.2727H69.9792V20.0227ZM70.3912 17.6364C70.3912 17.0256 70.661 16.6136 71.1724 16.6136C71.7051 16.6136 71.9679 17.0611 71.9679 17.6364C71.9679 18.2188 71.698 18.6804 71.1724 18.6804C70.6681 18.6804 70.3912 18.2543 70.3912 17.6364ZM74.2122 16.2727H73.6298V15.6193H73.2108V16.2727H72.7988V16.6278H73.2108V18.3324C73.2108 18.8082 73.5943 19.0355 73.9494 19.0355C74.1056 19.0355 74.2051 19.0071 74.2619 18.9858L74.1767 18.6094C74.1412 18.6165 74.0843 18.6307 73.992 18.6307C73.8074 18.6307 73.6298 18.5739 73.6298 18.2188V16.6278H74.2122V16.2727Z" fill="#4D4D4D"/>
<path d="M19 72.6236V70.3295H18.6094V72.0199H18.581L17.7074 71.2031C17.038 70.5781 16.7255 70.3935 16.3224 70.3935C15.7614 70.3935 15.3139 70.848 15.3139 71.4872C15.3139 72.1246 15.7472 72.6094 16.3864 72.6094V72.1903C15.9727 72.1903 15.6974 71.9222 15.6974 71.5014C15.6974 71.1072 15.9389 70.8054 16.3224 70.8054C16.658 70.8054 16.9066 71.0025 17.3665 71.4233L18.6804 72.6236H19ZM19.0497 68.4599C19.0497 67.7674 18.5384 67.2596 17.8423 67.2596C17.1374 67.2596 16.6207 67.7496 16.6207 68.4173C16.6207 68.6623 16.7077 68.9002 16.8267 69.0494V69.0707L15.7543 68.9428V67.4229H15.3636V69.3121L17.1534 69.5323L17.2031 69.1204C17.0948 68.9695 17.0167 68.712 17.0185 68.4883C17.022 68.0249 17.3736 67.6857 17.8494 67.6857C18.3164 67.6857 18.6591 68.0124 18.6591 68.4599C18.6591 68.8327 18.4194 69.1293 18.0909 69.163V69.5891C18.6449 69.5625 19.0497 69.0849 19.0497 68.4599ZM19.0497 65.3469C19.0586 64.6118 18.5046 64.1324 17.8281 64.1324C17.125 64.1324 16.6207 64.6526 16.6207 65.2758C16.6207 65.6505 16.8036 65.9719 17.1037 66.1707V66.1991C16.2177 66.1974 15.7045 65.8529 15.7045 65.29C15.7045 64.9065 15.946 64.6757 16.2727 64.594V64.1608C15.7081 64.2496 15.3139 64.6792 15.3139 65.29C15.3139 66.1086 16.0384 66.6111 17.3239 66.6111C18.668 66.6111 19.0426 65.9434 19.0497 65.3469ZM18.6591 65.3469C18.6591 65.8032 18.2702 66.137 17.8352 66.1352C17.4002 66.1334 17.0114 65.7836 17.0114 65.3327C17.0114 64.887 17.3771 64.5585 17.8281 64.5585C18.2898 64.5585 18.6591 64.9012 18.6591 65.3469ZM20.0227 62.0208V61.6017H18.581V61.5662C18.7301 61.4739 19.0568 61.2963 19.0568 60.7708C19.0568 60.089 18.5099 59.6131 17.6435 59.6131C16.7841 59.6131 16.2372 60.089 16.2372 60.7779C16.2372 61.3105 16.5639 61.4739 16.706 61.5662V61.6159H16.2727V62.0208H20.0227ZM17.6364 61.6088C17.0256 61.6088 16.6136 61.339 16.6136 60.8276C16.6136 60.2949 17.0611 60.0321 17.6364 60.0321C18.2188 60.0321 18.6804 60.302 18.6804 60.8276C18.6804 61.3319 18.2543 61.6088 17.6364 61.6088ZM16.2727 57.7878V58.3702H15.6193V58.7892H16.2727V59.2012H16.6278V58.7892H18.3324C18.8082 58.7892 19.0355 58.4057 19.0355 58.0506C19.0355 57.8944 19.0071 57.7949 18.9858 57.7381L18.6094 57.8233C18.6165 57.8588 18.6307 57.9157 18.6307 58.008C18.6307 58.1926 18.5739 58.3702 18.2188 58.3702H16.6278V57.7878H16.2727Z" fill="#4D4D4D"/>
<path d="M37.9034 68H43.4091V67.0625H39.3523V66.9943L41.3125 64.8977C42.8125 63.2912 43.2557 62.5412 43.2557 61.5739C43.2557 60.2273 42.1648 59.1534 40.6307 59.1534C39.1009 59.1534 37.9375 60.1932 37.9375 61.7273H38.9432C38.9432 60.7344 39.5866 60.0739 40.5966 60.0739C41.5426 60.0739 42.267 60.6534 42.267 61.5739C42.267 62.3793 41.794 62.9759 40.7841 64.0795L37.9034 67.233V68ZM47.8963 68.1193C49.5582 68.1193 50.777 66.892 50.777 65.2216C50.777 63.5298 49.6009 62.2898 47.9986 62.2898C47.4105 62.2898 46.8395 62.4986 46.4815 62.7841H46.4304L46.7372 60.2102H50.3849V59.2727H45.8509L45.3224 63.5682L46.3111 63.6875C46.6733 63.4276 47.2912 63.2401 47.8281 63.2443C48.9403 63.2528 49.7543 64.0966 49.7543 65.2386C49.7543 66.3594 48.9702 67.1818 47.8963 67.1818C47.0014 67.1818 46.2898 66.6065 46.2088 65.8182H45.1861C45.25 67.1477 46.3963 68.1193 47.8963 68.1193ZM55.3675 68.1193C57.1317 68.1406 58.2823 66.8111 58.2823 65.1875C58.2823 63.5 57.0337 62.2898 55.538 62.2898C54.6388 62.2898 53.8675 62.7287 53.3903 63.4489H53.3221C53.3263 61.3224 54.1531 60.0909 55.5039 60.0909C56.4244 60.0909 56.9783 60.6705 57.1744 61.4545H58.2141C58.0011 60.0994 56.9698 59.1534 55.5039 59.1534C53.5394 59.1534 52.3335 60.892 52.3335 63.9773C52.3335 67.2031 53.9357 68.1023 55.3675 68.1193ZM55.3675 67.1818C54.2724 67.1818 53.4712 66.2486 53.4755 65.2045C53.4798 64.1605 54.3192 63.2273 55.4016 63.2273C56.4712 63.2273 57.2596 64.1051 57.2596 65.1875C57.2596 66.2955 56.4371 67.1818 55.3675 67.1818ZM68.4638 66.4318L69.1115 65.7841L67.032 63.7045L69.1115 61.625L68.4638 60.9773L66.3842 63.0568L64.3047 60.9773L63.657 61.625L65.7365 63.7045L63.657 65.7841L64.3047 66.4318L66.3842 64.3523L68.4638 66.4318ZM74.6183 68H80.1239V67.0625H76.0671V66.9943L78.0273 64.8977C79.5273 63.2912 79.9705 62.5412 79.9705 61.5739C79.9705 60.2273 78.8796 59.1534 77.3455 59.1534C75.8157 59.1534 74.6523 60.1932 74.6523 61.7273H75.658C75.658 60.7344 76.3015 60.0739 77.3114 60.0739C78.2575 60.0739 78.9819 60.6534 78.9819 61.5739C78.9819 62.3793 78.5089 62.9759 77.4989 64.0795L74.6183 67.233V68ZM84.6112 68.1193C86.2731 68.1193 87.4918 66.892 87.4918 65.2216C87.4918 63.5298 86.3157 62.2898 84.7134 62.2898C84.1254 62.2898 83.5543 62.4986 83.1964 62.7841H83.1452L83.4521 60.2102H87.0998V59.2727H82.5657L82.0373 63.5682L83.0259 63.6875C83.3881 63.4276 84.006 63.2401 84.543 63.2443C85.6552 63.2528 86.4691 64.0966 86.4691 65.2386C86.4691 66.3594 85.685 67.1818 84.6112 67.1818C83.7163 67.1818 83.0046 66.6065 82.9237 65.8182H81.9009C81.9648 67.1477 83.1112 68.1193 84.6112 68.1193ZM92.0824 68.1193C93.8466 68.1406 94.9972 66.8111 94.9972 65.1875C94.9972 63.5 93.7486 62.2898 92.2528 62.2898C91.3537 62.2898 90.5824 62.7287 90.1051 63.4489H90.0369C90.0412 61.3224 90.8679 60.0909 92.2188 60.0909C93.1392 60.0909 93.6932 60.6705 93.8892 61.4545H94.929C94.7159 60.0994 93.6847 59.1534 92.2188 59.1534C90.2543 59.1534 89.0483 60.892 89.0483 63.9773C89.0483 67.2031 90.6506 68.1023 92.0824 68.1193ZM92.0824 67.1818C90.9872 67.1818 90.1861 66.2486 90.1903 65.2045C90.1946 64.1605 91.0341 63.2273 92.1165 63.2273C93.1861 63.2273 93.9744 64.1051 93.9744 65.1875C93.9744 66.2955 93.152 67.1818 92.0824 67.1818Z" fill="black"/>
<defs>
<clipPath id="clip0">
<rect width="5" height="8" fill="white" transform="translate(13 24) rotate(-90)"/>
</clipPath>
</defs>
</svg>
