<svg width="128" height="128" viewBox="0 0 128 128" fill="none" xmlns="http://www.w3.org/2000/svg">
<rect x="7" y="6" width="115" height="115" fill="white"/>
<path d="M16.0625 10.1121C16.0625 10.3277 15.9579 10.5012 15.828 10.5012H13.172C13.0421 10.5012 12.9375 10.3277 12.9375 10.1121C12.9375 9.99585 12.9679 9.89212 13.0163 9.82093L14.3362 7.60544C14.3782 7.53964 14.4346 7.49902 14.4969 7.49902C14.5593 7.49902 14.6157 7.53963 14.6577 7.60544L15.9837 9.82093C16.0321 9.89212 16.0625 9.99585 16.0625 10.1121Z" fill="#555761"/>
<line x1="14.5" y1="9" x2="14.5" y2="118" stroke="#555761"/>
<g clip-path="url(#clip0)">
<path d="M11.112 11.9375C11.3276 11.9375 11.5012 12.0421 11.5012 12.172V14.828C11.5012 14.9579 11.3276 15.0625 11.112 15.0625C10.9958 15.0625 10.8921 15.0321 10.8209 14.9837L8.60541 13.6638C8.53961 13.6218 8.49899 13.5654 8.49899 13.5031C8.49899 13.4407 8.5396 13.3843 8.60541 13.3423L10.8209 12.0163C10.8921 11.9679 10.9958 11.9375 11.112 11.9375Z" fill="#555761"/>
</g>
<line x1="10" y1="13.5" x2="119" y2="13.5" stroke="#555761"/>
<path d="M60.5128 11.0497C61.2053 11.0497 61.7131 10.5384 61.7131 9.84233C61.7131 9.13743 61.223 8.62074 60.5554 8.62074C60.3104 8.62074 60.0724 8.70774 59.9233 8.8267H59.902L60.0298 7.75426H61.5497V7.36364H59.6605L59.4403 9.15341L59.8523 9.20312C60.0032 9.09482 60.2607 9.01669 60.4844 9.01847C60.9478 9.02202 61.2869 9.37358 61.2869 9.84943C61.2869 10.3164 60.9602 10.6591 60.5128 10.6591C60.1399 10.6591 59.8434 10.4194 59.8097 10.0909H59.3835C59.4102 10.6449 59.8878 11.0497 60.5128 11.0497ZM63.6968 7.36364H63.2565L62.3474 7.96733V8.41477L63.2352 7.82528H63.2565V11H63.6968V7.36364ZM64.7426 11H67.0367V10.6094H65.3463V10.581L66.1631 9.70739C66.7881 9.038 66.9727 8.7255 66.9727 8.32244C66.9727 7.76136 66.5182 7.31392 65.879 7.31392C65.2416 7.31392 64.7568 7.74716 64.7568 8.38636H65.1759C65.1759 7.97266 65.444 7.69744 65.8648 7.69744C66.259 7.69744 66.5608 7.93892 66.5608 8.32244C66.5608 8.65803 66.3637 8.90661 65.9429 9.36648L64.7426 10.6804V11ZM69.1833 12.0227H69.6024V10.581H69.6379C69.7302 10.7301 69.9078 11.0568 70.4333 11.0568C71.1151 11.0568 71.591 10.5099 71.591 9.64347C71.591 8.78409 71.1151 8.23722 70.4262 8.23722C69.8936 8.23722 69.7302 8.56392 69.6379 8.70597H69.5882V8.27273H69.1833V12.0227ZM69.5953 9.63636C69.5953 9.02557 69.8651 8.61364 70.3765 8.61364C70.9092 8.61364 71.172 9.06108 71.172 9.63636C71.172 10.2188 70.9021 10.6804 70.3765 10.6804C69.8722 10.6804 69.5953 10.2543 69.5953 9.63636ZM73.4163 8.27273H72.8339V7.61932H72.4149V8.27273H72.0029V8.62784H72.4149V10.3324C72.4149 10.8082 72.7984 11.0355 73.1535 11.0355C73.3097 11.0355 73.4092 11.0071 73.466 10.9858L73.3808 10.6094C73.3453 10.6165 73.2884 10.6307 73.1961 10.6307C73.0115 10.6307 72.8339 10.5739 72.8339 10.2188V8.62784H73.4163V8.27273Z" fill="#4D4D4D"/>
<path d="M12.0497 71.4872C12.0497 70.7947 11.5384 70.2869 10.8423 70.2869C10.1374 70.2869 9.62074 70.777 9.62074 71.4446C9.62074 71.6896 9.70774 71.9276 9.8267 72.0767V72.098L8.75426 71.9702V70.4503H8.36364V72.3395L10.1534 72.5597L10.2031 72.1477C10.0948 71.9968 10.0167 71.7393 10.0185 71.5156C10.022 71.0522 10.3736 70.7131 10.8494 70.7131C11.3164 70.7131 11.6591 71.0398 11.6591 71.4872C11.6591 71.8601 11.4194 72.1566 11.0909 72.1903V72.6165C11.6449 72.5898 12.0497 72.1122 12.0497 71.4872ZM8.36364 68.3032V68.7435L8.96733 69.6526H9.41477L8.82528 68.7648V68.7435H12V68.3032H8.36364ZM12 67.2574V64.9633H11.6094V66.6537H11.581L10.7074 65.8369C10.038 65.2119 9.7255 65.0273 9.32244 65.0273C8.76136 65.0273 8.31392 65.4818 8.31392 66.121C8.31392 66.7584 8.74716 67.2432 9.38636 67.2432V66.8241C8.97266 66.8241 8.69744 66.556 8.69744 66.1352C8.69744 65.741 8.93892 65.4392 9.32244 65.4392C9.65803 65.4392 9.90661 65.6363 10.3665 66.0571L11.6804 67.2574H12ZM13.0227 62.8167V62.3976H11.581V62.3621C11.7301 62.2698 12.0568 62.0922 12.0568 61.5667C12.0568 60.8849 11.5099 60.409 10.6435 60.409C9.78409 60.409 9.23722 60.8849 9.23722 61.5738C9.23722 62.1064 9.56392 62.2698 9.70597 62.3621V62.4118H9.27273V62.8167H13.0227ZM10.6364 62.4047C10.0256 62.4047 9.61364 62.1349 9.61364 61.6235C9.61364 61.0908 10.0611 60.828 10.6364 60.828C11.2188 60.828 11.6804 61.0979 11.6804 61.6235C11.6804 62.1278 11.2543 62.4047 10.6364 62.4047ZM9.27273 58.5837V59.1661H8.61932V59.5851H9.27273V59.9971H9.62784V59.5851H11.3324C11.8082 59.5851 12.0355 59.2016 12.0355 58.8465C12.0355 58.6903 12.0071 58.5908 11.9858 58.534L11.6094 58.6192C11.6165 58.6547 11.6307 58.7116 11.6307 58.8039C11.6307 58.9885 11.5739 59.1661 11.2188 59.1661H9.62784V58.5837H9.27273Z" fill="#4D4D4D"/>
<path d="M42.6307 68.1193C44.2926 68.1193 45.5114 66.892 45.5114 65.2216C45.5114 63.5298 44.3352 62.2898 42.733 62.2898C42.1449 62.2898 41.5739 62.4986 41.2159 62.7841H41.1648L41.4716 60.2102H45.1193V59.2727H40.5852L40.0568 63.5682L41.0455 63.6875C41.4077 63.4276 42.0256 63.2401 42.5625 63.2443C43.6747 63.2528 44.4886 64.0966 44.4886 65.2386C44.4886 66.3594 43.7045 67.1818 42.6307 67.1818C41.7358 67.1818 41.0241 66.6065 40.9432 65.8182H39.9205C39.9844 67.1477 41.1307 68.1193 42.6307 68.1193ZM50.2724 59.2727H49.2156L47.0337 60.7216V61.7955L49.1644 60.3807H49.2156V68H50.2724V59.2727ZM52.7823 68H58.288V67.0625H54.2312V66.9943L56.1914 64.8977C57.6914 63.2912 58.1346 62.5412 58.1346 61.5739C58.1346 60.2273 57.0437 59.1534 55.5096 59.1534C53.9798 59.1534 52.8164 60.1932 52.8164 61.7273H53.8221C53.8221 60.7344 54.4656 60.0739 55.4755 60.0739C56.4215 60.0739 57.146 60.6534 57.146 61.5739C57.146 62.3793 56.6729 62.9759 55.663 64.0795L52.7823 67.233V68ZM68.5536 66.4318L69.2013 65.7841L67.1218 63.7045L69.2013 61.625L68.5536 60.9773L66.4741 63.0568L64.3945 60.9773L63.7468 61.625L65.8263 63.7045L63.7468 65.7841L64.3945 66.4318L66.4741 64.3523L68.5536 66.4318ZM77.4354 68.1193C79.0973 68.1193 80.3161 66.892 80.3161 65.2216C80.3161 63.5298 79.1399 62.2898 77.5376 62.2898C76.9496 62.2898 76.3786 62.4986 76.0206 62.7841H75.9695L76.2763 60.2102H79.924V59.2727H75.3899L74.8615 63.5682L75.8501 63.6875C76.2124 63.4276 76.8303 63.2401 77.3672 63.2443C78.4794 63.2528 79.2933 64.0966 79.2933 65.2386C79.2933 66.3594 78.5092 67.1818 77.4354 67.1818C76.5405 67.1818 75.8288 66.6065 75.7479 65.8182H74.7251C74.7891 67.1477 75.9354 68.1193 77.4354 68.1193ZM85.0771 59.2727H84.0202L81.8384 60.7216V61.7955L83.9691 60.3807H84.0202V68H85.0771V59.2727ZM87.587 68H93.0927V67.0625H89.0359V66.9943L90.9961 64.8977C92.4961 63.2912 92.9393 62.5412 92.9393 61.5739C92.9393 60.2273 91.8484 59.1534 90.3143 59.1534C88.7844 59.1534 87.6211 60.1932 87.6211 61.7273H88.6268C88.6268 60.7344 89.2702 60.0739 90.2802 60.0739C91.2262 60.0739 91.9506 60.6534 91.9506 61.5739C91.9506 62.3793 91.4776 62.9759 90.4677 64.0795L87.587 67.233V68Z" fill="black"/>
<defs>
<clipPath id="clip0">
<rect width="5" height="8" fill="white" transform="translate(6 16) rotate(-90)"/>
</clipPath>
</defs>
</svg>
