<svg width="128" height="128" viewBox="0 0 128 128" fill="none" xmlns="http://www.w3.org/2000/svg">
<rect x="29" y="29" width="70" height="70" fill="white"/>
<path d="M38.0625 33.1121C38.0625 33.3277 37.9579 33.5012 37.828 33.5012H35.172C35.0421 33.5012 34.9375 33.3277 34.9375 33.1121C34.9375 32.9959 34.9679 32.8921 35.0163 32.8209L36.3362 30.6054C36.3782 30.5396 36.4346 30.499 36.4969 30.499C36.5593 30.499 36.6157 30.5396 36.6577 30.6054L37.9837 32.8209C38.0321 32.8921 38.0625 32.9959 38.0625 33.1121Z" fill="#555761"/>
<line x1="36.5" y1="32" x2="36.5" y2="96" stroke="#555761"/>
<g clip-path="url(#clip0)">
<path d="M33.1121 34.9375C33.3277 34.9375 33.5012 35.0421 33.5012 35.172V37.828C33.5012 37.9579 33.3277 38.0625 33.1121 38.0625C32.9959 38.0625 32.8921 38.0321 32.8209 37.9837L30.6054 36.6638C30.5396 36.6218 30.499 36.5654 30.499 36.5031C30.499 36.4407 30.5396 36.3843 30.6054 36.3423L32.8209 35.0163C32.8921 34.9679 32.9959 34.9375 33.1121 34.9375Z" fill="#555761"/>
</g>
<line x1="32" y1="36.5" x2="96" y2="36.5" stroke="#555761"/>
<path d="M60.6548 30.3636H60.2145L59.3054 30.9673V31.4148L60.1932 30.8253H60.2145V34H60.6548V30.3636ZM62.908 34.0497C63.6431 34.0586 64.1225 33.5046 64.1225 32.8281C64.1225 32.125 63.6023 31.6207 62.979 31.6207C62.6044 31.6207 62.283 31.8036 62.0842 32.1037H62.0558C62.0575 31.2177 62.402 30.7045 62.9648 30.7045C63.3484 30.7045 63.5792 30.946 63.6609 31.2727H64.0941C64.0053 30.7081 63.5756 30.3139 62.9648 30.3139C62.1463 30.3139 61.6438 31.0384 61.6438 32.3239C61.6438 33.668 62.3114 34.0426 62.908 34.0497ZM62.908 33.6591C62.4517 33.6591 62.1179 33.2702 62.1197 32.8352C62.1214 32.4002 62.4712 32.0114 62.9222 32.0114C63.3679 32.0114 63.6964 32.3771 63.6964 32.8281C63.6964 33.2898 63.3537 33.6591 62.908 33.6591ZM66.2341 35.0227H66.6531V33.581H66.6887C66.781 33.7301 66.9585 34.0568 67.4841 34.0568C68.1659 34.0568 68.6418 33.5099 68.6418 32.6435C68.6418 31.7841 68.1659 31.2372 67.477 31.2372C66.9443 31.2372 66.781 31.5639 66.6887 31.706H66.6389V31.2727H66.2341V35.0227ZM66.646 32.6364C66.646 32.0256 66.9159 31.6136 67.4273 31.6136C67.96 31.6136 68.2227 32.0611 68.2227 32.6364C68.2227 33.2188 67.9529 33.6804 67.4273 33.6804C66.923 33.6804 66.646 33.2543 66.646 32.6364ZM70.4671 31.2727H69.8847V30.6193H69.4656V31.2727H69.0537V31.6278H69.4656V33.3324C69.4656 33.8082 69.8492 34.0355 70.2043 34.0355C70.3605 34.0355 70.46 34.0071 70.5168 33.9858L70.4316 33.6094C70.396 33.6165 70.3392 33.6307 70.2469 33.6307C70.0622 33.6307 69.8847 33.5739 69.8847 33.2188V31.6278H70.4671V31.2727Z" fill="#4D4D4D"/>
<path d="M30.3636 71.3452V71.7855L30.9673 72.6946H31.4148L30.8253 71.8068V71.7855H34V71.3452H30.3636ZM34.0497 69.092C34.0586 68.3569 33.5046 67.8775 32.8281 67.8775C32.125 67.8775 31.6207 68.3977 31.6207 69.021C31.6207 69.3956 31.8036 69.717 32.1037 69.9158V69.9442C31.2177 69.9425 30.7045 69.598 30.7045 69.0352C30.7045 68.6516 30.946 68.4208 31.2727 68.3391V67.9059C30.7081 67.9947 30.3139 68.4244 30.3139 69.0352C30.3139 69.8537 31.0384 70.3562 32.3239 70.3562C33.668 70.3562 34.0426 69.6886 34.0497 69.092ZM33.6591 69.092C33.6591 69.5483 33.2702 69.8821 32.8352 69.8803C32.4002 69.8786 32.0114 69.5288 32.0114 69.0778C32.0114 68.6321 32.3771 68.3036 32.8281 68.3036C33.2898 68.3036 33.6591 68.6463 33.6591 69.092ZM35.0227 65.7659V65.3469H33.581V65.3113C33.7301 65.219 34.0568 65.0415 34.0568 64.5159C34.0568 63.8341 33.5099 63.3582 32.6435 63.3582C31.7841 63.3582 31.2372 63.8341 31.2372 64.523C31.2372 65.0557 31.5639 65.219 31.706 65.3113V65.3611H31.2727V65.7659H35.0227ZM32.6364 65.354C32.0256 65.354 31.6136 65.0841 31.6136 64.5727C31.6136 64.04 32.0611 63.7773 32.6364 63.7773C33.2188 63.7773 33.6804 64.0471 33.6804 64.5727C33.6804 65.077 33.2543 65.354 32.6364 65.354ZM31.2727 61.5329V62.1153H30.6193V62.5344H31.2727V62.9463H31.6278V62.5344H33.3324C33.8082 62.5344 34.0355 62.1508 34.0355 61.7957C34.0355 61.6395 34.0071 61.54 33.9858 61.4832L33.6094 61.5684C33.6165 61.604 33.6307 61.6608 33.6307 61.7531C33.6307 61.9378 33.5739 62.1153 33.2188 62.1153H31.6278V61.5329H31.2727Z" fill="#4D4D4D"/>
<path d="M50.9716 59.2727H49.9148L47.733 60.7216V61.7955L49.8636 60.3807H49.9148V68H50.9716V59.2727ZM56.3793 68.1193C58.1435 68.1406 59.294 66.8111 59.294 65.1875C59.294 63.5 58.0455 62.2898 56.5497 62.2898C55.6506 62.2898 54.8793 62.7287 54.402 63.4489H54.3338C54.3381 61.3224 55.1648 60.0909 56.5156 60.0909C57.4361 60.0909 57.9901 60.6705 58.1861 61.4545H59.2259C59.0128 60.0994 57.9815 59.1534 56.5156 59.1534C54.5511 59.1534 53.3452 60.892 53.3452 63.9773C53.3452 67.2031 54.9474 68.1023 56.3793 68.1193ZM56.3793 67.1818C55.2841 67.1818 54.483 66.2486 54.4872 65.2045C54.4915 64.1605 55.331 63.2273 56.4134 63.2273C57.483 63.2273 58.2713 64.1051 58.2713 65.1875C58.2713 66.2955 57.4489 67.1818 56.3793 67.1818ZM69.4755 66.4318L70.1232 65.7841L68.0437 63.7045L70.1232 61.625L69.4755 60.9773L67.396 63.0568L65.3164 60.9773L64.6687 61.625L66.7482 63.7045L64.6687 65.7841L65.3164 66.4318L67.396 64.3523L69.4755 66.4318ZM78.6982 59.2727H77.6413L75.4595 60.7216V61.7955L77.5902 60.3807H77.6413V68H78.6982V59.2727ZM84.1058 68.1193C85.87 68.1406 87.0206 66.8111 87.0206 65.1875C87.0206 63.5 85.772 62.2898 84.2763 62.2898C83.3771 62.2898 82.6058 62.7287 82.1286 63.4489H82.0604C82.0646 61.3224 82.8913 60.0909 84.2422 60.0909C85.1626 60.0909 85.7166 60.6705 85.9126 61.4545H86.9524C86.7393 60.0994 85.7081 59.1534 84.2422 59.1534C82.2777 59.1534 81.0717 60.892 81.0717 63.9773C81.0717 67.2031 82.674 68.1023 84.1058 68.1193ZM84.1058 67.1818C83.0107 67.1818 82.2095 66.2486 82.2138 65.2045C82.218 64.1605 83.0575 63.2273 84.1399 63.2273C85.2095 63.2273 85.9979 64.1051 85.9979 65.1875C85.9979 66.2955 85.1754 67.1818 84.1058 67.1818Z" fill="black"/>
<defs>
<clipPath id="clip0">
<rect width="5" height="8" fill="white" transform="translate(28 39) rotate(-90)"/>
</clipPath>
</defs>
</svg>
