<svg width="128" height="128" viewBox="0 0 128 128" fill="none" xmlns="http://www.w3.org/2000/svg">
<rect x="19" y="19" width="90" height="90" fill="white"/>
<path d="M22.4731 24.9375C22.6617 24.9375 22.8136 25.0421 22.8136 25.172V27.828C22.8136 27.9579 22.6617 28.0625 22.4731 28.0625C22.3714 28.0625 22.2806 28.0321 22.2183 27.9837L20.2798 26.6638C20.2222 26.6218 20.1866 26.5654 20.1866 26.5031C20.1866 26.4407 20.2222 26.3843 20.2798 26.3423L22.2183 25.0163C22.2806 24.9679 22.3714 24.9375 22.4731 24.9375Z" fill="#555761"/>
<line x1="21" y1="26.5" x2="106" y2="26.5" stroke="#555761"/>
<path d="M28.0625 22.4731C28.0625 22.6617 27.9579 22.8136 27.828 22.8136H25.172C25.0421 22.8136 24.9375 22.6617 24.9375 22.4731C24.9375 22.3714 24.9679 22.2806 25.0163 22.2183L26.3362 20.2798C26.3782 20.2222 26.4346 20.1866 26.4969 20.1866C26.5593 20.1866 26.6157 20.2222 26.6577 20.2798L27.9837 22.2183C28.0321 22.2806 28.0625 22.3714 28.0625 22.4731Z" fill="#555761"/>
<line x1="26.5" y1="22" x2="26.5" y2="106" stroke="#555761"/>
<path d="M59.6548 20.3636H59.2145L58.3054 20.9673V21.4148L59.1932 20.8253H59.2145V24H59.6548V20.3636ZM60.7006 24H62.9947V23.6094H61.3043V23.581L62.1211 22.7074C62.7461 22.038 62.9308 21.7255 62.9308 21.3224C62.9308 20.7614 62.4762 20.3139 61.837 20.3139C61.1996 20.3139 60.7148 20.7472 60.7148 21.3864H61.1339C61.1339 20.9727 61.402 20.6974 61.8228 20.6974C62.217 20.6974 62.5188 20.9389 62.5188 21.3224C62.5188 21.658 62.3217 21.9066 61.9009 22.3665L60.7006 23.6804V24ZM64.8928 24.0497C65.619 24.0497 66.125 23.6254 66.1286 23.0341C66.125 22.5742 65.8178 22.1836 65.4254 22.1108V22.0895C65.7663 22.0007 65.9901 21.6669 65.9936 21.2798C65.9901 20.7259 65.5249 20.3139 64.8928 20.3139C64.2536 20.3139 63.7884 20.7259 63.7919 21.2798C63.7884 21.6669 64.0121 22.0007 64.3601 22.0895V22.1108C63.9606 22.1836 63.6534 22.5742 63.657 23.0341C63.6534 23.6254 64.1594 24.0497 64.8928 24.0497ZM64.8928 23.6591C64.3938 23.6591 64.0866 23.4034 64.0902 23.0128C64.0866 22.6026 64.4258 22.3097 64.8928 22.3097C65.3526 22.3097 65.6918 22.6026 65.6953 23.0128C65.6918 23.4034 65.3846 23.6591 64.8928 23.6591ZM64.8928 21.9332C64.495 21.9332 64.2145 21.6847 64.218 21.3082C64.2145 20.9389 64.4844 20.6974 64.8928 20.6974C65.294 20.6974 65.5639 20.9389 65.5675 21.3082C65.5639 21.6847 65.2834 21.9332 64.8928 21.9332ZM68.2224 25.0227H68.6414V23.581H68.6769C68.7693 23.7301 68.9468 24.0568 69.4724 24.0568C70.1542 24.0568 70.6301 23.5099 70.6301 22.6435C70.6301 21.7841 70.1542 21.2372 69.4653 21.2372C68.9326 21.2372 68.7693 21.5639 68.6769 21.706H68.6272V21.2727H68.2224V25.0227ZM68.6343 22.6364C68.6343 22.0256 68.9042 21.6136 69.4156 21.6136C69.9482 21.6136 70.211 22.0611 70.211 22.6364C70.211 23.2188 69.9411 23.6804 69.4156 23.6804C68.9113 23.6804 68.6343 23.2543 68.6343 22.6364ZM72.4553 21.2727H71.873V20.6193H71.4539V21.2727H71.042V21.6278H71.4539V23.3324C71.4539 23.8082 71.8374 24.0355 72.1926 24.0355C72.3488 24.0355 72.4482 24.0071 72.5051 23.9858L72.4198 23.6094C72.3843 23.6165 72.3275 23.6307 72.2352 23.6307C72.0505 23.6307 71.873 23.5739 71.873 23.2188V21.6278H72.4553V21.2727Z" fill="black"/>
<path d="M20.3636 71.3452V71.7855L20.9673 72.6946H21.4148L20.8253 71.8068V71.7855H24V71.3452H20.3636ZM24 70.2994V68.0053H23.6094V69.6957H23.581L22.7074 68.8789C22.038 68.2539 21.7255 68.0692 21.3224 68.0692C20.7614 68.0692 20.3139 68.5238 20.3139 69.163C20.3139 69.8004 20.7472 70.2852 21.3864 70.2852V69.8661C20.9727 69.8661 20.6974 69.598 20.6974 69.1772C20.6974 68.783 20.9389 68.4812 21.3224 68.4812C21.658 68.4812 21.9066 68.6783 22.3665 69.0991L23.6804 70.2994H24ZM24.0497 66.1072C24.0497 65.381 23.6254 64.875 23.0341 64.8714C22.5742 64.875 22.1836 65.1822 22.1108 65.5746H22.0895C22.0007 65.2337 21.6669 65.0099 21.2798 65.0064C20.7259 65.0099 20.3139 65.4751 20.3139 66.1072C20.3139 66.7464 20.7259 67.2116 21.2798 67.2081C21.6669 67.2116 22.0007 66.9879 22.0895 66.6399H22.1108C22.1836 67.0394 22.5742 67.3466 23.0341 67.343C23.6254 67.3466 24.0497 66.8406 24.0497 66.1072ZM23.6591 66.1072C23.6591 66.6062 23.4034 66.9134 23.0128 66.9098C22.6026 66.9134 22.3097 66.5742 22.3097 66.1072C22.3097 65.6474 22.6026 65.3082 23.0128 65.3047C23.4034 65.3082 23.6591 65.6154 23.6591 66.1072ZM21.9332 66.1072C21.9332 66.505 21.6847 66.7855 21.3082 66.782C20.9389 66.7855 20.6974 66.5156 20.6974 66.1072C20.6974 65.706 20.9389 65.4361 21.3082 65.4325C21.6847 65.4361 21.9332 65.7166 21.9332 66.1072ZM25.0227 62.7776V62.3586H23.581V62.3231C23.7301 62.2307 24.0568 62.0532 24.0568 61.5276C24.0568 60.8458 23.5099 60.3699 22.6435 60.3699C21.7841 60.3699 21.2372 60.8458 21.2372 61.5347C21.2372 62.0674 21.5639 62.2307 21.706 62.3231V62.3728H21.2727V62.7776H25.0227ZM22.6364 62.3657C22.0256 62.3657 21.6136 62.0958 21.6136 61.5844C21.6136 61.0518 22.0611 60.789 22.6364 60.789C23.2188 60.789 23.6804 61.0589 23.6804 61.5844C23.6804 62.0887 23.2543 62.3657 22.6364 62.3657ZM21.2727 58.5447V59.127H20.6193V59.5461H21.2727V59.958H21.6278V59.5461H23.3324C23.8082 59.5461 24.0355 59.1626 24.0355 58.8074C24.0355 58.6512 24.0071 58.5518 23.9858 58.4949L23.6094 58.5802C23.6165 58.6157 23.6307 58.6725 23.6307 58.7648C23.6307 58.9495 23.5739 59.127 23.2188 59.127H21.6278V58.5447H21.2727Z" fill="black"/>
<path d="M42.9716 59.2727H41.9148L39.733 60.7216V61.7955L41.8636 60.3807H41.9148V68H42.9716V59.2727ZM45.4815 68H50.9872V67.0625H46.9304V66.9943L48.8906 64.8977C50.3906 63.2912 50.8338 62.5412 50.8338 61.5739C50.8338 60.2273 49.7429 59.1534 48.2088 59.1534C46.679 59.1534 45.5156 60.1932 45.5156 61.7273H46.5213C46.5213 60.7344 47.1648 60.0739 48.1747 60.0739C49.1207 60.0739 49.8452 60.6534 49.8452 61.5739C49.8452 62.3793 49.3722 62.9759 48.3622 64.0795L45.4815 67.233V68ZM55.5426 68.1193C57.2855 68.1193 58.5 67.1009 58.5085 65.6818C58.5 64.5781 57.7628 63.6406 56.821 63.4659V63.4148C57.6392 63.2017 58.1761 62.4006 58.1847 61.4716C58.1761 60.142 57.0597 59.1534 55.5426 59.1534C54.0085 59.1534 52.892 60.142 52.9006 61.4716C52.892 62.4006 53.429 63.2017 54.2642 63.4148V63.4659C53.3054 63.6406 52.5682 64.5781 52.5767 65.6818C52.5682 67.1009 53.7827 68.1193 55.5426 68.1193ZM55.5426 67.1818C54.3452 67.1818 53.608 66.5682 53.6165 65.6307C53.608 64.6463 54.4219 63.9432 55.5426 63.9432C56.6463 63.9432 57.4602 64.6463 57.4688 65.6307C57.4602 66.5682 56.723 67.1818 55.5426 67.1818ZM55.5426 63.0398C54.5881 63.0398 53.9148 62.4432 53.9233 61.5398C53.9148 60.6534 54.5625 60.0739 55.5426 60.0739C56.5057 60.0739 57.1534 60.6534 57.1619 61.5398C57.1534 62.4432 56.4801 63.0398 55.5426 63.0398ZM68.6474 66.4318L69.2951 65.7841L67.2156 63.7045L69.2951 61.625L68.6474 60.9773L66.5678 63.0568L64.4883 60.9773L63.8406 61.625L65.9201 63.7045L63.8406 65.7841L64.4883 66.4318L66.5678 64.3523L68.6474 66.4318ZM77.87 59.2727H76.8132L74.6314 60.7216V61.7955L76.7621 60.3807H76.8132V68H77.87V59.2727ZM80.38 68H85.8857V67.0625H81.8288V66.9943L83.7891 64.8977C85.2891 63.2912 85.7322 62.5412 85.7322 61.5739C85.7322 60.2273 84.6413 59.1534 83.1072 59.1534C81.5774 59.1534 80.4141 60.1932 80.4141 61.7273H81.4197C81.4197 60.7344 82.0632 60.0739 83.0732 60.0739C84.0192 60.0739 84.7436 60.6534 84.7436 61.5739C84.7436 62.3793 84.2706 62.9759 83.2607 64.0795L80.38 67.233V68ZM90.4411 68.1193C92.1839 68.1193 93.3984 67.1009 93.407 65.6818C93.3984 64.5781 92.6612 63.6406 91.7195 63.4659V63.4148C92.5376 63.2017 93.0746 62.4006 93.0831 61.4716C93.0746 60.142 91.9581 59.1534 90.4411 59.1534C88.907 59.1534 87.7905 60.142 87.799 61.4716C87.7905 62.4006 88.3274 63.2017 89.1626 63.4148V63.4659C88.2038 63.6406 87.4666 64.5781 87.4751 65.6818C87.4666 67.1009 88.6811 68.1193 90.4411 68.1193ZM90.4411 67.1818C89.2436 67.1818 88.5064 66.5682 88.5149 65.6307C88.5064 64.6463 89.3203 63.9432 90.4411 63.9432C91.5447 63.9432 92.3587 64.6463 92.3672 65.6307C92.3587 66.5682 91.6214 67.1818 90.4411 67.1818ZM90.4411 63.0398C89.4865 63.0398 88.8132 62.4432 88.8217 61.5398C88.8132 60.6534 89.4609 60.0739 90.4411 60.0739C91.4041 60.0739 92.0518 60.6534 92.0604 61.5398C92.0518 62.4432 91.3786 63.0398 90.4411 63.0398Z" fill="black"/>
</svg>
