<svg width="128" height="128" viewBox="0 0 128 128" fill="none" xmlns="http://www.w3.org/2000/svg">
<rect x="14" y="14" width="100" height="100" fill="white"/>
<path d="M23.0625 18.1121C23.0625 18.3277 22.9579 18.5012 22.828 18.5012H20.172C20.0421 18.5012 19.9375 18.3277 19.9375 18.1121C19.9375 17.9959 19.9679 17.8921 20.0163 17.8209L21.3362 15.6054C21.3782 15.5396 21.4346 15.499 21.4969 15.499C21.5593 15.499 21.6157 15.5396 21.6577 15.6054L22.9837 17.8209C23.0321 17.8921 23.0625 17.9959 23.0625 18.1121Z" fill="#555761"/>
<line x1="21.5" y1="17" x2="21.5" y2="110" stroke="#555761"/>
<g clip-path="url(#clip0)">
<path d="M18.112 19.9375C18.3276 19.9375 18.5012 20.0421 18.5012 20.172V22.828C18.5012 22.9579 18.3276 23.0625 18.112 23.0625C17.9958 23.0625 17.8921 23.0321 17.8209 22.9837L15.6054 21.6638C15.5396 21.6218 15.499 21.5654 15.499 21.5031C15.499 21.4407 15.5396 21.3843 15.6054 21.3423L17.8209 20.0163C17.8921 19.9679 17.9958 19.9375 18.112 19.9375Z" fill="#555761"/>
</g>
<line x1="17" y1="21.5" x2="111" y2="21.5" stroke="#555761"/>
<path d="M60.6051 19.0497C61.31 19.0497 61.8338 18.6076 61.8338 18.0128C61.8338 17.5511 61.5604 17.2156 61.1023 17.1392V17.1108C61.4698 16.9989 61.6989 16.6971 61.6989 16.2869C61.6989 15.772 61.2923 15.3139 60.6193 15.3139C59.9908 15.3139 59.4688 15.701 59.4474 16.2727H59.8736C59.8896 15.9105 60.234 15.6974 60.6122 15.6974C61.0135 15.6974 61.2727 15.9407 61.2727 16.3082C61.2727 16.6918 60.9727 16.9403 60.5412 16.9403H60.25V17.331H60.5412C61.0934 17.331 61.4006 17.6115 61.4006 18.0128C61.4006 18.3981 61.065 18.6591 60.598 18.6591C60.1772 18.6591 59.8434 18.4425 59.8168 18.0909H59.3693C59.396 18.6626 59.9002 19.0497 60.6051 19.0497ZM63.7461 19.0497C64.5487 19.0497 65.0103 18.3697 65.0103 17.1818C65.0103 16.0028 64.5415 15.3139 63.7461 15.3139C62.9506 15.3139 62.4819 16.0028 62.4819 17.1818C62.4819 18.3697 62.9435 19.0497 63.7461 19.0497ZM63.7461 18.6591C63.217 18.6591 62.908 18.1282 62.908 17.1818C62.908 16.2372 63.2205 15.6974 63.7461 15.6974C64.2717 15.6974 64.5842 16.2372 64.5842 17.1818C64.5842 18.1282 64.2752 18.6591 63.7461 18.6591ZM66.8711 19.0497C67.6737 19.0497 68.1353 18.3697 68.1353 17.1818C68.1353 16.0028 67.6665 15.3139 66.8711 15.3139C66.0756 15.3139 65.6069 16.0028 65.6069 17.1818C65.6069 18.3697 66.0685 19.0497 66.8711 19.0497ZM66.8711 18.6591C66.342 18.6591 66.033 18.1282 66.033 17.1818C66.033 16.2372 66.3455 15.6974 66.8711 15.6974C67.3967 15.6974 67.7092 16.2372 67.7092 17.1818C67.7092 18.1282 67.4002 18.6591 66.8711 18.6591ZM70.2234 20.0227H70.6424V18.581H70.6779C70.7702 18.7301 70.9478 19.0568 71.4734 19.0568C72.1552 19.0568 72.631 18.5099 72.631 17.6435C72.631 16.7841 72.1552 16.2372 71.4663 16.2372C70.9336 16.2372 70.7702 16.5639 70.6779 16.706H70.6282V16.2727H70.2234V20.0227ZM70.6353 17.6364C70.6353 17.0256 70.9052 16.6136 71.4165 16.6136C71.9492 16.6136 72.212 17.0611 72.212 17.6364C72.212 18.2188 71.9421 18.6804 71.4165 18.6804C70.9123 18.6804 70.6353 18.2543 70.6353 17.6364ZM73.4704 16.2727H72.9875L73.854 17.6364L72.9875 19H73.4704L74.1238 17.9418L74.7773 19H75.2602L74.3795 17.6364L75.2602 16.2727H74.7773L74.1238 17.3878L73.4704 16.2727Z" fill="#4D4D4D"/>
<path d="M19.0497 71.3949C19.0497 70.69 18.6076 70.1662 18.0128 70.1662C17.5511 70.1662 17.2156 70.4396 17.1392 70.8977H17.1108C16.9989 70.5302 16.6971 70.3011 16.2869 70.3011C15.772 70.3011 15.3139 70.7077 15.3139 71.3807C15.3139 72.0092 15.701 72.5312 16.2727 72.5526V72.1264C15.9105 72.1104 15.6974 71.766 15.6974 71.3878C15.6974 70.9865 15.9407 70.7273 16.3082 70.7273C16.6918 70.7273 16.9403 71.0273 16.9403 71.4588V71.75H17.331V71.4588C17.331 70.9066 17.6115 70.5994 18.0128 70.5994C18.3981 70.5994 18.6591 70.935 18.6591 71.402C18.6591 71.8228 18.4425 72.1566 18.0909 72.1832V72.6307C18.6626 72.604 19.0497 72.0998 19.0497 71.3949ZM19.0497 68.2539C19.0497 67.4513 18.3697 66.9897 17.1818 66.9897C16.0028 66.9897 15.3139 67.4585 15.3139 68.2539C15.3139 69.0494 16.0028 69.5181 17.1818 69.5181C18.3697 69.5181 19.0497 69.0565 19.0497 68.2539ZM18.6591 68.2539C18.6591 68.783 18.1282 69.092 17.1818 69.092C16.2372 69.092 15.6974 68.7795 15.6974 68.2539C15.6974 67.7283 16.2372 67.4158 17.1818 67.4158C18.1282 67.4158 18.6591 67.7248 18.6591 68.2539ZM19.0497 65.1289C19.0497 64.3263 18.3697 63.8647 17.1818 63.8647C16.0028 63.8647 15.3139 64.3335 15.3139 65.1289C15.3139 65.9244 16.0028 66.3931 17.1818 66.3931C18.3697 66.3931 19.0497 65.9315 19.0497 65.1289ZM18.6591 65.1289C18.6591 65.658 18.1282 65.967 17.1818 65.967C16.2372 65.967 15.6974 65.6545 15.6974 65.1289C15.6974 64.6033 16.2372 64.2908 17.1818 64.2908C18.1282 64.2908 18.6591 64.5998 18.6591 65.1289ZM20.0227 61.7766V61.3576H18.581V61.3221C18.7301 61.2298 19.0568 61.0522 19.0568 60.5266C19.0568 59.8448 18.5099 59.369 17.6435 59.369C16.7841 59.369 16.2372 59.8448 16.2372 60.5337C16.2372 61.0664 16.5639 61.2298 16.706 61.3221V61.3718H16.2727V61.7766H20.0227ZM17.6364 61.3647C17.0256 61.3647 16.6136 61.0948 16.6136 60.5835C16.6136 60.0508 17.0611 59.788 17.6364 59.788C18.2188 59.788 18.6804 60.0579 18.6804 60.5835C18.6804 61.0877 18.2543 61.3647 17.6364 61.3647ZM16.2727 58.5296V59.0125L17.6364 58.146L19 59.0125V58.5296L17.9418 57.8762L19 57.2227V56.7398L17.6364 57.6205L16.2727 56.7398V57.2227L17.3878 57.8762L16.2727 58.5296Z" fill="#4D4D4D"/>
<path d="M43.8523 68.1193C45.544 68.1193 46.8011 67.0582 46.8011 65.6307C46.8011 64.5227 46.1449 63.7173 45.0455 63.5341V63.4659C45.9276 63.1974 46.4773 62.473 46.4773 61.4886C46.4773 60.2528 45.5014 59.1534 43.8864 59.1534C42.3778 59.1534 41.125 60.0824 41.0739 61.4545H42.0966C42.1349 60.5852 42.9616 60.0739 43.8693 60.0739C44.8324 60.0739 45.4545 60.6577 45.4545 61.5398C45.4545 62.4602 44.7344 63.0568 43.6989 63.0568H43V63.9943H43.6989C45.0241 63.9943 45.7614 64.6676 45.7614 65.6307C45.7614 66.5554 44.956 67.1818 43.8352 67.1818C42.8253 67.1818 42.0241 66.6619 41.9602 65.8182H40.8864C40.9503 67.1903 42.1605 68.1193 43.8523 68.1193ZM51.3906 68.1193C53.3168 68.1193 54.4247 66.4872 54.4247 63.6364C54.4247 60.8068 53.2997 59.1534 51.3906 59.1534C49.4815 59.1534 48.3565 60.8068 48.3565 63.6364C48.3565 66.4872 49.4645 68.1193 51.3906 68.1193ZM51.3906 67.1818C50.1207 67.1818 49.3793 65.9077 49.3793 63.6364C49.3793 61.3693 50.1293 60.0739 51.3906 60.0739C52.652 60.0739 53.402 61.3693 53.402 63.6364C53.402 65.9077 52.6605 67.1818 51.3906 67.1818ZM58.8906 68.1193C60.8168 68.1193 61.9247 66.4872 61.9247 63.6364C61.9247 60.8068 60.7997 59.1534 58.8906 59.1534C56.9815 59.1534 55.8565 60.8068 55.8565 63.6364C55.8565 66.4872 56.9645 68.1193 58.8906 68.1193ZM58.8906 67.1818C57.6207 67.1818 56.8793 65.9077 56.8793 63.6364C56.8793 61.3693 57.6293 60.0739 58.8906 60.0739C60.152 60.0739 60.902 61.3693 60.902 63.6364C60.902 65.9077 60.1605 67.1818 58.8906 67.1818ZM72.0497 66.4318L72.6974 65.7841L70.6179 63.7045L72.6974 61.625L72.0497 60.9773L69.9702 63.0568L67.8906 60.9773L67.2429 61.625L69.3224 63.7045L67.2429 65.7841L67.8906 66.4318L69.9702 64.3523L72.0497 66.4318ZM81.1531 68.1193C82.8448 68.1193 84.1019 67.0582 84.1019 65.6307C84.1019 64.5227 83.4457 63.7173 82.3462 63.5341V63.4659C83.2283 63.1974 83.7781 62.473 83.7781 61.4886C83.7781 60.2528 82.8022 59.1534 81.1871 59.1534C79.6786 59.1534 78.4258 60.0824 78.3746 61.4545H79.3974C79.4357 60.5852 80.2624 60.0739 81.1701 60.0739C82.1332 60.0739 82.7553 60.6577 82.7553 61.5398C82.7553 62.4602 82.0352 63.0568 80.9996 63.0568H80.3008V63.9943H80.9996C82.3249 63.9943 83.0621 64.6676 83.0621 65.6307C83.0621 66.5554 82.2567 67.1818 81.136 67.1818C80.1261 67.1818 79.3249 66.6619 79.261 65.8182H78.1871C78.2511 67.1903 79.4613 68.1193 81.1531 68.1193ZM88.6914 68.1193C90.6175 68.1193 91.7255 66.4872 91.7255 63.6364C91.7255 60.8068 90.6005 59.1534 88.6914 59.1534C86.7823 59.1534 85.6573 60.8068 85.6573 63.6364C85.6573 66.4872 86.7653 68.1193 88.6914 68.1193ZM88.6914 67.1818C87.4215 67.1818 86.68 65.9077 86.68 63.6364C86.68 61.3693 87.43 60.0739 88.6914 60.0739C89.9528 60.0739 90.7028 61.3693 90.7028 63.6364C90.7028 65.9077 89.9613 67.1818 88.6914 67.1818ZM96.1914 68.1193C98.1175 68.1193 99.2255 66.4872 99.2255 63.6364C99.2255 60.8068 98.1005 59.1534 96.1914 59.1534C94.2823 59.1534 93.1573 60.8068 93.1573 63.6364C93.1573 66.4872 94.2653 68.1193 96.1914 68.1193ZM96.1914 67.1818C94.9215 67.1818 94.18 65.9077 94.18 63.6364C94.18 61.3693 94.93 60.0739 96.1914 60.0739C97.4528 60.0739 98.2028 61.3693 98.2028 63.6364C98.2028 65.9077 97.4613 67.1818 96.1914 67.1818Z" fill="black"/>
<defs>
<clipPath id="clip0">
<rect width="5" height="8" fill="white" transform="translate(13 24) rotate(-90)"/>
</clipPath>
</defs>
</svg>
