<svg width="128" height="128" viewBox="0 0 128 128" fill="none" xmlns="http://www.w3.org/2000/svg">
<path d="M35 108L35 20H92V108H35Z" fill="white"/>
<path d="M43.0625 24.112C43.0625 24.3276 42.9579 24.5012 42.828 24.5012H40.172C40.0421 24.5012 39.9375 24.3276 39.9375 24.112C39.9375 23.9958 39.9679 23.8921 40.0163 23.8209L41.3362 21.6054C41.3782 21.5396 41.4346 21.499 41.4969 21.499C41.5593 21.499 41.6157 21.5396 41.6577 21.6054L42.9837 23.8209C43.0321 23.8921 43.0625 23.9958 43.0625 24.112Z" fill="#555761"/>
<line x1="41.5" y1="23" x2="41.5" y2="105" stroke="#555761"/>
<g clip-path="url(#clip0)">
<path d="M39.1121 24.9375C39.3277 24.9375 39.5012 25.0421 39.5012 25.172V27.828C39.5012 27.9579 39.3277 28.0625 39.1121 28.0625C38.9959 28.0625 38.8921 28.0321 38.8209 27.9837L36.6054 26.6638C36.5396 26.6218 36.499 26.5654 36.499 26.5031C36.499 26.4407 36.5396 26.3843 36.6054 26.3423L38.8209 25.0163C38.8921 24.9679 38.9959 24.9375 39.1121 24.9375Z" fill="#555761"/>
</g>
<line x1="38" y1="26.5" x2="89" y2="26.5" stroke="#555761"/>
<path d="M60.4148 68L61.2926 65.5284H64.821L65.6989 68H66.8068L63.6023 59.2727H62.5114L59.3068 68H60.4148ZM61.625 64.5909L63.0227 60.6534H63.0909L64.4886 64.5909H61.625ZM67.8082 66.2102H71.9162V68H72.9219V66.2102H74.1151V65.2727H72.9219V59.2727H71.6435L67.8082 65.3409V66.2102ZM71.9162 65.2727H68.9503V65.2045L71.848 60.6193H71.9162V65.2727Z" fill="black"/>
<defs>
<clipPath id="clip0">
<rect width="5" height="8" fill="white" transform="translate(34 29) rotate(-90)"/>
</clipPath>
</defs>
</svg>
