<svg width="128" height="128" viewBox="0 0 128 128" fill="none" xmlns="http://www.w3.org/2000/svg">
<path d="M38 103L38 25H90V103H38Z" fill="white"/>
<path d="M46.0625 29.112C46.0625 29.3276 45.9579 29.5012 45.828 29.5012H43.172C43.0421 29.5012 42.9375 29.3276 42.9375 29.112C42.9375 28.9958 42.9679 28.8921 43.0163 28.8209L44.3362 26.6054C44.3782 26.5396 44.4346 26.499 44.4969 26.499C44.5593 26.499 44.6157 26.5396 44.6577 26.6054L45.9837 28.8209C46.0321 28.8921 46.0625 28.9958 46.0625 29.112Z" fill="#555761"/>
<line x1="44.5" y1="28" x2="44.5" y2="100" stroke="#555761"/>
<g clip-path="url(#clip0)">
<path d="M42.1121 29.9375C42.3277 29.9375 42.5012 30.0421 42.5012 30.172V32.828C42.5012 32.9579 42.3277 33.0625 42.1121 33.0625C41.9959 33.0625 41.8921 33.0321 41.8209 32.9837L39.6054 31.6638C39.5396 31.6218 39.499 31.5654 39.499 31.5031C39.499 31.4407 39.5396 31.3843 39.6054 31.3423L41.8209 30.0163C41.8921 29.9679 41.9959 29.9375 42.1121 29.9375Z" fill="#555761"/>
</g>
<line x1="41" y1="31.5" x2="87" y2="31.5" stroke="#555761"/>
<path d="M60.4148 69L61.2926 66.5284H64.821L65.6989 69H66.8068L63.6023 60.2727H62.5114L59.3068 69H60.4148ZM61.625 65.5909L63.0227 61.6534H63.0909L64.4886 65.5909H61.625ZM70.7401 69.1193C72.402 69.1193 73.6207 67.892 73.6207 66.2216C73.6207 64.5298 72.4446 63.2898 70.8423 63.2898C70.2543 63.2898 69.6832 63.4986 69.3253 63.7841H69.2741L69.581 61.2102H73.2287V60.2727H68.6946L68.1662 64.5682L69.1548 64.6875C69.517 64.4276 70.1349 64.2401 70.6719 64.2443C71.7841 64.2528 72.598 65.0966 72.598 66.2386C72.598 67.3594 71.8139 68.1818 70.7401 68.1818C69.8452 68.1818 69.1335 67.6065 69.0526 66.8182H68.0298C68.0938 68.1477 69.2401 69.1193 70.7401 69.1193Z" fill="black"/>
<defs>
<clipPath id="clip0">
<rect width="5" height="8" fill="white" transform="translate(37 34) rotate(-90)"/>
</clipPath>
</defs>
</svg>
