<svg width="128" height="128" viewBox="0 0 128 128" fill="none" xmlns="http://www.w3.org/2000/svg">
<path d="M45 93V35H82V93H45Z" fill="white"/>
<path d="M53.0625 39.112C53.0625 39.3276 52.9579 39.5012 52.828 39.5012H50.172C50.0421 39.5012 49.9375 39.3276 49.9375 39.112C49.9375 38.9958 49.9679 38.8921 50.0163 38.8209L51.3362 36.6054C51.3782 36.5396 51.4346 36.499 51.4969 36.499C51.5593 36.499 51.6157 36.5396 51.6577 36.6054L52.9837 38.8209C53.0321 38.8921 53.0625 38.9958 53.0625 39.112Z" fill="#555761"/>
<line x1="51.5" y1="38" x2="51.5" y2="90" stroke="#555761"/>
<g clip-path="url(#clip0)">
<path d="M49.1121 39.9375C49.3277 39.9375 49.5012 40.0421 49.5012 40.172V42.828C49.5012 42.9579 49.3277 43.0625 49.1121 43.0625C48.9959 43.0625 48.8921 43.0321 48.8209 42.9837L46.6054 41.6638C46.5396 41.6218 46.499 41.5654 46.499 41.5031C46.499 41.4407 46.5396 41.3843 46.6054 41.3423L48.8209 40.0163C48.8921 39.9679 48.9959 39.9375 49.1121 39.9375Z" fill="#555761"/>
</g>
<line x1="48" y1="41.5" x2="79" y2="41.5" stroke="#555761"/>
<path d="M60.4148 68L61.2926 65.5284H64.821L65.6989 68H66.8068L63.6023 59.2727H62.5114L59.3068 68H60.4148ZM61.625 64.5909L63.0227 60.6534H63.0909L64.4886 64.5909H61.625ZM68.2855 68H69.3935L73.2798 60.2614V59.2727H67.6889V60.2102H72.1889V60.2784L68.2855 68Z" fill="black"/>
<defs>
<clipPath id="clip0">
<rect width="5" height="8" fill="white" transform="translate(44 44) rotate(-90)"/>
</clipPath>
</defs>
</svg>
