<svg width="128" height="128" viewBox="0 0 128 128" fill="none" xmlns="http://www.w3.org/2000/svg">
<path d="M33 113L33 15H100V113H33Z" fill="white"/>
<path d="M41.0625 19.112C41.0625 19.3276 40.9579 19.5012 40.828 19.5012H38.172C38.0421 19.5012 37.9375 19.3276 37.9375 19.112C37.9375 18.9958 37.9679 18.8921 38.0163 18.8209L39.3362 16.6054C39.3782 16.5396 39.4346 16.499 39.4969 16.499C39.5593 16.499 39.6157 16.5396 39.6577 16.6054L40.9837 18.8209C41.0321 18.8921 41.0625 18.9958 41.0625 19.112Z" fill="#555761"/>
<line x1="39.5" y1="18" x2="39.5" y2="110" stroke="#555761"/>
<g clip-path="url(#clip0)">
<path d="M37.1121 19.9375C37.3277 19.9375 37.5012 20.0421 37.5012 20.172V22.828C37.5012 22.9579 37.3277 23.0625 37.1121 23.0625C36.9959 23.0625 36.8921 23.0321 36.8209 22.9837L34.6054 21.6638C34.5396 21.6218 34.499 21.5654 34.499 21.5031C34.499 21.4407 34.5396 21.3843 34.6054 21.3423L36.8209 20.0163C36.8921 19.9679 36.9959 19.9375 37.1121 19.9375Z" fill="#555761"/>
</g>
<line x1="36" y1="21.5" x2="97" y2="21.5" stroke="#555761"/>
<path d="M65.4148 70L66.2926 67.5284H69.821L70.6989 70H71.8068L68.6023 61.2727H67.5114L64.3068 70H65.4148ZM66.625 66.5909L68.0227 62.6534H68.0909L69.4886 66.5909H66.625ZM75.9616 70.1193C77.6534 70.1193 78.9105 69.0582 78.9105 67.6307C78.9105 66.5227 78.2543 65.7173 77.1548 65.5341V65.4659C78.0369 65.1974 78.5866 64.473 78.5866 63.4886C78.5866 62.2528 77.6108 61.1534 75.9957 61.1534C74.4872 61.1534 73.2344 62.0824 73.1832 63.4545H74.206C74.2443 62.5852 75.071 62.0739 75.9787 62.0739C76.9418 62.0739 77.5639 62.6577 77.5639 63.5398C77.5639 64.4602 76.8438 65.0568 75.8082 65.0568H75.1094V65.9943H75.8082C77.1335 65.9943 77.8707 66.6676 77.8707 67.6307C77.8707 68.5554 77.0653 69.1818 75.9446 69.1818C74.9347 69.1818 74.1335 68.6619 74.0696 67.8182H72.9957C73.0597 69.1903 74.2699 70.1193 75.9616 70.1193Z" fill="black"/>
<defs>
<clipPath id="clip0">
<rect width="5" height="8" fill="white" transform="translate(32 24) rotate(-90)"/>
</clipPath>
</defs>
</svg>
