<svg width="128" height="128" viewBox="0 0 128 128" fill="none" xmlns="http://www.w3.org/2000/svg">
<path d="M23 123L23 5H105L105 123H23Z" fill="white"/>
<path d="M31.0625 9.11203C31.0625 9.32764 30.9579 9.50122 30.828 9.50122H28.172C28.0421 9.50122 27.9375 9.32764 27.9375 9.11203C27.9375 8.99583 27.9679 8.8921 28.0163 8.8209L29.3362 6.60542C29.3782 6.53961 29.4346 6.499 29.4969 6.499C29.5593 6.499 29.6157 6.53961 29.6577 6.60542L30.9837 8.8209C31.0321 8.8921 31.0625 8.99583 31.0625 9.11203Z" fill="#555761"/>
<line x1="29.5" y1="8" x2="29.5" y2="120" stroke="#555761"/>
<g clip-path="url(#clip0)">
<path d="M27.1121 9.9375C27.3277 9.9375 27.5012 10.0421 27.5012 10.172V12.828C27.5012 12.9579 27.3277 13.0625 27.1121 13.0625C26.9959 13.0625 26.8921 13.0321 26.8209 12.9837L24.6054 11.6638C24.5396 11.6218 24.499 11.5654 24.499 11.5031C24.499 11.4407 24.5396 11.3843 24.6054 11.3423L26.8209 10.0163C26.8921 9.96792 26.9959 9.9375 27.1121 9.9375Z" fill="#555761"/>
</g>
<line x1="26" y1="11.5" x2="102" y2="11.5" stroke="#555761"/>
<path d="M62.4148 68L63.2926 65.5284H66.821L67.6989 68H68.8068L65.6023 59.2727H64.5114L61.3068 68H62.4148ZM63.625 64.5909L65.0227 60.6534H65.0909L66.4886 64.5909H63.625ZM72.6708 59.2727H71.614L69.4322 60.7216V61.7955L71.5629 60.3807H71.614V68H72.6708V59.2727Z" fill="black"/>
<defs>
<clipPath id="clip0">
<rect width="5" height="8" fill="white" transform="translate(22 14) rotate(-90)"/>
</clipPath>
</defs>
</svg>
