<svg width="128" height="128" viewBox="0 0 128 128" fill="none" xmlns="http://www.w3.org/2000/svg">
<path d="M28 118L28 10H100V118H28Z" fill="white"/>
<path d="M36.0625 13.112C36.0625 13.3276 35.9579 13.5012 35.828 13.5012H33.172C33.0421 13.5012 32.9375 13.3276 32.9375 13.112C32.9375 12.9958 32.9679 12.8921 33.0163 12.8209L34.3362 10.6054C34.3782 10.5396 34.4346 10.499 34.4969 10.499C34.5593 10.499 34.6157 10.5396 34.6577 10.6054L35.9837 12.8209C36.0321 12.8921 36.0625 12.9958 36.0625 13.112Z" fill="#555761"/>
<line x1="34.5" y1="12" x2="34.5" y2="115" stroke="#555761"/>
<g clip-path="url(#clip0)">
<path d="M32.1121 14.9375C32.3277 14.9375 32.5012 15.0421 32.5012 15.172V17.828C32.5012 17.9579 32.3277 18.0625 32.1121 18.0625C31.9959 18.0625 31.8921 18.0321 31.8209 17.9837L29.6054 16.6638C29.5396 16.6218 29.499 16.5654 29.499 16.5031C29.499 16.4407 29.5396 16.3843 29.6054 16.3423L31.8209 15.0163C31.8921 14.9679 31.9959 14.9375 32.1121 14.9375Z" fill="#555761"/>
</g>
<line x1="31" y1="16.5" x2="97" y2="16.5" stroke="#555761"/>
<path d="M61.4148 68L62.2926 65.5284H65.821L66.6989 68H67.8068L64.6023 59.2727H63.5114L60.3068 68H61.4148ZM62.625 64.5909L64.0227 60.6534H64.0909L65.4886 64.5909H62.625ZM69.0128 68H74.5185V67.0625H70.4616V66.9943L72.4219 64.8977C73.9219 63.2912 74.3651 62.5412 74.3651 61.5739C74.3651 60.2273 73.2741 59.1534 71.7401 59.1534C70.2102 59.1534 69.0469 60.1932 69.0469 61.7273H70.0526C70.0526 60.7344 70.696 60.0739 71.706 60.0739C72.652 60.0739 73.3764 60.6534 73.3764 61.5739C73.3764 62.3793 72.9034 62.9759 71.8935 64.0795L69.0128 67.233V68Z" fill="black"/>
<defs>
<clipPath id="clip0">
<rect width="5" height="8" fill="white" transform="translate(27 19) rotate(-90)"/>
</clipPath>
</defs>
</svg>
