<svg width="128" height="128" viewBox="0 0 128 128" fill="none" xmlns="http://www.w3.org/2000/svg">
<path d="M41 98L41 30H88V98H41Z" fill="white"/>
<path d="M49.0625 34.112C49.0625 34.3276 48.9579 34.5012 48.828 34.5012H46.172C46.0421 34.5012 45.9375 34.3276 45.9375 34.112C45.9375 33.9958 45.9679 33.8921 46.0163 33.8209L47.3362 31.6054C47.3782 31.5396 47.4346 31.499 47.4969 31.499C47.5593 31.499 47.6157 31.5396 47.6577 31.6054L48.9837 33.8209C49.0321 33.8921 49.0625 33.9958 49.0625 34.112Z" fill="#555761"/>
<line x1="47.5" y1="33" x2="47.5" y2="95" stroke="#555761"/>
<g clip-path="url(#clip0)">
<path d="M45.1121 34.9375C45.3277 34.9375 45.5012 35.0421 45.5012 35.172V37.828C45.5012 37.9579 45.3277 38.0625 45.1121 38.0625C44.9959 38.0625 44.8921 38.0321 44.8209 37.9837L42.6054 36.6638C42.5396 36.6218 42.499 36.5654 42.499 36.5031C42.499 36.4407 42.5396 36.3843 42.6054 36.3423L44.8209 35.0163C44.8921 34.9679 44.9959 34.9375 45.1121 34.9375Z" fill="#555761"/>
</g>
<line x1="44" y1="36.5" x2="85" y2="36.5" stroke="#555761"/>
<path d="M61.4148 68L62.2926 65.5284H65.821L66.6989 68H67.8068L64.6023 59.2727H63.5114L60.3068 68H61.4148ZM62.625 64.5909L64.0227 60.6534H64.0909L65.4886 64.5909H62.625ZM71.9105 68.1193C73.6747 68.1406 74.8253 66.8111 74.8253 65.1875C74.8253 63.5 73.5767 62.2898 72.081 62.2898C71.1818 62.2898 70.4105 62.7287 69.9332 63.4489H69.8651C69.8693 61.3224 70.696 60.0909 72.0469 60.0909C72.9673 60.0909 73.5213 60.6705 73.7173 61.4545H74.7571C74.544 60.0994 73.5128 59.1534 72.0469 59.1534C70.0824 59.1534 68.8764 60.892 68.8764 63.9773C68.8764 67.2031 70.4787 68.1023 71.9105 68.1193ZM71.9105 67.1818C70.8153 67.1818 70.0142 66.2486 70.0185 65.2045C70.0227 64.1605 70.8622 63.2273 71.9446 63.2273C73.0142 63.2273 73.8026 64.1051 73.8026 65.1875C73.8026 66.2955 72.9801 67.1818 71.9105 67.1818Z" fill="black"/>
<defs>
<clipPath id="clip0">
<rect width="5" height="8" fill="white" transform="translate(40 39) rotate(-90)"/>
</clipPath>
</defs>
</svg>
