<svg width="128" height="128" viewBox="0 0 128 128" fill="none" xmlns="http://www.w3.org/2000/svg">
<rect x="18" y="128" width="128" height="92" transform="rotate(-90 18 128)" fill="white"/>
<path d="M28.0625 5.11203C28.0625 5.32764 27.9579 5.50122 27.828 5.50122H25.172C25.0421 5.50122 24.9375 5.32764 24.9375 5.11203C24.9375 4.99583 24.9679 4.8921 25.0163 4.8209L26.3362 2.60542C26.3782 2.53961 26.4346 2.499 26.4969 2.499C26.5593 2.499 26.6157 2.53961 26.6577 2.60542L27.9837 4.8209C28.0321 4.8921 28.0625 4.99583 28.0625 5.11203Z" fill="#555761"/>
<line x1="26.5" y1="4.19672" x2="26.5" y2="124" stroke="#555761"/>
<g clip-path="url(#clip0)">
<path d="M23.1121 5.9375C23.3277 5.9375 23.5012 6.04208 23.5012 6.17198V8.82802C23.5012 8.95792 23.3277 9.0625 23.1121 9.0625C22.9959 9.0625 22.8921 9.03207 22.8209 8.98373L20.6054 7.6638C20.5396 7.6218 20.499 7.56536 20.499 7.50305C20.499 7.44074 20.5396 7.3843 20.6054 7.34231L22.8209 6.01627C22.8921 5.96792 22.9959 5.9375 23.1121 5.9375Z" fill="#555761"/>
</g>
<line x1="22" y1="7.5" x2="107" y2="7.5" stroke="#555761"/>
<path d="M61.4148 70L62.2926 67.5284H65.821L66.6989 70H67.8068L64.6023 61.2727H63.5114L60.3068 70H61.4148ZM62.625 66.5909L64.0227 62.6534H64.0909L65.4886 66.5909H62.625ZM71.8594 70.1193C73.7855 70.1193 74.8935 68.4872 74.8935 65.6364C74.8935 62.8068 73.7685 61.1534 71.8594 61.1534C69.9503 61.1534 68.8253 62.8068 68.8253 65.6364C68.8253 68.4872 69.9332 70.1193 71.8594 70.1193ZM71.8594 69.1818C70.5895 69.1818 69.848 67.9077 69.848 65.6364C69.848 63.3693 70.598 62.0739 71.8594 62.0739C73.1207 62.0739 73.8707 63.3693 73.8707 65.6364C73.8707 67.9077 73.1293 69.1818 71.8594 69.1818Z" fill="black"/>
<defs>
<clipPath id="clip0">
<rect width="5" height="8" fill="white" transform="translate(18 10) rotate(-90)"/>
</clipPath>
</defs>
</svg>
