<svg width="128" height="128" viewBox="0 0 128 128" fill="none" xmlns="http://www.w3.org/2000/svg">
<path d="M38 103L38 25H90V103H38Z" fill="white"/>
<path d="M46.0625 29.112C46.0625 29.3276 45.9579 29.5012 45.828 29.5012H43.172C43.0421 29.5012 42.9375 29.3276 42.9375 29.112C42.9375 28.9958 42.9679 28.8921 43.0163 28.8209L44.3362 26.6054C44.3782 26.5396 44.4346 26.499 44.4969 26.499C44.5593 26.499 44.6157 26.5396 44.6577 26.6054L45.9837 28.8209C46.0321 28.8921 46.0625 28.9958 46.0625 29.112Z" fill="#555761"/>
<line x1="44.5" y1="28" x2="44.5" y2="100" stroke="#555761"/>
<g clip-path="url(#clip0)">
<path d="M42.112 29.9375C42.3276 29.9375 42.5012 30.0421 42.5012 30.172V32.828C42.5012 32.9579 42.3276 33.0625 42.112 33.0625C41.9958 33.0625 41.8921 33.0321 41.8209 32.9837L39.6054 31.6638C39.5396 31.6218 39.499 31.5654 39.499 31.5031C39.499 31.4407 39.5396 31.3843 39.6054 31.3423L41.8209 30.0163C41.8921 29.9679 41.9958 29.9375 42.112 29.9375Z" fill="#555761"/>
</g>
<line x1="41" y1="31.5" x2="87" y2="31.5" stroke="#555761"/>
<path d="M53.9034 69H59.4091V68.0625H55.3523V67.9943L57.3125 65.8977C58.8125 64.2912 59.2557 63.5412 59.2557 62.5739C59.2557 61.2273 58.1648 60.1534 56.6307 60.1534C55.1009 60.1534 53.9375 61.1932 53.9375 62.7273H54.9432C54.9432 61.7344 55.5866 61.0739 56.5966 61.0739C57.5426 61.0739 58.267 61.6534 58.267 62.5739C58.267 63.3793 57.794 63.9759 56.7841 65.0795L53.9034 68.233V69ZM69.6747 67.4318L70.3224 66.7841L68.2429 64.7045L70.3224 62.625L69.6747 61.9773L67.5952 64.0568L65.5156 61.9773L64.8679 62.625L66.9474 64.7045L64.8679 66.7841L65.5156 67.4318L67.5952 65.3523L69.6747 67.4318ZM78.7781 69.1193C80.4698 69.1193 81.7269 68.0582 81.7269 66.6307C81.7269 65.5227 81.0707 64.7173 79.9712 64.5341V64.4659C80.8533 64.1974 81.4031 63.473 81.4031 62.4886C81.4031 61.2528 80.4272 60.1534 78.8121 60.1534C77.3036 60.1534 76.0508 61.0824 75.9996 62.4545H77.0224C77.0607 61.5852 77.8874 61.0739 78.7951 61.0739C79.7582 61.0739 80.3803 61.6577 80.3803 62.5398C80.3803 63.4602 79.6602 64.0568 78.6246 64.0568H77.9258V64.9943H78.6246C79.9499 64.9943 80.6871 65.6676 80.6871 66.6307C80.6871 67.5554 79.8817 68.1818 78.761 68.1818C77.7511 68.1818 76.9499 67.6619 76.886 66.8182H75.8121C75.8761 68.1903 77.0863 69.1193 78.7781 69.1193Z" fill="black"/>
<defs>
<clipPath id="clip0">
<rect width="5" height="8" fill="white" transform="translate(37 34) rotate(-90)"/>
</clipPath>
</defs>
</svg>
