<svg width="128" height="128" viewBox="0 0 128 128" fill="none" xmlns="http://www.w3.org/2000/svg">
<path d="M28 119L28 11H100V119H28Z" fill="white"/>
<path d="M36.0625 14.112C36.0625 14.3276 35.9579 14.5012 35.828 14.5012H33.172C33.0421 14.5012 32.9375 14.3276 32.9375 14.112C32.9375 13.9958 32.9679 13.8921 33.0163 13.8209L34.3362 11.6054C34.3782 11.5396 34.4346 11.499 34.4969 11.499C34.5593 11.499 34.6157 11.5396 34.6577 11.6054L35.9837 13.8209C36.0321 13.8921 36.0625 13.9958 36.0625 14.112Z" fill="#555761"/>
<line x1="34.5" y1="13" x2="34.5" y2="116" stroke="#555761"/>
<g clip-path="url(#clip0)">
<path d="M32.112 15.9375C32.3276 15.9375 32.5012 16.0421 32.5012 16.172V18.828C32.5012 18.9579 32.3276 19.0625 32.112 19.0625C31.9958 19.0625 31.8921 19.0321 31.8209 18.9837L29.6054 17.6638C29.5396 17.6218 29.499 17.5654 29.499 17.5031C29.499 17.4407 29.5396 17.3843 29.6054 17.3423L31.8209 16.0163C31.8921 15.9679 31.9958 15.9375 32.112 15.9375Z" fill="#555761"/>
</g>
<line x1="31" y1="17.5" x2="97" y2="17.5" stroke="#555761"/>
<path d="M49.6989 69.1193C51.4418 69.1193 52.6562 68.1009 52.6648 66.6818C52.6562 65.5781 51.919 64.6406 50.9773 64.4659V64.4148C51.7955 64.2017 52.3324 63.4006 52.3409 62.4716C52.3324 61.142 51.2159 60.1534 49.6989 60.1534C48.1648 60.1534 47.0483 61.142 47.0568 62.4716C47.0483 63.4006 47.5852 64.2017 48.4205 64.4148V64.4659C47.4616 64.6406 46.7244 65.5781 46.733 66.6818C46.7244 68.1009 47.9389 69.1193 49.6989 69.1193ZM49.6989 68.1818C48.5014 68.1818 47.7642 67.5682 47.7727 66.6307C47.7642 65.6463 48.5781 64.9432 49.6989 64.9432C50.8026 64.9432 51.6165 65.6463 51.625 66.6307C51.6165 67.5682 50.8793 68.1818 49.6989 68.1818ZM49.6989 64.0398C48.7443 64.0398 48.071 63.4432 48.0795 62.5398C48.071 61.6534 48.7188 61.0739 49.6989 61.0739C50.6619 61.0739 51.3097 61.6534 51.3182 62.5398C51.3097 63.4432 50.6364 64.0398 49.6989 64.0398ZM54.7784 69.0682C55.2003 69.0682 55.5455 68.723 55.5455 68.3011C55.5455 67.8793 55.2003 67.5341 54.7784 67.5341C54.3565 67.5341 54.0114 67.8793 54.0114 68.3011C54.0114 68.723 54.3565 69.0682 54.7784 69.0682ZM59.8846 69.1193C61.5465 69.1193 62.7653 67.892 62.7653 66.2216C62.7653 64.5298 61.5891 63.2898 59.9869 63.2898C59.3988 63.2898 58.8278 63.4986 58.4698 63.7841H58.4187L58.7255 61.2102H62.3732V60.2727H57.8391L57.3107 64.5682L58.2994 64.6875C58.6616 64.4276 59.2795 64.2401 59.8164 64.2443C60.9286 64.2528 61.7425 65.0966 61.7425 66.2386C61.7425 67.3594 60.9585 68.1818 59.8846 68.1818C58.9897 68.1818 58.2781 67.6065 58.1971 66.8182H57.1744C57.2383 68.1477 58.3846 69.1193 59.8846 69.1193ZM72.9638 67.4318L73.6115 66.7841L71.532 64.7045L73.6115 62.625L72.9638 61.9773L70.8842 64.0568L68.8047 61.9773L68.157 62.625L70.2365 64.7045L68.157 66.7841L68.8047 67.4318L70.8842 65.3523L72.9638 67.4318ZM82.1864 60.2727H81.1296L78.9478 61.7216V62.7955L81.0785 61.3807H81.1296V69H82.1864V60.2727ZM87.7646 60.2727H86.7077L84.5259 61.7216V62.7955L86.6566 61.3807H86.7077V69H87.7646V60.2727Z" fill="black"/>
<defs>
<clipPath id="clip0">
<rect width="5" height="8" fill="white" transform="translate(27 20) rotate(-90)"/>
</clipPath>
</defs>
</svg>
