<svg width="128" height="128" viewBox="0 0 128 128" fill="none" xmlns="http://www.w3.org/2000/svg">
<rect x="18" y="128" width="128" height="92" transform="rotate(-90 18 128)" fill="white"/>
<path d="M28.0625 5.11203C28.0625 5.32764 27.9579 5.50121 27.828 5.50121H25.172C25.0421 5.50121 24.9375 5.32764 24.9375 5.11203C24.9375 4.99582 24.9679 4.89209 25.0163 4.8209L26.3362 2.60541C26.3782 2.53961 26.4346 2.49899 26.4969 2.49899C26.5593 2.49899 26.6157 2.5396 26.6577 2.60541L27.9837 4.8209C28.0321 4.89209 28.0625 4.99582 28.0625 5.11203Z" fill="#555761"/>
<line x1="26.5" y1="4.19672" x2="26.5" y2="124" stroke="#555761"/>
<g clip-path="url(#clip0)">
<path d="M23.112 5.9375C23.3276 5.9375 23.5012 6.04208 23.5012 6.17198V8.82802C23.5012 8.95792 23.3276 9.0625 23.112 9.0625C22.9958 9.0625 22.8921 9.03207 22.8209 8.98373L20.6054 7.6638C20.5396 7.6218 20.499 7.56536 20.499 7.50305C20.499 7.44074 20.5396 7.3843 20.6054 7.34231L22.8209 6.01627C22.8921 5.96792 22.9958 5.9375 23.112 5.9375Z" fill="#555761"/>
</g>
<line x1="22" y1="7.5" x2="107" y2="7.5" stroke="#555761"/>
<path d="M48.9034 69H54.4091V68.0625H50.3523V67.9943L52.3125 65.8977C53.8125 64.2912 54.2557 63.5412 54.2557 62.5739C54.2557 61.2273 53.1648 60.1534 51.6307 60.1534C50.1009 60.1534 48.9375 61.1932 48.9375 62.7273H49.9432C49.9432 61.7344 50.5866 61.0739 51.5966 61.0739C52.5426 61.0739 53.267 61.6534 53.267 62.5739C53.267 63.3793 52.794 63.9759 51.7841 65.0795L48.9034 68.233V69ZM55.777 67.2102H59.8849V69H60.8906V67.2102H62.0838V66.2727H60.8906V60.2727H59.6122L55.777 66.3409V67.2102ZM59.8849 66.2727H56.919V66.2045L59.8168 61.6193H59.8849V66.2727ZM72.1864 67.4318L72.8342 66.7841L70.7546 64.7045L72.8342 62.625L72.1864 61.9773L70.1069 64.0568L68.0273 61.9773L67.3796 62.625L69.4592 64.7045L67.3796 66.7841L68.0273 67.4318L70.1069 65.3523L72.1864 67.4318ZM81.2898 69.1193C82.9815 69.1193 84.2386 68.0582 84.2386 66.6307C84.2386 65.5227 83.5824 64.7173 82.483 64.5341V64.4659C83.3651 64.1974 83.9148 63.473 83.9148 62.4886C83.9148 61.2528 82.9389 60.1534 81.3239 60.1534C79.8153 60.1534 78.5625 61.0824 78.5114 62.4545H79.5341C79.5724 61.5852 80.3991 61.0739 81.3068 61.0739C82.2699 61.0739 82.892 61.6577 82.892 62.5398C82.892 63.4602 82.1719 64.0568 81.1364 64.0568H80.4375V64.9943H81.1364C82.4616 64.9943 83.1989 65.6676 83.1989 66.6307C83.1989 67.5554 82.3935 68.1818 81.2727 68.1818C80.2628 68.1818 79.4616 67.6619 79.3977 66.8182H78.3239C78.3878 68.1903 79.598 69.1193 81.2898 69.1193ZM88.8793 69.1193C90.6435 69.1406 91.794 67.8111 91.794 66.1875C91.794 64.5 90.5455 63.2898 89.0497 63.2898C88.1506 63.2898 87.3793 63.7287 86.902 64.4489H86.8338C86.8381 62.3224 87.6648 61.0909 89.0156 61.0909C89.9361 61.0909 90.4901 61.6705 90.6861 62.4545H91.7259C91.5128 61.0994 90.4815 60.1534 89.0156 60.1534C87.0511 60.1534 85.8452 61.892 85.8452 64.9773C85.8452 68.2031 87.4474 69.1023 88.8793 69.1193ZM88.8793 68.1818C87.7841 68.1818 86.983 67.2486 86.9872 66.2045C86.9915 65.1605 87.831 64.2273 88.9134 64.2273C89.983 64.2273 90.7713 65.1051 90.7713 66.1875C90.7713 67.2955 89.9489 68.1818 88.8793 68.1818Z" fill="black"/>
<defs>
<clipPath id="clip0">
<rect width="5" height="8" fill="white" transform="translate(18 10) rotate(-90)"/>
</clipPath>
</defs>
</svg>
