<svg width="128" height="128" viewBox="0 0 128 128" fill="none" xmlns="http://www.w3.org/2000/svg">
<path d="M31 113L31 15H98V113H31Z" fill="white"/>
<path d="M39.0625 19.112C39.0625 19.3276 38.9579 19.5012 38.828 19.5012H36.172C36.0421 19.5012 35.9375 19.3276 35.9375 19.112C35.9375 18.9958 35.9679 18.8921 36.0163 18.8209L37.3362 16.6054C37.3782 16.5396 37.4346 16.499 37.4969 16.499C37.5593 16.499 37.6157 16.5396 37.6577 16.6054L38.9837 18.8209C39.0321 18.8921 39.0625 18.9958 39.0625 19.112Z" fill="#555761"/>
<line x1="37.5" y1="18" x2="37.5" y2="110" stroke="#555761"/>
<g clip-path="url(#clip0)">
<path d="M35.112 19.9375C35.3276 19.9375 35.5012 20.0421 35.5012 20.172V22.828C35.5012 22.9579 35.3276 23.0625 35.112 23.0625C34.9958 23.0625 34.8921 23.0321 34.8209 22.9837L32.6054 21.6638C32.5396 21.6218 32.499 21.5654 32.499 21.5031C32.499 21.4407 32.5396 21.3843 32.6054 21.3423L34.8209 20.0163C34.8921 19.9679 34.9958 19.9375 35.112 19.9375Z" fill="#555761"/>
</g>
<line x1="34" y1="21.5" x2="95" y2="21.5" stroke="#555761"/>
<path d="M57.6307 70.1193C59.2926 70.1193 60.5114 68.892 60.5114 67.2216C60.5114 65.5298 59.3352 64.2898 57.733 64.2898C57.1449 64.2898 56.5739 64.4986 56.2159 64.7841H56.1648L56.4716 62.2102H60.1193V61.2727H55.5852L55.0568 65.5682L56.0455 65.6875C56.4077 65.4276 57.0256 65.2401 57.5625 65.2443C58.6747 65.2528 59.4886 66.0966 59.4886 67.2386C59.4886 68.3594 58.7045 69.1818 57.6307 69.1818C56.7358 69.1818 56.0241 68.6065 55.9432 67.8182H54.9205C54.9844 69.1477 56.1307 70.1193 57.6307 70.1193ZM70.7099 68.4318L71.3576 67.7841L69.2781 65.7045L71.3576 63.625L70.7099 62.9773L68.6303 65.0568L66.5508 62.9773L65.9031 63.625L67.9826 65.7045L65.9031 67.7841L66.5508 68.4318L68.6303 66.3523L70.7099 68.4318ZM77.1371 70H78.245L82.1314 62.2614V61.2727H76.5405V62.2102H81.0405V62.2784L77.1371 70Z" fill="black"/>
<defs>
<clipPath id="clip0">
<rect width="5" height="8" fill="white" transform="translate(30 24) rotate(-90)"/>
</clipPath>
</defs>
</svg>
