<svg width="128" height="128" viewBox="0 0 128 128" fill="none" xmlns="http://www.w3.org/2000/svg">
<path d="M36 108L36 20H93V108H36Z" fill="white"/>
<path d="M44.0625 24.112C44.0625 24.3276 43.9579 24.5012 43.828 24.5012H41.172C41.0421 24.5012 40.9375 24.3276 40.9375 24.112C40.9375 23.9958 40.9679 23.8921 41.0163 23.8209L42.3362 21.6054C42.3782 21.5396 42.4346 21.499 42.4969 21.499C42.5593 21.499 42.6157 21.5396 42.6577 21.6054L43.9837 23.8209C44.0321 23.8921 44.0625 23.9958 44.0625 24.112Z" fill="#555761"/>
<line x1="42.5" y1="23" x2="42.5" y2="105" stroke="#555761"/>
<g clip-path="url(#clip0)">
<path d="M40.112 24.9375C40.3276 24.9375 40.5012 25.0421 40.5012 25.172V27.828C40.5012 27.9579 40.3276 28.0625 40.112 28.0625C39.9958 28.0625 39.8921 28.0321 39.8209 27.9837L37.6054 26.6638C37.5396 26.6218 37.499 26.5654 37.499 26.5031C37.499 26.4407 37.5396 26.3843 37.6054 26.3423L39.8209 25.0163C39.8921 24.9679 39.9958 24.9375 40.112 24.9375Z" fill="#555761"/>
</g>
<line x1="39" y1="26.5" x2="90" y2="26.5" stroke="#555761"/>
<path d="M53.6989 66.2102H57.8068V68H58.8125V66.2102H60.0057V65.2727H58.8125V59.2727H57.5341L53.6989 65.3409V66.2102ZM57.8068 65.2727H54.8409V65.2045L57.7386 60.6193H57.8068V65.2727ZM70.1083 66.4318L70.756 65.7841L68.6765 63.7045L70.756 61.625L70.1083 60.9773L68.0288 63.0568L65.9492 60.9773L65.3015 61.625L67.381 63.7045L65.3015 65.7841L65.9492 66.4318L68.0288 64.3523L70.1083 66.4318ZM79.1605 68.1193C80.9247 68.1406 82.0753 66.8111 82.0753 65.1875C82.0753 63.5 80.8267 62.2898 79.331 62.2898C78.4318 62.2898 77.6605 62.7287 77.1832 63.4489H77.1151C77.1193 61.3224 77.946 60.0909 79.2969 60.0909C80.2173 60.0909 80.7713 60.6705 80.9673 61.4545H82.0071C81.794 60.0994 80.7628 59.1534 79.2969 59.1534C77.3324 59.1534 76.1264 60.892 76.1264 63.9773C76.1264 67.2031 77.7287 68.1023 79.1605 68.1193ZM79.1605 67.1818C78.0653 67.1818 77.2642 66.2486 77.2685 65.2045C77.2727 64.1605 78.1122 63.2273 79.1946 63.2273C80.2642 63.2273 81.0526 64.1051 81.0526 65.1875C81.0526 66.2955 80.2301 67.1818 79.1605 67.1818Z" fill="black"/>
<defs>
<clipPath id="clip0">
<rect width="5" height="8" fill="white" transform="translate(35 29) rotate(-90)"/>
</clipPath>
</defs>
</svg>
