<svg width="128" height="128" viewBox="0 0 128 128" fill="none" xmlns="http://www.w3.org/2000/svg">
<path d="M23 123L23 5H105L105 123H23Z" fill="white"/>
<path d="M31.0625 9.11203C31.0625 9.32764 30.9579 9.50121 30.828 9.50121H28.172C28.0421 9.50121 27.9375 9.32764 27.9375 9.11203C27.9375 8.99582 27.9679 8.89209 28.0163 8.8209L29.3362 6.60541C29.3782 6.53961 29.4346 6.49899 29.4969 6.49899C29.5593 6.49899 29.6157 6.5396 29.6577 6.60541L30.9837 8.8209C31.0321 8.89209 31.0625 8.99582 31.0625 9.11203Z" fill="#555761"/>
<line x1="29.5" y1="8" x2="29.5" y2="120" stroke="#555761"/>
<g clip-path="url(#clip0)">
<path d="M27.112 9.9375C27.3276 9.9375 27.5012 10.0421 27.5012 10.172V12.828C27.5012 12.9579 27.3276 13.0625 27.112 13.0625C26.9958 13.0625 26.8921 13.0321 26.8209 12.9837L24.6054 11.6638C24.5396 11.6218 24.499 11.5654 24.499 11.5031C24.499 11.4407 24.5396 11.3843 24.6054 11.3423L26.8209 10.0163C26.8921 9.96792 26.9958 9.9375 27.112 9.9375Z" fill="#555761"/>
</g>
<line x1="26" y1="11.5" x2="102" y2="11.5" stroke="#555761"/>
<path d="M51.9716 59.2727H50.9148L48.733 60.7216V61.7955L50.8636 60.3807H50.9148V68H51.9716V59.2727ZM54.4815 68H59.9872V67.0625H55.9304V66.9943L57.8906 64.8977C59.3906 63.2912 59.8338 62.5412 59.8338 61.5739C59.8338 60.2273 58.7429 59.1534 57.2088 59.1534C55.679 59.1534 54.5156 60.1932 54.5156 61.7273H55.5213C55.5213 60.7344 56.1648 60.0739 57.1747 60.0739C58.1207 60.0739 58.8452 60.6534 58.8452 61.5739C58.8452 62.3793 58.3722 62.9759 57.3622 64.0795L54.4815 67.233V68ZM70.2528 66.4318L70.9006 65.7841L68.821 63.7045L70.9006 61.625L70.2528 60.9773L68.1733 63.0568L66.0938 60.9773L65.446 61.625L67.5256 63.7045L65.446 65.7841L66.0938 66.4318L68.1733 64.3523L70.2528 66.4318ZM79.4755 59.2727H78.4187L76.2369 60.7216V61.7955L78.3675 60.3807H78.4187V68H79.4755V59.2727ZM84.7809 68.1193C86.5238 68.1193 87.7383 67.1009 87.7468 65.6818C87.7383 64.5781 87.0011 63.6406 86.0593 63.4659V63.4148C86.8775 63.2017 87.4144 62.4006 87.4229 61.4716C87.4144 60.142 86.2979 59.1534 84.7809 59.1534C83.2468 59.1534 82.1303 60.142 82.1388 61.4716C82.1303 62.4006 82.6673 63.2017 83.5025 63.4148V63.4659C82.5437 63.6406 81.8065 64.5781 81.815 65.6818C81.8065 67.1009 83.021 68.1193 84.7809 68.1193ZM84.7809 67.1818C83.5835 67.1818 82.8462 66.5682 82.8548 65.6307C82.8462 64.6463 83.6602 63.9432 84.7809 63.9432C85.8846 63.9432 86.6985 64.6463 86.707 65.6307C86.6985 66.5682 85.9613 67.1818 84.7809 67.1818ZM84.7809 63.0398C83.8263 63.0398 83.1531 62.4432 83.1616 61.5398C83.1531 60.6534 83.8008 60.0739 84.7809 60.0739C85.744 60.0739 86.3917 60.6534 86.4002 61.5398C86.3917 62.4432 85.7184 63.0398 84.7809 63.0398Z" fill="black"/>
<defs>
<clipPath id="clip0">
<rect width="5" height="8" fill="white" transform="translate(22 14) rotate(-90)"/>
</clipPath>
</defs>
</svg>
