<svg width="128" height="128" viewBox="0 0 128 128" fill="none" xmlns="http://www.w3.org/2000/svg">
<path d="M31 116L31 14H97V116H31Z" fill="white"/>
<path d="M38.3176 16.8332C38.3176 17.0371 38.2217 17.2012 38.1024 17.2012H35.6647C35.5455 17.2012 35.4495 17.0371 35.4495 16.8332C35.4495 16.7233 35.4774 16.6253 35.5218 16.558L36.7332 14.4633C36.7718 14.4011 36.8236 14.3627 36.8808 14.3627C36.938 14.3627 36.9898 14.4011 37.0283 14.4633L38.2453 16.558C38.2897 16.6253 38.3176 16.7233 38.3176 16.8332Z" fill="#555761"/>
<line x1="36.9247" y1="15.7818" x2="36.9247" y2="113.164" stroke="#555761"/>
<g clip-path="url(#clip0)">
<path d="M34.6919 18.5591C34.8898 18.5591 35.0491 18.658 35.0491 18.7808V21.2919C35.0491 21.4148 34.8898 21.5136 34.6919 21.5136C34.5852 21.5136 34.49 21.4849 34.4247 21.4392L32.3913 20.1912C32.3309 20.1515 32.2936 20.0982 32.2936 20.0392C32.2936 19.9803 32.3309 19.927 32.3913 19.8873L34.4247 18.6336C34.49 18.5878 34.5852 18.5591 34.6919 18.5591Z" fill="#555761"/>
</g>
<line x1="33.6712" y1="20.0091" x2="94.2466" y2="20.0091" stroke="#555761"/>
<path d="M52.6989 69.1193C54.4418 69.1193 55.6562 68.1009 55.6648 66.6818C55.6562 65.5781 54.919 64.6406 53.9773 64.4659V64.4148C54.7955 64.2017 55.3324 63.4006 55.3409 62.4716C55.3324 61.142 54.2159 60.1534 52.6989 60.1534C51.1648 60.1534 50.0483 61.142 50.0568 62.4716C50.0483 63.4006 50.5852 64.2017 51.4205 64.4148V64.4659C50.4616 64.6406 49.7244 65.5781 49.733 66.6818C49.7244 68.1009 50.9389 69.1193 52.6989 69.1193ZM52.6989 68.1818C51.5014 68.1818 50.7642 67.5682 50.7727 66.6307C50.7642 65.6463 51.5781 64.9432 52.6989 64.9432C53.8026 64.9432 54.6165 65.6463 54.625 66.6307C54.6165 67.5682 53.8793 68.1818 52.6989 68.1818ZM52.6989 64.0398C51.7443 64.0398 51.071 63.4432 51.0795 62.5398C51.071 61.6534 51.7188 61.0739 52.6989 61.0739C53.6619 61.0739 54.3097 61.6534 54.3182 62.5398C54.3097 63.4432 53.6364 64.0398 52.6989 64.0398ZM65.8036 67.4318L66.4513 66.7841L64.3718 64.7045L66.4513 62.625L65.8036 61.9773L63.7241 64.0568L61.6445 61.9773L60.9968 62.625L63.0763 64.7045L60.9968 66.7841L61.6445 67.4318L63.7241 65.3523L65.8036 67.4318ZM75.0263 60.2727H73.9695L71.7876 61.7216V62.7955L73.9183 61.3807H73.9695V69H75.0263V60.2727ZM80.3828 69.1193C82.3089 69.1193 83.4169 67.4872 83.4169 64.6364C83.4169 61.8068 82.2919 60.1534 80.3828 60.1534C78.4737 60.1534 77.3487 61.8068 77.3487 64.6364C77.3487 67.4872 78.4567 69.1193 80.3828 69.1193ZM80.3828 68.1818C79.1129 68.1818 78.3714 66.9077 78.3714 64.6364C78.3714 62.3693 79.1214 61.0739 80.3828 61.0739C81.6442 61.0739 82.3942 62.3693 82.3942 64.6364C82.3942 66.9077 81.6527 68.1818 80.3828 68.1818Z" fill="black"/>
<defs>
<clipPath id="clip0">
<rect width="4.72727" height="7.34247" fill="white" transform="translate(30 22.4) rotate(-90)"/>
</clipPath>
</defs>
</svg>
