<svg width="128" height="128" viewBox="0 0 128 128" fill="none" xmlns="http://www.w3.org/2000/svg">
<rect x="6" y="26" width="116" height="75" fill="white"/>
<path d="M9.6365 31.9375C9.83205 31.9375 9.98948 32.0421 9.98948 32.172V34.828C9.98948 34.9579 9.83205 35.0625 9.6365 35.0625C9.53111 35.0625 9.43702 35.0321 9.37245 34.9837L7.36306 33.6638C7.30338 33.6218 7.26654 33.5654 7.26654 33.5031C7.26654 33.4407 7.30337 33.3843 7.36306 33.3423L9.37245 32.0163C9.43702 31.9679 9.53111 31.9375 9.6365 31.9375Z" fill="#555761"/>
<line x1="8.62793" y1="33.5" x2="119.279" y2="33.5" stroke="#555761"/>
<path d="M60.6548 27.3636H60.2145L59.3054 27.9673V28.4148L60.1932 27.8253H60.2145V31H60.6548V27.3636ZM62.8583 27.3139C62.1197 27.305 61.6438 27.8608 61.6438 28.5284C61.6438 29.2315 62.1623 29.7358 62.7873 29.7358C63.1637 29.7358 63.4833 29.5511 63.6822 29.2528H63.7106C63.7106 30.1477 63.3626 30.6591 62.8015 30.6591C62.418 30.6591 62.1836 30.4176 62.1055 30.0838H61.6722C61.7575 30.6591 62.1907 31.0497 62.8015 31.0497C63.6183 31.0497 64.1225 30.3253 64.1225 29.0327C64.1225 27.6974 63.4549 27.321 62.8583 27.3139ZM62.8583 27.7045C63.3129 27.7045 63.6467 28.0952 63.6467 28.5213C63.6467 28.9545 63.2915 29.3452 62.8441 29.3452C62.3967 29.3452 62.07 28.983 62.07 28.5284C62.07 28.0739 62.4109 27.7045 62.8583 27.7045ZM66.0068 31.0497C66.8094 31.0497 67.271 30.3697 67.271 29.1818C67.271 28.0028 66.8023 27.3139 66.0068 27.3139C65.2114 27.3139 64.7426 28.0028 64.7426 29.1818C64.7426 30.3697 65.2043 31.0497 66.0068 31.0497ZM66.0068 30.6591C65.4777 30.6591 65.1688 30.1282 65.1688 29.1818C65.1688 28.2372 65.4813 27.6974 66.0068 27.6974C66.5324 27.6974 66.8449 28.2372 66.8449 29.1818C66.8449 30.1282 66.536 30.6591 66.0068 30.6591ZM69.1318 31.0497C69.9344 31.0497 70.396 30.3697 70.396 29.1818C70.396 28.0028 69.9273 27.3139 69.1318 27.3139C68.3364 27.3139 67.8676 28.0028 67.8676 29.1818C67.8676 30.3697 68.3293 31.0497 69.1318 31.0497ZM69.1318 30.6591C68.6027 30.6591 68.2938 30.1282 68.2938 29.1818C68.2938 28.2372 68.6063 27.6974 69.1318 27.6974C69.6574 27.6974 69.9699 28.2372 69.9699 29.1818C69.9699 30.1282 69.661 30.6591 69.1318 30.6591ZM72.4841 32.0227H72.9031V30.581H72.9387C73.031 30.7301 73.2085 31.0568 73.7341 31.0568C74.4159 31.0568 74.8918 30.5099 74.8918 29.6435C74.8918 28.7841 74.4159 28.2372 73.727 28.2372C73.1943 28.2372 73.031 28.5639 72.9387 28.706H72.8889V28.2727H72.4841V32.0227ZM72.896 29.6364C72.896 29.0256 73.1659 28.6136 73.6773 28.6136C74.21 28.6136 74.4727 29.0611 74.4727 29.6364C74.4727 30.2188 74.2029 30.6804 73.6773 30.6804C73.173 30.6804 72.896 30.2543 72.896 29.6364ZM75.7312 28.2727H75.2482L76.1147 29.6364L75.2482 31H75.7312L76.3846 29.9418L77.038 31H77.521L76.6403 29.6364L77.521 28.2727H77.038L76.3846 29.3878L75.7312 28.2727Z" fill="black"/>
<path d="M7.36364 71.3452V71.7855L7.96733 72.6946H8.41477L7.82528 71.8068V71.7855H11V71.3452H7.36364ZM11.0497 69.092C11.0586 68.3569 10.5046 67.8775 9.82812 67.8775C9.125 67.8775 8.62074 68.3977 8.62074 69.021C8.62074 69.3956 8.80362 69.717 9.10369 69.9158V69.9442C8.21768 69.9425 7.70455 69.598 7.70455 69.0352C7.70455 68.6516 7.94602 68.4208 8.27273 68.3391V67.9059C7.7081 67.9947 7.31392 68.4244 7.31392 69.0352C7.31392 69.8537 8.03835 70.3562 9.32386 70.3562C10.668 70.3562 11.0426 69.6886 11.0497 69.092ZM10.6591 69.092C10.6591 69.5483 10.2702 69.8821 9.83523 69.8803C9.40021 69.8786 9.01136 69.5288 9.01136 69.0778C9.01136 68.6321 9.37713 68.3036 9.82812 68.3036C10.2898 68.3036 10.6591 68.6463 10.6591 69.092ZM11.0497 65.9932C11.0497 65.1906 10.3697 64.729 9.18182 64.729C8.00284 64.729 7.31392 65.1977 7.31392 65.9932C7.31392 66.7886 8.00284 67.2574 9.18182 67.2574C10.3697 67.2574 11.0497 66.7957 11.0497 65.9932ZM10.6591 65.9932C10.6591 66.5223 10.1282 66.8312 9.18182 66.8312C8.23722 66.8312 7.69744 66.5187 7.69744 65.9932C7.69744 65.4676 8.23722 65.1551 9.18182 65.1551C10.1282 65.1551 10.6591 65.464 10.6591 65.9932ZM11.0497 62.8682C11.0497 62.0656 10.3697 61.604 9.18182 61.604C8.00284 61.604 7.31392 62.0727 7.31392 62.8682C7.31392 63.6636 8.00284 64.1324 9.18182 64.1324C10.3697 64.1324 11.0497 63.6707 11.0497 62.8682ZM10.6591 62.8682C10.6591 63.3973 10.1282 63.7062 9.18182 63.7062C8.23722 63.7062 7.69744 63.3937 7.69744 62.8682C7.69744 62.3426 8.23722 62.0301 9.18182 62.0301C10.1282 62.0301 10.6591 62.339 10.6591 62.8682ZM12.0227 59.5159V59.0969H10.581V59.0613C10.7301 58.969 11.0568 58.7915 11.0568 58.2659C11.0568 57.5841 10.5099 57.1082 9.64347 57.1082C8.78409 57.1082 8.23722 57.5841 8.23722 58.273C8.23722 58.8057 8.56392 58.969 8.70597 59.0613V59.1111H8.27273V59.5159H12.0227ZM9.63636 59.104C9.02557 59.104 8.61364 58.8341 8.61364 58.3227C8.61364 57.79 9.06108 57.5273 9.63636 57.5273C10.2188 57.5273 10.6804 57.7971 10.6804 58.3227C10.6804 58.827 10.2543 59.104 9.63636 59.104ZM8.27273 56.2688V56.7518L9.63636 55.8853L11 56.7518V56.2688L9.94176 55.6154L11 54.962V54.479L9.63636 55.3597L8.27273 54.479V54.962L9.38778 55.6154L8.27273 56.2688Z" fill="black"/>
<path d="M15.0625 29.1121C15.0625 29.3277 14.9579 29.5012 14.828 29.5012H12.172C12.0421 29.5012 11.9375 29.3277 11.9375 29.1121C11.9375 28.9959 11.9679 28.8921 12.0163 28.8209L13.3362 26.6054C13.3782 26.5396 13.4346 26.499 13.4969 26.499C13.5593 26.499 13.6157 26.5396 13.6577 26.6054L14.9837 28.8209C15.0321 28.8921 15.0625 28.9959 15.0625 29.1121Z" fill="#555761"/>
<line x1="13.5" y1="28" x2="13.5" y2="98" stroke="#555761"/>
<path d="M37.9716 59.2727H36.9148L34.733 60.7216V61.7955L36.8636 60.3807H36.9148V68H37.9716V59.2727ZM43.2599 59.1534C41.4872 59.1321 40.3452 60.4659 40.3452 62.0682C40.3452 63.7557 41.5895 64.9659 43.0895 64.9659C43.9929 64.9659 44.7599 64.5227 45.2372 63.8068H45.3054C45.3054 65.9545 44.4702 67.1818 43.1236 67.1818C42.2031 67.1818 41.6406 66.6023 41.4531 65.8011H40.4134C40.6179 67.1818 41.6577 68.1193 43.1236 68.1193C45.0838 68.1193 46.294 66.3807 46.294 63.2784C46.294 60.0739 44.6918 59.1705 43.2599 59.1534ZM43.2599 60.0909C44.3509 60.0909 45.152 61.0284 45.152 62.0511C45.152 63.0909 44.2997 64.0284 43.2259 64.0284C42.152 64.0284 41.3679 63.1591 41.3679 62.0682C41.3679 60.9773 42.1861 60.0909 43.2599 60.0909ZM50.8164 68.1193C52.7425 68.1193 53.8505 66.4872 53.8505 63.6364C53.8505 60.8068 52.7255 59.1534 50.8164 59.1534C48.9073 59.1534 47.7823 60.8068 47.7823 63.6364C47.7823 66.4872 48.8903 68.1193 50.8164 68.1193ZM50.8164 67.1818C49.5465 67.1818 48.805 65.9077 48.805 63.6364C48.805 61.3693 49.555 60.0739 50.8164 60.0739C52.0778 60.0739 52.8278 61.3693 52.8278 63.6364C52.8278 65.9077 52.0863 67.1818 50.8164 67.1818ZM58.3164 68.1193C60.2425 68.1193 61.3505 66.4872 61.3505 63.6364C61.3505 60.8068 60.2255 59.1534 58.3164 59.1534C56.4073 59.1534 55.2823 60.8068 55.2823 63.6364C55.2823 66.4872 56.3903 68.1193 58.3164 68.1193ZM58.3164 67.1818C57.0465 67.1818 56.305 65.9077 56.305 63.6364C56.305 61.3693 57.055 60.0739 58.3164 60.0739C59.5778 60.0739 60.3278 61.3693 60.3278 63.6364C60.3278 65.9077 59.5863 67.1818 58.3164 67.1818ZM71.4755 66.4318L72.1232 65.7841L70.0437 63.7045L72.1232 61.625L71.4755 60.9773L69.396 63.0568L67.3164 60.9773L66.6687 61.625L68.7482 63.7045L66.6687 65.7841L67.3164 66.4318L69.396 64.3523L71.4755 66.4318ZM80.6982 59.2727H79.6413L77.4595 60.7216V61.7955L79.5902 60.3807H79.6413V68H80.6982V59.2727ZM86.1058 68.1193C87.87 68.1406 89.0206 66.8111 89.0206 65.1875C89.0206 63.5 87.772 62.2898 86.2763 62.2898C85.3771 62.2898 84.6058 62.7287 84.1286 63.4489H84.0604C84.0646 61.3224 84.8913 60.0909 86.2422 60.0909C87.1626 60.0909 87.7166 60.6705 87.9126 61.4545H88.9524C88.7393 60.0994 87.7081 59.1534 86.2422 59.1534C84.2777 59.1534 83.0717 60.892 83.0717 63.9773C83.0717 67.2031 84.674 68.1023 86.1058 68.1193ZM86.1058 67.1818C85.0107 67.1818 84.2095 66.2486 84.2138 65.2045C84.218 64.1605 85.0575 63.2273 86.1399 63.2273C87.2095 63.2273 87.9979 64.1051 87.9979 65.1875C87.9979 66.2955 87.1754 67.1818 86.1058 67.1818ZM93.543 68.1193C95.4691 68.1193 96.5771 66.4872 96.5771 63.6364C96.5771 60.8068 95.4521 59.1534 93.543 59.1534C91.6339 59.1534 90.5089 60.8068 90.5089 63.6364C90.5089 66.4872 91.6168 68.1193 93.543 68.1193ZM93.543 67.1818C92.2731 67.1818 91.5316 65.9077 91.5316 63.6364C91.5316 61.3693 92.2816 60.0739 93.543 60.0739C94.8043 60.0739 95.5543 61.3693 95.5543 63.6364C95.5543 65.9077 94.8129 67.1818 93.543 67.1818ZM101.043 68.1193C102.969 68.1193 104.077 66.4872 104.077 63.6364C104.077 60.8068 102.952 59.1534 101.043 59.1534C99.1339 59.1534 98.0089 60.8068 98.0089 63.6364C98.0089 66.4872 99.1168 68.1193 101.043 68.1193ZM101.043 67.1818C99.7731 67.1818 99.0316 65.9077 99.0316 63.6364C99.0316 61.3693 99.7816 60.0739 101.043 60.0739C102.304 60.0739 103.054 61.3693 103.054 63.6364C103.054 65.9077 102.313 67.1818 101.043 67.1818Z" fill="black"/>
</svg>
