<svg width="128" height="128" viewBox="0 0 128 128" fill="none" xmlns="http://www.w3.org/2000/svg">
<rect x="6" y="42" width="117" height="44" fill="white"/>
<path d="M9.6365 47.9375C9.83205 47.9375 9.98948 48.0421 9.98948 48.172V50.828C9.98948 50.9579 9.83205 51.0625 9.6365 51.0625C9.53111 51.0625 9.43702 51.0321 9.37245 50.9837L7.36306 49.6638C7.30338 49.6218 7.26654 49.5654 7.26654 49.5031C7.26654 49.4407 7.30337 49.3843 7.36306 49.3423L9.37245 48.0163C9.43702 47.9679 9.53111 47.9375 9.6365 47.9375Z" fill="#555761"/>
<line x1="9" y1="49.5" x2="120" y2="49.5" stroke="#555761"/>
<path d="M15.0625 46.1121C15.0625 46.3277 14.9579 46.5012 14.828 46.5012H12.172C12.0421 46.5012 11.9375 46.3277 11.9375 46.1121C11.9375 45.9959 11.9679 45.8921 12.0163 45.8209L13.3362 43.6054C13.3782 43.5396 13.4346 43.499 13.4969 43.499C13.5593 43.499 13.6157 43.5396 13.6577 43.6054L14.9837 45.8209C15.0321 45.8921 15.0625 45.9959 15.0625 46.1121Z" fill="#555761"/>
<line x1="13.5" y1="45" x2="13.5" y2="83" stroke="#555761"/>
<path d="M55.6548 44.3636H55.2145L54.3054 44.9673V45.4148L55.1932 44.8253H55.2145V48H55.6548V44.3636ZM57.837 48.0497C58.5295 48.0497 59.0373 47.5384 59.0373 46.8423C59.0373 46.1374 58.5472 45.6207 57.8796 45.6207C57.6346 45.6207 57.3967 45.7077 57.2475 45.8267H57.2262L57.354 44.7543H58.8739V44.3636H56.9847L56.7646 46.1534L57.1765 46.2031C57.3274 46.0948 57.5849 46.0167 57.8086 46.0185C58.272 46.022 58.6112 46.3736 58.6112 46.8494C58.6112 47.3164 58.2844 47.6591 57.837 47.6591C57.4641 47.6591 57.1676 47.4194 57.1339 47.0909H56.7077C56.7344 47.6449 57.212 48.0497 57.837 48.0497ZM60.9287 48.0497C61.7313 48.0497 62.1929 47.3697 62.1929 46.1818C62.1929 45.0028 61.7242 44.3139 60.9287 44.3139C60.1333 44.3139 59.6645 45.0028 59.6645 46.1818C59.6645 47.3697 60.1262 48.0497 60.9287 48.0497ZM60.9287 47.6591C60.3996 47.6591 60.0906 47.1282 60.0906 46.1818C60.0906 45.2372 60.4031 44.6974 60.9287 44.6974C61.4543 44.6974 61.7668 45.2372 61.7668 46.1818C61.7668 47.1282 61.4578 47.6591 60.9287 47.6591ZM64.0537 48.0497C64.8563 48.0497 65.3179 47.3697 65.3179 46.1818C65.3179 45.0028 64.8492 44.3139 64.0537 44.3139C63.2583 44.3139 62.7895 45.0028 62.7895 46.1818C62.7895 47.3697 63.2512 48.0497 64.0537 48.0497ZM64.0537 47.6591C63.5246 47.6591 63.2156 47.1282 63.2156 46.1818C63.2156 45.2372 63.5281 44.6974 64.0537 44.6974C64.5793 44.6974 64.8918 45.2372 64.8918 46.1818C64.8918 47.1282 64.5828 47.6591 64.0537 47.6591ZM67.406 49.0227H67.825V47.581H67.8605C67.9529 47.7301 68.1304 48.0568 68.656 48.0568C69.3378 48.0568 69.8137 47.5099 69.8137 46.6435C69.8137 45.7841 69.3378 45.2372 68.6489 45.2372C68.1162 45.2372 67.9529 45.5639 67.8605 45.706H67.8108V45.2727H67.406V49.0227ZM67.8179 46.6364C67.8179 46.0256 68.0878 45.6136 68.5992 45.6136C69.1318 45.6136 69.3946 46.0611 69.3946 46.6364C69.3946 47.2188 69.1247 47.6804 68.5992 47.6804C68.0949 47.6804 67.8179 47.2543 67.8179 46.6364ZM70.6531 45.2727H70.1701L71.0366 46.6364L70.1701 48H70.6531L71.3065 46.9418L71.9599 48H72.4428L71.5621 46.6364L72.4428 45.2727H71.9599L71.3065 46.3878L70.6531 45.2727Z" fill="black"/>
<path d="M11.0497 72.4872C11.0497 71.7947 10.5384 71.2869 9.84233 71.2869C9.13743 71.2869 8.62074 71.777 8.62074 72.4446C8.62074 72.6896 8.70774 72.9276 8.8267 73.0767V73.098L7.75426 72.9702V71.4503H7.36364V73.3395L9.15341 73.5597L9.20312 73.1477C9.09482 72.9968 9.01669 72.7393 9.01847 72.5156C9.02202 72.0522 9.37358 71.7131 9.84943 71.7131C10.3164 71.7131 10.6591 72.0398 10.6591 72.4872C10.6591 72.8601 10.4194 73.1566 10.0909 73.1903V73.6165C10.6449 73.5898 11.0497 73.1122 11.0497 72.4872ZM11.0497 69.3955C11.0497 68.593 10.3697 68.1313 9.18182 68.1313C8.00284 68.1313 7.31392 68.6001 7.31392 69.3955C7.31392 70.191 8.00284 70.6597 9.18182 70.6597C10.3697 70.6597 11.0497 70.1981 11.0497 69.3955ZM10.6591 69.3955C10.6591 69.9246 10.1282 70.2336 9.18182 70.2336C8.23722 70.2336 7.69744 69.9211 7.69744 69.3955C7.69744 68.8699 8.23722 68.5574 9.18182 68.5574C10.1282 68.5574 10.6591 68.8664 10.6591 69.3955ZM11.0497 66.2705C11.0497 65.468 10.3697 65.0063 9.18182 65.0063C8.00284 65.0063 7.31392 65.4751 7.31392 66.2705C7.31392 67.066 8.00284 67.5347 9.18182 67.5347C10.3697 67.5347 11.0497 67.0731 11.0497 66.2705ZM10.6591 66.2705C10.6591 66.7996 10.1282 67.1086 9.18182 67.1086C8.23722 67.1086 7.69744 66.7961 7.69744 66.2705C7.69744 65.7449 8.23722 65.4324 9.18182 65.4324C10.1282 65.4324 10.6591 65.7414 10.6591 66.2705ZM12.0227 62.9182V62.4992H10.581V62.4637C10.7301 62.3714 11.0568 62.1938 11.0568 61.6682C11.0568 60.9864 10.5099 60.5106 9.64347 60.5106C8.78409 60.5106 8.23722 60.9864 8.23722 61.6753C8.23722 62.208 8.56392 62.3714 8.70597 62.4637V62.5134H8.27273V62.9182H12.0227ZM9.63636 62.5063C9.02557 62.5063 8.61364 62.2364 8.61364 61.7251C8.61364 61.1924 9.06108 60.9296 9.63636 60.9296C10.2188 60.9296 10.6804 61.1995 10.6804 61.7251C10.6804 62.2293 10.2543 62.5063 9.63636 62.5063ZM8.27273 59.6712V60.1541L9.63636 59.2876L11 60.1541V59.6712L9.94176 59.0178L11 58.3643V57.8814L9.63636 58.7621L8.27273 57.8814V58.3643L9.38778 59.0178L8.27273 59.6712Z" fill="black"/>
<path d="M39.9716 62.2727H38.9148L36.733 63.7216V64.7955L38.8636 63.3807H38.9148V71H39.9716V62.2727ZM45.2088 71.1193C46.8707 71.1193 48.0895 69.892 48.0895 68.2216C48.0895 66.5298 46.9134 65.2898 45.3111 65.2898C44.723 65.2898 44.152 65.4986 43.794 65.7841H43.7429L44.0497 63.2102H47.6974V62.2727H43.1634L42.6349 66.5682L43.6236 66.6875C43.9858 66.4276 44.6037 66.2401 45.1406 66.2443C46.2528 66.2528 47.0668 67.0966 47.0668 68.2386C47.0668 69.3594 46.2827 70.1818 45.2088 70.1818C44.3139 70.1818 43.6023 69.6065 43.5213 68.8182H42.4986C42.5625 70.1477 43.7088 71.1193 45.2088 71.1193ZM52.6289 71.1193C54.555 71.1193 55.663 69.4872 55.663 66.6364C55.663 63.8068 54.538 62.1534 52.6289 62.1534C50.7198 62.1534 49.5948 63.8068 49.5948 66.6364C49.5948 69.4872 50.7028 71.1193 52.6289 71.1193ZM52.6289 70.1818C51.359 70.1818 50.6175 68.9077 50.6175 66.6364C50.6175 64.3693 51.3675 63.0739 52.6289 63.0739C53.8903 63.0739 54.6403 64.3693 54.6403 66.6364C54.6403 68.9077 53.8988 70.1818 52.6289 70.1818ZM60.1289 71.1193C62.055 71.1193 63.163 69.4872 63.163 66.6364C63.163 63.8068 62.038 62.1534 60.1289 62.1534C58.2198 62.1534 57.0948 63.8068 57.0948 66.6364C57.0948 69.4872 58.2028 71.1193 60.1289 71.1193ZM60.1289 70.1818C58.859 70.1818 58.1175 68.9077 58.1175 66.6364C58.1175 64.3693 58.8675 63.0739 60.1289 63.0739C61.3903 63.0739 62.1403 64.3693 62.1403 66.6364C62.1403 68.9077 61.3988 70.1818 60.1289 70.1818ZM73.288 69.4318L73.9357 68.7841L71.8562 66.7045L73.9357 64.625L73.288 63.9773L71.2085 66.0568L69.1289 63.9773L68.4812 64.625L70.5607 66.7045L68.4812 68.7841L69.1289 69.4318L71.2085 67.3523L73.288 69.4318ZM82.1697 71.1193C83.8317 71.1193 85.0504 69.892 85.0504 68.2216C85.0504 66.5298 83.8743 65.2898 82.272 65.2898C81.6839 65.2898 81.1129 65.4986 80.755 65.7841H80.7038L81.0107 63.2102H84.6584V62.2727H80.1243L79.5959 66.5682L80.5845 66.6875C80.9467 66.4276 81.5646 66.2401 82.1016 66.2443C83.2138 66.2528 84.0277 67.0966 84.0277 68.2386C84.0277 69.3594 83.2436 70.1818 82.1697 70.1818C81.2749 70.1818 80.5632 69.6065 80.4822 68.8182H79.4595C79.5234 70.1477 80.6697 71.1193 82.1697 71.1193ZM89.5898 71.1193C91.516 71.1193 92.6239 69.4872 92.6239 66.6364C92.6239 63.8068 91.4989 62.1534 89.5898 62.1534C87.6808 62.1534 86.5558 63.8068 86.5558 66.6364C86.5558 69.4872 87.6637 71.1193 89.5898 71.1193ZM89.5898 70.1818C88.32 70.1818 87.5785 68.9077 87.5785 66.6364C87.5785 64.3693 88.3285 63.0739 89.5898 63.0739C90.8512 63.0739 91.6012 64.3693 91.6012 66.6364C91.6012 68.9077 90.8597 70.1818 89.5898 70.1818ZM97.0898 71.1193C99.016 71.1193 100.124 69.4872 100.124 66.6364C100.124 63.8068 98.9989 62.1534 97.0898 62.1534C95.1808 62.1534 94.0558 63.8068 94.0558 66.6364C94.0558 69.4872 95.1637 71.1193 97.0898 71.1193ZM97.0898 70.1818C95.82 70.1818 95.0785 68.9077 95.0785 66.6364C95.0785 64.3693 95.8285 63.0739 97.0898 63.0739C98.3512 63.0739 99.1012 64.3693 99.1012 66.6364C99.1012 68.9077 98.3597 70.1818 97.0898 70.1818Z" fill="black"/>
</svg>
