<svg width="128" height="128" viewBox="0 0 128 128" fill="none" xmlns="http://www.w3.org/2000/svg">
<rect x="14" y="14" width="100" height="100" fill="white"/>
<path d="M23.0625 18.1121C23.0625 18.3277 22.9579 18.5012 22.828 18.5012H20.172C20.0421 18.5012 19.9375 18.3277 19.9375 18.1121C19.9375 17.9959 19.9679 17.8921 20.0163 17.8209L21.3362 15.6054C21.3782 15.5396 21.4346 15.499 21.4969 15.499C21.5593 15.499 21.6157 15.5396 21.6577 15.6054L22.9837 17.8209C23.0321 17.8921 23.0625 17.9959 23.0625 18.1121Z" fill="#555761"/>
<line x1="21.5" y1="17" x2="21.5" y2="110" stroke="#555761"/>
<g clip-path="url(#clip0)">
<path d="M18.1121 19.9375C18.3277 19.9375 18.5012 20.0421 18.5012 20.172V22.828C18.5012 22.9579 18.3277 23.0625 18.1121 23.0625C17.9959 23.0625 17.8921 23.0321 17.8209 22.9837L15.6054 21.6638C15.5396 21.6218 15.499 21.5654 15.499 21.5031C15.499 21.4407 15.5396 21.3843 15.6054 21.3423L17.8209 20.0163C17.8921 19.9679 17.9959 19.9375 18.1121 19.9375Z" fill="#555761"/>
</g>
<line x1="17" y1="21.5" x2="111" y2="21.5" stroke="#555761"/>
<path d="M59.2912 18.2543H61.0028V19H61.4219V18.2543H61.919V17.8636H61.4219V15.3636H60.8892L59.2912 17.892V18.2543ZM61.0028 17.8636H59.767V17.8352L60.9744 15.9247H61.0028V17.8636ZM63.7705 19.0497C64.5731 19.0497 65.0347 18.3697 65.0347 17.1818C65.0347 16.0028 64.566 15.3139 63.7705 15.3139C62.9751 15.3139 62.5063 16.0028 62.5063 17.1818C62.5063 18.3697 62.968 19.0497 63.7705 19.0497ZM63.7705 18.6591C63.2414 18.6591 62.9324 18.1282 62.9324 17.1818C62.9324 16.2372 63.2449 15.6974 63.7705 15.6974C64.2961 15.6974 64.6086 16.2372 64.6086 17.1818C64.6086 18.1282 64.2996 18.6591 63.7705 18.6591ZM66.8955 19.0497C67.6981 19.0497 68.1597 18.3697 68.1597 17.1818C68.1597 16.0028 67.691 15.3139 66.8955 15.3139C66.1001 15.3139 65.6313 16.0028 65.6313 17.1818C65.6313 18.3697 66.093 19.0497 66.8955 19.0497ZM66.8955 18.6591C66.3664 18.6591 66.0574 18.1282 66.0574 17.1818C66.0574 16.2372 66.3699 15.6974 66.8955 15.6974C67.4211 15.6974 67.7336 16.2372 67.7336 17.1818C67.7336 18.1282 67.4246 18.6591 66.8955 18.6591ZM70.2478 20.0227H70.6668V18.581H70.7023C70.7947 18.7301 70.9722 19.0568 71.4978 19.0568C72.1796 19.0568 72.6555 18.5099 72.6555 17.6435C72.6555 16.7841 72.1796 16.2372 71.4907 16.2372C70.958 16.2372 70.7947 16.5639 70.7023 16.706H70.6526V16.2727H70.2478V20.0227ZM70.6597 17.6364C70.6597 17.0256 70.9296 16.6136 71.441 16.6136C71.9736 16.6136 72.2364 17.0611 72.2364 17.6364C72.2364 18.2188 71.9665 18.6804 71.441 18.6804C70.9367 18.6804 70.6597 18.2543 70.6597 17.6364ZM73.4949 16.2727H73.0119L73.8784 17.6364L73.0119 19H73.4949L74.1483 17.9418L74.8017 19H75.2846L74.4039 17.6364L75.2846 16.2727H74.8017L74.1483 17.3878L73.4949 16.2727Z" fill="#4D4D4D"/>
<path d="M18.2543 72.7088V70.9972H19V70.5781H18.2543V70.081H17.8636V70.5781H15.3636V71.1108L17.892 72.7088H18.2543ZM17.8636 70.9972V72.233H17.8352L15.9247 71.0256V70.9972H17.8636ZM19.0497 68.2295C19.0497 67.4269 18.3697 66.9653 17.1818 66.9653C16.0028 66.9653 15.3139 67.434 15.3139 68.2295C15.3139 69.0249 16.0028 69.4937 17.1818 69.4937C18.3697 69.4937 19.0497 69.032 19.0497 68.2295ZM18.6591 68.2295C18.6591 68.7586 18.1282 69.0676 17.1818 69.0676C16.2372 69.0676 15.6974 68.7551 15.6974 68.2295C15.6974 67.7039 16.2372 67.3914 17.1818 67.3914C18.1282 67.3914 18.6591 67.7004 18.6591 68.2295ZM19.0497 65.1045C19.0497 64.3019 18.3697 63.8403 17.1818 63.8403C16.0028 63.8403 15.3139 64.309 15.3139 65.1045C15.3139 65.8999 16.0028 66.3687 17.1818 66.3687C18.3697 66.3687 19.0497 65.907 19.0497 65.1045ZM18.6591 65.1045C18.6591 65.6336 18.1282 65.9426 17.1818 65.9426C16.2372 65.9426 15.6974 65.6301 15.6974 65.1045C15.6974 64.5789 16.2372 64.2664 17.1818 64.2664C18.1282 64.2664 18.6591 64.5754 18.6591 65.1045ZM20.0227 61.7522V61.3332H18.581V61.2977C18.7301 61.2053 19.0568 61.0278 19.0568 60.5022C19.0568 59.8204 18.5099 59.3445 17.6435 59.3445C16.7841 59.3445 16.2372 59.8204 16.2372 60.5093C16.2372 61.042 16.5639 61.2053 16.706 61.2977V61.3474H16.2727V61.7522H20.0227ZM17.6364 61.3403C17.0256 61.3403 16.6136 61.0704 16.6136 60.559C16.6136 60.0264 17.0611 59.7636 17.6364 59.7636C18.2188 59.7636 18.6804 60.0335 18.6804 60.559C18.6804 61.0633 18.2543 61.3403 17.6364 61.3403ZM16.2727 58.5051V58.9881L17.6364 58.1216L19 58.9881V58.5051L17.9418 57.8517L19 57.1983V56.7154L17.6364 57.5961L16.2727 56.7154V57.1983L17.3878 57.8517L16.2727 58.5051Z" fill="#4D4D4D"/>
<path d="M39.6989 66.2102H43.8068V68H44.8125V66.2102H46.0057V65.2727H44.8125V59.2727H43.5341L39.6989 65.3409V66.2102ZM43.8068 65.2727H40.8409V65.2045L43.7386 60.6193H43.8068V65.2727ZM50.4492 68.1193C52.3754 68.1193 53.4833 66.4872 53.4833 63.6364C53.4833 60.8068 52.3583 59.1534 50.4492 59.1534C48.5401 59.1534 47.4151 60.8068 47.4151 63.6364C47.4151 66.4872 48.5231 68.1193 50.4492 68.1193ZM50.4492 67.1818C49.1793 67.1818 48.4379 65.9077 48.4379 63.6364C48.4379 61.3693 49.1879 60.0739 50.4492 60.0739C51.7106 60.0739 52.4606 61.3693 52.4606 63.6364C52.4606 65.9077 51.7191 67.1818 50.4492 67.1818ZM57.9492 68.1193C59.8754 68.1193 60.9833 66.4872 60.9833 63.6364C60.9833 60.8068 59.8583 59.1534 57.9492 59.1534C56.0401 59.1534 54.9151 60.8068 54.9151 63.6364C54.9151 66.4872 56.0231 68.1193 57.9492 68.1193ZM57.9492 67.1818C56.6793 67.1818 55.9379 65.9077 55.9379 63.6364C55.9379 61.3693 56.6879 60.0739 57.9492 60.0739C59.2106 60.0739 59.9606 61.3693 59.9606 63.6364C59.9606 65.9077 59.2191 67.1818 57.9492 67.1818ZM71.1083 66.4318L71.756 65.7841L69.6765 63.7045L71.756 61.625L71.1083 60.9773L69.0288 63.0568L66.9492 60.9773L66.3015 61.625L68.381 63.7045L66.3015 65.7841L66.9492 66.4318L69.0288 64.3523L71.1083 66.4318ZM77.0582 66.2102H81.1662V68H82.1719V66.2102H83.3651V65.2727H82.1719V59.2727H80.8935L77.0582 65.3409V66.2102ZM81.1662 65.2727H78.2003V65.2045L81.098 60.6193H81.1662V65.2727ZM87.8086 68.1193C89.7347 68.1193 90.8427 66.4872 90.8427 63.6364C90.8427 60.8068 89.7177 59.1534 87.8086 59.1534C85.8995 59.1534 84.7745 60.8068 84.7745 63.6364C84.7745 66.4872 85.8825 68.1193 87.8086 68.1193ZM87.8086 67.1818C86.5387 67.1818 85.7972 65.9077 85.7972 63.6364C85.7972 61.3693 86.5472 60.0739 87.8086 60.0739C89.07 60.0739 89.82 61.3693 89.82 63.6364C89.82 65.9077 89.0785 67.1818 87.8086 67.1818ZM95.3086 68.1193C97.2347 68.1193 98.3427 66.4872 98.3427 63.6364C98.3427 60.8068 97.2177 59.1534 95.3086 59.1534C93.3995 59.1534 92.2745 60.8068 92.2745 63.6364C92.2745 66.4872 93.3825 68.1193 95.3086 68.1193ZM95.3086 67.1818C94.0387 67.1818 93.2972 65.9077 93.2972 63.6364C93.2972 61.3693 94.0472 60.0739 95.3086 60.0739C96.57 60.0739 97.32 61.3693 97.32 63.6364C97.32 65.9077 96.5785 67.1818 95.3086 67.1818Z" fill="black"/>
<defs>
<clipPath id="clip0">
<rect width="5" height="8" fill="white" transform="translate(13 24) rotate(-90)"/>
</clipPath>
</defs>
</svg>
