<svg width="128" height="128" viewBox="0 0 128 128" fill="none" xmlns="http://www.w3.org/2000/svg">
<rect x="4" y="4" width="120" height="120" fill="white"/>
<path d="M13.0625 8.11206C13.0625 8.32767 12.9579 8.50124 12.828 8.50124H10.172C10.0421 8.50124 9.9375 8.32767 9.9375 8.11206C9.9375 7.99585 9.96793 7.89212 10.0163 7.82093L11.3362 5.60544C11.3782 5.53964 11.4346 5.49902 11.4969 5.49902C11.5593 5.49902 11.6157 5.53963 11.6577 5.60544L12.9837 7.82093C13.0321 7.89212 13.0625 7.99585 13.0625 8.11206Z" fill="#555761"/>
<line x1="11.5" y1="7" x2="11.5" y2="121" stroke="#555761"/>
<g clip-path="url(#clip0)">
<path d="M8.11206 9.9375C8.32767 9.9375 8.50124 10.0421 8.50124 10.172V12.828C8.50124 12.9579 8.32767 13.0625 8.11206 13.0625C7.99585 13.0625 7.89212 13.0321 7.82093 12.9837L5.60544 11.6638C5.53964 11.6218 5.49902 11.5654 5.49902 11.5031C5.49902 11.4407 5.53963 11.3843 5.60544 11.3423L7.82093 10.0163C7.89212 9.96792 7.99585 9.9375 8.11206 9.9375Z" fill="#555761"/>
</g>
<line x1="7" y1="11.5" x2="121" y2="11.5" stroke="#555761"/>
<path d="M60.6548 6.36364H60.2145L59.3054 6.96733V7.41477L60.1932 6.82528H60.2145V10H60.6548V6.36364ZM62.837 10.0497C63.5295 10.0497 64.0373 9.53835 64.0373 8.84233C64.0373 8.13743 63.5472 7.62074 62.8796 7.62074C62.6346 7.62074 62.3967 7.70774 62.2475 7.8267H62.2262L62.354 6.75426H63.8739V6.36364H61.9847L61.7646 8.15341L62.1765 8.20312C62.3274 8.09482 62.5849 8.01669 62.8086 8.01847C63.272 8.02202 63.6112 8.37358 63.6112 8.84943C63.6112 9.31641 63.2844 9.65909 62.837 9.65909C62.4641 9.65909 62.1676 9.41939 62.1339 9.09091H61.7077C61.7344 9.64489 62.212 10.0497 62.837 10.0497ZM65.9287 10.0497C66.7313 10.0497 67.1929 9.36967 67.1929 8.18182C67.1929 7.00284 66.7242 6.31392 65.9287 6.31392C65.1333 6.31392 64.6645 7.00284 64.6645 8.18182C64.6645 9.36967 65.1262 10.0497 65.9287 10.0497ZM65.9287 9.65909C65.3996 9.65909 65.0906 9.1282 65.0906 8.18182C65.0906 7.23722 65.4031 6.69744 65.9287 6.69744C66.4543 6.69744 66.7668 7.23722 66.7668 8.18182C66.7668 9.1282 66.4578 9.65909 65.9287 9.65909ZM69.0537 10.0497C69.8563 10.0497 70.3179 9.36967 70.3179 8.18182C70.3179 7.00284 69.8492 6.31392 69.0537 6.31392C68.2583 6.31392 67.7895 7.00284 67.7895 8.18182C67.7895 9.36967 68.2512 10.0497 69.0537 10.0497ZM69.0537 9.65909C68.5246 9.65909 68.2156 9.1282 68.2156 8.18182C68.2156 7.23722 68.5281 6.69744 69.0537 6.69744C69.5793 6.69744 69.8918 7.23722 69.8918 8.18182C69.8918 9.1282 69.5828 9.65909 69.0537 9.65909ZM72.406 11.0227H72.825V9.58097H72.8605C72.9529 9.73011 73.1304 10.0568 73.656 10.0568C74.3378 10.0568 74.8137 9.50994 74.8137 8.64347C74.8137 7.78409 74.3378 7.23722 73.6489 7.23722C73.1162 7.23722 72.9529 7.56392 72.8605 7.70597H72.8108V7.27273H72.406V11.0227ZM72.8179 8.63636C72.8179 8.02557 73.0878 7.61364 73.5992 7.61364C74.1318 7.61364 74.3946 8.06108 74.3946 8.63636C74.3946 9.21875 74.1247 9.6804 73.5992 9.6804C73.0949 9.6804 72.8179 9.25426 72.8179 8.63636ZM75.6531 7.27273H75.1701L76.0366 8.63636L75.1701 10H75.6531L76.3065 8.94176L76.9599 10H77.4428L76.5621 8.63636L77.4428 7.27273H76.9599L76.3065 8.38778L75.6531 7.27273Z" fill="#4D4D4D"/>
<path d="M5.36364 71.3452V71.7855L5.96733 72.6946H6.41477L5.82528 71.8068V71.7855H9V71.3452H5.36364ZM9.04972 69.163C9.04972 68.4705 8.53835 67.9627 7.84233 67.9627C7.13743 67.9627 6.62074 68.4528 6.62074 69.1204C6.62074 69.3654 6.70774 69.6033 6.8267 69.7525V69.7738L5.75426 69.646V68.1261H5.36364V70.0153L7.15341 70.2354L7.20312 69.8235C7.09482 69.6726 7.01669 69.4151 7.01847 69.1914C7.02202 68.728 7.37358 68.3888 7.84943 68.3888C8.31641 68.3888 8.65909 68.7156 8.65909 69.163C8.65909 69.5359 8.41939 69.8324 8.09091 69.8661V70.2923C8.64489 70.2656 9.04972 69.788 9.04972 69.163ZM9.04972 66.0713C9.04972 65.2687 8.36967 64.8071 7.18182 64.8071C6.00284 64.8071 5.31392 65.2758 5.31392 66.0713C5.31392 66.8667 6.00284 67.3355 7.18182 67.3355C8.36967 67.3355 9.04972 66.8738 9.04972 66.0713ZM8.65909 66.0713C8.65909 66.6004 8.1282 66.9094 7.18182 66.9094C6.23722 66.9094 5.69744 66.5969 5.69744 66.0713C5.69744 65.5457 6.23722 65.2332 7.18182 65.2332C8.1282 65.2332 8.65909 65.5422 8.65909 66.0713ZM9.04972 62.9463C9.04972 62.1437 8.36967 61.6821 7.18182 61.6821C6.00284 61.6821 5.31392 62.1508 5.31392 62.9463C5.31392 63.7417 6.00284 64.2105 7.18182 64.2105C8.36967 64.2105 9.04972 63.7488 9.04972 62.9463ZM8.65909 62.9463C8.65909 63.4754 8.1282 63.7844 7.18182 63.7844C6.23722 63.7844 5.69744 63.4719 5.69744 62.9463C5.69744 62.4207 6.23722 62.1082 7.18182 62.1082C8.1282 62.1082 8.65909 62.4172 8.65909 62.9463ZM10.0227 59.594V59.175H8.58097V59.1395C8.73011 59.0471 9.05682 58.8696 9.05682 58.344C9.05682 57.6622 8.50994 57.1863 7.64347 57.1863C6.78409 57.1863 6.23722 57.6622 6.23722 58.3511C6.23722 58.8838 6.56392 59.0471 6.70597 59.1395V59.1892H6.27273V59.594H10.0227ZM7.63636 59.1821C7.02557 59.1821 6.61364 58.9122 6.61364 58.4008C6.61364 57.8682 7.06108 57.6054 7.63636 57.6054C8.21875 57.6054 8.6804 57.8753 8.6804 58.4008C8.6804 58.9051 8.25426 59.1821 7.63636 59.1821ZM6.27273 56.3469V56.8299L7.63636 55.9634L9 56.8299V56.3469L7.94176 55.6935L9 55.0401V54.5572L7.63636 55.4379L6.27273 54.5572L6.27273 55.0401L7.38778 55.6935L6.27273 56.3469Z" fill="#4D4D4D"/>
<path d="M36.9716 61.2727H35.9148L33.733 62.7216V63.7955L35.8636 62.3807H35.9148V70H36.9716V61.2727ZM42.2088 70.1193C43.8707 70.1193 45.0895 68.892 45.0895 67.2216C45.0895 65.5298 43.9134 64.2898 42.3111 64.2898C41.723 64.2898 41.152 64.4986 40.794 64.7841H40.7429L41.0497 62.2102H44.6974V61.2727H40.1634L39.6349 65.5682L40.6236 65.6875C40.9858 65.4276 41.6037 65.2401 42.1406 65.2443C43.2528 65.2528 44.0668 66.0966 44.0668 67.2386C44.0668 68.3594 43.2827 69.1818 42.2088 69.1818C41.3139 69.1818 40.6023 68.6065 40.5213 67.8182H39.4986C39.5625 69.1477 40.7088 70.1193 42.2088 70.1193ZM49.6289 70.1193C51.555 70.1193 52.663 68.4872 52.663 65.6364C52.663 62.8068 51.538 61.1534 49.6289 61.1534C47.7198 61.1534 46.5948 62.8068 46.5948 65.6364C46.5948 68.4872 47.7028 70.1193 49.6289 70.1193ZM49.6289 69.1818C48.359 69.1818 47.6175 67.9077 47.6175 65.6364C47.6175 63.3693 48.3675 62.0739 49.6289 62.0739C50.8903 62.0739 51.6403 63.3693 51.6403 65.6364C51.6403 67.9077 50.8988 69.1818 49.6289 69.1818ZM57.1289 70.1193C59.055 70.1193 60.163 68.4872 60.163 65.6364C60.163 62.8068 59.038 61.1534 57.1289 61.1534C55.2198 61.1534 54.0948 62.8068 54.0948 65.6364C54.0948 68.4872 55.2028 70.1193 57.1289 70.1193ZM57.1289 69.1818C55.859 69.1818 55.1175 67.9077 55.1175 65.6364C55.1175 63.3693 55.8675 62.0739 57.1289 62.0739C58.3903 62.0739 59.1403 63.3693 59.1403 65.6364C59.1403 67.9077 58.3988 69.1818 57.1289 69.1818ZM70.288 68.4318L70.9357 67.7841L68.8562 65.7045L70.9357 63.625L70.288 62.9773L68.2085 65.0568L66.1289 62.9773L65.4812 63.625L67.5607 65.7045L65.4812 67.7841L66.1289 68.4318L68.2085 66.3523L70.288 68.4318ZM79.5107 61.2727H78.4538L76.272 62.7216V63.7955L78.4027 62.3807H78.4538V70H79.5107V61.2727ZM84.7479 70.1193C86.4098 70.1193 87.6286 68.892 87.6286 67.2216C87.6286 65.5298 86.4524 64.2898 84.8501 64.2898C84.2621 64.2898 83.6911 64.4986 83.3331 64.7841H83.282L83.5888 62.2102H87.2365V61.2727H82.7024L82.174 65.5682L83.1626 65.6875C83.5249 65.4276 84.1428 65.2401 84.6797 65.2443C85.7919 65.2528 86.6058 66.0966 86.6058 67.2386C86.6058 68.3594 85.8217 69.1818 84.7479 69.1818C83.853 69.1818 83.1413 68.6065 83.0604 67.8182H82.0376C82.1016 69.1477 83.2479 70.1193 84.7479 70.1193ZM92.168 70.1193C94.0941 70.1193 95.2021 68.4872 95.2021 65.6364C95.2021 62.8068 94.0771 61.1534 92.168 61.1534C90.2589 61.1534 89.1339 62.8068 89.1339 65.6364C89.1339 68.4872 90.2418 70.1193 92.168 70.1193ZM92.168 69.1818C90.8981 69.1818 90.1566 67.9077 90.1566 65.6364C90.1566 63.3693 90.9066 62.0739 92.168 62.0739C93.4293 62.0739 94.1793 63.3693 94.1793 65.6364C94.1793 67.9077 93.4379 69.1818 92.168 69.1818ZM99.668 70.1193C101.594 70.1193 102.702 68.4872 102.702 65.6364C102.702 62.8068 101.577 61.1534 99.668 61.1534C97.7589 61.1534 96.6339 62.8068 96.6339 65.6364C96.6339 68.4872 97.7418 70.1193 99.668 70.1193ZM99.668 69.1818C98.3981 69.1818 97.6566 67.9077 97.6566 65.6364C97.6566 63.3693 98.4066 62.0739 99.668 62.0739C100.929 62.0739 101.679 63.3693 101.679 65.6364C101.679 67.9077 100.938 69.1818 99.668 69.1818Z" fill="black"/>
<defs>
<clipPath id="clip0">
<rect width="5" height="8" fill="white" transform="translate(3 14) rotate(-90)"/>
</clipPath>
</defs>
</svg>
