<svg width="128" height="128" viewBox="0 0 128 128" fill="none" xmlns="http://www.w3.org/2000/svg">
<rect x="11" y="31" width="106" height="65" fill="white"/>
<path d="M20.0625 34.1121C20.0625 34.3277 19.9579 34.5012 19.828 34.5012H17.172C17.0421 34.5012 16.9375 34.3277 16.9375 34.1121C16.9375 33.9959 16.9679 33.8921 17.0163 33.8209L18.3362 31.6054C18.3782 31.5396 18.4346 31.499 18.4969 31.499C18.5593 31.499 18.6157 31.5396 18.6577 31.6054L19.9837 33.8209C20.0321 33.8921 20.0625 33.9959 20.0625 34.1121Z" fill="#555761"/>
<line x1="18.5" y1="33" x2="18.5" y2="93" stroke="#555761"/>
<g clip-path="url(#clip0)">
<path d="M14.112 36.9375C14.3276 36.9375 14.5012 37.0421 14.5012 37.172V39.828C14.5012 39.9579 14.3276 40.0625 14.112 40.0625C13.9958 40.0625 13.8921 40.0321 13.8209 39.9837L11.6054 38.6638C11.5396 38.6218 11.499 38.5654 11.499 38.5031C11.499 38.4407 11.5396 38.3843 11.6054 38.3423L13.8209 37.0163C13.8921 36.9679 13.9958 36.9375 14.112 36.9375Z" fill="#555761"/>
</g>
<line x1="13" y1="38.5" x2="114" y2="38.5" stroke="#555761"/>
<path d="M60.6051 36.0497C61.31 36.0497 61.8338 35.6076 61.8338 35.0128C61.8338 34.5511 61.5604 34.2156 61.1023 34.1392V34.1108C61.4698 33.9989 61.6989 33.6971 61.6989 33.2869C61.6989 32.772 61.2923 32.3139 60.6193 32.3139C59.9908 32.3139 59.4688 32.701 59.4474 33.2727H59.8736C59.8896 32.9105 60.234 32.6974 60.6122 32.6974C61.0135 32.6974 61.2727 32.9407 61.2727 33.3082C61.2727 33.6918 60.9727 33.9403 60.5412 33.9403H60.25V34.331H60.5412C61.0934 34.331 61.4006 34.6115 61.4006 35.0128C61.4006 35.3981 61.065 35.6591 60.598 35.6591C60.1772 35.6591 59.8434 35.4425 59.8168 35.0909H59.3693C59.396 35.6626 59.9002 36.0497 60.6051 36.0497ZM63.8384 32.3636H63.3981L62.489 32.9673V33.4148L63.3768 32.8253H63.3981V36H63.8384V32.3636ZM66.0703 36.0497C66.8729 36.0497 67.3345 35.3697 67.3345 34.1818C67.3345 33.0028 66.8658 32.3139 66.0703 32.3139C65.2749 32.3139 64.8061 33.0028 64.8061 34.1818C64.8061 35.3697 65.2678 36.0497 66.0703 36.0497ZM66.0703 35.6591C65.5412 35.6591 65.2322 35.1282 65.2322 34.1818C65.2322 33.2372 65.5447 32.6974 66.0703 32.6974C66.5959 32.6974 66.9084 33.2372 66.9084 34.1818C66.9084 35.1282 66.5994 35.6591 66.0703 35.6591ZM69.4226 37.0227H69.8416V35.581H69.8771C69.9695 35.7301 70.147 36.0568 70.6726 36.0568C71.3544 36.0568 71.8303 35.5099 71.8303 34.6435C71.8303 33.7841 71.3544 33.2372 70.6655 33.2372C70.1328 33.2372 69.9695 33.5639 69.8771 33.706H69.8274V33.2727H69.4226V37.0227ZM69.8345 34.6364C69.8345 34.0256 70.1044 33.6136 70.6158 33.6136C71.1484 33.6136 71.4112 34.0611 71.4112 34.6364C71.4112 35.2188 71.1413 35.6804 70.6158 35.6804C70.1115 35.6804 69.8345 35.2543 69.8345 34.6364ZM72.6697 33.2727H72.1867L73.0532 34.6364L72.1867 36H72.6697L73.3231 34.9418L73.9765 36H74.4594L73.5787 34.6364L74.4594 33.2727H73.9765L73.3231 34.3878L72.6697 33.2727Z" fill="#4D4D4D"/>
<path d="M12.3636 71.3452V71.7855L12.9673 72.6946H13.4148L12.8253 71.8068V71.7855H16V71.3452H12.3636ZM16.0497 69.163C16.0497 68.4705 15.5384 67.9627 14.8423 67.9627C14.1374 67.9627 13.6207 68.4528 13.6207 69.1204C13.6207 69.3654 13.7077 69.6033 13.8267 69.7525V69.7738L12.7543 69.646V68.1261H12.3636V70.0153L14.1534 70.2354L14.2031 69.8235C14.0948 69.6726 14.0167 69.4151 14.0185 69.1914C14.022 68.728 14.3736 68.3888 14.8494 68.3888C15.3164 68.3888 15.6591 68.7156 15.6591 69.163C15.6591 69.5359 15.4194 69.8324 15.0909 69.8661V70.2923C15.6449 70.2656 16.0497 69.788 16.0497 69.163ZM16.0497 66.0713C16.0497 65.2687 15.3697 64.8071 14.1818 64.8071C13.0028 64.8071 12.3139 65.2758 12.3139 66.0713C12.3139 66.8667 13.0028 67.3355 14.1818 67.3355C15.3697 67.3355 16.0497 66.8738 16.0497 66.0713ZM15.6591 66.0713C15.6591 66.6004 15.1282 66.9094 14.1818 66.9094C13.2372 66.9094 12.6974 66.5969 12.6974 66.0713C12.6974 65.5457 13.2372 65.2332 14.1818 65.2332C15.1282 65.2332 15.6591 65.5422 15.6591 66.0713ZM17.0227 62.719V62.3H15.581V62.2645C15.7301 62.1721 16.0568 61.9946 16.0568 61.469C16.0568 60.7872 15.5099 60.3113 14.6435 60.3113C13.7841 60.3113 13.2372 60.7872 13.2372 61.4761C13.2372 62.0088 13.5639 62.1721 13.706 62.2645V62.3142H13.2727V62.719H17.0227ZM14.6364 62.3071C14.0256 62.3071 13.6136 62.0372 13.6136 61.5258C13.6136 60.9932 14.0611 60.7304 14.6364 60.7304C15.2188 60.7304 15.6804 61.0003 15.6804 61.5258C15.6804 62.0301 15.2543 62.3071 14.6364 62.3071ZM13.2727 59.4719V59.9549L14.6364 59.0884L16 59.9549V59.4719L14.9418 58.8185L16 58.1651V57.6822L14.6364 58.5629L13.2727 57.6822V58.1651L14.3878 58.8185L13.2727 59.4719Z" fill="#4D4D4D"/>
<path d="M43.8523 67.1193C45.544 67.1193 46.8011 66.0582 46.8011 64.6307C46.8011 63.5227 46.1449 62.7173 45.0455 62.5341V62.4659C45.9276 62.1974 46.4773 61.473 46.4773 60.4886C46.4773 59.2528 45.5014 58.1534 43.8864 58.1534C42.3778 58.1534 41.125 59.0824 41.0739 60.4545H42.0966C42.1349 59.5852 42.9616 59.0739 43.8693 59.0739C44.8324 59.0739 45.4545 59.6577 45.4545 60.5398C45.4545 61.4602 44.7344 62.0568 43.6989 62.0568H43V62.9943H43.6989C45.0241 62.9943 45.7614 63.6676 45.7614 64.6307C45.7614 65.5554 44.956 66.1818 43.8352 66.1818C42.8253 66.1818 42.0241 65.6619 41.9602 64.8182H40.8864C40.9503 66.1903 42.1605 67.1193 43.8523 67.1193ZM51.6122 58.2727H50.5554L48.3736 59.7216V60.7955L50.5043 59.3807H50.5554V67H51.6122V58.2727ZM56.9688 67.1193C58.8949 67.1193 60.0028 65.4872 60.0028 62.6364C60.0028 59.8068 58.8778 58.1534 56.9688 58.1534C55.0597 58.1534 53.9347 59.8068 53.9347 62.6364C53.9347 65.4872 55.0426 67.1193 56.9688 67.1193ZM56.9688 66.1818C55.6989 66.1818 54.9574 64.9077 54.9574 62.6364C54.9574 60.3693 55.7074 59.0739 56.9688 59.0739C58.2301 59.0739 58.9801 60.3693 58.9801 62.6364C58.9801 64.9077 58.2386 66.1818 56.9688 66.1818ZM70.1278 65.4318L70.7756 64.7841L68.696 62.7045L70.7756 60.625L70.1278 59.9773L68.0483 62.0568L65.9688 59.9773L65.321 60.625L67.4006 62.7045L65.321 64.7841L65.9688 65.4318L68.0483 63.3523L70.1278 65.4318ZM79.3505 58.2727H78.2937L76.1119 59.7216V60.7955L78.2425 59.3807H78.2937V67H79.3505V58.2727ZM84.5877 67.1193C86.2496 67.1193 87.4684 65.892 87.4684 64.2216C87.4684 62.5298 86.2923 61.2898 84.69 61.2898C84.1019 61.2898 83.5309 61.4986 83.1729 61.7841H83.1218L83.4286 59.2102H87.0763V58.2727H82.5423L82.0138 62.5682L83.0025 62.6875C83.3647 62.4276 83.9826 62.2401 84.5195 62.2443C85.6317 62.2528 86.4457 63.0966 86.4457 64.2386C86.4457 65.3594 85.6616 66.1818 84.5877 66.1818C83.6928 66.1818 82.9812 65.6065 82.9002 64.8182H81.8775C81.9414 66.1477 83.0877 67.1193 84.5877 67.1193ZM92.0078 67.1193C93.9339 67.1193 95.0419 65.4872 95.0419 62.6364C95.0419 59.8068 93.9169 58.1534 92.0078 58.1534C90.0987 58.1534 88.9737 59.8068 88.9737 62.6364C88.9737 65.4872 90.0817 67.1193 92.0078 67.1193ZM92.0078 66.1818C90.7379 66.1818 89.9964 64.9077 89.9964 62.6364C89.9964 60.3693 90.7464 59.0739 92.0078 59.0739C93.2692 59.0739 94.0192 60.3693 94.0192 62.6364C94.0192 64.9077 93.2777 66.1818 92.0078 66.1818Z" fill="black"/>
<defs>
<clipPath id="clip0">
<rect width="5" height="8" fill="white" transform="translate(9 41) rotate(-90)"/>
</clipPath>
</defs>
</svg>
