<svg width="128" height="128" viewBox="0 0 128 128" fill="none" xmlns="http://www.w3.org/2000/svg">
<rect x="24" y="24" width="80" height="80" fill="white"/>
<path d="M33.0625 27.1121C33.0625 27.3277 32.9579 27.5012 32.828 27.5012H30.172C30.0421 27.5012 29.9375 27.3277 29.9375 27.1121C29.9375 26.9959 29.9679 26.8921 30.0163 26.8209L31.3362 24.6054C31.3782 24.5396 31.4346 24.499 31.4969 24.499C31.5593 24.499 31.6157 24.5396 31.6577 24.6054L32.9837 26.8209C33.0321 26.8921 33.0625 26.9959 33.0625 27.1121Z" fill="#555761"/>
<line x1="31.5" y1="26" x2="31.5" y2="101" stroke="#555761"/>
<g clip-path="url(#clip0)">
<path d="M27.112 29.9375C27.3276 29.9375 27.5012 30.0421 27.5012 30.172V32.828C27.5012 32.9579 27.3276 33.0625 27.112 33.0625C26.9958 33.0625 26.8921 33.0321 26.8209 32.9837L24.6054 31.6638C24.5396 31.6218 24.499 31.5654 24.499 31.5031C24.499 31.4407 24.5396 31.3843 24.6054 31.3423L26.8209 30.0163C26.8921 29.9679 26.9958 29.9375 27.112 29.9375Z" fill="#555761"/>
</g>
<line x1="26" y1="31.5" x2="101" y2="31.5" stroke="#555761"/>
<path d="M59.2912 28.2543H61.0028V29H61.4219V28.2543H61.919V27.8636H61.4219V25.3636H60.8892L59.2912 27.892V28.2543ZM61.0028 27.8636H59.767V27.8352L60.9744 25.9247H61.0028V27.8636ZM62.4992 28.2543H64.2108V29H64.6299V28.2543H65.127V27.8636H64.6299V25.3636H64.0972L62.4992 27.892V28.2543ZM64.2108 27.8636H62.9751V27.8352L64.1824 25.9247H64.2108V27.8636ZM67.2058 30.0227H67.6248V28.581H67.6603C67.7527 28.7301 67.9302 29.0568 68.4558 29.0568C69.1376 29.0568 69.6135 28.5099 69.6135 27.6435C69.6135 26.7841 69.1376 26.2372 68.4487 26.2372C67.916 26.2372 67.7527 26.5639 67.6603 26.706H67.6106V26.2727H67.2058V30.0227ZM67.6177 27.6364C67.6177 27.0256 67.8876 26.6136 68.399 26.6136C68.9316 26.6136 69.1944 27.0611 69.1944 27.6364C69.1944 28.2188 68.9245 28.6804 68.399 28.6804C67.8947 28.6804 67.6177 28.2543 67.6177 27.6364ZM70.4529 26.2727H69.9699L70.8364 27.6364L69.9699 29H70.4529L71.1063 27.9418L71.7597 29H72.2426L71.3619 27.6364L72.2426 26.2727H71.7597L71.1063 27.3878L70.4529 26.2727Z" fill="#4D4D4D"/>
<path d="M28.2543 72.7088V70.9972H29V70.5781H28.2543V70.081H27.8636V70.5781H25.3636V71.1108L27.892 72.7088H28.2543ZM27.8636 70.9972V72.233H27.8352L25.9247 71.0256V70.9972H27.8636ZM28.2543 69.5008V67.7892H29V67.3701H28.2543V66.873H27.8636V67.3701H25.3636V67.9028L27.892 69.5008H28.2543ZM27.8636 67.7892V69.0249H27.8352L25.9247 67.8176V67.7892H27.8636ZM30.0227 64.7942V64.3752H28.581V64.3397C28.7301 64.2473 29.0568 64.0698 29.0568 63.5442C29.0568 62.8624 28.5099 62.3865 27.6435 62.3865C26.7841 62.3865 26.2372 62.8624 26.2372 63.5513C26.2372 64.084 26.5639 64.2473 26.706 64.3397V64.3894H26.2727V64.7942H30.0227ZM27.6364 64.3823C27.0256 64.3823 26.6136 64.1124 26.6136 63.601C26.6136 63.0684 27.0611 62.8056 27.6364 62.8056C28.2188 62.8056 28.6804 63.0755 28.6804 63.601C28.6804 64.1053 28.2543 64.3823 27.6364 64.3823ZM26.2727 61.5471V62.0301L27.6364 61.1636L29 62.0301V61.5471L27.9418 60.8937L29 60.2403V59.7574L27.6364 60.6381L26.2727 59.7574V60.2403L27.3878 60.8937L26.2727 61.5471Z" fill="#4D4D4D"/>
<path d="M46.6989 66.2102H50.8068V68H51.8125V66.2102H53.0057V65.2727H51.8125V59.2727H50.5341L46.6989 65.3409V66.2102ZM50.8068 65.2727H47.8409V65.2045L50.7386 60.6193H50.8068V65.2727ZM54.3981 66.2102H58.506V68H59.5117V66.2102H60.7049V65.2727H59.5117V59.2727H58.2333L54.3981 65.3409V66.2102ZM58.506 65.2727H55.5401V65.2045L58.4379 60.6193H58.506V65.2727ZM70.8075 66.4318L71.4553 65.7841L69.3757 63.7045L71.4553 61.625L70.8075 60.9773L68.728 63.0568L66.6484 60.9773L66.0007 61.625L68.0803 63.7045L66.0007 65.7841L66.6484 66.4318L68.728 64.3523L70.8075 66.4318ZM76.7575 66.2102H80.8654V68H81.8711V66.2102H83.0643V65.2727H81.8711V59.2727H80.5927L76.7575 65.3409V66.2102ZM80.8654 65.2727H77.8995V65.2045L80.7972 60.6193H80.8654V65.2727ZM84.4567 66.2102H88.5646V68H89.5703V66.2102H90.7635V65.2727H89.5703V59.2727H88.2919L84.4567 65.3409V66.2102ZM88.5646 65.2727H85.5987V65.2045L88.4964 60.6193H88.5646V65.2727Z" fill="black"/>
<defs>
<clipPath id="clip0">
<rect width="5" height="8" fill="white" transform="translate(22 34) rotate(-90)"/>
</clipPath>
</defs>
</svg>
