<svg width="128" height="128" viewBox="0 0 128 128" fill="none" xmlns="http://www.w3.org/2000/svg">
<path d="M107.237 108.524C107.239 110.294 106.124 112.046 103.958 113.68C101.791 115.315 98.6155 116.801 94.6114 118.052C90.6074 119.303 85.8536 120.296 80.6216 120.973C75.3896 121.65 69.7818 121.998 64.1186 121.998C58.4554 121.998 52.8477 121.65 47.6157 120.973C42.3837 120.296 37.6299 119.303 33.6259 118.052C29.6218 116.801 26.4459 115.315 24.2795 113.68C22.1132 112.046 20.9988 110.294 21 108.524C20.9988 106.755 22.1132 105.003 24.2795 103.368C26.4459 101.733 29.6218 100.248 33.6259 98.9967C37.6299 97.7454 42.3837 96.7529 47.6157 96.0757C52.8477 95.3985 58.4554 95.05 64.1186 95.05C69.7818 95.05 75.3896 95.3985 80.6216 96.0757C85.8536 96.7529 90.6074 97.7454 94.6114 98.9967C98.6155 100.248 101.791 101.733 103.958 103.368C106.124 105.003 107.239 106.755 107.237 108.524Z" fill="url(#paint0_radial)"/>
<circle cx="63.5" cy="64.5" r="54" fill="url(#paint1_linear)" stroke="#ABACAE"/>
<circle cx="63.5" cy="64.5" r="53" stroke="url(#paint2_linear)"/>
<path fill-rule="evenodd" clip-rule="evenodd" d="M64.7267 24.7302C71.1615 28.5932 75.4945 35.81 75.4945 44.0685C75.4945 52.3269 71.1615 59.5437 64.7267 63.4067C58.2918 59.5437 53.9588 52.3269 53.9588 44.0685C53.9588 35.81 58.2918 28.5932 64.7267 24.7302Z" fill="black" fill-opacity="0.13"/>
<path fill-rule="evenodd" clip-rule="evenodd" d="M35.2929 36.0541C42.5654 34.2201 50.7152 36.2489 56.5352 42.0885C62.3552 47.9281 64.3772 56.1054 62.5494 63.4024C55.2769 65.2364 47.1271 63.2076 41.3071 57.368C35.4871 51.5283 33.4651 43.3511 35.2929 36.0541Z" fill="black" fill-opacity="0.13"/>
<path fill-rule="evenodd" clip-rule="evenodd" d="M35.2914 93.6748C33.4636 86.3778 35.4856 78.2005 41.3056 72.3609C47.1256 66.5213 55.2754 64.4925 62.5479 66.3265C64.3757 73.6235 62.3537 81.8007 56.5337 87.6403C50.7137 93.48 42.5639 95.5088 35.2914 93.6748Z" fill="black" fill-opacity="0.15"/>
<path fill-rule="evenodd" clip-rule="evenodd" d="M35.2914 93.6748C33.4636 86.3778 35.4856 78.2005 41.3056 72.3609C47.1256 66.5213 55.2754 64.4925 62.5479 66.3265C64.3757 73.6235 62.3537 81.8007 56.5337 87.6403C50.7137 93.48 42.5639 95.5088 35.2914 93.6748Z" fill="black" fill-opacity="0.15"/>
<path d="M56.1808 87.2862C50.5641 92.9218 42.7345 94.9258 35.7045 93.2603C34.0446 86.2067 36.0419 78.3506 41.6586 72.7151C47.2752 67.0795 55.1049 65.0754 62.1348 66.7409C63.7948 73.7946 61.7974 81.6506 56.1808 87.2862Z" stroke="black" stroke-opacity="0.07"/>
<path fill-rule="evenodd" clip-rule="evenodd" d="M64.0012 105C57.5664 101.137 53.2334 93.9202 53.2334 85.6618C53.2334 77.4033 57.5664 70.1865 64.0012 66.3235C70.4361 70.1865 74.7691 77.4033 74.7691 85.6618C74.7691 93.9202 70.4361 101.137 64.0012 105Z" fill="black" fill-opacity="0.13"/>
<path fill-rule="evenodd" clip-rule="evenodd" d="M92.7128 93.6762C85.4403 95.5102 77.2905 93.4814 71.4705 87.6418C65.6505 81.8022 63.6285 73.6249 65.4563 66.3279C72.7288 64.4939 80.8786 66.5227 86.6986 72.3623C92.5186 78.2019 94.5407 86.3792 92.7128 93.6762Z" fill="black" fill-opacity="0.13"/>
<path fill-rule="evenodd" clip-rule="evenodd" d="M24 64.8719C27.85 58.4153 35.0425 54.0677 43.2733 54.0677C51.504 54.0677 58.6965 58.4153 62.5465 64.8719C58.6965 71.3285 51.504 75.6761 43.2733 75.6761C35.0425 75.6761 27.85 71.3285 24 64.8719Z" fill="black" fill-opacity="0.15"/>
<path fill-rule="evenodd" clip-rule="evenodd" d="M24 64.8719C27.85 58.4153 35.0425 54.0677 43.2733 54.0677C51.504 54.0677 58.6965 58.4153 62.5465 64.8719C58.6965 71.3285 51.504 75.6761 43.2733 75.6761C35.0425 75.6761 27.85 71.3285 24 64.8719Z" fill="black" fill-opacity="0.15"/>
<path d="M43.2733 75.1761C35.3307 75.1761 28.3819 71.0383 24.5846 64.8719C28.3819 58.7056 35.3307 54.5677 43.2733 54.5677C51.2158 54.5677 58.1646 58.7056 61.9619 64.8719C58.1646 71.0383 51.2158 75.1761 43.2733 75.1761Z" stroke="black" stroke-opacity="0.07"/>
<path fill-rule="evenodd" clip-rule="evenodd" d="M103.278 64.8696C99.4279 71.3263 92.2354 75.6739 84.0046 75.6739C75.7739 75.6739 68.5814 71.3263 64.7314 64.8696C68.5814 58.413 75.7739 54.0654 84.0046 54.0654C92.2354 54.0654 99.4279 58.413 103.278 64.8696Z" fill="black" fill-opacity="0.15"/>
<path d="M84.0046 54.5654C91.9472 54.5654 98.896 58.7033 102.693 64.8696C98.896 71.036 91.9472 75.1739 84.0046 75.1739C76.0621 75.1739 69.1133 71.036 65.316 64.8696C69.1133 58.7033 76.0621 54.5654 84.0046 54.5654Z" stroke="black" stroke-opacity="0.07"/>
<path fill-rule="evenodd" clip-rule="evenodd" d="M92.7143 36.0554C94.5422 43.3524 92.5201 51.5297 86.7001 57.3693C80.8801 63.2089 72.7303 65.2377 65.4578 63.4038C63.63 56.1067 65.652 47.9295 71.472 42.0899C77.292 36.2503 85.4418 34.2215 92.7143 36.0554Z" fill="black" fill-opacity="0.13"/>
<path fill-rule="evenodd" clip-rule="evenodd" d="M36.0149 34.5936C43.2875 32.7596 51.4373 34.7885 57.2573 40.6281C63.0773 46.4677 65.0993 54.6449 63.2715 61.9419C55.999 63.7759 47.8491 61.7471 42.0291 55.9075C36.2091 50.0679 34.1871 41.8906 36.0149 34.5936Z" fill="black" fill-opacity="0.15"/>
<path fill-rule="evenodd" clip-rule="evenodd" d="M36.0149 34.5936C43.2875 32.7596 51.4373 34.7885 57.2573 40.6281C63.0773 46.4677 65.0993 54.6449 63.2715 61.9419C55.999 63.7759 47.8491 61.7471 42.0291 55.9075C36.2091 50.0679 34.1871 41.8906 36.0149 34.5936Z" fill="black" fill-opacity="0.15"/>
<path d="M42.3821 55.5534C36.7654 49.9178 34.7681 42.0618 36.428 35.0081C43.458 33.3426 51.2876 35.3466 56.9043 40.9822C62.521 46.6178 64.5183 54.4738 62.8584 61.5275C55.8284 63.193 47.9988 61.189 42.3821 55.5534Z" stroke="black" stroke-opacity="0.07"/>
<path fill-rule="evenodd" clip-rule="evenodd" d="M64.7266 24.7302C71.1615 28.5932 75.4945 35.81 75.4945 44.0685C75.4945 52.3269 71.1615 59.5437 64.7266 63.4067C58.2917 59.5437 53.9587 52.3269 53.9587 44.0685C53.9587 35.81 58.2917 28.5932 64.7266 24.7302Z" fill="black" fill-opacity="0.15"/>
<path fill-rule="evenodd" clip-rule="evenodd" d="M64.7266 24.7302C71.1615 28.5932 75.4945 35.81 75.4945 44.0685C75.4945 52.3269 71.1615 59.5437 64.7266 63.4067C58.2917 59.5437 53.9587 52.3269 53.9587 44.0685C53.9587 35.81 58.2917 28.5932 64.7266 24.7302Z" fill="black" fill-opacity="0.15"/>
<path d="M54.4587 44.0685C54.4587 36.0979 58.5829 29.1259 64.7266 25.3159C70.8703 29.1259 74.9945 36.0979 74.9945 44.0685C74.9945 52.039 70.8703 59.011 64.7266 62.821C58.5829 59.011 54.4587 52.039 54.4587 44.0685Z" stroke="black" stroke-opacity="0.07"/>
<path d="M53.481 43.3382C53.481 35.2235 57.7095 28.129 63.9988 24.2922C70.2881 28.129 74.5167 35.2235 74.5167 43.3382C74.5167 51.4529 70.2881 58.5474 63.9988 62.3842C57.7095 58.5474 53.481 51.4529 53.481 43.3382Z" fill="url(#paint3_linear)" fill-opacity="0.9" stroke="#A62100" stroke-width="0.5"/>
<path d="M41.4778 56.4606C35.7594 50.7229 33.7496 42.7062 35.4933 35.5306C42.6448 33.781 50.6345 35.7976 56.353 41.5353C62.0715 47.273 64.0812 55.2897 62.3376 62.4653C55.1861 64.2148 47.1963 62.1983 41.4778 56.4606Z" fill="url(#paint4_linear)" fill-opacity="0.8" stroke="#7A0000" stroke-width="0.5"/>
<path d="M43.2733 74.6845C35.1865 74.6845 28.1156 70.4418 24.2917 64.1303C28.1156 57.8188 35.1865 53.5761 43.2733 53.5761C51.3601 53.5761 58.4309 57.8188 62.2548 64.1303C58.4309 70.4418 51.3601 74.6845 43.2733 74.6845Z" fill="url(#paint5_linear)" fill-opacity="0.9" stroke="#910E38" stroke-width="0.5"/>
<path fill-rule="evenodd" clip-rule="evenodd" d="M35.2857 92.2143C33.4579 84.9173 35.4799 76.7401 41.2999 70.9005C47.1199 65.0609 55.2697 63.032 62.5423 64.866C64.3701 72.163 62.3481 80.3403 56.528 86.1799C50.708 92.0195 42.5582 94.0483 35.2857 92.2143Z" fill="black" fill-opacity="0.13"/>
<path d="M56.3516 86.7331C50.6331 92.4708 42.6433 94.4873 35.4918 92.7378C33.7482 85.5622 35.7579 77.5455 41.4764 71.8078C47.1949 66.07 55.1847 64.0535 62.3362 65.803C64.0798 72.9786 62.07 80.9953 56.3516 86.7331Z" fill="url(#paint6_linear)" fill-opacity="0.9" stroke="#452981" stroke-width="0.5"/>
<path fill-rule="evenodd" clip-rule="evenodd" d="M63.2734 104.27C56.8385 100.407 52.5055 93.1901 52.5055 84.9316C52.5055 76.6731 56.8385 69.4563 63.2734 65.5934C69.7083 69.4563 74.0413 76.6731 74.0413 84.9316C74.0413 93.1901 69.7083 100.407 63.2734 104.27Z" fill="black" fill-opacity="0.13"/>
<path d="M74.519 84.9316C74.519 93.0463 70.2905 100.141 64.0012 103.978C57.7119 100.141 53.4833 93.0463 53.4833 84.9316C53.4833 76.8169 57.7119 69.7224 64.0012 65.8856C70.2905 69.7224 74.519 76.8169 74.519 84.9316Z" fill="url(#paint7_linear)" fill-opacity="0.9" stroke="#002E99" stroke-width="0.5"/>
<path fill-rule="evenodd" clip-rule="evenodd" d="M91.9851 93.6762C84.7125 95.5102 76.5627 93.4814 70.7427 87.6418C64.9227 81.8022 62.9007 73.6249 64.7285 66.3279C72.001 64.4939 80.1508 66.5227 85.9708 72.3623C91.7909 78.2019 93.8129 86.3792 91.9851 93.6762Z" fill="black" fill-opacity="0.13"/>
<path fill-rule="evenodd" clip-rule="evenodd" d="M92.7143 36.0554C94.5422 43.3524 92.5201 51.5297 86.7001 57.3693C80.8801 63.2089 72.7303 65.2377 65.4578 63.4038C63.63 56.1067 65.652 47.9295 71.472 42.0899C77.292 36.2503 85.4418 34.2215 92.7143 36.0554Z" fill="black" fill-opacity="0.13"/>
<path d="M86.5221 71.8092C92.2406 77.5469 94.2504 85.5636 92.5067 92.7392C85.3552 94.4887 77.3654 92.4722 71.647 86.7345C65.9285 80.9968 63.9187 72.9801 65.6624 65.8045C72.8139 64.0549 80.8037 66.0715 86.5221 71.8092Z" fill="url(#paint8_linear)" fill-opacity="0.9" stroke="#007367" stroke-width="0.5"/>
<path fill-rule="evenodd" clip-rule="evenodd" d="M92.7143 36.0554C94.5422 43.3524 92.5201 51.5297 86.7001 57.3693C80.8801 63.2089 72.7303 65.2377 65.4578 63.4038C63.63 56.1067 65.652 47.9295 71.472 42.0899C77.292 36.2503 85.4418 34.2215 92.7143 36.0554Z" fill="black" fill-opacity="0.13"/>
<path d="M71.825 42.444C77.4417 36.8084 85.2713 34.8044 92.3013 36.4699C93.9612 43.5236 91.9639 51.3796 86.3472 57.0152C80.7305 62.6508 72.9009 64.6548 65.8709 62.9893C64.211 55.9356 66.2083 48.0796 71.825 42.444Z" stroke="black" stroke-opacity="0.07"/>
<path d="M84.7267 53.5853C92.8135 53.5853 99.8844 57.828 103.708 64.1395C99.8844 70.451 92.8135 74.6937 84.7267 74.6937C76.6399 74.6937 69.5691 70.451 65.7452 64.1395C69.5691 57.828 76.6399 53.5853 84.7267 53.5853Z" fill="url(#paint9_linear)" fill-opacity="0.9" stroke="#206B00" stroke-width="0.5"/>
<path d="M71.6485 41.5367C77.367 35.799 85.3567 33.7825 92.5082 35.532C94.2519 42.7076 92.2421 50.7243 86.5237 56.462C80.8052 62.1997 72.8154 64.2163 65.6639 62.4668C63.9203 55.2912 65.93 47.2744 71.6485 41.5367Z" fill="url(#paint10_linear)" fill-opacity="0.9" stroke="#AD5F00" stroke-width="0.5"/>
<path opacity="0.15" fill-rule="evenodd" clip-rule="evenodd" d="M107.719 75.1598C107.542 75.1624 107.399 75.2404 107.281 75.3161L75.8438 95.3473L70.0312 99.0348L69.875 99.0973L63 114.566L80 115.066L80.125 114.972L85.9688 111.285L116.156 91.9099L115.969 85.4099C115.433 84.361 114.8 83.2235 114.062 82.0661C111.961 78.7678 109.73 76.1633 108.344 75.3474C108.113 75.2114 107.895 75.1573 107.719 75.1599V75.1598Z" fill="#0C0C0C"/>
<path d="M72.2496 94.2476C73.4387 93.3553 76.7751 95.0291 79.8411 98.0798C82.8997 101.123 84.5114 104.38 83.6393 105.581C83.6361 105.585 83.7143 105.647 83.7109 105.652L126.403 62.7505C127.487 61.6613 125.803 58.2192 122.639 55.0716C119.476 51.924 116.026 50.257 114.942 51.3462L72.2496 94.2476Z" fill="url(#paint11_linear)"/>
<path opacity="0.6" d="M72.2496 94.2475C73.4387 93.3553 76.7751 95.029 79.8411 98.0798C82.8997 101.123 84.5114 104.38 83.6393 105.581C83.6361 105.585 83.7143 105.647 83.711 105.652L113.112 76.1071L113.218 76.0002C113.221 75.9957 113.143 75.9335 113.146 75.9289C114.018 74.7282 112.407 71.4716 109.348 68.4282C106.282 65.3774 102.946 63.7036 101.757 64.5959L101.65 64.7028L72.2497 94.2475H72.2496L72.2496 94.2475Z" fill="#F9C440"/>
<path d="M72.2496 94.2476C73.4387 93.3553 76.7751 95.0291 79.8411 98.0798C82.8997 101.123 84.5114 104.38 83.6393 105.581C83.6361 105.585 83.7143 105.647 83.7109 105.652L126.403 62.7505C127.487 61.6613 125.803 58.2192 122.639 55.0716C119.476 51.924 116.026 50.257 114.942 51.3462L72.2496 94.2476V94.2476Z" stroke="#AD5F00" stroke-width="0.5" stroke-linejoin="round"/>
<path d="M115.783 51.0153C115.431 51.0341 115.145 51.1411 114.941 51.3454L101.758 64.5954C102.948 63.7053 106.283 65.3778 109.348 68.4274C112.406 71.4708 114.019 74.7286 113.146 75.9293C113.143 75.9339 113.222 75.9952 113.219 75.9997L126.402 62.7497C127.486 61.6604 125.802 58.2195 122.639 55.0719C120.068 52.5145 117.309 50.9336 115.783 51.0153Z" fill="url(#paint12_linear)" stroke="#555761" stroke-width="0.5" stroke-linejoin="round"/>
<path opacity="0.9" d="M109.731 56.582C110.921 55.6897 114.257 57.3635 117.323 60.4142C120.382 63.4577 121.993 66.7143 121.121 67.915C121.118 67.9195 121.196 67.9818 121.193 67.9863L126.403 62.7505L126.509 62.6437C126.512 62.6392 126.434 62.5769 126.438 62.5724C127.31 61.3717 125.698 58.115 122.639 55.0716C119.573 52.0209 116.237 50.3471 115.048 51.2394L114.942 51.3462L109.731 56.582H109.731Z" fill="#FE9AB8" stroke="#DE3E80" stroke-width="0.5" stroke-linejoin="round"/>
<path d="M103.891 62.4507C105.08 61.5584 108.417 63.2322 111.483 66.2829C114.542 69.3264 116.153 72.583 115.281 73.7837C115.278 73.7882 115.356 73.8505 115.353 73.855L115.884 73.3207C115.887 73.3162 115.809 73.254 115.813 73.2494C116.685 72.0487 115.073 68.7921 112.015 65.7487C108.949 62.6979 105.612 61.0241 104.423 61.9164L103.891 62.4507V62.4507V62.4507Z" fill="url(#paint13_linear)"/>
<path d="M103.404 62.9403C104.593 62.048 107.93 63.7217 110.996 66.7725C114.054 69.8159 115.666 73.0726 114.794 74.2733C114.791 74.2778 114.869 74.34 114.865 74.3446L115.397 73.8103C115.4 73.8058 115.322 73.7436 115.326 73.739C116.198 72.5383 114.586 69.2817 111.527 66.2382C108.461 63.1875 105.125 61.5137 103.936 62.406L103.404 62.9403V62.9403H103.404Z" fill="url(#paint14_linear)"/>
<path d="M105.585 60.7493C106.774 59.857 110.11 61.5308 113.176 64.5815C116.235 67.6249 117.846 70.8816 116.974 72.0823C116.971 72.0868 117.049 72.1491 117.046 72.1536L117.577 71.6193C117.58 71.6148 117.502 71.5526 117.506 71.548C118.378 70.3473 116.766 67.0907 113.708 64.0472C110.642 60.9965 107.305 59.3227 106.116 60.215L105.585 60.7493H105.585Z" fill="url(#paint15_linear)"/>
<path d="M105.097 61.2388C106.286 60.3466 109.623 62.0203 112.689 65.0711C115.747 68.1145 117.359 71.3711 116.487 72.5719C116.484 72.5764 116.562 72.6386 116.559 72.6431L117.09 72.1089C117.093 72.1044 117.015 72.0422 117.019 72.0376C117.891 70.8369 116.279 67.5802 113.22 64.5368C110.154 61.4861 106.818 59.8123 105.629 60.7046L105.097 61.2388L105.097 61.2388Z" fill="url(#paint16_linear)"/>
<path d="M107.286 59.0396C108.475 58.1473 111.811 59.8211 114.877 62.8718C117.936 65.9153 119.548 69.1719 118.676 70.3726C118.673 70.3771 118.751 70.4394 118.747 70.4439L119.279 69.9096C119.282 69.9052 119.204 69.8429 119.207 69.8384C120.079 68.6376 118.468 65.381 115.409 62.3376C112.343 59.2868 109.007 57.6131 107.817 58.5054L107.286 59.0396Z" fill="url(#paint17_linear)"/>
<path d="M106.799 59.5292C107.988 58.637 111.324 60.3107 114.39 63.3615C117.449 66.4049 119.06 69.6615 118.188 70.8623C118.185 70.8668 118.263 70.929 118.26 70.9335L118.792 70.3993C118.795 70.3948 118.717 70.3326 118.72 70.328C119.592 69.1273 117.98 65.8706 114.922 62.8272C111.856 59.7765 108.519 58.1027 107.33 58.995L106.799 59.5292H106.799Z" fill="url(#paint18_linear)"/>
<path fill-rule="evenodd" clip-rule="evenodd" d="M64.0683 113.665L83.491 105.743L83.6565 105.578C84.5285 104.377 82.8959 101.12 79.8372 98.0769C76.7712 95.0261 73.4388 93.3616 72.2497 94.2539L64.0683 113.665H64.0683Z" fill="url(#paint19_linear)" stroke="url(#paint20_linear)" stroke-width="0.5"/>
<path fill-rule="evenodd" clip-rule="evenodd" d="M66.2844 108.408L64.0671 113.645L69.3646 111.473C68.94 110.964 68.5481 110.448 68.0383 109.94C67.4514 109.356 66.8741 108.883 66.2844 108.408Z" fill="#333333" stroke="#1A1A1A" stroke-width="0.5"/>
<defs>
<radialGradient id="paint0_radial" cx="0" cy="0" r="1" gradientUnits="userSpaceOnUse" gradientTransform="translate(64.1186 108.524) scale(43.1186 13.4713)">
<stop stop-color="#3D3D3D"/>
<stop offset="0.5" stop-color="#686868" stop-opacity="0.498039"/>
<stop offset="1" stop-color="#686868" stop-opacity="0"/>
</radialGradient>
<linearGradient id="paint1_linear" x1="64" y1="118" x2="64" y2="11" gradientUnits="userSpaceOnUse">
<stop stop-color="#E9E9E9"/>
<stop offset="1" stop-color="#FAFAFA"/>
</linearGradient>
<linearGradient id="paint2_linear" x1="64" y1="118" x2="64" y2="11" gradientUnits="userSpaceOnUse">
<stop stop-color="#D2D2D2"/>
<stop offset="1" stop-color="white"/>
</linearGradient>
<linearGradient id="paint3_linear" x1="64" y1="24" x2="64" y2="77.5" gradientUnits="userSpaceOnUse">
<stop stop-color="#FFC27D"/>
<stop offset="0.307292" stop-color="#FFA154"/>
<stop offset="0.708333" stop-color="#F37329"/>
<stop offset="1" stop-color="#F37329"/>
</linearGradient>
<linearGradient id="paint4_linear" x1="57.5" y1="43" x2="35.5708" y2="64.0737" gradientUnits="userSpaceOnUse">
<stop stop-color="#FF8C82"/>
<stop offset="0.338542" stop-color="#ED5353"/>
<stop offset="0.697917" stop-color="#C6262E"/>
<stop offset="1" stop-color="#A10705"/>
</linearGradient>
<linearGradient id="paint5_linear" x1="50" y1="55.5" x2="37.5" y2="80.5" gradientUnits="userSpaceOnUse">
<stop stop-color="#FE9AB8"/>
<stop offset="0.328125" stop-color="#F4679D"/>
<stop offset="0.692708" stop-color="#DE3E80"/>
<stop offset="1" stop-color="#BC245D"/>
</linearGradient>
<linearGradient id="paint6_linear" x1="57.5" y1="65" x2="35.8943" y2="96.4273" gradientUnits="userSpaceOnUse">
<stop stop-color="#E4C6FA"/>
<stop offset="0.338542" stop-color="#CD9EF7"/>
<stop offset="0.723958" stop-color="#A56DE2"/>
<stop offset="1" stop-color="#7239B3"/>
</linearGradient>
<linearGradient id="paint7_linear" x1="64.0011" y1="66.2474" x2="64.0011" y2="104.269" gradientUnits="userSpaceOnUse">
<stop stop-color="#8CD5FF"/>
<stop offset="0.328125" stop-color="#64BAFF"/>
<stop offset="0.682292" stop-color="#3689E6"/>
<stop offset="1" stop-color="#0D52BF"/>
</linearGradient>
<linearGradient id="paint8_linear" x1="69.5" y1="65.5" x2="82.094" y2="93.4577" gradientUnits="userSpaceOnUse">
<stop stop-color="#89FFDD"/>
<stop offset="0.348958" stop-color="#43D6B5"/>
<stop offset="0.703125" stop-color="#28BCA3"/>
<stop offset="1" stop-color="#0E9A83"/>
</linearGradient>
<linearGradient id="paint9_linear" x1="76" y1="57" x2="85.9977" y2="76.5012" gradientUnits="userSpaceOnUse">
<stop stop-color="#D1FF82"/>
<stop offset="0.328125" stop-color="#9BDB4D"/>
<stop offset="0.708333" stop-color="#68B723"/>
<stop offset="1" stop-color="#3A9104" stop-opacity="0.9"/>
</linearGradient>
<linearGradient id="paint10_linear" x1="74.0001" y1="39.5" x2="91.4393" y2="57.5587" gradientUnits="userSpaceOnUse">
<stop offset="0.0625" stop-color="#FFF394"/>
<stop offset="0.364583" stop-color="#FFE16B"/>
<stop offset="0.692708" stop-color="#F9C440"/>
<stop offset="1" stop-color="#D48E15"/>
</linearGradient>
<linearGradient id="paint11_linear" x1="94.0021" y1="72.414" x2="105.468" y2="83.8237" gradientUnits="userSpaceOnUse">
<stop stop-color="#AD5F00"/>
<stop offset="0.134829" stop-color="#FFE16B"/>
<stop offset="0.202244" stop-color="#F9C440"/>
<stop offset="0.269659" stop-color="#FFF394"/>
<stop offset="0.446503" stop-color="#F9C440"/>
<stop offset="0.571141" stop-color="#F9C440"/>
<stop offset="0.720381" stop-color="#FFE16B"/>
<stop offset="1" stop-color="#AD5F00"/>
</linearGradient>
<linearGradient id="paint12_linear" x1="94.0021" y1="72.414" x2="105.468" y2="83.8236" gradientUnits="userSpaceOnUse">
<stop stop-color="#555761"/>
<stop offset="0.134829" stop-color="#D4D4D4"/>
<stop offset="0.202244" stop-color="#ABACAE"/>
<stop offset="0.269659" stop-color="#FAFAFA"/>
<stop offset="0.446503" stop-color="#ABACAE"/>
<stop offset="0.571141" stop-color="#ABACAE"/>
<stop offset="0.720381" stop-color="#D4D4D4"/>
<stop offset="1" stop-color="#555761"/>
</linearGradient>
<linearGradient id="paint13_linear" x1="105.03" y1="61.1158" x2="116.515" y2="72.5447" gradientUnits="userSpaceOnUse">
<stop stop-color="#555761"/>
<stop offset="0.5" stop-color="#ABACAE"/>
<stop offset="1" stop-color="#555761"/>
</linearGradient>
<linearGradient id="paint14_linear" x1="104.543" y1="61.6054" x2="116.027" y2="73.0343" gradientUnits="userSpaceOnUse">
<stop stop-color="#ABACAE"/>
<stop offset="0.5" stop-color="#FAFAFA"/>
<stop offset="1" stop-color="#ABACAE"/>
</linearGradient>
<linearGradient id="paint15_linear" x1="106.723" y1="59.4144" x2="118.208" y2="70.8433" gradientUnits="userSpaceOnUse">
<stop stop-color="#555761"/>
<stop offset="0.5" stop-color="#ABACAE"/>
<stop offset="1" stop-color="#555761"/>
</linearGradient>
<linearGradient id="paint16_linear" x1="106.236" y1="59.904" x2="117.721" y2="71.3329" gradientUnits="userSpaceOnUse">
<stop stop-color="#ABACAE"/>
<stop offset="0.5" stop-color="#FAFAFA"/>
<stop offset="1" stop-color="#ABACAE"/>
</linearGradient>
<linearGradient id="paint17_linear" x1="108.424" y1="57.7047" x2="119.909" y2="69.1337" gradientUnits="userSpaceOnUse">
<stop stop-color="#555761"/>
<stop offset="0.5" stop-color="#ABACAE"/>
<stop offset="1" stop-color="#555761"/>
</linearGradient>
<linearGradient id="paint18_linear" x1="107.937" y1="58.1944" x2="119.422" y2="69.6233" gradientUnits="userSpaceOnUse">
<stop stop-color="#ABACAE"/>
<stop offset="0.5" stop-color="#FAFAFA"/>
<stop offset="1" stop-color="#ABACAE"/>
</linearGradient>
<linearGradient id="paint19_linear" x1="77.9151" y1="107.009" x2="70.9766" y2="100.104" gradientUnits="userSpaceOnUse">
<stop stop-color="#FFF394"/>
<stop offset="1" stop-color="#FAFAFA"/>
</linearGradient>
<linearGradient id="paint20_linear" x1="68.5358" y1="102.581" x2="74.7681" y2="108.848" gradientUnits="userSpaceOnUse">
<stop stop-color="#D48E15"/>
<stop offset="1" stop-color="#AD5F00"/>
</linearGradient>
</defs>
</svg>
