<svg width="24" height="24" viewBox="0 0 24 24" fill="none" xmlns="http://www.w3.org/2000/svg">
<g clip-path="url(#clip0)">
<path d="M20.107 20.3483C20.1072 20.68 19.8983 21.0085 19.4921 21.3151C19.0859 21.6216 18.4904 21.9001 17.7396 22.1347C16.9889 22.3693 16.0975 22.5554 15.1165 22.6824C14.1355 22.8093 13.0841 22.8747 12.0222 22.8747C10.9604 22.8747 9.90895 22.8093 8.92795 22.6824C7.94695 22.5554 7.05561 22.3693 6.30485 22.1347C5.55409 21.9001 4.95861 21.6216 4.55242 21.3151C4.14622 21.0085 3.93727 20.68 3.9375 20.3483C3.93727 20.0165 4.14622 19.688 4.55242 19.3815C4.95861 19.075 5.55409 18.7965 6.30485 18.5619C7.05561 18.3273 7.94695 18.1412 8.92795 18.0142C9.90895 17.8872 10.9604 17.8219 12.0222 17.8219C13.0841 17.8219 14.1355 17.8872 15.1165 18.0142C16.0975 18.1412 16.9889 18.3273 17.7396 18.5619C18.4904 18.7965 19.0859 19.075 19.4921 19.3815C19.8983 19.688 20.1072 20.0165 20.107 20.3483Z" fill="url(#paint0_radial)"/>
<circle cx="11.9062" cy="12.0938" r="10.5312" fill="url(#paint1_linear)" stroke="#ABACAE"/>
<circle cx="11.9062" cy="12.0938" r="9.53125" stroke="url(#paint2_linear)"/>
<path fill-rule="evenodd" clip-rule="evenodd" d="M12.1363 4.63693C13.3428 5.36123 14.1553 6.71438 14.1553 8.26285C14.1553 9.81131 13.3428 11.1645 12.1363 11.8888C10.9297 11.1645 10.1173 9.81131 10.1173 8.26285C10.1173 6.71438 10.9297 5.36123 12.1363 4.63693Z" fill="black" fill-opacity="0.13"/>
<path fill-rule="evenodd" clip-rule="evenodd" d="M6.61746 6.76014C7.98105 6.41627 9.50914 6.79667 10.6004 7.8916C11.6916 8.98653 12.0708 10.5198 11.7281 11.888C10.3645 12.2318 8.83637 11.8514 7.74512 10.7565C6.65387 9.66157 6.27474 8.12833 6.61746 6.76014Z" fill="black" fill-opacity="0.13"/>
<path fill-rule="evenodd" clip-rule="evenodd" d="M6.61716 17.564C6.27445 16.1959 6.65358 14.6626 7.74483 13.5677C8.83608 12.4728 10.3642 12.0924 11.7278 12.4362C12.0705 13.8044 11.6914 15.3377 10.6001 16.4326C9.50885 17.5275 7.98076 17.9079 6.61716 17.564Z" fill="black" fill-opacity="0.15"/>
<path fill-rule="evenodd" clip-rule="evenodd" d="M6.61716 17.564C6.27445 16.1959 6.65358 14.6626 7.74483 13.5677C8.83608 12.4728 10.3642 12.0924 11.7278 12.4362C12.0705 13.8044 11.6914 15.3377 10.6001 16.4326C9.50885 17.5275 7.98076 17.9079 6.61716 17.564Z" fill="black" fill-opacity="0.15"/>
<path d="M10.2471 16.0784C9.36168 16.9669 8.15532 17.3201 7.03949 17.1403C6.86024 16.0207 7.21232 14.8103 8.09778 13.9218C8.98325 13.0334 10.1896 12.6801 11.3054 12.86C11.4847 13.9796 11.1326 15.19 10.2471 16.0784Z" stroke="black" stroke-opacity="0.07"/>
<path fill-rule="evenodd" clip-rule="evenodd" d="M12.0002 19.6875C10.7937 18.9632 9.98122 17.61 9.98122 16.0616C9.98122 14.5131 10.7937 13.16 12.0002 12.4357C13.2067 13.16 14.0192 14.5131 14.0192 16.0616C14.0192 17.61 13.2067 18.9632 12.0002 19.6875Z" fill="black" fill-opacity="0.13"/>
<path fill-rule="evenodd" clip-rule="evenodd" d="M17.3836 17.5643C16.02 17.9082 14.492 17.5278 13.4007 16.4328C12.3095 15.3379 11.9303 13.8047 12.273 12.4365C13.6366 12.0926 15.1647 12.473 16.256 13.568C17.3472 14.6629 17.7264 16.1961 17.3836 17.5643Z" fill="black" fill-opacity="0.13"/>
<path fill-rule="evenodd" clip-rule="evenodd" d="M4.5 12.1635C5.22187 10.9529 6.57048 10.1377 8.11374 10.1377C9.657 10.1377 11.0056 10.9529 11.7275 12.1635C11.0056 13.3741 9.657 14.1893 8.11374 14.1893C6.57048 14.1893 5.22187 13.3741 4.5 12.1635Z" fill="black" fill-opacity="0.15"/>
<path fill-rule="evenodd" clip-rule="evenodd" d="M4.5 12.1635C5.22187 10.9529 6.57048 10.1377 8.11374 10.1377C9.657 10.1377 11.0056 10.9529 11.7275 12.1635C11.0056 13.3741 9.657 14.1893 8.11374 14.1893C6.57048 14.1893 5.22187 13.3741 4.5 12.1635Z" fill="black" fill-opacity="0.15"/>
<path d="M8.11374 13.6893C6.862 13.6893 5.75989 13.0832 5.09758 12.1635C5.75989 11.2438 6.862 10.6377 8.11374 10.6377C9.36547 10.6377 10.4676 11.2438 11.1299 12.1635C10.4676 13.0832 9.36547 13.6893 8.11374 13.6893Z" stroke="black" stroke-opacity="0.07"/>
<path fill-rule="evenodd" clip-rule="evenodd" d="M19.3646 12.1631C18.6428 13.3737 17.2941 14.1889 15.7509 14.1889C14.2076 14.1889 12.859 13.3737 12.1372 12.1631C12.859 10.9524 14.2076 10.1373 15.7509 10.1373C17.2941 10.1373 18.6428 10.9524 19.3646 12.1631Z" fill="black" fill-opacity="0.15"/>
<path d="M15.7509 10.6373C17.0026 10.6373 18.1047 11.2434 18.767 12.1631C18.1047 13.0827 17.0026 13.6889 15.7509 13.6889C14.4992 13.6889 13.397 13.0827 12.7347 12.1631C13.397 11.2434 14.4992 10.6373 15.7509 10.6373Z" stroke="black" stroke-opacity="0.07"/>
<path fill-rule="evenodd" clip-rule="evenodd" d="M17.3839 6.76039C17.7266 8.12858 17.3475 9.66182 16.2563 10.7567C15.165 11.8517 13.6369 12.2321 12.2733 11.8882C11.9306 10.52 12.3097 8.98678 13.401 7.89185C14.4922 6.79692 16.0203 6.41652 17.3839 6.76039Z" fill="black" fill-opacity="0.13"/>
<path fill-rule="evenodd" clip-rule="evenodd" d="M6.75283 6.48629C8.11643 6.14242 9.64452 6.52282 10.7358 7.61775C11.827 8.71267 12.2061 10.2459 11.8634 11.6141C10.4998 11.958 8.97175 11.5776 7.88049 10.4826C6.78924 9.38772 6.41012 7.85448 6.75283 6.48629Z" fill="black" fill-opacity="0.15"/>
<path fill-rule="evenodd" clip-rule="evenodd" d="M6.75283 6.48629C8.11643 6.14242 9.64452 6.52282 10.7358 7.61775C11.827 8.71267 12.2061 10.2459 11.8634 11.6141C10.4998 11.958 8.97175 11.5776 7.88049 10.4826C6.78924 9.38772 6.41012 7.85448 6.75283 6.48629Z" fill="black" fill-opacity="0.15"/>
<path d="M8.23345 10.1285C7.34799 9.24005 6.99591 8.02963 7.17516 6.91004C8.29099 6.73018 9.49735 7.08345 10.3828 7.97189C11.2683 8.86034 11.6204 10.0708 11.4411 11.1903C10.3253 11.3702 9.11891 11.0169 8.23345 10.1285Z" stroke="black" stroke-opacity="0.07"/>
<path fill-rule="evenodd" clip-rule="evenodd" d="M12.1363 4.63693C13.3428 5.36123 14.1553 6.71438 14.1553 8.26285C14.1553 9.81131 13.3428 11.1645 12.1363 11.8888C10.9297 11.1645 10.1173 9.81131 10.1173 8.26285C10.1173 6.71438 10.9297 5.36123 12.1363 4.63693Z" fill="black" fill-opacity="0.15"/>
<path fill-rule="evenodd" clip-rule="evenodd" d="M12.1363 4.63693C13.3428 5.36123 14.1553 6.71438 14.1553 8.26285C14.1553 9.81131 13.3428 11.1645 12.1363 11.8888C10.9297 11.1645 10.1173 9.81131 10.1173 8.26285C10.1173 6.71438 10.9297 5.36123 12.1363 4.63693Z" fill="black" fill-opacity="0.15"/>
<path d="M10.6173 8.26285C10.6173 7.0059 11.2214 5.90034 12.1363 5.23588C13.0512 5.90034 13.6553 7.0059 13.6553 8.26285C13.6553 9.51978 13.0512 10.6253 12.1363 11.2898C11.2214 10.6253 10.6173 9.51978 10.6173 8.26285Z" stroke="black" stroke-opacity="0.07"/>
<path d="M10.2308 8.12592C10.2308 6.72203 10.9389 5.49177 11.9998 4.79517C13.0607 5.49177 13.7688 6.72203 13.7688 8.12592C13.7688 9.5298 13.0607 10.7601 11.9998 11.4567C10.9389 10.7601 10.2308 9.5298 10.2308 8.12592Z" fill="url(#paint3_linear)" fill-opacity="0.9" stroke="#A62100" stroke-width="0.5"/>
<path d="M7.9205 10.4425C6.93134 9.45 6.56496 8.07766 6.82451 6.83207C8.06593 6.57164 9.43366 6.93925 10.4228 7.93174C11.412 8.92424 11.7784 10.2966 11.5188 11.5422C10.2774 11.8026 8.90966 11.435 7.9205 10.4425Z" fill="url(#paint4_linear)" fill-opacity="0.8" stroke="#7A0000" stroke-width="0.5"/>
<path d="M8.11374 13.8002C6.71514 13.8002 5.48888 13.0898 4.79458 12.0244C5.48888 10.9591 6.71514 10.2486 8.11374 10.2486C9.51233 10.2486 10.7386 10.9591 11.4329 12.0244C10.7386 13.0898 9.51233 13.8002 8.11374 13.8002Z" fill="url(#paint5_linear)" fill-opacity="0.9" stroke="#910E38" stroke-width="0.5"/>
<path fill-rule="evenodd" clip-rule="evenodd" d="M6.61606 17.2902C6.27335 15.922 6.65248 14.3888 7.74373 13.2938C8.83498 12.1989 10.3631 11.8185 11.7267 12.1624C12.0694 13.5306 11.6903 15.0638 10.599 16.1587C9.50775 17.2537 7.97966 17.6341 6.61606 17.2902Z" fill="black" fill-opacity="0.13"/>
<path d="M10.4225 16.1186C9.43336 17.1111 8.06563 17.4787 6.82422 17.2183C6.56467 15.9727 6.93105 14.6003 7.92021 13.6078C8.90937 12.6153 10.2771 12.2477 11.5185 12.5082C11.7781 13.7538 11.4117 15.1261 10.4225 16.1186Z" fill="url(#paint6_linear)" fill-opacity="0.9" stroke="#452981" stroke-width="0.5"/>
<path fill-rule="evenodd" clip-rule="evenodd" d="M11.8637 19.5506C10.6572 18.8263 9.84474 17.4731 9.84474 15.9247C9.84474 14.3762 10.6572 13.0231 11.8637 12.2988C13.0703 13.0231 13.8827 14.3762 13.8827 15.9247C13.8827 17.4731 13.0703 18.8263 11.8637 19.5506Z" fill="black" fill-opacity="0.13"/>
<path d="M13.7692 15.9247C13.7692 17.3286 13.0611 18.5588 12.0002 19.2554C10.9393 18.5588 10.2312 17.3286 10.2312 15.9247C10.2312 14.5208 10.9393 13.2905 12.0002 12.5939C13.0611 13.2905 13.7692 14.5208 13.7692 15.9247Z" fill="url(#paint7_linear)" fill-opacity="0.9" stroke="#002E99" stroke-width="0.5"/>
<path fill-rule="evenodd" clip-rule="evenodd" d="M17.2472 17.5643C15.8836 17.9082 14.3555 17.5278 13.2642 16.4328C12.173 15.3379 11.7939 13.8047 12.1366 12.4365C13.5002 12.0926 15.0283 12.473 16.1195 13.5679C17.2108 14.6629 17.5899 16.1961 17.2472 17.5643Z" fill="black" fill-opacity="0.13"/>
<path fill-rule="evenodd" clip-rule="evenodd" d="M17.3839 6.76039C17.7266 8.12858 17.3475 9.66181 16.2563 10.7567C15.165 11.8517 13.6369 12.2321 12.2733 11.8882C11.9306 10.52 12.3097 8.98677 13.401 7.89184C14.4922 6.79692 16.0203 6.41651 17.3839 6.76039Z" fill="black" fill-opacity="0.13"/>
<path d="M16.0795 13.6081C17.0687 14.6006 17.435 15.9729 17.1755 17.2185C15.9341 17.4789 14.5663 17.1113 13.5772 16.1188C12.588 15.1264 12.2216 13.754 12.4812 12.5084C13.7226 12.248 15.0903 12.6156 16.0795 13.6081Z" fill="url(#paint8_linear)" fill-opacity="0.9" stroke="#007367" stroke-width="0.5"/>
<path fill-rule="evenodd" clip-rule="evenodd" d="M17.3839 6.76039C17.7266 8.12858 17.3475 9.66181 16.2563 10.7567C15.165 11.8517 13.6369 12.2321 12.2733 11.8882C11.9306 10.52 12.3097 8.98677 13.401 7.89184C14.4922 6.79692 16.0203 6.41651 17.3839 6.76039Z" fill="black" fill-opacity="0.13"/>
<path d="M13.754 8.24599C14.6394 7.35755 15.8458 7.00428 16.9616 7.18413C17.1409 8.30373 16.7888 9.51415 15.9033 10.4026C15.0179 11.291 13.8115 11.6443 12.6957 11.4645C12.5164 10.3449 12.8685 9.13444 13.754 8.24599Z" stroke="black" stroke-opacity="0.07"/>
<path d="M15.8863 10.2504C17.2849 10.2504 18.5111 10.9608 19.2054 12.0262C18.5111 13.0915 17.2849 13.802 15.8863 13.802C14.4877 13.802 13.2614 13.0915 12.5671 12.0262C13.2614 10.9608 14.4877 10.2504 15.8863 10.2504Z" fill="url(#paint9_linear)" fill-opacity="0.9" stroke="#206B00" stroke-width="0.5"/>
<path d="M13.5775 7.93199C14.5666 6.9395 15.9344 6.57189 17.1758 6.83232C17.4353 8.07791 17.069 9.45025 16.0798 10.4427C15.0906 11.4352 13.7229 11.8028 12.4815 11.5424C12.2219 10.2968 12.5883 8.92448 13.5775 7.93199Z" fill="url(#paint10_linear)" fill-opacity="0.9" stroke="#AD5F00" stroke-width="0.5"/>
<path opacity="0.15" fill-rule="evenodd" clip-rule="evenodd" d="M20.1973 14.0925C20.1641 14.093 20.1374 14.1076 20.1152 14.1218L14.2207 17.8776L13.1309 18.569L13.1016 18.5807L11.8125 21.4811L15 21.5749L15.0234 21.5573L16.1191 20.8659L21.7793 17.2331L21.7441 16.0144C21.6437 15.8177 21.525 15.6044 21.3867 15.3874C20.9927 14.769 20.5743 14.2806 20.3145 14.1276C20.2711 14.1021 20.2304 14.092 20.1973 14.0925V14.0925Z" fill="#0C0C0C"/>
<path d="M13.5469 17.6714C13.7698 17.5041 14.3954 17.818 14.9703 18.39C15.5438 18.9606 15.846 19.5712 15.6824 19.7964C15.6818 19.7972 15.6965 19.8089 15.6959 19.8097L23.7006 11.7657C23.9039 11.5615 23.5881 10.9161 22.995 10.3259C22.4018 9.73576 21.7549 9.42319 21.5516 9.62742L13.5469 17.6714Z" fill="url(#paint11_linear)"/>
<path opacity="0.6" d="M13.5469 17.6714C13.7698 17.5041 14.3954 17.8179 14.9703 18.39C15.5438 18.9606 15.846 19.5712 15.6824 19.7964C15.6818 19.7972 15.6965 19.8089 15.6959 19.8097L21.2085 14.2701L21.2284 14.25C21.229 14.2492 21.2144 14.2375 21.215 14.2367C21.3785 14.0115 21.0763 13.4009 20.5028 12.8303C19.928 12.2583 19.3024 11.9444 19.0794 12.1117L19.0595 12.1318L13.5469 17.6714H13.5469L13.5469 17.6714Z" fill="#F9C440"/>
<path d="M13.5469 17.6714C13.7698 17.5041 14.3954 17.818 14.9703 18.39C15.5438 18.9606 15.846 19.5712 15.6824 19.7964C15.6818 19.7972 15.6965 19.8089 15.6959 19.8097L23.7006 11.7657C23.9039 11.5615 23.5881 10.9161 22.995 10.3259C22.4018 9.73576 21.7549 9.42319 21.5516 9.62742L13.5469 17.6714V17.6714Z" stroke="#AD5F00" stroke-width="0.5" stroke-linejoin="round"/>
<path d="M21.7093 9.56537C21.6433 9.5689 21.5896 9.58896 21.5515 9.62726L19.0796 12.1116C19.3028 11.9448 19.928 12.2583 20.5027 12.8301C21.0762 13.4008 21.3785 14.0116 21.215 14.2368C21.2143 14.2376 21.2291 14.2491 21.2285 14.2499L23.7004 11.7656C23.9037 11.5613 23.5879 10.9162 22.9947 10.326C22.5128 9.84647 21.9955 9.55006 21.7093 9.56537Z" fill="url(#paint12_linear)" stroke="#555761" stroke-width="0.5" stroke-linejoin="round"/>
<path opacity="0.9" d="M20.5747 10.6091C20.7977 10.4418 21.4232 10.7557 21.9981 11.3277C22.5716 11.8983 22.8738 12.5089 22.7103 12.7341C22.7097 12.7349 22.7243 12.7466 22.7237 12.7474L23.7006 11.7657L23.7206 11.7457C23.7211 11.7448 23.7065 11.7332 23.7071 11.7323C23.8706 11.5072 23.5685 10.8966 22.995 10.3259C22.4201 9.75391 21.7945 9.44008 21.5716 9.60738L21.5516 9.62741L20.5747 10.6091H20.5747Z" fill="#FE9AB8" stroke="#DE3E80" stroke-width="0.5" stroke-linejoin="round"/>
<path d="M19.4796 11.7095C19.7026 11.5422 20.3281 11.856 20.903 12.4281C21.4765 12.9987 21.7787 13.6093 21.6152 13.8345C21.6146 13.8353 21.6292 13.847 21.6286 13.8478L21.7283 13.7476C21.7289 13.7468 21.7142 13.7351 21.7149 13.7343C21.8784 13.5091 21.5762 12.8985 21.0027 12.3279C20.4278 11.7559 19.8023 11.442 19.5793 11.6093L19.4796 11.7095V11.7095V11.7095Z" fill="url(#paint13_linear)"/>
<path d="M19.3882 11.8013C19.6111 11.634 20.2367 11.9478 20.8116 12.5198C21.3851 13.0905 21.6873 13.7011 21.5238 13.9262C21.5232 13.9271 21.5378 13.9388 21.5372 13.9396L21.6369 13.8394C21.6374 13.8386 21.6228 13.8269 21.6234 13.8261C21.787 13.6009 21.4848 12.9903 20.9113 12.4197C20.3364 11.8477 19.7108 11.5338 19.4879 11.7011L19.3882 11.8013V11.8013H19.3882Z" fill="url(#paint14_linear)"/>
<path d="M19.7971 11.3905C20.0201 11.2232 20.6456 11.537 21.2205 12.1091C21.794 12.6797 22.0962 13.2903 21.9327 13.5154C21.9321 13.5163 21.9467 13.528 21.9461 13.5288L22.0458 13.4286C22.0464 13.4278 22.0317 13.4161 22.0324 13.4153C22.1959 13.1901 21.8937 12.5795 21.3202 12.0089C20.7453 11.4369 20.1198 11.123 19.8968 11.2903L19.7971 11.3905H19.7971Z" fill="url(#paint15_linear)"/>
<path d="M19.7058 11.4823C19.9288 11.315 20.5543 11.6288 21.1292 12.2008C21.7027 12.7715 22.0049 13.3821 21.8414 13.6072C21.8408 13.6081 21.8554 13.6197 21.8548 13.6206L21.9545 13.5204C21.9551 13.5196 21.9404 13.5079 21.9411 13.507C22.1046 13.2819 21.8024 12.6713 21.2289 12.1006C20.654 11.5286 20.0285 11.2148 19.8055 11.3821L19.7058 11.4823L19.7058 11.4823Z" fill="url(#paint16_linear)"/>
<path d="M20.1161 11.0699C20.339 10.9026 20.9646 11.2165 21.5395 11.7885C22.113 12.3591 22.4152 12.9697 22.2517 13.1949C22.2511 13.1957 22.2657 13.2074 22.2651 13.2082L22.3648 13.1081C22.3653 13.1072 22.3507 13.0955 22.3513 13.0947C22.5149 12.8696 22.2127 12.2589 21.6392 11.6883C21.0643 11.1163 20.4387 10.8024 20.2158 10.9698L20.1161 11.0699Z" fill="url(#paint17_linear)"/>
<path d="M20.0248 11.1617C20.2477 10.9944 20.8733 11.3083 21.4482 11.8803C22.0217 12.4509 22.3239 13.0616 22.1603 13.2867C22.1598 13.2875 22.1744 13.2992 22.1738 13.3001L22.2735 13.1999C22.274 13.199 22.2594 13.1874 22.26 13.1865C22.4235 12.9614 22.1214 12.3508 21.5479 11.7801C20.973 11.2081 20.3474 10.8943 20.1245 11.0616L20.0248 11.1617H20.0248Z" fill="url(#paint18_linear)"/>
<path fill-rule="evenodd" clip-rule="evenodd" d="M12.0127 21.3123L15.6544 19.8269L15.6855 19.7959C15.849 19.5707 15.5429 18.9601 14.9694 18.3894C14.3945 17.8174 13.7697 17.5053 13.5467 17.6726L12.0127 21.3123H12.0127Z" fill="url(#paint19_linear)" stroke="url(#paint20_linear)" stroke-width="0.5"/>
<path fill-rule="evenodd" clip-rule="evenodd" d="M12.4283 20.3265L12.0126 21.3083L13.0059 20.9011C12.9263 20.8058 12.8528 20.7089 12.7572 20.6138C12.6471 20.5043 12.5389 20.4155 12.4283 20.3265Z" fill="#333333" stroke="#1A1A1A" stroke-width="0.5"/>
</g>
<defs>
<radialGradient id="paint0_radial" cx="0" cy="0" r="1" gradientUnits="userSpaceOnUse" gradientTransform="translate(12.0222 20.3483) scale(8.08475 2.52587)">
<stop stop-color="#3D3D3D"/>
<stop offset="0.5" stop-color="#686868" stop-opacity="0.498039"/>
<stop offset="1" stop-color="#686868" stop-opacity="0"/>
</radialGradient>
<linearGradient id="paint1_linear" x1="12" y1="22.125" x2="12" y2="2.0625" gradientUnits="userSpaceOnUse">
<stop stop-color="#E9E9E9"/>
<stop offset="1" stop-color="#FAFAFA"/>
</linearGradient>
<linearGradient id="paint2_linear" x1="12" y1="22.125" x2="12" y2="2.0625" gradientUnits="userSpaceOnUse">
<stop stop-color="#D2D2D2"/>
<stop offset="1" stop-color="white"/>
</linearGradient>
<linearGradient id="paint3_linear" x1="12" y1="4.5" x2="12" y2="14.5312" gradientUnits="userSpaceOnUse">
<stop stop-color="#FFC27D"/>
<stop offset="0.307292" stop-color="#FFA154"/>
<stop offset="0.708333" stop-color="#F37329"/>
<stop offset="1" stop-color="#F37329"/>
</linearGradient>
<linearGradient id="paint4_linear" x1="10.7813" y1="8.0625" x2="6.66954" y2="12.0138" gradientUnits="userSpaceOnUse">
<stop stop-color="#FF8C82"/>
<stop offset="0.338542" stop-color="#ED5353"/>
<stop offset="0.697917" stop-color="#C6262E"/>
<stop offset="1" stop-color="#A10705"/>
</linearGradient>
<linearGradient id="paint5_linear" x1="9.375" y1="10.4063" x2="7.03125" y2="15.0938" gradientUnits="userSpaceOnUse">
<stop stop-color="#FE9AB8"/>
<stop offset="0.328125" stop-color="#F4679D"/>
<stop offset="0.692708" stop-color="#DE3E80"/>
<stop offset="1" stop-color="#BC245D"/>
</linearGradient>
<linearGradient id="paint6_linear" x1="10.7812" y1="12.1875" x2="6.73017" y2="18.0801" gradientUnits="userSpaceOnUse">
<stop stop-color="#E4C6FA"/>
<stop offset="0.338542" stop-color="#CD9EF7"/>
<stop offset="0.723958" stop-color="#A56DE2"/>
<stop offset="1" stop-color="#7239B3"/>
</linearGradient>
<linearGradient id="paint7_linear" x1="12.0002" y1="12.4214" x2="12.0002" y2="19.5505" gradientUnits="userSpaceOnUse">
<stop stop-color="#8CD5FF"/>
<stop offset="0.328125" stop-color="#64BAFF"/>
<stop offset="0.682292" stop-color="#3689E6"/>
<stop offset="1" stop-color="#0D52BF"/>
</linearGradient>
<linearGradient id="paint8_linear" x1="13.0312" y1="12.2813" x2="15.3926" y2="17.5233" gradientUnits="userSpaceOnUse">
<stop stop-color="#89FFDD"/>
<stop offset="0.348958" stop-color="#43D6B5"/>
<stop offset="0.703125" stop-color="#28BCA3"/>
<stop offset="1" stop-color="#0E9A83"/>
</linearGradient>
<linearGradient id="paint9_linear" x1="14.25" y1="10.6875" x2="16.1246" y2="14.344" gradientUnits="userSpaceOnUse">
<stop stop-color="#D1FF82"/>
<stop offset="0.328125" stop-color="#9BDB4D"/>
<stop offset="0.708333" stop-color="#68B723"/>
<stop offset="1" stop-color="#3A9104" stop-opacity="0.9"/>
</linearGradient>
<linearGradient id="paint10_linear" x1="13.875" y1="7.40623" x2="17.1449" y2="10.7922" gradientUnits="userSpaceOnUse">
<stop offset="0.0625" stop-color="#FFF394"/>
<stop offset="0.364583" stop-color="#FFE16B"/>
<stop offset="0.692708" stop-color="#F9C440"/>
<stop offset="1" stop-color="#D48E15"/>
</linearGradient>
<linearGradient id="paint11_linear" x1="17.6255" y1="13.5776" x2="19.7753" y2="15.7169" gradientUnits="userSpaceOnUse">
<stop stop-color="#AD5F00"/>
<stop offset="0.134829" stop-color="#FFE16B"/>
<stop offset="0.202244" stop-color="#F9C440"/>
<stop offset="0.269659" stop-color="#FFF394"/>
<stop offset="0.446503" stop-color="#F9C440"/>
<stop offset="0.571141" stop-color="#F9C440"/>
<stop offset="0.720381" stop-color="#FFE16B"/>
<stop offset="1" stop-color="#AD5F00"/>
</linearGradient>
<linearGradient id="paint12_linear" x1="17.6254" y1="13.5776" x2="19.7752" y2="15.7169" gradientUnits="userSpaceOnUse">
<stop stop-color="#555761"/>
<stop offset="0.134829" stop-color="#D4D4D4"/>
<stop offset="0.202244" stop-color="#ABACAE"/>
<stop offset="0.269659" stop-color="#FAFAFA"/>
<stop offset="0.446503" stop-color="#ABACAE"/>
<stop offset="0.571141" stop-color="#ABACAE"/>
<stop offset="0.720381" stop-color="#D4D4D4"/>
<stop offset="1" stop-color="#555761"/>
</linearGradient>
<linearGradient id="paint13_linear" x1="19.693" y1="11.4592" x2="21.8465" y2="13.6021" gradientUnits="userSpaceOnUse">
<stop stop-color="#555761"/>
<stop offset="0.5" stop-color="#ABACAE"/>
<stop offset="1" stop-color="#555761"/>
</linearGradient>
<linearGradient id="paint14_linear" x1="19.6016" y1="11.551" x2="21.755" y2="13.6939" gradientUnits="userSpaceOnUse">
<stop stop-color="#ABACAE"/>
<stop offset="0.5" stop-color="#FAFAFA"/>
<stop offset="1" stop-color="#ABACAE"/>
</linearGradient>
<linearGradient id="paint15_linear" x1="20.0106" y1="11.1402" x2="22.164" y2="13.2831" gradientUnits="userSpaceOnUse">
<stop stop-color="#555761"/>
<stop offset="0.5" stop-color="#ABACAE"/>
<stop offset="1" stop-color="#555761"/>
</linearGradient>
<linearGradient id="paint16_linear" x1="19.9192" y1="11.232" x2="22.0727" y2="13.3749" gradientUnits="userSpaceOnUse">
<stop stop-color="#ABACAE"/>
<stop offset="0.5" stop-color="#FAFAFA"/>
<stop offset="1" stop-color="#ABACAE"/>
</linearGradient>
<linearGradient id="paint17_linear" x1="20.3295" y1="10.8196" x2="22.4829" y2="12.9626" gradientUnits="userSpaceOnUse">
<stop stop-color="#555761"/>
<stop offset="0.5" stop-color="#ABACAE"/>
<stop offset="1" stop-color="#555761"/>
</linearGradient>
<linearGradient id="paint18_linear" x1="20.2382" y1="10.9115" x2="22.3916" y2="13.0544" gradientUnits="userSpaceOnUse">
<stop stop-color="#ABACAE"/>
<stop offset="0.5" stop-color="#FAFAFA"/>
<stop offset="1" stop-color="#ABACAE"/>
</linearGradient>
<linearGradient id="paint19_linear" x1="14.609" y1="20.0642" x2="13.308" y2="18.7696" gradientUnits="userSpaceOnUse">
<stop stop-color="#FFF394"/>
<stop offset="1" stop-color="#FAFAFA"/>
</linearGradient>
<linearGradient id="paint20_linear" x1="12.8503" y1="19.2339" x2="14.0189" y2="20.4091" gradientUnits="userSpaceOnUse">
<stop stop-color="#D48E15"/>
<stop offset="1" stop-color="#AD5F00"/>
</linearGradient>
<clipPath id="clip0">
<rect width="24" height="24" fill="white"/>
</clipPath>
</defs>
</svg>
