<svg width="64" height="64" viewBox="0 0 64 64" fill="none" xmlns="http://www.w3.org/2000/svg">
<path d="M53.6186 54.2621C53.6193 55.1468 53.0621 56.0228 51.9789 56.8402C50.8957 57.6575 49.3077 58.4003 47.3057 59.0259C45.3037 59.6515 42.9268 60.1478 40.3108 60.4863C37.6948 60.8249 34.8909 60.9992 32.0593 60.9992C29.2277 60.9992 26.4239 60.8249 23.8079 60.4863C21.1919 60.1478 18.815 59.6515 16.8129 59.0259C14.8109 58.4003 13.223 57.6575 12.1398 56.8402C11.0566 56.0228 10.4994 55.1468 10.5 54.2621C10.4994 53.3774 11.0566 52.5014 12.1398 51.684C13.223 50.8667 14.8109 50.124 16.8129 49.4983C18.815 48.8727 21.1919 48.3764 23.8079 48.0379C26.4239 47.6993 29.2277 47.525 32.0593 47.525C34.8909 47.525 37.6948 47.6993 40.3108 48.0379C42.9268 48.3764 45.3037 48.8727 47.3057 49.4983C49.3077 50.124 50.8957 50.8667 51.9789 51.684C53.0621 52.5014 53.6193 53.3774 53.6186 54.2621Z" fill="url(#paint0_radial)"/>
<circle cx="31.75" cy="32.25" r="27.25" fill="url(#paint1_linear)" stroke="#ABACAE"/>
<circle cx="31.75" cy="32.25" r="26.25" stroke="url(#paint2_linear)"/>
<path fill-rule="evenodd" clip-rule="evenodd" d="M32.3634 12.3651C35.5808 14.2966 37.7473 17.905 37.7473 22.0342C37.7473 26.1635 35.5808 29.7719 32.3634 31.7033C29.1459 29.7719 26.9794 26.1635 26.9794 22.0342C26.9794 17.905 29.1459 14.2966 32.3634 12.3651Z" fill="black" fill-opacity="0.13"/>
<path fill-rule="evenodd" clip-rule="evenodd" d="M17.6464 18.027C21.2827 17.11 25.3576 18.1245 28.2676 21.0443C31.1776 23.9641 32.1886 28.0527 31.2747 31.7012C27.6385 32.6182 23.5636 31.6038 20.6536 28.684C17.7435 25.7642 16.7325 21.6755 17.6464 18.027Z" fill="black" fill-opacity="0.13"/>
<path fill-rule="evenodd" clip-rule="evenodd" d="M17.6457 46.8374C16.7318 43.1889 17.7428 39.1003 20.6528 36.1805C23.5628 33.2606 27.6377 32.2462 31.2739 33.1632C32.1878 36.8117 31.1768 40.9004 28.2668 43.8202C25.3568 46.74 21.2819 47.7544 17.6457 46.8374Z" fill="black" fill-opacity="0.15"/>
<path fill-rule="evenodd" clip-rule="evenodd" d="M17.6457 46.8374C16.7318 43.1889 17.7428 39.1003 20.6528 36.1805C23.5628 33.2606 27.6377 32.2462 31.2739 33.1632C32.1878 36.8117 31.1768 40.9004 28.2668 43.8202C25.3568 46.74 21.2819 47.7544 17.6457 46.8374Z" fill="black" fill-opacity="0.15"/>
<path d="M27.9139 43.466C25.2077 46.1813 21.4533 47.1705 18.0606 46.421C17.3137 43.0169 18.2996 39.2499 21.0057 36.5346C23.7119 33.8193 27.4663 32.8302 30.859 33.5796C31.6059 36.9837 30.62 40.7507 27.9139 43.466Z" stroke="black" stroke-opacity="0.07"/>
<path fill-rule="evenodd" clip-rule="evenodd" d="M32.0006 52.5C28.7832 50.5685 26.6167 46.9601 26.6167 42.8309C26.6167 38.7017 28.7832 35.0932 32.0006 33.1618C35.2181 35.0932 37.3846 38.7017 37.3846 42.8309C37.3846 46.9601 35.2181 50.5685 32.0006 52.5Z" fill="black" fill-opacity="0.13"/>
<path fill-rule="evenodd" clip-rule="evenodd" d="M46.3564 46.8381C42.7202 47.7551 38.6453 46.7407 35.7352 43.8209C32.8252 40.9011 31.8142 36.8125 32.7281 33.1639C36.3644 32.247 40.4393 33.2614 43.3493 36.1812C46.2593 39.101 47.2703 43.1896 46.3564 46.8381Z" fill="black" fill-opacity="0.13"/>
<path fill-rule="evenodd" clip-rule="evenodd" d="M11.9999 32.436C13.9249 29.2077 17.5212 27.0339 21.6366 27.0339C25.7519 27.0339 29.3482 29.2077 31.2732 32.436C29.3482 35.6643 25.7519 37.8381 21.6366 37.8381C17.5212 37.8381 13.9249 35.6643 11.9999 32.436Z" fill="black" fill-opacity="0.15"/>
<path fill-rule="evenodd" clip-rule="evenodd" d="M11.9999 32.436C13.9249 29.2077 17.5212 27.0339 21.6366 27.0339C25.7519 27.0339 29.3482 29.2077 31.2732 32.436C29.3482 35.6643 25.7519 37.8381 21.6366 37.8381C17.5212 37.8381 13.9249 35.6643 11.9999 32.436Z" fill="black" fill-opacity="0.15"/>
<path d="M21.6366 37.3381C17.8101 37.3381 14.4581 35.3739 12.5872 32.436C14.4581 29.4981 17.8101 27.5339 21.6366 27.5339C25.4631 27.5339 28.8151 29.4981 30.6859 32.436C28.8151 35.3739 25.4631 37.3381 21.6366 37.3381Z" stroke="black" stroke-opacity="0.07"/>
<path fill-rule="evenodd" clip-rule="evenodd" d="M51.6389 32.4348C49.7139 35.6631 46.1176 37.8369 42.0023 37.8369C37.8869 37.8369 34.2906 35.6631 32.3657 32.4348C34.2906 29.2065 37.8869 27.0327 42.0023 27.0327C46.1176 27.0327 49.7139 29.2065 51.6389 32.4348Z" fill="black" fill-opacity="0.15"/>
<path d="M42.0023 27.5327C45.8288 27.5327 49.1808 29.4969 51.0516 32.4348C49.1808 35.3727 45.8288 37.3369 42.0023 37.3369C38.1758 37.3369 34.8238 35.3727 32.9529 32.4348C34.8238 29.4969 38.1758 27.5327 42.0023 27.5327Z" stroke="black" stroke-opacity="0.07"/>
<path fill-rule="evenodd" clip-rule="evenodd" d="M46.3572 18.0277C47.2711 21.6762 46.2601 25.7648 43.3501 28.6846C40.4401 31.6044 36.3652 32.6188 32.7289 31.7019C31.815 28.0533 32.826 23.9647 35.736 21.0449C38.646 18.1251 42.7209 17.1107 46.3572 18.0277Z" fill="black" fill-opacity="0.13"/>
<path fill-rule="evenodd" clip-rule="evenodd" d="M18.0075 17.2968C21.6437 16.3798 25.7186 17.3942 28.6286 20.314C31.5386 23.2338 32.5496 27.3224 31.6357 30.9709C27.9995 31.8879 23.9246 30.8735 21.0146 27.9537C18.1046 25.0339 17.0936 20.9453 18.0075 17.2968Z" fill="black" fill-opacity="0.15"/>
<path fill-rule="evenodd" clip-rule="evenodd" d="M18.0075 17.2968C21.6437 16.3798 25.7186 17.3942 28.6286 20.314C31.5386 23.2338 32.5496 27.3224 31.6357 30.9709C27.9995 31.8879 23.9246 30.8735 21.0146 27.9537C18.1046 25.0339 17.0936 20.9453 18.0075 17.2968Z" fill="black" fill-opacity="0.15"/>
<path d="M21.3675 27.5996C18.6614 24.8843 17.6755 21.1172 18.4224 17.7132C21.8151 16.9637 25.5695 17.9529 28.2757 20.6681C30.9818 23.3834 31.9677 27.1505 31.2208 30.5546C27.8281 31.304 24.0737 30.3149 21.3675 27.5996Z" stroke="black" stroke-opacity="0.07"/>
<path fill-rule="evenodd" clip-rule="evenodd" d="M32.3633 12.3651C35.5807 14.2966 37.7472 17.905 37.7472 22.0342C37.7472 26.1635 35.5807 29.7719 32.3633 31.7033C29.1459 29.7719 26.9794 26.1635 26.9794 22.0342C26.9794 17.905 29.1459 14.2966 32.3633 12.3651Z" fill="black" fill-opacity="0.15"/>
<path fill-rule="evenodd" clip-rule="evenodd" d="M32.3633 12.3651C35.5807 14.2966 37.7472 17.905 37.7472 22.0342C37.7472 26.1635 35.5807 29.7719 32.3633 31.7033C29.1459 29.7719 26.9794 26.1635 26.9794 22.0342C26.9794 17.905 29.1459 14.2966 32.3633 12.3651Z" fill="black" fill-opacity="0.15"/>
<path d="M27.4794 22.0342C27.4794 18.1936 29.4371 14.8306 32.3633 12.9535C35.2895 14.8306 37.2472 18.1936 37.2472 22.0342C37.2472 25.8748 35.2895 29.2378 32.3633 31.1149C29.4371 29.2378 27.4794 25.8748 27.4794 22.0342Z" stroke="black" stroke-opacity="0.07"/>
<path d="M26.8655 21.6691C26.8655 17.6838 28.9275 14.1978 31.9994 12.2929C35.0713 14.1978 37.1333 17.6838 37.1333 21.6691C37.1333 25.6544 35.0713 29.1404 31.9994 31.0454C28.9275 29.1404 26.8655 25.6544 26.8655 21.6691Z" fill="url(#paint3_linear)" fill-opacity="0.9" stroke="#A62100" stroke-width="0.5"/>
<path d="M20.8272 28.1418C18.0188 25.324 17.0202 21.396 17.8501 17.8691C21.3651 17.0364 25.2799 18.0384 28.0883 20.8562C30.8966 23.674 31.8953 27.602 31.0653 31.1288C27.5503 31.9616 23.6355 30.9596 20.8272 28.1418Z" fill="url(#paint4_linear)" fill-opacity="0.8" stroke="#7A0000" stroke-width="0.5"/>
<path d="M21.6366 37.2173C17.6654 37.2173 14.1909 35.1483 12.2923 32.0652C14.1909 28.982 17.6654 26.9131 21.6366 26.9131C25.6079 26.9131 29.0823 28.982 30.9809 32.0652C29.0823 35.1483 25.6079 37.2173 21.6366 37.2173Z" fill="url(#paint5_linear)" fill-opacity="0.9" stroke="#910E38" stroke-width="0.5"/>
<path fill-rule="evenodd" clip-rule="evenodd" d="M17.6429 46.1072C16.729 42.4587 17.74 38.37 20.65 35.4502C23.56 32.5304 27.6349 31.516 31.2711 32.433C32.185 36.0815 31.174 40.1701 28.264 43.09C25.354 46.0098 21.2791 47.0242 17.6429 46.1072Z" fill="black" fill-opacity="0.13"/>
<path d="M28.0875 43.278C25.2792 46.0958 21.3644 47.0978 17.8494 46.265C17.0194 42.7382 18.0181 38.8102 20.8264 35.9924C23.6348 33.1746 27.5496 32.1726 31.0646 33.0054C31.8945 36.5322 30.8959 40.4602 28.0875 43.278Z" fill="url(#paint6_linear)" fill-opacity="0.9" stroke="#452981" stroke-width="0.5"/>
<path fill-rule="evenodd" clip-rule="evenodd" d="M31.6367 52.1349C28.4193 50.2034 26.2528 46.595 26.2528 42.4658C26.2528 38.3366 28.4193 34.7282 31.6367 32.7967C34.8541 34.7282 37.0206 38.3366 37.0206 42.4658C37.0206 46.595 34.8541 50.2034 31.6367 52.1349Z" fill="black" fill-opacity="0.13"/>
<path d="M37.1345 42.4658C37.1345 46.4511 35.0725 49.9371 32.0006 51.8421C28.9287 49.9371 26.8667 46.4511 26.8667 42.4658C26.8667 38.4805 28.9287 34.9945 32.0006 33.0896C35.0725 34.9945 37.1345 38.4805 37.1345 42.4658Z" fill="url(#paint7_linear)" fill-opacity="0.9" stroke="#002E99" stroke-width="0.5"/>
<path fill-rule="evenodd" clip-rule="evenodd" d="M45.9925 46.8381C42.3563 47.7551 38.2814 46.7407 35.3714 43.8209C32.4614 40.9011 31.4503 36.8125 32.3643 33.1639C36.0005 32.247 40.0754 33.2614 42.9854 36.1812C45.8954 39.101 46.9064 43.1896 45.9925 46.8381Z" fill="black" fill-opacity="0.13"/>
<path fill-rule="evenodd" clip-rule="evenodd" d="M46.3571 18.0277C47.271 21.6762 46.26 25.7648 43.35 28.6846C40.44 31.6044 36.3651 32.6188 32.7288 31.7019C31.8149 28.0533 32.8259 23.9647 35.7359 21.0449C38.6459 18.1251 42.7208 17.1107 46.3571 18.0277Z" fill="black" fill-opacity="0.13"/>
<path d="M43.1728 35.9931C45.9812 38.8109 46.9798 42.7389 46.1499 46.2658C42.6349 47.0985 38.7201 46.0965 35.9117 43.2787C33.1034 40.4609 32.1047 36.5329 32.9347 33.0061C36.4497 32.1733 40.3645 33.1753 43.1728 35.9931Z" fill="url(#paint8_linear)" fill-opacity="0.9" stroke="#007367" stroke-width="0.5"/>
<path fill-rule="evenodd" clip-rule="evenodd" d="M46.3571 18.0277C47.271 21.6762 46.26 25.7648 43.35 28.6846C40.44 31.6044 36.3651 32.6188 32.7288 31.7019C31.8149 28.0533 32.8259 23.9647 35.7359 21.0449C38.6459 18.1251 42.7208 17.1107 46.3571 18.0277Z" fill="black" fill-opacity="0.13"/>
<path d="M36.0889 21.3991C38.795 18.6838 42.5495 17.6946 45.9421 18.4441C46.689 21.8481 45.7032 25.6152 42.997 28.3305C40.2908 31.0458 36.5364 32.0349 33.1438 31.2855C32.3969 27.8814 33.3827 24.1143 36.0889 21.3991Z" stroke="black" stroke-opacity="0.07"/>
<path d="M42.3634 26.9176C46.3346 26.9176 49.8091 28.9866 51.7077 32.0697C49.8091 35.1529 46.3346 37.2219 42.3634 37.2219C38.3921 37.2219 34.9177 35.1529 33.0191 32.0697C34.9177 28.9866 38.3921 26.9176 42.3634 26.9176Z" fill="url(#paint9_linear)" fill-opacity="0.9" stroke="#206B00" stroke-width="0.5"/>
<path d="M35.9125 20.8569C38.7209 18.0391 42.6357 17.0371 46.1507 17.8698C46.9806 21.3966 45.982 25.3246 43.1736 28.1424C40.3653 30.9602 36.4505 31.9623 32.9355 31.1295C32.1055 27.6027 33.1042 23.6747 35.9125 20.8569Z" fill="url(#paint10_linear)" fill-opacity="0.9" stroke="#AD5F00" stroke-width="0.5"/>
<path opacity="0.15" fill-rule="evenodd" clip-rule="evenodd" d="M53.8594 37.5799C53.7711 37.5812 53.6997 37.6202 53.6406 37.658L37.9219 47.6737L35.0156 49.5174L34.9375 49.5487L31.5 57.283L40 57.533L40.0625 57.4862L42.9844 55.6424L58.0781 45.9549L57.9844 42.7049C57.7166 42.1805 57.4 41.6118 57.0312 41.0331C55.9804 39.3839 54.8649 38.0816 54.1719 37.6737C54.0564 37.6057 53.9477 37.5786 53.8594 37.5799V37.5799Z" fill="#0C0C0C"/>
<path d="M36.1248 47.1238C36.7194 46.6777 38.3875 47.5145 39.9205 49.0399C41.4499 50.5616 42.2557 52.1899 41.8197 52.7903C41.8181 52.7926 41.8572 52.8237 41.8555 52.8259L63.2015 31.3753C63.7435 30.8307 62.9014 29.1096 61.3197 27.5358C59.7381 25.962 58.0128 25.1285 57.4708 25.6731L36.1248 47.1238Z" fill="url(#paint11_linear)"/>
<path opacity="0.6" d="M36.1248 47.1238C36.7194 46.6776 38.3875 47.5145 39.9205 49.0399C41.4499 50.5616 42.2557 52.1899 41.8197 52.7903C41.8181 52.7925 41.8572 52.8237 41.8555 52.8259L56.5558 38.0535L56.609 38.0001C56.6105 37.9979 56.5715 37.9668 56.5732 37.9645C57.0092 37.3641 56.2034 35.7358 54.674 34.2141C53.1411 32.6887 51.4729 31.8518 50.8783 32.298L50.8251 32.3514L36.1248 47.1238H36.1248L36.1248 47.1238Z" fill="#F9C440"/>
<path d="M36.1248 47.1238C36.7194 46.6777 38.3875 47.5145 39.9205 49.0399C41.4499 50.5616 42.2557 52.1899 41.8197 52.7903C41.8181 52.7926 41.8572 52.8237 41.8555 52.8259L63.2015 31.3753C63.7435 30.8307 62.9014 29.1096 61.3197 27.5358C59.7381 25.962 58.0128 25.1285 57.4708 25.6731L36.1248 47.1238V47.1238Z" stroke="#AD5F00" stroke-width="0.5" stroke-linejoin="round"/>
<path d="M57.8916 25.5076C57.7155 25.5171 57.5723 25.5706 57.4707 25.6727L50.8789 32.2977C51.474 31.8527 53.1414 32.6889 54.6738 34.2137C56.2032 35.7354 57.0093 37.3643 56.5732 37.9647C56.5715 37.967 56.6109 37.9976 56.6094 37.9998L63.2012 31.3748C63.7431 30.8302 62.901 29.1098 61.3193 27.536C60.0342 26.2573 58.6546 25.4668 57.8916 25.5076Z" fill="url(#paint12_linear)" stroke="#555761" stroke-width="0.5" stroke-linejoin="round"/>
<path opacity="0.9" d="M54.8657 28.291C55.4603 27.8449 57.1285 28.6817 58.6615 30.2071C60.1908 31.7288 60.9966 33.3571 60.5606 33.9575C60.5591 33.9598 60.5981 33.9909 60.5964 33.9931L63.2015 31.3753L63.2547 31.3218C63.2562 31.3196 63.2172 31.2885 63.2189 31.2862C63.6549 30.6858 62.8491 29.0575 61.3197 27.5358C59.7867 26.0104 58.1186 25.1735 57.524 25.6197L57.4708 25.6731L54.8657 28.291H54.8657Z" fill="#FE9AB8" stroke="#DE3E80" stroke-width="0.5" stroke-linejoin="round"/>
<path d="M51.9458 31.2253C52.5403 30.7792 54.2085 31.6161 55.7415 33.1415C57.2709 34.6632 58.0767 36.2915 57.6406 36.8919C57.6391 36.8941 57.6781 36.9252 57.6764 36.9275L57.9423 36.6604C57.9438 36.6581 57.9048 36.627 57.9065 36.6247C58.3425 36.0244 57.5367 34.396 56.0074 32.8743C54.4744 31.349 52.8062 30.5121 52.2116 30.9582L51.9458 31.2253V31.2253V31.2253Z" fill="url(#paint13_linear)"/>
<path d="M51.7022 31.4701C52.2967 31.024 53.9649 31.8609 55.4979 33.3862C57.0272 34.908 57.833 36.5363 57.397 37.1366C57.3955 37.1389 57.4345 37.17 57.4328 37.1723L57.6986 36.9051C57.7001 36.9029 57.6611 36.8718 57.6628 36.8695C58.0989 36.2691 57.293 34.6408 55.7637 33.1191C54.2307 31.5937 52.5625 30.7569 51.968 31.203L51.7021 31.4701V31.4701H51.7022Z" fill="url(#paint14_linear)"/>
<path d="M52.7922 30.3746C53.3868 29.9285 55.055 30.7654 56.588 32.2907C58.1173 33.8125 58.9231 35.4408 58.4871 36.0411C58.4856 36.0434 58.5246 36.0745 58.5229 36.0768L58.7887 35.8097C58.7902 35.8074 58.7512 35.7763 58.7529 35.774C59.1889 35.1737 58.3831 33.5453 56.8538 32.0236C55.3208 30.4982 53.6526 29.6614 53.0581 30.1075L52.7922 30.3746H52.7922Z" fill="url(#paint15_linear)"/>
<path d="M52.5486 30.6194C53.1431 30.1733 54.8113 31.0102 56.3443 32.5355C57.8736 34.0573 58.6795 35.6856 58.2434 36.2859C58.2419 36.2882 58.2809 36.3193 58.2792 36.3216L58.5451 36.0544C58.5466 36.0522 58.5076 36.0211 58.5093 36.0188C58.9453 35.4184 58.1395 33.7901 56.6101 32.2684C55.0772 30.743 53.409 29.9061 52.8144 30.3523L52.5486 30.6194L52.5486 30.6194Z" fill="url(#paint16_linear)"/>
<path d="M53.6428 29.5198C54.2374 29.0737 55.9056 29.9106 57.4385 31.4359C58.9679 32.9576 59.7737 34.586 59.3377 35.1863C59.3362 35.1886 59.3752 35.2197 59.3735 35.222L59.6393 34.9548C59.6408 34.9526 59.6018 34.9215 59.6035 34.9192C60.0395 34.3188 59.2337 32.6905 57.7044 31.1688C56.1714 29.6434 54.5032 28.8065 53.9086 29.2527L53.6428 29.5198Z" fill="url(#paint17_linear)"/>
<path d="M53.3993 29.7646C53.9938 29.3185 55.662 30.1554 57.195 31.6807C58.7244 33.2025 59.5302 34.8308 59.0941 35.4311C59.0926 35.4334 59.1316 35.4645 59.1299 35.4668L59.3958 35.1996C59.3973 35.1974 59.3583 35.1663 59.36 35.164C59.796 34.5636 58.9902 32.9353 57.4609 31.4136C55.9279 29.8882 54.2597 29.0513 53.6651 29.4975L53.3993 29.7646H53.3993Z" fill="url(#paint18_linear)"/>
<path fill-rule="evenodd" clip-rule="evenodd" d="M32.0341 56.8327L41.7455 52.8717L41.8282 52.789C42.2642 52.1886 41.4479 50.5602 39.9186 49.0384C38.3856 47.5131 36.7194 46.6808 36.1248 47.127L32.0341 56.8327H32.0341Z" fill="url(#paint19_linear)" stroke="url(#paint20_linear)" stroke-width="0.5"/>
<path fill-rule="evenodd" clip-rule="evenodd" d="M33.1422 54.2039L32.0335 56.8223L34.6823 55.7364C34.47 55.4821 34.274 55.2238 34.0191 54.9702C33.7257 54.6782 33.437 54.4413 33.1422 54.2039Z" fill="#333333" stroke="#1A1A1A" stroke-width="0.5"/>
<defs>
<radialGradient id="paint0_radial" cx="0" cy="0" r="1" gradientUnits="userSpaceOnUse" gradientTransform="translate(32.0593 54.2621) scale(21.5593 6.73566)">
<stop stop-color="#3D3D3D"/>
<stop offset="0.5" stop-color="#686868" stop-opacity="0.498039"/>
<stop offset="1" stop-color="#686868" stop-opacity="0"/>
</radialGradient>
<linearGradient id="paint1_linear" x1="32" y1="59" x2="32" y2="5.5" gradientUnits="userSpaceOnUse">
<stop stop-color="#E9E9E9"/>
<stop offset="1" stop-color="#FAFAFA"/>
</linearGradient>
<linearGradient id="paint2_linear" x1="32" y1="59" x2="32" y2="5.5" gradientUnits="userSpaceOnUse">
<stop stop-color="#D2D2D2"/>
<stop offset="1" stop-color="white"/>
</linearGradient>
<linearGradient id="paint3_linear" x1="32" y1="12" x2="32" y2="38.75" gradientUnits="userSpaceOnUse">
<stop stop-color="#FFC27D"/>
<stop offset="0.307292" stop-color="#FFA154"/>
<stop offset="0.708333" stop-color="#F37329"/>
<stop offset="1" stop-color="#F37329"/>
</linearGradient>
<linearGradient id="paint4_linear" x1="28.75" y1="21.5" x2="17.7854" y2="32.0368" gradientUnits="userSpaceOnUse">
<stop stop-color="#FF8C82"/>
<stop offset="0.338542" stop-color="#ED5353"/>
<stop offset="0.697917" stop-color="#C6262E"/>
<stop offset="1" stop-color="#A10705"/>
</linearGradient>
<linearGradient id="paint5_linear" x1="25" y1="27.75" x2="18.75" y2="40.25" gradientUnits="userSpaceOnUse">
<stop stop-color="#FE9AB8"/>
<stop offset="0.328125" stop-color="#F4679D"/>
<stop offset="0.692708" stop-color="#DE3E80"/>
<stop offset="1" stop-color="#BC245D"/>
</linearGradient>
<linearGradient id="paint6_linear" x1="28.75" y1="32.5" x2="17.9472" y2="48.2137" gradientUnits="userSpaceOnUse">
<stop stop-color="#E4C6FA"/>
<stop offset="0.338542" stop-color="#CD9EF7"/>
<stop offset="0.723958" stop-color="#A56DE2"/>
<stop offset="1" stop-color="#7239B3"/>
</linearGradient>
<linearGradient id="paint7_linear" x1="32.0005" y1="33.1237" x2="32.0005" y2="52.1347" gradientUnits="userSpaceOnUse">
<stop stop-color="#8CD5FF"/>
<stop offset="0.328125" stop-color="#64BAFF"/>
<stop offset="0.682292" stop-color="#3689E6"/>
<stop offset="1" stop-color="#0D52BF"/>
</linearGradient>
<linearGradient id="paint8_linear" x1="34.75" y1="32.75" x2="41.047" y2="46.7288" gradientUnits="userSpaceOnUse">
<stop stop-color="#89FFDD"/>
<stop offset="0.348958" stop-color="#43D6B5"/>
<stop offset="0.703125" stop-color="#28BCA3"/>
<stop offset="1" stop-color="#0E9A83"/>
</linearGradient>
<linearGradient id="paint9_linear" x1="38" y1="28.5" x2="42.9989" y2="38.2506" gradientUnits="userSpaceOnUse">
<stop stop-color="#D1FF82"/>
<stop offset="0.328125" stop-color="#9BDB4D"/>
<stop offset="0.708333" stop-color="#68B723"/>
<stop offset="1" stop-color="#3A9104" stop-opacity="0.9"/>
</linearGradient>
<linearGradient id="paint10_linear" x1="37.0001" y1="19.75" x2="45.7197" y2="28.7793" gradientUnits="userSpaceOnUse">
<stop offset="0.0625" stop-color="#FFF394"/>
<stop offset="0.364583" stop-color="#FFE16B"/>
<stop offset="0.692708" stop-color="#F9C440"/>
<stop offset="1" stop-color="#D48E15"/>
</linearGradient>
<linearGradient id="paint11_linear" x1="47.0011" y1="36.207" x2="52.7338" y2="41.9118" gradientUnits="userSpaceOnUse">
<stop stop-color="#AD5F00"/>
<stop offset="0.134829" stop-color="#FFE16B"/>
<stop offset="0.202244" stop-color="#F9C440"/>
<stop offset="0.269659" stop-color="#FFF394"/>
<stop offset="0.446503" stop-color="#F9C440"/>
<stop offset="0.571141" stop-color="#F9C440"/>
<stop offset="0.720381" stop-color="#FFE16B"/>
<stop offset="1" stop-color="#AD5F00"/>
</linearGradient>
<linearGradient id="paint12_linear" x1="47.0011" y1="36.207" x2="52.7338" y2="41.9118" gradientUnits="userSpaceOnUse">
<stop stop-color="#555761"/>
<stop offset="0.134829" stop-color="#D4D4D4"/>
<stop offset="0.202244" stop-color="#ABACAE"/>
<stop offset="0.269659" stop-color="#FAFAFA"/>
<stop offset="0.446503" stop-color="#ABACAE"/>
<stop offset="0.571141" stop-color="#ABACAE"/>
<stop offset="0.720381" stop-color="#D4D4D4"/>
<stop offset="1" stop-color="#555761"/>
</linearGradient>
<linearGradient id="paint13_linear" x1="52.515" y1="30.5579" x2="58.2574" y2="36.2724" gradientUnits="userSpaceOnUse">
<stop stop-color="#555761"/>
<stop offset="0.5" stop-color="#ABACAE"/>
<stop offset="1" stop-color="#555761"/>
</linearGradient>
<linearGradient id="paint14_linear" x1="52.2713" y1="30.8027" x2="58.0138" y2="36.5171" gradientUnits="userSpaceOnUse">
<stop stop-color="#ABACAE"/>
<stop offset="0.5" stop-color="#FAFAFA"/>
<stop offset="1" stop-color="#ABACAE"/>
</linearGradient>
<linearGradient id="paint15_linear" x1="53.3614" y1="29.7072" x2="59.1039" y2="35.4216" gradientUnits="userSpaceOnUse">
<stop stop-color="#555761"/>
<stop offset="0.5" stop-color="#ABACAE"/>
<stop offset="1" stop-color="#555761"/>
</linearGradient>
<linearGradient id="paint16_linear" x1="53.1177" y1="29.952" x2="58.8602" y2="35.6664" gradientUnits="userSpaceOnUse">
<stop stop-color="#ABACAE"/>
<stop offset="0.5" stop-color="#FAFAFA"/>
<stop offset="1" stop-color="#ABACAE"/>
</linearGradient>
<linearGradient id="paint17_linear" x1="54.212" y1="28.8524" x2="59.9544" y2="34.5668" gradientUnits="userSpaceOnUse">
<stop stop-color="#555761"/>
<stop offset="0.5" stop-color="#ABACAE"/>
<stop offset="1" stop-color="#555761"/>
</linearGradient>
<linearGradient id="paint18_linear" x1="53.9685" y1="29.0972" x2="59.7109" y2="34.8116" gradientUnits="userSpaceOnUse">
<stop stop-color="#ABACAE"/>
<stop offset="0.5" stop-color="#FAFAFA"/>
<stop offset="1" stop-color="#ABACAE"/>
</linearGradient>
<linearGradient id="paint19_linear" x1="38.9575" y1="53.5044" x2="35.4883" y2="50.0521" gradientUnits="userSpaceOnUse">
<stop stop-color="#FFF394"/>
<stop offset="1" stop-color="#FAFAFA"/>
</linearGradient>
<linearGradient id="paint20_linear" x1="34.2679" y1="51.2905" x2="37.384" y2="54.4242" gradientUnits="userSpaceOnUse">
<stop stop-color="#D48E15"/>
<stop offset="1" stop-color="#AD5F00"/>
</linearGradient>
</defs>
</svg>
